solid OpenSCAD_Model
  facet normal -1 0 0
    outer loop
      vertex 0 0 0
      vertex 0 5 5
      vertex 0 5 0
    endloop
  endfacet
  facet normal -1 -0 0
    outer loop
      vertex 0 5 5
      vertex 0 0 0
      vertex 0 0 5
    endloop
  endfacet
  facet normal -0 0 1
    outer loop
      vertex 0 5 5
      vertex 5 0 5
      vertex 5 5 5
    endloop
  endfacet
  facet normal 0 0 1
    outer loop
      vertex 5 0 5
      vertex 0 5 5
      vertex 0 0 5
    endloop
  endfacet
  facet normal 1 -0 0
    outer loop
      vertex 5 0 5
      vertex 5 5 0
      vertex 5 5 5
    endloop
  endfacet
  facet normal 1 0 0
    outer loop
      vertex 5 5 0
      vertex 5 0 5
      vertex 5 0 0
    endloop
  endfacet
  facet normal 0 1 0
    outer loop
      vertex 3 5 4
      vertex 5 5 5
      vertex 4 5 4
    endloop
  endfacet
  facet normal 0 1 0
    outer loop
      vertex 5 5 5
      vertex 4 5 3
      vertex 4 5 4
    endloop
  endfacet
  facet normal 0 1 0
    outer loop
      vertex 4 5 3
      vertex 2 5 2
      vertex 3 5 3
    endloop
  endfacet
  facet normal 0 1 0
    outer loop
      vertex 4 5 3
      vertex 2 5 1
      vertex 2 5 2
    endloop
  endfacet
  facet normal 0 1 0
    outer loop
      vertex 0 5 0
      vertex 2 5 1
      vertex 5 5 0
    endloop
  endfacet
  facet normal 0 1 0
    outer loop
      vertex 4 5 3
      vertex 5 5 0
      vertex 2 5 1
    endloop
  endfacet
  facet normal 0 1 -0
    outer loop
      vertex 5 5 0
      vertex 4 5 3
      vertex 5 5 5
    endloop
  endfacet
  facet normal 0 1 0
    outer loop
      vertex 5 5 5
      vertex 3 5 4
      vertex 0 5 5
    endloop
  endfacet
  facet normal 0 1 0
    outer loop
      vertex 1 5 2
      vertex 3 5 4
      vertex 3 5 3
    endloop
  endfacet
  facet normal 0 1 0
    outer loop
      vertex 1 5 2
      vertex 3 5 3
      vertex 2 5 2
    endloop
  endfacet
  facet normal 0 1 0
    outer loop
      vertex 3 5 4
      vertex 1 5 2
      vertex 0 5 5
    endloop
  endfacet
  facet normal 0 1 0
    outer loop
      vertex 0 5 0
      vertex 1 5 2
      vertex 1 5 1
    endloop
  endfacet
  facet normal 0 1 0
    outer loop
      vertex 1 5 2
      vertex 0 5 0
      vertex 0 5 5
    endloop
  endfacet
  facet normal 0 1 0
    outer loop
      vertex 2 5 1
      vertex 0 5 0
      vertex 1 5 1
    endloop
  endfacet
  facet normal 0 0 -1
    outer loop
      vertex 0 0 0
      vertex 5 5 0
      vertex 5 0 0
    endloop
  endfacet
  facet normal -0 0 -1
    outer loop
      vertex 5 5 0
      vertex 0 0 0
      vertex 0 5 0
    endloop
  endfacet
  facet normal 0 -1 0
    outer loop
      vertex 0 0 5
      vertex 3 0 4
      vertex 5 0 5
    endloop
  endfacet
  facet normal 0 -1 0
    outer loop
      vertex 1 0 2
      vertex 3 0 4
      vertex 0 0 5
    endloop
  endfacet
  facet normal 0 -1 0
    outer loop
      vertex 2 0 2
      vertex 3 0 3
      vertex 1 0 2
    endloop
  endfacet
  facet normal 0 -1 -0
    outer loop
      vertex 3 0 4
      vertex 1 0 2
      vertex 3 0 3
    endloop
  endfacet
  facet normal 0 -1 0
    outer loop
      vertex 0 0 0
      vertex 1 0 2
      vertex 0 0 5
    endloop
  endfacet
  facet normal 0 -1 -0
    outer loop
      vertex 1 0 1
      vertex 0 0 0
      vertex 2 0 1
    endloop
  endfacet
  facet normal 0 -1 -0
    outer loop
      vertex 1 0 2
      vertex 0 0 0
      vertex 1 0 1
    endloop
  endfacet
  facet normal 0 -1 0
    outer loop
      vertex 4 0 4
      vertex 5 0 5
      vertex 3 0 4
    endloop
  endfacet
  facet normal 0 -1 0
    outer loop
      vertex 4 0 3
      vertex 5 0 5
      vertex 4 0 4
    endloop
  endfacet
  facet normal 0 -1 -0
    outer loop
      vertex 3 0 3
      vertex 2 0 2
      vertex 4 0 3
    endloop
  endfacet
  facet normal 0 -1 0
    outer loop
      vertex 2 0 1
      vertex 4 0 3
      vertex 2 0 2
    endloop
  endfacet
  facet normal 0 -1 0
    outer loop
      vertex 4 0 3
      vertex 5 0 0
      vertex 5 0 5
    endloop
  endfacet
  facet normal 0 -1 0
    outer loop
      vertex 2 0 1
      vertex 5 0 0
      vertex 4 0 3
    endloop
  endfacet
  facet normal 0 -1 0
    outer loop
      vertex 5 0 0
      vertex 2 0 1
      vertex 0 0 0
    endloop
  endfacet
  facet normal 1 -0 0
    outer loop
      vertex 1 0 2
      vertex 1 5 1
      vertex 1 5 2
    endloop
  endfacet
  facet normal 1 0 0
    outer loop
      vertex 1 5 1
      vertex 1 0 2
      vertex 1 0 1
    endloop
  endfacet
  facet normal 0 0 -1
    outer loop
      vertex 1 0 2
      vertex 2 5 2
      vertex 2 0 2
    endloop
  endfacet
  facet normal -0 0 -1
    outer loop
      vertex 2 5 2
      vertex 1 0 2
      vertex 1 5 2
    endloop
  endfacet
  facet normal -1 0 0
    outer loop
      vertex 2 0 1
      vertex 2 5 2
      vertex 2 5 1
    endloop
  endfacet
  facet normal -1 -0 0
    outer loop
      vertex 2 5 2
      vertex 2 0 1
      vertex 2 0 2
    endloop
  endfacet
  facet normal -0 0 1
    outer loop
      vertex 1 5 1
      vertex 2 0 1
      vertex 2 5 1
    endloop
  endfacet
  facet normal 0 0 1
    outer loop
      vertex 2 0 1
      vertex 1 5 1
      vertex 1 0 1
    endloop
  endfacet
  facet normal 1 -0 0
    outer loop
      vertex 3 0 4
      vertex 3 5 3
      vertex 3 5 4
    endloop
  endfacet
  facet normal 1 0 0
    outer loop
      vertex 3 5 3
      vertex 3 0 4
      vertex 3 0 3
    endloop
  endfacet
  facet normal 0 0 -1
    outer loop
      vertex 3 0 4
      vertex 4 5 4
      vertex 4 0 4
    endloop
  endfacet
  facet normal -0 0 -1
    outer loop
      vertex 4 5 4
      vertex 3 0 4
      vertex 3 5 4
    endloop
  endfacet
  facet normal -1 0 0
    outer loop
      vertex 4 0 3
      vertex 4 5 4
      vertex 4 5 3
    endloop
  endfacet
  facet normal -1 -0 0
    outer loop
      vertex 4 5 4
      vertex 4 0 3
      vertex 4 0 4
    endloop
  endfacet
  facet normal -0 0 1
    outer loop
      vertex 3 5 3
      vertex 4 0 3
      vertex 4 5 3
    endloop
  endfacet
  facet normal 0 0 1
    outer loop
      vertex 4 0 3
      vertex 3 5 3
      vertex 3 0 3
    endloop
  endfacet
endsolid OpenSCAD_Model
