solid REINCARNATE
facet normal -1.0000000000 0.0000000000 0.0000000000
  outer loop
    vertex 0.0000000000 1.0000000000 1.0000000000
    vertex 0.0000000000 1.0000000000 0.0000000000
    vertex 0.0000000000 0.0000000000 0.0000000000
  endloop
endfacet
facet normal -1.0000000000 0.0000000000 0.0000000000
  outer loop
    vertex 0.0000000000 0.0000000000 0.0000000000
    vertex 0.0000000000 0.0000000000 1.0000000000
    vertex 0.0000000000 1.0000000000 1.0000000000
  endloop
endfacet
facet normal 0.0000000000 0.0000000000 0.1600008000
  outer loop
    vertex 0.2000000000 0.7999990000 1.0000000000
    vertex 1.0000000000 0.7999990000 1.0000000000
    vertex 1.0000000000 1.0000000000 1.0000000000
  endloop
endfacet
facet normal 0.0000000000 0.0000000000 0.0400000000
  outer loop
    vertex 0.0000000000 1.0000000000 1.0000000000
    vertex 0.2000000000 0.5999990000 1.0000000000
    vertex 0.2000000000 0.7999990000 1.0000000000
  endloop
endfacet
facet normal 0.0000000000 0.0000000000 0.0399998000
  outer loop
    vertex 0.0000000000 1.0000000000 1.0000000000
    vertex 0.2000000000 0.4000000000 1.0000000000
    vertex 0.2000000000 0.5999990000 1.0000000000
  endloop
endfacet
facet normal -0.0000000000 0.0000000000 0.2000010000
  outer loop
    vertex 0.0000000000 1.0000000000 1.0000000000
    vertex 0.2000000000 0.7999990000 1.0000000000
    vertex 1.0000000000 1.0000000000 1.0000000000
  endloop
endfacet
facet normal 0.0000000000 0.0000000000 0.2000000000
  outer loop
    vertex 0.2000000000 0.4000000000 1.0000000000
    vertex 0.0000000000 1.0000000000 1.0000000000
    vertex 0.0000000000 0.0000000000 1.0000000000
  endloop
endfacet
facet normal 0.0000000000 0.0000000000 0.0800000000
  outer loop
    vertex 0.0000000000 0.0000000000 1.0000000000
    vertex 0.2000000000 0.0000000000 1.0000000000
    vertex 0.2000000000 0.4000000000 1.0000000000
  endloop
endfacet
facet normal -0.0000000000 0.0000000000 0.0799994000
  outer loop
    vertex 0.2000000000 0.5999990000 1.0000000000
    vertex 0.5999990000 0.4000000000 1.0000000000
    vertex 0.5999990000 0.5999990000 1.0000000000
  endloop
endfacet
facet normal 0.0000000000 0.0000000000 0.0799994000
  outer loop
    vertex 0.5999990000 0.4000000000 1.0000000000
    vertex 0.2000000000 0.5999990000 1.0000000000
    vertex 0.2000000000 0.4000000000 1.0000000000
  endloop
endfacet
facet normal 0.2000010000 -0.0000000000 0.0000000000
  outer loop
    vertex 1.0000000000 0.7999990000 1.0000000000
    vertex 1.0000000000 1.0000000000 0.0000000000
    vertex 1.0000000000 1.0000000000 1.0000000000
  endloop
endfacet
facet normal 0.2000010000 0.0000000000 0.0000000000
  outer loop
    vertex 1.0000000000 1.0000000000 0.0000000000
    vertex 1.0000000000 0.7999990000 1.0000000000
    vertex 1.0000000000 0.7999990000 0.0000000000
  endloop
endfacet
facet normal 0.0000000000 0.0000000000 -0.0800000000
  outer loop
    vertex 0.2000000000 0.4000000000 0.0000000000
    vertex 0.2000000000 0.0000000000 0.0000000000
    vertex 0.0000000000 0.0000000000 0.0000000000
  endloop
endfacet
facet normal 0.0000000000 0.0000000000 -0.0399998000
  outer loop
    vertex 0.2000000000 0.5999990000 0.0000000000
    vertex 0.2000000000 0.4000000000 0.0000000000
    vertex 0.0000000000 0.0000000000 0.0000000000
  endloop
endfacet
facet normal 0.0000000000 0.0000000000 -0.2000000000
  outer loop
    vertex 0.0000000000 0.0000000000 0.0000000000
    vertex 0.0000000000 1.0000000000 0.0000000000
    vertex 0.2000000000 0.5999990000 0.0000000000
  endloop
endfacet
facet normal 0.0000000000 0.0000000000 -0.0799994000
  outer loop
    vertex 0.5999990000 0.5999990000 0.0000000000
    vertex 0.5999990000 0.4000000000 0.0000000000
    vertex 0.2000000000 0.4000000000 0.0000000000
  endloop
endfacet
facet normal 0.0000000000 0.0000000000 -0.0799994000
  outer loop
    vertex 0.2000000000 0.4000000000 0.0000000000
    vertex 0.2000000000 0.5999990000 0.0000000000
    vertex 0.5999990000 0.5999990000 0.0000000000
  endloop
endfacet
facet normal 0.0000000000 0.0000000000 -0.1600008000
  outer loop
    vertex 1.0000000000 1.0000000000 0.0000000000
    vertex 1.0000000000 0.7999990000 0.0000000000
    vertex 0.2000000000 0.7999990000 0.0000000000
  endloop
endfacet
facet normal 0.0000000000 0.0000000000 -0.2000010000
  outer loop
    vertex 1.0000000000 1.0000000000 0.0000000000
    vertex 0.2000000000 0.7999990000 0.0000000000
    vertex 0.0000000000 1.0000000000 0.0000000000
  endloop
endfacet
facet normal 0.0000000000 0.0000000000 -0.0400000000
  outer loop
    vertex 0.2000000000 0.7999990000 0.0000000000
    vertex 0.2000000000 0.5999990000 0.0000000000
    vertex 0.0000000000 1.0000000000 0.0000000000
  endloop
endfacet
facet normal 0.0000000000 -0.2000000000 0.0000000000
  outer loop
    vertex 0.2000000000 0.0000000000 1.0000000000
    vertex 0.0000000000 0.0000000000 1.0000000000
    vertex 0.0000000000 0.0000000000 0.0000000000
  endloop
endfacet
facet normal 0.0000000000 -0.2000000000 0.0000000000
  outer loop
    vertex 0.0000000000 0.0000000000 0.0000000000
    vertex 0.2000000000 0.0000000000 0.0000000000
    vertex 0.2000000000 0.0000000000 1.0000000000
  endloop
endfacet
facet normal -0.0000000000 1.0000000000 0.0000000000
  outer loop
    vertex 1.0000000000 1.0000000000 1.0000000000
    vertex 1.0000000000 1.0000000000 0.0000000000
    vertex 0.0000000000 1.0000000000 1.0000000000
  endloop
endfacet
facet normal 0.0000000000 1.0000000000 0.0000000000
  outer loop
    vertex 0.0000000000 1.0000000000 0.0000000000
    vertex 0.0000000000 1.0000000000 1.0000000000
    vertex 1.0000000000 1.0000000000 0.0000000000
  endloop
endfacet
facet normal 0.2000000000 -0.0000000000 0.0000000000
  outer loop
    vertex 0.2000000000 0.5999990000 1.0000000000
    vertex 0.2000000000 0.7999990000 0.0000000000
    vertex 0.2000000000 0.7999990000 1.0000000000
  endloop
endfacet
facet normal 0.2000000000 0.0000000000 0.0000000000
  outer loop
    vertex 0.2000000000 0.7999990000 0.0000000000
    vertex 0.2000000000 0.5999990000 1.0000000000
    vertex 0.2000000000 0.5999990000 0.0000000000
  endloop
endfacet
facet normal -0.0000000000 0.3999990000 0.0000000000
  outer loop
    vertex 0.5999990000 0.5999990000 1.0000000000
    vertex 0.5999990000 0.5999990000 0.0000000000
    vertex 0.2000000000 0.5999990000 1.0000000000
  endloop
endfacet
facet normal 0.0000000000 0.3999990000 0.0000000000
  outer loop
    vertex 0.2000000000 0.5999990000 0.0000000000
    vertex 0.2000000000 0.5999990000 1.0000000000
    vertex 0.5999990000 0.5999990000 0.0000000000
  endloop
endfacet
facet normal 0.0000000000 -0.8000000000 0.0000000000
  outer loop
    vertex 1.0000000000 0.7999990000 1.0000000000
    vertex 0.2000000000 0.7999990000 1.0000000000
    vertex 0.2000000000 0.7999990000 0.0000000000
  endloop
endfacet
facet normal 0.0000000000 -0.8000000000 0.0000000000
  outer loop
    vertex 0.2000000000 0.7999990000 0.0000000000
    vertex 1.0000000000 0.7999990000 0.0000000000
    vertex 1.0000000000 0.7999990000 1.0000000000
  endloop
endfacet
facet normal 0.4000000000 -0.0000000000 0.0000000000
  outer loop
    vertex 0.2000000000 0.0000000000 1.0000000000
    vertex 0.2000000000 0.4000000000 0.0000000000
    vertex 0.2000000000 0.4000000000 1.0000000000
  endloop
endfacet
facet normal 0.4000000000 0.0000000000 0.0000000000
  outer loop
    vertex 0.2000000000 0.4000000000 0.0000000000
    vertex 0.2000000000 0.0000000000 1.0000000000
    vertex 0.2000000000 0.0000000000 0.0000000000
  endloop
endfacet
facet normal 0.0000000000 -0.3999990000 0.0000000000
  outer loop
    vertex 0.5999990000 0.4000000000 1.0000000000
    vertex 0.2000000000 0.4000000000 1.0000000000
    vertex 0.2000000000 0.4000000000 0.0000000000
  endloop
endfacet
facet normal 0.0000000000 -0.3999990000 0.0000000000
  outer loop
    vertex 0.2000000000 0.4000000000 0.0000000000
    vertex 0.5999990000 0.4000000000 0.0000000000
    vertex 0.5999990000 0.4000000000 1.0000000000
  endloop
endfacet
facet normal 0.1999990000 -0.0000000000 0.0000000000
  outer loop
    vertex 0.5999990000 0.4000000000 1.0000000000
    vertex 0.5999990000 0.5999990000 0.0000000000
    vertex 0.5999990000 0.5999990000 1.0000000000
  endloop
endfacet
facet normal 0.1999990000 0.0000000000 0.0000000000
  outer loop
    vertex 0.5999990000 0.5999990000 0.0000000000
    vertex 0.5999990000 0.4000000000 1.0000000000
    vertex 0.5999990000 0.4000000000 0.0000000000
  endloop
endfacet
endsolid REINCARNATE