solid OpenSCAD_Model
  facet normal 0 0 -1
    outer loop
      vertex 110.75 4.96891 0
      vertex 110.75 11.0311 0
      vertex 112.5 8 0
    endloop
  endfacet
  facet normal 0 0 -1
    outer loop
      vertex 107.25 4.96891 0
      vertex 110.75 11.0311 0
      vertex 110.75 4.96891 0
    endloop
  endfacet
  facet normal 0 0 -1
    outer loop
      vertex 107.25 4.96891 0
      vertex 107.25 11.0311 0
      vertex 110.75 11.0311 0
    endloop
  endfacet
  facet normal 0 -0 -1
    outer loop
      vertex 107.25 11.0311 0
      vertex 107.25 4.96891 0
      vertex 105.5 8 0
    endloop
  endfacet
  facet normal 0.866025 0.5 0
    outer loop
      vertex 112.5 8 5
      vertex 110.75 11.0311 0
      vertex 110.75 11.0311 5
    endloop
  endfacet
  facet normal 0.866025 0.5 0
    outer loop
      vertex 110.75 11.0311 0
      vertex 112.5 8 5
      vertex 112.5 8 0
    endloop
  endfacet
  facet normal 0 -1 0
    outer loop
      vertex 107.25 4.96891 0
      vertex 110.75 4.96891 5
      vertex 107.25 4.96891 5
    endloop
  endfacet
  facet normal 0 -1 -0
    outer loop
      vertex 110.75 4.96891 5
      vertex 107.25 4.96891 0
      vertex 110.75 4.96891 0
    endloop
  endfacet
  facet normal -0.866025 0.5 0
    outer loop
      vertex 105.5 8 0
      vertex 107.25 11.0311 5
      vertex 107.25 11.0311 0
    endloop
  endfacet
  facet normal -0.866025 0.5 0
    outer loop
      vertex 107.25 11.0311 5
      vertex 105.5 8 0
      vertex 105.5 8 5
    endloop
  endfacet
  facet normal 0 1 -0
    outer loop
      vertex 110.75 11.0311 0
      vertex 107.25 11.0311 5
      vertex 110.75 11.0311 5
    endloop
  endfacet
  facet normal 0 1 0
    outer loop
      vertex 107.25 11.0311 5
      vertex 110.75 11.0311 0
      vertex 107.25 11.0311 0
    endloop
  endfacet
  facet normal -0.866025 -0.5 0
    outer loop
      vertex 107.25 4.96891 0
      vertex 105.5 8 5
      vertex 105.5 8 0
    endloop
  endfacet
  facet normal -0.866025 -0.5 0
    outer loop
      vertex 105.5 8 5
      vertex 107.25 4.96891 0
      vertex 107.25 4.96891 5
    endloop
  endfacet
  facet normal 0.866025 -0.5 0
    outer loop
      vertex 110.75 4.96891 5
      vertex 112.5 8 0
      vertex 112.5 8 5
    endloop
  endfacet
  facet normal 0.866025 -0.5 0
    outer loop
      vertex 112.5 8 0
      vertex 110.75 4.96891 5
      vertex 110.75 4.96891 0
    endloop
  endfacet
  facet normal 0 0 1
    outer loop
      vertex 110.75 11.0311 5
      vertex 110.75 4.96891 5
      vertex 112.5 8 5
    endloop
  endfacet
  facet normal -0 0 1
    outer loop
      vertex 107.25 11.0311 5
      vertex 110.75 4.96891 5
      vertex 110.75 11.0311 5
    endloop
  endfacet
  facet normal 0 0 1
    outer loop
      vertex 107.25 11.0311 5
      vertex 107.25 4.96891 5
      vertex 110.75 4.96891 5
    endloop
  endfacet
  facet normal 0 -0 1
    outer loop
      vertex 107.25 4.96891 5
      vertex 107.25 11.0311 5
      vertex 105.5 8 5
    endloop
  endfacet
  facet normal 0 0 -1
    outer loop
      vertex 121.5 5.40192 0
      vertex 121.5 10.5981 0
      vertex 123 8 0
    endloop
  endfacet
  facet normal 0 0 -1
    outer loop
      vertex 118.5 5.40192 0
      vertex 121.5 10.5981 0
      vertex 121.5 5.40192 0
    endloop
  endfacet
  facet normal 0 0 -1
    outer loop
      vertex 118.5 5.40192 0
      vertex 118.5 10.5981 0
      vertex 121.5 10.5981 0
    endloop
  endfacet
  facet normal 0 -0 -1
    outer loop
      vertex 118.5 10.5981 0
      vertex 118.5 5.40192 0
      vertex 117 8 0
    endloop
  endfacet
  facet normal 0.866025 0.5 0
    outer loop
      vertex 123 8 5
      vertex 121.5 10.5981 0
      vertex 121.5 10.5981 5
    endloop
  endfacet
  facet normal 0.866025 0.5 0
    outer loop
      vertex 121.5 10.5981 0
      vertex 123 8 5
      vertex 123 8 0
    endloop
  endfacet
  facet normal 0 -1 0
    outer loop
      vertex 118.5 5.40192 0
      vertex 121.5 5.40192 5
      vertex 118.5 5.40192 5
    endloop
  endfacet
  facet normal 0 -1 -0
    outer loop
      vertex 121.5 5.40192 5
      vertex 118.5 5.40192 0
      vertex 121.5 5.40192 0
    endloop
  endfacet
  facet normal -0.866025 0.5 0
    outer loop
      vertex 117 8 0
      vertex 118.5 10.5981 5
      vertex 118.5 10.5981 0
    endloop
  endfacet
  facet normal -0.866025 0.5 0
    outer loop
      vertex 118.5 10.5981 5
      vertex 117 8 0
      vertex 117 8 5
    endloop
  endfacet
  facet normal 0 1 -0
    outer loop
      vertex 121.5 10.5981 0
      vertex 118.5 10.5981 5
      vertex 121.5 10.5981 5
    endloop
  endfacet
  facet normal 0 1 0
    outer loop
      vertex 118.5 10.5981 5
      vertex 121.5 10.5981 0
      vertex 118.5 10.5981 0
    endloop
  endfacet
  facet normal -0.866025 -0.5 0
    outer loop
      vertex 118.5 5.40192 0
      vertex 117 8 5
      vertex 117 8 0
    endloop
  endfacet
  facet normal -0.866025 -0.5 0
    outer loop
      vertex 117 8 5
      vertex 118.5 5.40192 0
      vertex 118.5 5.40192 5
    endloop
  endfacet
  facet normal 0.866025 -0.5 0
    outer loop
      vertex 121.5 5.40192 5
      vertex 123 8 0
      vertex 123 8 5
    endloop
  endfacet
  facet normal 0.866025 -0.5 0
    outer loop
      vertex 123 8 0
      vertex 121.5 5.40192 5
      vertex 121.5 5.40192 0
    endloop
  endfacet
  facet normal 0 0 1
    outer loop
      vertex 121.5 10.5981 5
      vertex 121.5 5.40192 5
      vertex 123 8 5
    endloop
  endfacet
  facet normal -0 0 1
    outer loop
      vertex 118.5 10.5981 5
      vertex 121.5 5.40192 5
      vertex 121.5 10.5981 5
    endloop
  endfacet
  facet normal 0 0 1
    outer loop
      vertex 118.5 10.5981 5
      vertex 118.5 5.40192 5
      vertex 121.5 5.40192 5
    endloop
  endfacet
  facet normal 0 -0 1
    outer loop
      vertex 118.5 5.40192 5
      vertex 118.5 10.5981 5
      vertex 117 8 5
    endloop
  endfacet
  facet normal 0 0 -1
    outer loop
      vertex 121.5 20.4019 0
      vertex 121.5 25.5981 0
      vertex 123 23 0
    endloop
  endfacet
  facet normal 0 0 -1
    outer loop
      vertex 118.5 20.4019 0
      vertex 121.5 25.5981 0
      vertex 121.5 20.4019 0
    endloop
  endfacet
  facet normal 0 0 -1
    outer loop
      vertex 118.5 20.4019 0
      vertex 118.5 25.5981 0
      vertex 121.5 25.5981 0
    endloop
  endfacet
  facet normal 0 -0 -1
    outer loop
      vertex 118.5 25.5981 0
      vertex 118.5 20.4019 0
      vertex 117 23 0
    endloop
  endfacet
  facet normal 0.866025 0.5 0
    outer loop
      vertex 123 23 5
      vertex 121.5 25.5981 0
      vertex 121.5 25.5981 5
    endloop
  endfacet
  facet normal 0.866025 0.5 0
    outer loop
      vertex 121.5 25.5981 0
      vertex 123 23 5
      vertex 123 23 0
    endloop
  endfacet
  facet normal 0 -1 0
    outer loop
      vertex 118.5 20.4019 0
      vertex 121.5 20.4019 5
      vertex 118.5 20.4019 5
    endloop
  endfacet
  facet normal 0 -1 -0
    outer loop
      vertex 121.5 20.4019 5
      vertex 118.5 20.4019 0
      vertex 121.5 20.4019 0
    endloop
  endfacet
  facet normal -0.866025 0.5 0
    outer loop
      vertex 117 23 0
      vertex 118.5 25.5981 5
      vertex 118.5 25.5981 0
    endloop
  endfacet
  facet normal -0.866025 0.5 0
    outer loop
      vertex 118.5 25.5981 5
      vertex 117 23 0
      vertex 117 23 5
    endloop
  endfacet
  facet normal 0 1 -0
    outer loop
      vertex 121.5 25.5981 0
      vertex 118.5 25.5981 5
      vertex 121.5 25.5981 5
    endloop
  endfacet
  facet normal 0 1 0
    outer loop
      vertex 118.5 25.5981 5
      vertex 121.5 25.5981 0
      vertex 118.5 25.5981 0
    endloop
  endfacet
  facet normal -0.866025 -0.5 0
    outer loop
      vertex 118.5 20.4019 0
      vertex 117 23 5
      vertex 117 23 0
    endloop
  endfacet
  facet normal -0.866025 -0.5 0
    outer loop
      vertex 117 23 5
      vertex 118.5 20.4019 0
      vertex 118.5 20.4019 5
    endloop
  endfacet
  facet normal 0 0 1
    outer loop
      vertex 121.5 25.5981 5
      vertex 121.5 20.4019 5
      vertex 123 23 5
    endloop
  endfacet
  facet normal -0 0 1
    outer loop
      vertex 118.5 25.5981 5
      vertex 121.5 20.4019 5
      vertex 121.5 25.5981 5
    endloop
  endfacet
  facet normal 0 0 1
    outer loop
      vertex 118.5 25.5981 5
      vertex 118.5 20.4019 5
      vertex 121.5 20.4019 5
    endloop
  endfacet
  facet normal 0 -0 1
    outer loop
      vertex 118.5 20.4019 5
      vertex 118.5 25.5981 5
      vertex 117 23 5
    endloop
  endfacet
  facet normal 0.866025 -0.5 0
    outer loop
      vertex 121.5 20.4019 5
      vertex 123 23 0
      vertex 123 23 5
    endloop
  endfacet
  facet normal 0.866025 -0.5 0
    outer loop
      vertex 123 23 0
      vertex 121.5 20.4019 5
      vertex 121.5 20.4019 0
    endloop
  endfacet
  facet normal 0 0 -1
    outer loop
      vertex 111.25 20.8349 0
      vertex 111.25 25.1651 0
      vertex 112.5 23 0
    endloop
  endfacet
  facet normal 0 0 -1
    outer loop
      vertex 108.75 20.8349 0
      vertex 111.25 25.1651 0
      vertex 111.25 20.8349 0
    endloop
  endfacet
  facet normal 0 0 -1
    outer loop
      vertex 108.75 20.8349 0
      vertex 108.75 25.1651 0
      vertex 111.25 25.1651 0
    endloop
  endfacet
  facet normal 0 -0 -1
    outer loop
      vertex 108.75 25.1651 0
      vertex 108.75 20.8349 0
      vertex 107.5 23 0
    endloop
  endfacet
  facet normal 0.866025 0.5 0
    outer loop
      vertex 112.5 23 5
      vertex 111.25 25.1651 0
      vertex 111.25 25.1651 5
    endloop
  endfacet
  facet normal 0.866025 0.5 0
    outer loop
      vertex 111.25 25.1651 0
      vertex 112.5 23 5
      vertex 112.5 23 0
    endloop
  endfacet
  facet normal 0 -1 0
    outer loop
      vertex 108.75 20.8349 0
      vertex 111.25 20.8349 5
      vertex 108.75 20.8349 5
    endloop
  endfacet
  facet normal 0 -1 -0
    outer loop
      vertex 111.25 20.8349 5
      vertex 108.75 20.8349 0
      vertex 111.25 20.8349 0
    endloop
  endfacet
  facet normal -0.866025 0.5 0
    outer loop
      vertex 107.5 23 0
      vertex 108.75 25.1651 5
      vertex 108.75 25.1651 0
    endloop
  endfacet
  facet normal -0.866025 0.5 0
    outer loop
      vertex 108.75 25.1651 5
      vertex 107.5 23 0
      vertex 107.5 23 5
    endloop
  endfacet
  facet normal 0 1 -0
    outer loop
      vertex 111.25 25.1651 0
      vertex 108.75 25.1651 5
      vertex 111.25 25.1651 5
    endloop
  endfacet
  facet normal 0 1 0
    outer loop
      vertex 108.75 25.1651 5
      vertex 111.25 25.1651 0
      vertex 108.75 25.1651 0
    endloop
  endfacet
  facet normal -0.866025 -0.5 0
    outer loop
      vertex 108.75 20.8349 0
      vertex 107.5 23 5
      vertex 107.5 23 0
    endloop
  endfacet
  facet normal -0.866025 -0.5 0
    outer loop
      vertex 107.5 23 5
      vertex 108.75 20.8349 0
      vertex 108.75 20.8349 5
    endloop
  endfacet
  facet normal 0.866025 -0.5 0
    outer loop
      vertex 111.25 20.8349 5
      vertex 112.5 23 0
      vertex 112.5 23 5
    endloop
  endfacet
  facet normal 0.866025 -0.5 0
    outer loop
      vertex 112.5 23 0
      vertex 111.25 20.8349 5
      vertex 111.25 20.8349 0
    endloop
  endfacet
  facet normal 0 0 1
    outer loop
      vertex 111.25 25.1651 5
      vertex 111.25 20.8349 5
      vertex 112.5 23 5
    endloop
  endfacet
  facet normal -0 0 1
    outer loop
      vertex 108.75 25.1651 5
      vertex 111.25 20.8349 5
      vertex 111.25 25.1651 5
    endloop
  endfacet
  facet normal 0 0 1
    outer loop
      vertex 108.75 25.1651 5
      vertex 108.75 20.8349 5
      vertex 111.25 20.8349 5
    endloop
  endfacet
  facet normal 0 -0 1
    outer loop
      vertex 108.75 20.8349 5
      vertex 108.75 25.1651 5
      vertex 107.5 23 5
    endloop
  endfacet
  facet normal 0.866025 0.500001 0
    outer loop
      vertex 102.3 23 5
      vertex 101.15 24.9919 0
      vertex 101.15 24.9919 5
    endloop
  endfacet
  facet normal 0.866025 0.500001 0
    outer loop
      vertex 101.15 24.9919 0
      vertex 102.3 23 5
      vertex 102.3 23 0
    endloop
  endfacet
  facet normal -0.866025 -0.5 0
    outer loop
      vertex 98.85 21.0081 0
      vertex 97.7 23 5
      vertex 97.7 23 0
    endloop
  endfacet
  facet normal -0.866025 -0.5 0
    outer loop
      vertex 97.7 23 5
      vertex 98.85 21.0081 0
      vertex 98.85 21.0081 5
    endloop
  endfacet
  facet normal 0 1 -0
    outer loop
      vertex 101.15 24.9919 0
      vertex 98.85 24.9919 5
      vertex 101.15 24.9919 5
    endloop
  endfacet
  facet normal 0 1 0
    outer loop
      vertex 98.85 24.9919 5
      vertex 101.15 24.9919 0
      vertex 98.85 24.9919 0
    endloop
  endfacet
  facet normal 0 -1 0
    outer loop
      vertex 98.85 21.0081 0
      vertex 101.15 21.0081 5
      vertex 98.85 21.0081 5
    endloop
  endfacet
  facet normal 0 -1 -0
    outer loop
      vertex 101.15 21.0081 5
      vertex 98.85 21.0081 0
      vertex 101.15 21.0081 0
    endloop
  endfacet
  facet normal 0 0 1
    outer loop
      vertex 101.15 24.9919 5
      vertex 101.15 21.0081 5
      vertex 102.3 23 5
    endloop
  endfacet
  facet normal -0 0 1
    outer loop
      vertex 98.85 24.9919 5
      vertex 101.15 21.0081 5
      vertex 101.15 24.9919 5
    endloop
  endfacet
  facet normal 0 0 1
    outer loop
      vertex 98.85 24.9919 5
      vertex 98.85 21.0081 5
      vertex 101.15 21.0081 5
    endloop
  endfacet
  facet normal 0 -0 1
    outer loop
      vertex 98.85 21.0081 5
      vertex 98.85 24.9919 5
      vertex 97.7 23 5
    endloop
  endfacet
  facet normal -0.866025 0.500001 0
    outer loop
      vertex 97.7 23 0
      vertex 98.85 24.9919 5
      vertex 98.85 24.9919 0
    endloop
  endfacet
  facet normal -0.866025 0.500001 0
    outer loop
      vertex 98.85 24.9919 5
      vertex 97.7 23 0
      vertex 97.7 23 5
    endloop
  endfacet
  facet normal 0 0 -1
    outer loop
      vertex 101.15 21.0081 0
      vertex 101.15 24.9919 0
      vertex 102.3 23 0
    endloop
  endfacet
  facet normal 0 0 -1
    outer loop
      vertex 98.85 21.0081 0
      vertex 101.15 24.9919 0
      vertex 101.15 21.0081 0
    endloop
  endfacet
  facet normal 0 0 -1
    outer loop
      vertex 98.85 21.0081 0
      vertex 98.85 24.9919 0
      vertex 101.15 24.9919 0
    endloop
  endfacet
  facet normal 0 -0 -1
    outer loop
      vertex 98.85 24.9919 0
      vertex 98.85 21.0081 0
      vertex 97.7 23 0
    endloop
  endfacet
  facet normal 0.866025 -0.5 0
    outer loop
      vertex 101.15 21.0081 5
      vertex 102.3 23 0
      vertex 102.3 23 5
    endloop
  endfacet
  facet normal 0.866025 -0.5 0
    outer loop
      vertex 102.3 23 0
      vertex 101.15 21.0081 5
      vertex 101.15 21.0081 0
    endloop
  endfacet
  facet normal 0 0 -1
    outer loop
      vertex 91 21.2679 0
      vertex 91 24.732 0
      vertex 92 23 0
    endloop
  endfacet
  facet normal 0 0 -1
    outer loop
      vertex 89 21.2679 0
      vertex 91 24.732 0
      vertex 91 21.2679 0
    endloop
  endfacet
  facet normal 0 0 -1
    outer loop
      vertex 89 21.2679 0
      vertex 89 24.732 0
      vertex 91 24.732 0
    endloop
  endfacet
  facet normal 0 -0 -1
    outer loop
      vertex 89 24.732 0
      vertex 89 21.2679 0
      vertex 88 23 0
    endloop
  endfacet
  facet normal 0.866025 0.5 0
    outer loop
      vertex 92 23 5
      vertex 91 24.732 0
      vertex 91 24.732 5
    endloop
  endfacet
  facet normal 0.866025 0.5 0
    outer loop
      vertex 91 24.732 0
      vertex 92 23 5
      vertex 92 23 0
    endloop
  endfacet
  facet normal 0 -1 0
    outer loop
      vertex 89 21.2679 0
      vertex 91 21.2679 5
      vertex 89 21.2679 5
    endloop
  endfacet
  facet normal 0 -1 -0
    outer loop
      vertex 91 21.2679 5
      vertex 89 21.2679 0
      vertex 91 21.2679 0
    endloop
  endfacet
  facet normal -0.866025 0.5 0
    outer loop
      vertex 88 23 0
      vertex 89 24.732 5
      vertex 89 24.732 0
    endloop
  endfacet
  facet normal -0.866025 0.5 0
    outer loop
      vertex 89 24.732 5
      vertex 88 23 0
      vertex 88 23 5
    endloop
  endfacet
  facet normal 0 1 -0
    outer loop
      vertex 91 24.732 0
      vertex 89 24.732 5
      vertex 91 24.732 5
    endloop
  endfacet
  facet normal 0 1 0
    outer loop
      vertex 89 24.732 5
      vertex 91 24.732 0
      vertex 89 24.732 0
    endloop
  endfacet
  facet normal -0.866026 -0.5 0
    outer loop
      vertex 89 21.2679 0
      vertex 88 23 5
      vertex 88 23 0
    endloop
  endfacet
  facet normal -0.866026 -0.5 0
    outer loop
      vertex 88 23 5
      vertex 89 21.2679 0
      vertex 89 21.2679 5
    endloop
  endfacet
  facet normal 0 0 1
    outer loop
      vertex 91 24.732 5
      vertex 91 21.2679 5
      vertex 92 23 5
    endloop
  endfacet
  facet normal -0 0 1
    outer loop
      vertex 89 24.732 5
      vertex 91 21.2679 5
      vertex 91 24.732 5
    endloop
  endfacet
  facet normal 0 0 1
    outer loop
      vertex 89 24.732 5
      vertex 89 21.2679 5
      vertex 91 21.2679 5
    endloop
  endfacet
  facet normal 0 -0 1
    outer loop
      vertex 89 21.2679 5
      vertex 89 24.732 5
      vertex 88 23 5
    endloop
  endfacet
  facet normal 0.866026 -0.5 0
    outer loop
      vertex 91 21.2679 5
      vertex 92 23 0
      vertex 92 23 5
    endloop
  endfacet
  facet normal 0.866026 -0.5 0
    outer loop
      vertex 92 23 0
      vertex 91 21.2679 5
      vertex 91 21.2679 0
    endloop
  endfacet
endsolid OpenSCAD_Model
