solid OpenSCAD_Model
  facet normal -1 0 0
    outer loop
      vertex 0 0 0
      vertex 0 15 100
      vertex 0 15 0
    endloop
  endfacet
  facet normal -1 -0 0
    outer loop
      vertex 0 15 100
      vertex 0 0 0
      vertex 0 0 100
    endloop
  endfacet
  facet normal 0 0 1
    outer loop
      vertex 20 15 100
      vertex 19 14 100
      vertex 20 0 100
    endloop
  endfacet
  facet normal 0 0 1
    outer loop
      vertex 20 15 100
      vertex 1 14 100
      vertex 19 14 100
    endloop
  endfacet
  facet normal 0 0 1
    outer loop
      vertex 1 14 100
      vertex 0 15 100
      vertex 1 1 100
    endloop
  endfacet
  facet normal -0 0 1
    outer loop
      vertex 0 15 100
      vertex 1 14 100
      vertex 20 15 100
    endloop
  endfacet
  facet normal -0 0 1
    outer loop
      vertex 19 1 100
      vertex 20 0 100
      vertex 19 14 100
    endloop
  endfacet
  facet normal -0 0 1
    outer loop
      vertex 1 1 100
      vertex 20 0 100
      vertex 19 1 100
    endloop
  endfacet
  facet normal 0 0 1
    outer loop
      vertex 1 1 100
      vertex 0 0 100
      vertex 20 0 100
    endloop
  endfacet
  facet normal 0 0 1
    outer loop
      vertex 0 0 100
      vertex 1 1 100
      vertex 0 15 100
    endloop
  endfacet
  facet normal 1 -0 0
    outer loop
      vertex 20 0 100
      vertex 20 15 0
      vertex 20 15 100
    endloop
  endfacet
  facet normal 1 0 0
    outer loop
      vertex 20 15 0
      vertex 20 0 100
      vertex 20 0 0
    endloop
  endfacet
  facet normal 0 1 -0
    outer loop
      vertex 20 15 0
      vertex 0 15 100
      vertex 20 15 100
    endloop
  endfacet
  facet normal 0 1 0
    outer loop
      vertex 0 15 100
      vertex 20 15 0
      vertex 0 15 0
    endloop
  endfacet
  facet normal 0 0 -1
    outer loop
      vertex 0 0 0
      vertex 20 15 0
      vertex 20 0 0
    endloop
  endfacet
  facet normal -0 0 -1
    outer loop
      vertex 20 15 0
      vertex 0 0 0
      vertex 0 15 0
    endloop
  endfacet
  facet normal 0 -1 0
    outer loop
      vertex 0 0 0
      vertex 20 0 100
      vertex 0 0 100
    endloop
  endfacet
  facet normal 0 -1 -0
    outer loop
      vertex 20 0 100
      vertex 0 0 0
      vertex 20 0 0
    endloop
  endfacet
  facet normal 1 -0 0
    outer loop
      vertex 1 1 100
      vertex 1 14 1
      vertex 1 14 100
    endloop
  endfacet
  facet normal 1 0 0
    outer loop
      vertex 1 14 1
      vertex 1 1 100
      vertex 1 1 1
    endloop
  endfacet
  facet normal -1 0 0
    outer loop
      vertex 19 1 1
      vertex 19 14 100
      vertex 19 14 1
    endloop
  endfacet
  facet normal -1 -0 0
    outer loop
      vertex 19 14 100
      vertex 19 1 1
      vertex 19 1 100
    endloop
  endfacet
  facet normal 0 -1 0
    outer loop
      vertex 1 14 1
      vertex 19 14 100
      vertex 1 14 100
    endloop
  endfacet
  facet normal 0 -1 -0
    outer loop
      vertex 19 14 100
      vertex 1 14 1
      vertex 19 14 1
    endloop
  endfacet
  facet normal -0 0 1
    outer loop
      vertex 1 14 1
      vertex 19 1 1
      vertex 19 14 1
    endloop
  endfacet
  facet normal 0 0 1
    outer loop
      vertex 19 1 1
      vertex 1 14 1
      vertex 1 1 1
    endloop
  endfacet
  facet normal 0 1 -0
    outer loop
      vertex 19 1 1
      vertex 1 1 100
      vertex 19 1 100
    endloop
  endfacet
  facet normal 0 1 0
    outer loop
      vertex 1 1 100
      vertex 19 1 1
      vertex 1 1 1
    endloop
  endfacet
endsolid OpenSCAD_Model
