solid REINCARNATE
facet normal -0.9980263774 -0.0627960988 0.0000000000
  outer loop
    vertex 0.5000000000 0.0000000000 0.5000000000
    vertex 0.4960570000 0.0626666000 0.5000000000
    vertex 0.4960570000 0.0626666000 -0.5000000000
  endloop
endfacet
facet normal -0.9980263774 -0.0627960988 0.0000000000
  outer loop
    vertex 0.4960570000 0.0626666000 -0.5000000000
    vertex 0.5000000000 0.0000000000 -0.5000000000
    vertex 0.5000000000 0.0000000000 0.5000000000
  endloop
endfacet
facet normal -0.9822895490 -0.1873692661 0.0000000000
  outer loop
    vertex 0.4960570000 0.0626666000 0.5000000000
    vertex 0.4842920000 0.1243450000 0.5000000000
    vertex 0.4842920000 0.1243450000 -0.5000000000
  endloop
endfacet
facet normal -0.9822895490 -0.1873692661 0.0000000000
  outer loop
    vertex 0.4842920000 0.1243450000 -0.5000000000
    vertex 0.4960570000 0.0626666000 -0.5000000000
    vertex 0.4960570000 0.0626666000 0.5000000000
  endloop
endfacet
facet normal -0.9510529099 -0.3090280936 0.0000000000
  outer loop
    vertex 0.4842920000 0.1243450000 0.5000000000
    vertex 0.4648880000 0.1840620000 0.5000000000
    vertex 0.4648880000 0.1840620000 -0.5000000000
  endloop
endfacet
facet normal -0.9510529099 -0.3090280936 0.0000000000
  outer loop
    vertex 0.4648880000 0.1840620000 -0.5000000000
    vertex 0.4842920000 0.1243450000 -0.5000000000
    vertex 0.4842920000 0.1243450000 0.5000000000
  endloop
endfacet
facet normal -0.9048277251 -0.4257778620 0.0000000000
  outer loop
    vertex 0.4648880000 0.1840620000 0.5000000000
    vertex 0.4381530000 0.2408770000 0.5000000000
    vertex 0.4381530000 0.2408770000 -0.5000000000
  endloop
endfacet
facet normal -0.9048277251 -0.4257778620 0.0000000000
  outer loop
    vertex 0.4381530000 0.2408770000 -0.5000000000
    vertex 0.4648880000 0.1840620000 -0.5000000000
    vertex 0.4648880000 0.1840620000 0.5000000000
  endloop
endfacet
facet normal -0.8443349626 -0.5358157062 0.0000000000
  outer loop
    vertex 0.4381530000 0.2408770000 0.5000000000
    vertex 0.4045090000 0.2938930000 0.5000000000
    vertex 0.4045090000 0.2938930000 -0.5000000000
  endloop
endfacet
facet normal -0.8443349626 -0.5358157062 0.0000000000
  outer loop
    vertex 0.4045090000 0.2938930000 -0.5000000000
    vertex 0.4381530000 0.2408770000 -0.5000000000
    vertex 0.4381530000 0.2408770000 0.5000000000
  endloop
endfacet
facet normal -0.7705073296 -0.6374311375 0.0000000000
  outer loop
    vertex 0.4045090000 0.2938930000 0.5000000000
    vertex 0.3644840000 0.3422740000 0.5000000000
    vertex 0.3644840000 0.3422740000 -0.5000000000
  endloop
endfacet
facet normal -0.7705073296 -0.6374311375 0.0000000000
  outer loop
    vertex 0.3644840000 0.3422740000 -0.5000000000
    vertex 0.4045090000 0.2938930000 -0.5000000000
    vertex 0.4045090000 0.2938930000 0.5000000000
  endloop
endfacet
facet normal -0.6845490607 -0.7289667917 0.0000000000
  outer loop
    vertex 0.3187120000 0.3852570000 0.5000000000
    vertex 0.3644840000 0.3422740000 -0.5000000000
    vertex 0.3644840000 0.3422740000 0.5000000000
  endloop
endfacet
facet normal -0.6845490607 -0.7289667917 0.0000000000
  outer loop
    vertex 0.3644840000 0.3422740000 -0.5000000000
    vertex 0.3187120000 0.3852570000 0.5000000000
    vertex 0.3187120000 0.3852570000 -0.5000000000
  endloop
endfacet
facet normal -0.5877786449 -0.8090217949 0.0000000000
  outer loop
    vertex 0.2679130000 0.4221640000 0.5000000000
    vertex 0.3187120000 0.3852570000 -0.5000000000
    vertex 0.3187120000 0.3852570000 0.5000000000
  endloop
endfacet
facet normal -0.5877786449 -0.8090217949 0.0000000000
  outer loop
    vertex 0.3187120000 0.3852570000 -0.5000000000
    vertex 0.2679130000 0.4221640000 0.5000000000
    vertex 0.2679130000 0.4221640000 -0.5000000000
  endloop
endfacet
facet normal -0.4817640667 -0.8763009666 0.0000000000
  outer loop
    vertex 0.2128900000 0.4524140000 0.5000000000
    vertex 0.2679130000 0.4221640000 -0.5000000000
    vertex 0.2679130000 0.4221640000 0.5000000000
  endloop
endfacet
facet normal -0.4817640667 -0.8763009666 0.0000000000
  outer loop
    vertex 0.2679130000 0.4221640000 -0.5000000000
    vertex 0.2128900000 0.4524140000 0.5000000000
    vertex 0.2128900000 0.4524140000 -0.5000000000
  endloop
endfacet
facet normal -0.3681152858 -0.9297801549 0.0000000000
  outer loop
    vertex 0.1545090000 0.4755280000 0.5000000000
    vertex 0.2128900000 0.4524140000 -0.5000000000
    vertex 0.2128900000 0.4524140000 0.5000000000
  endloop
endfacet
facet normal -0.3681152858 -0.9297801549 0.0000000000
  outer loop
    vertex 0.2128900000 0.4524140000 -0.5000000000
    vertex 0.1545090000 0.4755280000 0.5000000000
    vertex 0.1545090000 0.4755280000 -0.5000000000
  endloop
endfacet
facet normal -0.2486975764 -0.9685811868 0.0000000000
  outer loop
    vertex 0.0936907000 0.4911440000 0.5000000000
    vertex 0.1545090000 0.4755280000 -0.5000000000
    vertex 0.1545090000 0.4755280000 0.5000000000
  endloop
endfacet
facet normal -0.2486975764 -0.9685811868 0.0000000000
  outer loop
    vertex 0.1545090000 0.4755280000 -0.5000000000
    vertex 0.0936907000 0.4911440000 0.5000000000
    vertex 0.0936907000 0.4911440000 -0.5000000000
  endloop
endfacet
facet normal -0.1253216466 -0.9921161650 0.0000000000
  outer loop
    vertex 0.0313953000 0.4990130000 0.5000000000
    vertex 0.0936907000 0.4911440000 -0.5000000000
    vertex 0.0936907000 0.4911440000 0.5000000000
  endloop
endfacet
facet normal -0.1253216466 -0.9921161650 0.0000000000
  outer loop
    vertex 0.0936907000 0.4911440000 -0.5000000000
    vertex 0.0313953000 0.4990130000 0.5000000000
    vertex 0.0313953000 0.4990130000 -0.5000000000
  endloop
endfacet
facet normal 0.0000000000 -1.0000000000 0.0000000000
  outer loop
    vertex -0.0313953000 0.4990130000 0.5000000000
    vertex 0.0313953000 0.4990130000 -0.5000000000
    vertex 0.0313953000 0.4990130000 0.5000000000
  endloop
endfacet
facet normal 0.0000000000 -1.0000000000 0.0000000000
  outer loop
    vertex 0.0313953000 0.4990130000 -0.5000000000
    vertex -0.0313953000 0.4990130000 0.5000000000
    vertex -0.0313953000 0.4990130000 -0.5000000000
  endloop
endfacet
facet normal 0.1253216466 -0.9921161650 0.0000000000
  outer loop
    vertex -0.0936907000 0.4911440000 0.5000000000
    vertex -0.0313953000 0.4990130000 -0.5000000000
    vertex -0.0313953000 0.4990130000 0.5000000000
  endloop
endfacet
facet normal 0.1253216466 -0.9921161650 0.0000000000
  outer loop
    vertex -0.0313953000 0.4990130000 -0.5000000000
    vertex -0.0936907000 0.4911440000 0.5000000000
    vertex -0.0936907000 0.4911440000 -0.5000000000
  endloop
endfacet
facet normal 0.2486975764 -0.9685811868 0.0000000000
  outer loop
    vertex -0.1545090000 0.4755280000 0.5000000000
    vertex -0.0936907000 0.4911440000 -0.5000000000
    vertex -0.0936907000 0.4911440000 0.5000000000
  endloop
endfacet
facet normal 0.2486975764 -0.9685811868 0.0000000000
  outer loop
    vertex -0.0936907000 0.4911440000 -0.5000000000
    vertex -0.1545090000 0.4755280000 0.5000000000
    vertex -0.1545090000 0.4755280000 -0.5000000000
  endloop
endfacet
facet normal 0.3681152858 -0.9297801549 0.0000000000
  outer loop
    vertex -0.2128900000 0.4524140000 0.5000000000
    vertex -0.1545090000 0.4755280000 -0.5000000000
    vertex -0.1545090000 0.4755280000 0.5000000000
  endloop
endfacet
facet normal 0.3681152858 -0.9297801549 0.0000000000
  outer loop
    vertex -0.1545090000 0.4755280000 -0.5000000000
    vertex -0.2128900000 0.4524140000 0.5000000000
    vertex -0.2128900000 0.4524140000 -0.5000000000
  endloop
endfacet
facet normal 0.4817640667 -0.8763009666 0.0000000000
  outer loop
    vertex -0.2679130000 0.4221640000 0.5000000000
    vertex -0.2128900000 0.4524140000 -0.5000000000
    vertex -0.2128900000 0.4524140000 0.5000000000
  endloop
endfacet
facet normal 0.4817640667 -0.8763009666 0.0000000000
  outer loop
    vertex -0.2128900000 0.4524140000 -0.5000000000
    vertex -0.2679130000 0.4221640000 0.5000000000
    vertex -0.2679130000 0.4221640000 -0.5000000000
  endloop
endfacet
facet normal 0.5877786449 -0.8090217949 0.0000000000
  outer loop
    vertex -0.3187120000 0.3852570000 0.5000000000
    vertex -0.2679130000 0.4221640000 -0.5000000000
    vertex -0.2679130000 0.4221640000 0.5000000000
  endloop
endfacet
facet normal 0.5877786449 -0.8090217949 0.0000000000
  outer loop
    vertex -0.2679130000 0.4221640000 -0.5000000000
    vertex -0.3187120000 0.3852570000 0.5000000000
    vertex -0.3187120000 0.3852570000 -0.5000000000
  endloop
endfacet
facet normal 0.6845490607 -0.7289667917 0.0000000000
  outer loop
    vertex -0.3644840000 0.3422740000 0.5000000000
    vertex -0.3187120000 0.3852570000 -0.5000000000
    vertex -0.3187120000 0.3852570000 0.5000000000
  endloop
endfacet
facet normal 0.6845490607 -0.7289667917 0.0000000000
  outer loop
    vertex -0.3187120000 0.3852570000 -0.5000000000
    vertex -0.3644840000 0.3422740000 0.5000000000
    vertex -0.3644840000 0.3422740000 -0.5000000000
  endloop
endfacet
facet normal 0.7705073296 -0.6374311375 0.0000000000
  outer loop
    vertex -0.4045090000 0.2938930000 -0.5000000000
    vertex -0.3644840000 0.3422740000 -0.5000000000
    vertex -0.3644840000 0.3422740000 0.5000000000
  endloop
endfacet
facet normal 0.7705073296 -0.6374311375 0.0000000000
  outer loop
    vertex -0.3644840000 0.3422740000 0.5000000000
    vertex -0.4045090000 0.2938930000 0.5000000000
    vertex -0.4045090000 0.2938930000 -0.5000000000
  endloop
endfacet
facet normal 0.8443349626 -0.5358157062 0.0000000000
  outer loop
    vertex -0.4381530000 0.2408770000 -0.5000000000
    vertex -0.4045090000 0.2938930000 -0.5000000000
    vertex -0.4045090000 0.2938930000 0.5000000000
  endloop
endfacet
facet normal 0.8443349626 -0.5358157062 0.0000000000
  outer loop
    vertex -0.4045090000 0.2938930000 0.5000000000
    vertex -0.4381530000 0.2408770000 0.5000000000
    vertex -0.4381530000 0.2408770000 -0.5000000000
  endloop
endfacet
facet normal 0.9048277251 -0.4257778620 0.0000000000
  outer loop
    vertex -0.4648880000 0.1840620000 -0.5000000000
    vertex -0.4381530000 0.2408770000 -0.5000000000
    vertex -0.4381530000 0.2408770000 0.5000000000
  endloop
endfacet
facet normal 0.9048277251 -0.4257778620 0.0000000000
  outer loop
    vertex -0.4381530000 0.2408770000 0.5000000000
    vertex -0.4648880000 0.1840620000 0.5000000000
    vertex -0.4648880000 0.1840620000 -0.5000000000
  endloop
endfacet
facet normal 0.9510529099 -0.3090280936 0.0000000000
  outer loop
    vertex -0.4842920000 0.1243450000 -0.5000000000
    vertex -0.4648880000 0.1840620000 -0.5000000000
    vertex -0.4648880000 0.1840620000 0.5000000000
  endloop
endfacet
facet normal 0.9510529099 -0.3090280936 0.0000000000
  outer loop
    vertex -0.4648880000 0.1840620000 0.5000000000
    vertex -0.4842920000 0.1243450000 0.5000000000
    vertex -0.4842920000 0.1243450000 -0.5000000000
  endloop
endfacet
facet normal 0.9822895490 -0.1873692661 0.0000000000
  outer loop
    vertex -0.4960570000 0.0626666000 -0.5000000000
    vertex -0.4842920000 0.1243450000 -0.5000000000
    vertex -0.4842920000 0.1243450000 0.5000000000
  endloop
endfacet
facet normal 0.9822895490 -0.1873692661 0.0000000000
  outer loop
    vertex -0.4842920000 0.1243450000 0.5000000000
    vertex -0.4960570000 0.0626666000 0.5000000000
    vertex -0.4960570000 0.0626666000 -0.5000000000
  endloop
endfacet
facet normal 0.9980263774 -0.0627960988 0.0000000000
  outer loop
    vertex -0.5000000000 0.0000000000 -0.5000000000
    vertex -0.4960570000 0.0626666000 -0.5000000000
    vertex -0.4960570000 0.0626666000 0.5000000000
  endloop
endfacet
facet normal 0.9980263774 -0.0627960988 0.0000000000
  outer loop
    vertex -0.4960570000 0.0626666000 0.5000000000
    vertex -0.5000000000 0.0000000000 0.5000000000
    vertex -0.5000000000 0.0000000000 -0.5000000000
  endloop
endfacet
facet normal 0.9980263774 0.0627960988 -0.0000000000
  outer loop
    vertex -0.5000000000 0.0000000000 -0.5000000000
    vertex -0.5000000000 0.0000000000 0.5000000000
    vertex -0.4960570000 -0.0626666000 -0.5000000000
  endloop
endfacet
facet normal 0.9980263774 0.0627960988 0.0000000000
  outer loop
    vertex -0.4960570000 -0.0626666000 0.5000000000
    vertex -0.4960570000 -0.0626666000 -0.5000000000
    vertex -0.5000000000 0.0000000000 0.5000000000
  endloop
endfacet
facet normal 0.9822895490 0.1873692661 -0.0000000000
  outer loop
    vertex -0.4960570000 -0.0626666000 -0.5000000000
    vertex -0.4960570000 -0.0626666000 0.5000000000
    vertex -0.4842920000 -0.1243450000 -0.5000000000
  endloop
endfacet
facet normal 0.9822895490 0.1873692661 0.0000000000
  outer loop
    vertex -0.4842920000 -0.1243450000 0.5000000000
    vertex -0.4842920000 -0.1243450000 -0.5000000000
    vertex -0.4960570000 -0.0626666000 0.5000000000
  endloop
endfacet
facet normal 0.9510529099 0.3090280936 -0.0000000000
  outer loop
    vertex -0.4842920000 -0.1243450000 -0.5000000000
    vertex -0.4842920000 -0.1243450000 0.5000000000
    vertex -0.4648880000 -0.1840620000 -0.5000000000
  endloop
endfacet
facet normal 0.9510529099 0.3090280936 0.0000000000
  outer loop
    vertex -0.4648880000 -0.1840620000 0.5000000000
    vertex -0.4648880000 -0.1840620000 -0.5000000000
    vertex -0.4842920000 -0.1243450000 0.5000000000
  endloop
endfacet
facet normal 0.9048277251 0.4257778620 -0.0000000000
  outer loop
    vertex -0.4648880000 -0.1840620000 -0.5000000000
    vertex -0.4648880000 -0.1840620000 0.5000000000
    vertex -0.4381530000 -0.2408770000 -0.5000000000
  endloop
endfacet
facet normal 0.9048277251 0.4257778620 0.0000000000
  outer loop
    vertex -0.4381530000 -0.2408770000 0.5000000000
    vertex -0.4381530000 -0.2408770000 -0.5000000000
    vertex -0.4648880000 -0.1840620000 0.5000000000
  endloop
endfacet
facet normal 0.8443349626 0.5358157062 -0.0000000000
  outer loop
    vertex -0.4381530000 -0.2408770000 -0.5000000000
    vertex -0.4381530000 -0.2408770000 0.5000000000
    vertex -0.4045090000 -0.2938930000 -0.5000000000
  endloop
endfacet
facet normal 0.8443349626 0.5358157062 0.0000000000
  outer loop
    vertex -0.4045090000 -0.2938930000 0.5000000000
    vertex -0.4045090000 -0.2938930000 -0.5000000000
    vertex -0.4381530000 -0.2408770000 0.5000000000
  endloop
endfacet
facet normal 0.7705073296 0.6374311375 -0.0000000000
  outer loop
    vertex -0.4045090000 -0.2938930000 -0.5000000000
    vertex -0.4045090000 -0.2938930000 0.5000000000
    vertex -0.3644840000 -0.3422740000 -0.5000000000
  endloop
endfacet
facet normal 0.7705073296 0.6374311375 0.0000000000
  outer loop
    vertex -0.3644840000 -0.3422740000 0.5000000000
    vertex -0.3644840000 -0.3422740000 -0.5000000000
    vertex -0.4045090000 -0.2938930000 0.5000000000
  endloop
endfacet
facet normal 0.6845490607 0.7289667917 -0.0000000000
  outer loop
    vertex -0.3644840000 -0.3422740000 -0.5000000000
    vertex -0.3644840000 -0.3422740000 0.5000000000
    vertex -0.3187120000 -0.3852570000 0.5000000000
  endloop
endfacet
facet normal 0.6845490607 0.7289667917 0.0000000000
  outer loop
    vertex -0.3187120000 -0.3852570000 0.5000000000
    vertex -0.3187120000 -0.3852570000 -0.5000000000
    vertex -0.3644840000 -0.3422740000 -0.5000000000
  endloop
endfacet
facet normal 0.5877786449 0.8090217949 -0.0000000000
  outer loop
    vertex -0.3187120000 -0.3852570000 -0.5000000000
    vertex -0.3187120000 -0.3852570000 0.5000000000
    vertex -0.2679130000 -0.4221640000 0.5000000000
  endloop
endfacet
facet normal 0.5877786449 0.8090217949 0.0000000000
  outer loop
    vertex -0.2679130000 -0.4221640000 0.5000000000
    vertex -0.2679130000 -0.4221640000 -0.5000000000
    vertex -0.3187120000 -0.3852570000 -0.5000000000
  endloop
endfacet
facet normal 0.4817640667 0.8763009666 -0.0000000000
  outer loop
    vertex -0.2679130000 -0.4221640000 -0.5000000000
    vertex -0.2679130000 -0.4221640000 0.5000000000
    vertex -0.2128900000 -0.4524140000 0.5000000000
  endloop
endfacet
facet normal 0.4817640667 0.8763009666 0.0000000000
  outer loop
    vertex -0.2128900000 -0.4524140000 0.5000000000
    vertex -0.2128900000 -0.4524140000 -0.5000000000
    vertex -0.2679130000 -0.4221640000 -0.5000000000
  endloop
endfacet
facet normal 0.3681152858 0.9297801549 -0.0000000000
  outer loop
    vertex -0.2128900000 -0.4524140000 -0.5000000000
    vertex -0.2128900000 -0.4524140000 0.5000000000
    vertex -0.1545090000 -0.4755280000 0.5000000000
  endloop
endfacet
facet normal 0.3681152858 0.9297801549 0.0000000000
  outer loop
    vertex -0.1545090000 -0.4755280000 0.5000000000
    vertex -0.1545090000 -0.4755280000 -0.5000000000
    vertex -0.2128900000 -0.4524140000 -0.5000000000
  endloop
endfacet
facet normal 0.2486975764 0.9685811868 -0.0000000000
  outer loop
    vertex -0.1545090000 -0.4755280000 -0.5000000000
    vertex -0.1545090000 -0.4755280000 0.5000000000
    vertex -0.0936907000 -0.4911440000 0.5000000000
  endloop
endfacet
facet normal 0.2486975764 0.9685811868 0.0000000000
  outer loop
    vertex -0.0936907000 -0.4911440000 0.5000000000
    vertex -0.0936907000 -0.4911440000 -0.5000000000
    vertex -0.1545090000 -0.4755280000 -0.5000000000
  endloop
endfacet
facet normal 0.1253216466 0.9921161650 -0.0000000000
  outer loop
    vertex -0.0936907000 -0.4911440000 -0.5000000000
    vertex -0.0936907000 -0.4911440000 0.5000000000
    vertex -0.0313953000 -0.4990130000 0.5000000000
  endloop
endfacet
facet normal 0.1253216466 0.9921161650 0.0000000000
  outer loop
    vertex -0.0313953000 -0.4990130000 0.5000000000
    vertex -0.0313953000 -0.4990130000 -0.5000000000
    vertex -0.0936907000 -0.4911440000 -0.5000000000
  endloop
endfacet
facet normal 0.0000000000 1.0000000000 0.0000000000
  outer loop
    vertex -0.0313953000 -0.4990130000 -0.5000000000
    vertex -0.0313953000 -0.4990130000 0.5000000000
    vertex 0.0313953000 -0.4990130000 0.5000000000
  endloop
endfacet
facet normal 0.0000000000 1.0000000000 0.0000000000
  outer loop
    vertex 0.0313953000 -0.4990130000 0.5000000000
    vertex 0.0313953000 -0.4990130000 -0.5000000000
    vertex -0.0313953000 -0.4990130000 -0.5000000000
  endloop
endfacet
facet normal -0.1253216466 0.9921161650 0.0000000000
  outer loop
    vertex 0.0313953000 -0.4990130000 -0.5000000000
    vertex 0.0313953000 -0.4990130000 0.5000000000
    vertex 0.0936907000 -0.4911440000 0.5000000000
  endloop
endfacet
facet normal -0.1253216466 0.9921161650 0.0000000000
  outer loop
    vertex 0.0936907000 -0.4911440000 0.5000000000
    vertex 0.0936907000 -0.4911440000 -0.5000000000
    vertex 0.0313953000 -0.4990130000 -0.5000000000
  endloop
endfacet
facet normal -0.2486975764 0.9685811868 0.0000000000
  outer loop
    vertex 0.0936907000 -0.4911440000 -0.5000000000
    vertex 0.0936907000 -0.4911440000 0.5000000000
    vertex 0.1545090000 -0.4755280000 0.5000000000
  endloop
endfacet
facet normal -0.2486975764 0.9685811868 0.0000000000
  outer loop
    vertex 0.1545090000 -0.4755280000 0.5000000000
    vertex 0.1545090000 -0.4755280000 -0.5000000000
    vertex 0.0936907000 -0.4911440000 -0.5000000000
  endloop
endfacet
facet normal -0.3681152858 0.9297801549 0.0000000000
  outer loop
    vertex 0.1545090000 -0.4755280000 -0.5000000000
    vertex 0.1545090000 -0.4755280000 0.5000000000
    vertex 0.2128900000 -0.4524140000 0.5000000000
  endloop
endfacet
facet normal -0.3681152858 0.9297801549 0.0000000000
  outer loop
    vertex 0.2128900000 -0.4524140000 0.5000000000
    vertex 0.2128900000 -0.4524140000 -0.5000000000
    vertex 0.1545090000 -0.4755280000 -0.5000000000
  endloop
endfacet
facet normal -0.4817640667 0.8763009666 0.0000000000
  outer loop
    vertex 0.2128900000 -0.4524140000 -0.5000000000
    vertex 0.2128900000 -0.4524140000 0.5000000000
    vertex 0.2679130000 -0.4221640000 0.5000000000
  endloop
endfacet
facet normal -0.4817640667 0.8763009666 0.0000000000
  outer loop
    vertex 0.2679130000 -0.4221640000 0.5000000000
    vertex 0.2679130000 -0.4221640000 -0.5000000000
    vertex 0.2128900000 -0.4524140000 -0.5000000000
  endloop
endfacet
facet normal -0.5877786449 0.8090217949 0.0000000000
  outer loop
    vertex 0.2679130000 -0.4221640000 -0.5000000000
    vertex 0.2679130000 -0.4221640000 0.5000000000
    vertex 0.3187120000 -0.3852570000 0.5000000000
  endloop
endfacet
facet normal -0.5877786449 0.8090217949 0.0000000000
  outer loop
    vertex 0.3187120000 -0.3852570000 0.5000000000
    vertex 0.3187120000 -0.3852570000 -0.5000000000
    vertex 0.2679130000 -0.4221640000 -0.5000000000
  endloop
endfacet
facet normal -0.6845490607 0.7289667917 0.0000000000
  outer loop
    vertex 0.3187120000 -0.3852570000 -0.5000000000
    vertex 0.3187120000 -0.3852570000 0.5000000000
    vertex 0.3644840000 -0.3422740000 0.5000000000
  endloop
endfacet
facet normal -0.6845490607 0.7289667917 0.0000000000
  outer loop
    vertex 0.3644840000 -0.3422740000 0.5000000000
    vertex 0.3644840000 -0.3422740000 -0.5000000000
    vertex 0.3187120000 -0.3852570000 -0.5000000000
  endloop
endfacet
facet normal -0.7705073296 0.6374311375 0.0000000000
  outer loop
    vertex 0.4045090000 -0.2938930000 0.5000000000
    vertex 0.4045090000 -0.2938930000 -0.5000000000
    vertex 0.3644840000 -0.3422740000 0.5000000000
  endloop
endfacet
facet normal -0.7705073296 0.6374311375 0.0000000000
  outer loop
    vertex 0.3644840000 -0.3422740000 -0.5000000000
    vertex 0.3644840000 -0.3422740000 0.5000000000
    vertex 0.4045090000 -0.2938930000 -0.5000000000
  endloop
endfacet
facet normal -0.8443349626 0.5358157062 0.0000000000
  outer loop
    vertex 0.4381530000 -0.2408770000 0.5000000000
    vertex 0.4381530000 -0.2408770000 -0.5000000000
    vertex 0.4045090000 -0.2938930000 0.5000000000
  endloop
endfacet
facet normal -0.8443349626 0.5358157062 0.0000000000
  outer loop
    vertex 0.4045090000 -0.2938930000 -0.5000000000
    vertex 0.4045090000 -0.2938930000 0.5000000000
    vertex 0.4381530000 -0.2408770000 -0.5000000000
  endloop
endfacet
facet normal -0.9048277251 0.4257778620 0.0000000000
  outer loop
    vertex 0.4648880000 -0.1840620000 0.5000000000
    vertex 0.4648880000 -0.1840620000 -0.5000000000
    vertex 0.4381530000 -0.2408770000 0.5000000000
  endloop
endfacet
facet normal -0.9048277251 0.4257778620 0.0000000000
  outer loop
    vertex 0.4381530000 -0.2408770000 -0.5000000000
    vertex 0.4381530000 -0.2408770000 0.5000000000
    vertex 0.4648880000 -0.1840620000 -0.5000000000
  endloop
endfacet
facet normal -0.9510529099 0.3090280936 0.0000000000
  outer loop
    vertex 0.4842920000 -0.1243450000 0.5000000000
    vertex 0.4842920000 -0.1243450000 -0.5000000000
    vertex 0.4648880000 -0.1840620000 0.5000000000
  endloop
endfacet
facet normal -0.9510529099 0.3090280936 0.0000000000
  outer loop
    vertex 0.4648880000 -0.1840620000 -0.5000000000
    vertex 0.4648880000 -0.1840620000 0.5000000000
    vertex 0.4842920000 -0.1243450000 -0.5000000000
  endloop
endfacet
facet normal -0.9822895490 0.1873692661 0.0000000000
  outer loop
    vertex 0.4960570000 -0.0626666000 0.5000000000
    vertex 0.4960570000 -0.0626666000 -0.5000000000
    vertex 0.4842920000 -0.1243450000 0.5000000000
  endloop
endfacet
facet normal -0.9822895490 0.1873692661 0.0000000000
  outer loop
    vertex 0.4842920000 -0.1243450000 -0.5000000000
    vertex 0.4842920000 -0.1243450000 0.5000000000
    vertex 0.4960570000 -0.0626666000 -0.5000000000
  endloop
endfacet
facet normal -0.9980263774 0.0627960988 0.0000000000
  outer loop
    vertex 0.5000000000 0.0000000000 0.5000000000
    vertex 0.5000000000 0.0000000000 -0.5000000000
    vertex 0.4960570000 -0.0626666000 0.5000000000
  endloop
endfacet
facet normal -0.9980263774 0.0627960988 0.0000000000
  outer loop
    vertex 0.4960570000 -0.0626666000 -0.5000000000
    vertex 0.4960570000 -0.0626666000 0.5000000000
    vertex 0.5000000000 0.0000000000 -0.5000000000
  endloop
endfacet
facet normal 0.0000000000 0.0000000000 1.0000000000
  outer loop
    vertex 0.5000000000 0.0000000000 -0.5000000000
    vertex 0.4960570000 0.0626666000 -0.5000000000
    vertex 0.4960570000 -0.0626666000 -0.5000000000
  endloop
endfacet
facet normal 0.0000000000 0.0000000000 1.0000000000
  outer loop
    vertex 0.4842920000 -0.1243450000 -0.5000000000
    vertex 0.4960570000 -0.0626666000 -0.5000000000
    vertex 0.4960570000 0.0626666000 -0.5000000000
  endloop
endfacet
facet normal 0.0000000000 0.0000000000 1.0000000000
  outer loop
    vertex 0.4960570000 0.0626666000 -0.5000000000
    vertex 0.4842920000 0.1243450000 -0.5000000000
    vertex 0.4842920000 -0.1243450000 -0.5000000000
  endloop
endfacet
facet normal 0.0000000000 0.0000000000 1.0000000000
  outer loop
    vertex 0.4648880000 -0.1840620000 -0.5000000000
    vertex 0.4842920000 -0.1243450000 -0.5000000000
    vertex 0.4842920000 0.1243450000 -0.5000000000
  endloop
endfacet
facet normal 0.0000000000 0.0000000000 1.0000000000
  outer loop
    vertex 0.4842920000 0.1243450000 -0.5000000000
    vertex 0.4648880000 0.1840620000 -0.5000000000
    vertex 0.4648880000 -0.1840620000 -0.5000000000
  endloop
endfacet
facet normal 0.0000000000 0.0000000000 1.0000000000
  outer loop
    vertex 0.4381530000 -0.2408770000 -0.5000000000
    vertex 0.4648880000 -0.1840620000 -0.5000000000
    vertex 0.4648880000 0.1840620000 -0.5000000000
  endloop
endfacet
facet normal 0.0000000000 0.0000000000 1.0000000000
  outer loop
    vertex 0.4648880000 0.1840620000 -0.5000000000
    vertex 0.4381530000 0.2408770000 -0.5000000000
    vertex 0.4381530000 -0.2408770000 -0.5000000000
  endloop
endfacet
facet normal 0.0000000000 0.0000000000 1.0000000000
  outer loop
    vertex 0.4045090000 -0.2938930000 -0.5000000000
    vertex 0.4381530000 -0.2408770000 -0.5000000000
    vertex 0.4381530000 0.2408770000 -0.5000000000
  endloop
endfacet
facet normal 0.0000000000 0.0000000000 1.0000000000
  outer loop
    vertex 0.4381530000 0.2408770000 -0.5000000000
    vertex 0.4045090000 0.2938930000 -0.5000000000
    vertex 0.4045090000 -0.2938930000 -0.5000000000
  endloop
endfacet
facet normal 0.0000000000 0.0000000000 1.0000000000
  outer loop
    vertex 0.3644840000 -0.3422740000 -0.5000000000
    vertex 0.4045090000 -0.2938930000 -0.5000000000
    vertex 0.4045090000 0.2938930000 -0.5000000000
  endloop
endfacet
facet normal 0.0000000000 0.0000000000 1.0000000000
  outer loop
    vertex 0.4045090000 0.2938930000 -0.5000000000
    vertex 0.3644840000 0.3422740000 -0.5000000000
    vertex 0.3644840000 -0.3422740000 -0.5000000000
  endloop
endfacet
facet normal 0.0000000000 0.0000000000 1.0000000000
  outer loop
    vertex 0.3187120000 -0.3852570000 -0.5000000000
    vertex 0.3644840000 -0.3422740000 -0.5000000000
    vertex 0.3644840000 0.3422740000 -0.5000000000
  endloop
endfacet
facet normal 0.0000000000 0.0000000000 1.0000000000
  outer loop
    vertex 0.3644840000 0.3422740000 -0.5000000000
    vertex 0.3187120000 0.3852570000 -0.5000000000
    vertex 0.3187120000 -0.3852570000 -0.5000000000
  endloop
endfacet
facet normal 0.0000000000 0.0000000000 1.0000000000
  outer loop
    vertex 0.2679130000 -0.4221640000 -0.5000000000
    vertex 0.3187120000 -0.3852570000 -0.5000000000
    vertex 0.3187120000 0.3852570000 -0.5000000000
  endloop
endfacet
facet normal 0.0000000000 0.0000000000 1.0000000000
  outer loop
    vertex 0.3187120000 0.3852570000 -0.5000000000
    vertex 0.2679130000 0.4221640000 -0.5000000000
    vertex 0.2679130000 -0.4221640000 -0.5000000000
  endloop
endfacet
facet normal 0.0000000000 0.0000000000 1.0000000000
  outer loop
    vertex 0.2128900000 -0.4524140000 -0.5000000000
    vertex 0.2679130000 -0.4221640000 -0.5000000000
    vertex 0.2679130000 0.4221640000 -0.5000000000
  endloop
endfacet
facet normal 0.0000000000 0.0000000000 1.0000000000
  outer loop
    vertex 0.2679130000 0.4221640000 -0.5000000000
    vertex 0.2128900000 0.4524140000 -0.5000000000
    vertex 0.2128900000 -0.4524140000 -0.5000000000
  endloop
endfacet
facet normal 0.0000000000 0.0000000000 1.0000000000
  outer loop
    vertex 0.1545090000 -0.4755280000 -0.5000000000
    vertex 0.2128900000 -0.4524140000 -0.5000000000
    vertex 0.2128900000 0.4524140000 -0.5000000000
  endloop
endfacet
facet normal 0.0000000000 0.0000000000 1.0000000000
  outer loop
    vertex 0.2128900000 0.4524140000 -0.5000000000
    vertex 0.1545090000 0.4755280000 -0.5000000000
    vertex 0.1545090000 -0.4755280000 -0.5000000000
  endloop
endfacet
facet normal 0.0000000000 0.0000000000 1.0000000000
  outer loop
    vertex 0.0936907000 -0.4911440000 -0.5000000000
    vertex 0.1545090000 -0.4755280000 -0.5000000000
    vertex 0.1545090000 0.4755280000 -0.5000000000
  endloop
endfacet
facet normal 0.0000000000 0.0000000000 1.0000000000
  outer loop
    vertex 0.1545090000 0.4755280000 -0.5000000000
    vertex 0.0936907000 0.4911440000 -0.5000000000
    vertex 0.0936907000 -0.4911440000 -0.5000000000
  endloop
endfacet
facet normal 0.0000000000 0.0000000000 1.0000000000
  outer loop
    vertex 0.0313953000 -0.4990130000 -0.5000000000
    vertex 0.0936907000 -0.4911440000 -0.5000000000
    vertex 0.0936907000 0.4911440000 -0.5000000000
  endloop
endfacet
facet normal 0.0000000000 0.0000000000 1.0000000000
  outer loop
    vertex 0.0936907000 0.4911440000 -0.5000000000
    vertex 0.0313953000 0.4990130000 -0.5000000000
    vertex 0.0313953000 -0.4990130000 -0.5000000000
  endloop
endfacet
facet normal 0.0000000000 0.0000000000 1.0000000000
  outer loop
    vertex -0.0313953000 -0.4990130000 -0.5000000000
    vertex 0.0313953000 -0.4990130000 -0.5000000000
    vertex 0.0313953000 0.4990130000 -0.5000000000
  endloop
endfacet
facet normal 0.0000000000 0.0000000000 1.0000000000
  outer loop
    vertex 0.0313953000 0.4990130000 -0.5000000000
    vertex -0.0313953000 0.4990130000 -0.5000000000
    vertex -0.0313953000 -0.4990130000 -0.5000000000
  endloop
endfacet
facet normal -0.0000000000 0.0000000000 1.0000000000
  outer loop
    vertex -0.0936907000 -0.4911440000 -0.5000000000
    vertex -0.0313953000 -0.4990130000 -0.5000000000
    vertex -0.0313953000 0.4990130000 -0.5000000000
  endloop
endfacet
facet normal 0.0000000000 0.0000000000 1.0000000000
  outer loop
    vertex -0.0313953000 0.4990130000 -0.5000000000
    vertex -0.0936907000 0.4911440000 -0.5000000000
    vertex -0.0936907000 -0.4911440000 -0.5000000000
  endloop
endfacet
facet normal -0.0000000000 0.0000000000 1.0000000000
  outer loop
    vertex -0.1545090000 -0.4755280000 -0.5000000000
    vertex -0.0936907000 -0.4911440000 -0.5000000000
    vertex -0.0936907000 0.4911440000 -0.5000000000
  endloop
endfacet
facet normal 0.0000000000 0.0000000000 1.0000000000
  outer loop
    vertex -0.0936907000 0.4911440000 -0.5000000000
    vertex -0.1545090000 0.4755280000 -0.5000000000
    vertex -0.1545090000 -0.4755280000 -0.5000000000
  endloop
endfacet
facet normal -0.0000000000 0.0000000000 1.0000000000
  outer loop
    vertex -0.2128900000 -0.4524140000 -0.5000000000
    vertex -0.1545090000 -0.4755280000 -0.5000000000
    vertex -0.1545090000 0.4755280000 -0.5000000000
  endloop
endfacet
facet normal 0.0000000000 0.0000000000 1.0000000000
  outer loop
    vertex -0.1545090000 0.4755280000 -0.5000000000
    vertex -0.2128900000 0.4524140000 -0.5000000000
    vertex -0.2128900000 -0.4524140000 -0.5000000000
  endloop
endfacet
facet normal -0.0000000000 0.0000000000 1.0000000000
  outer loop
    vertex -0.2679130000 -0.4221640000 -0.5000000000
    vertex -0.2128900000 -0.4524140000 -0.5000000000
    vertex -0.2128900000 0.4524140000 -0.5000000000
  endloop
endfacet
facet normal 0.0000000000 0.0000000000 1.0000000000
  outer loop
    vertex -0.2128900000 0.4524140000 -0.5000000000
    vertex -0.2679130000 0.4221640000 -0.5000000000
    vertex -0.2679130000 -0.4221640000 -0.5000000000
  endloop
endfacet
facet normal -0.0000000000 0.0000000000 1.0000000000
  outer loop
    vertex -0.3187120000 -0.3852570000 -0.5000000000
    vertex -0.2679130000 -0.4221640000 -0.5000000000
    vertex -0.2679130000 0.4221640000 -0.5000000000
  endloop
endfacet
facet normal 0.0000000000 0.0000000000 1.0000000000
  outer loop
    vertex -0.2679130000 0.4221640000 -0.5000000000
    vertex -0.3187120000 0.3852570000 -0.5000000000
    vertex -0.3187120000 -0.3852570000 -0.5000000000
  endloop
endfacet
facet normal -0.0000000000 0.0000000000 1.0000000000
  outer loop
    vertex -0.3644840000 -0.3422740000 -0.5000000000
    vertex -0.3187120000 -0.3852570000 -0.5000000000
    vertex -0.3187120000 0.3852570000 -0.5000000000
  endloop
endfacet
facet normal 0.0000000000 0.0000000000 1.0000000000
  outer loop
    vertex -0.3187120000 0.3852570000 -0.5000000000
    vertex -0.3644840000 0.3422740000 -0.5000000000
    vertex -0.3644840000 -0.3422740000 -0.5000000000
  endloop
endfacet
facet normal -0.0000000000 0.0000000000 1.0000000000
  outer loop
    vertex -0.4045090000 -0.2938930000 -0.5000000000
    vertex -0.3644840000 -0.3422740000 -0.5000000000
    vertex -0.3644840000 0.3422740000 -0.5000000000
  endloop
endfacet
facet normal 0.0000000000 0.0000000000 1.0000000000
  outer loop
    vertex -0.3644840000 0.3422740000 -0.5000000000
    vertex -0.4045090000 0.2938930000 -0.5000000000
    vertex -0.4045090000 -0.2938930000 -0.5000000000
  endloop
endfacet
facet normal -0.0000000000 0.0000000000 1.0000000000
  outer loop
    vertex -0.4381530000 -0.2408770000 -0.5000000000
    vertex -0.4045090000 -0.2938930000 -0.5000000000
    vertex -0.4045090000 0.2938930000 -0.5000000000
  endloop
endfacet
facet normal 0.0000000000 0.0000000000 1.0000000000
  outer loop
    vertex -0.4045090000 0.2938930000 -0.5000000000
    vertex -0.4381530000 0.2408770000 -0.5000000000
    vertex -0.4381530000 -0.2408770000 -0.5000000000
  endloop
endfacet
facet normal -0.0000000000 0.0000000000 1.0000000000
  outer loop
    vertex -0.4648880000 -0.1840620000 -0.5000000000
    vertex -0.4381530000 -0.2408770000 -0.5000000000
    vertex -0.4381530000 0.2408770000 -0.5000000000
  endloop
endfacet
facet normal 0.0000000000 0.0000000000 1.0000000000
  outer loop
    vertex -0.4381530000 0.2408770000 -0.5000000000
    vertex -0.4648880000 0.1840620000 -0.5000000000
    vertex -0.4648880000 -0.1840620000 -0.5000000000
  endloop
endfacet
facet normal -0.0000000000 0.0000000000 1.0000000000
  outer loop
    vertex -0.4842920000 -0.1243450000 -0.5000000000
    vertex -0.4648880000 -0.1840620000 -0.5000000000
    vertex -0.4648880000 0.1840620000 -0.5000000000
  endloop
endfacet
facet normal 0.0000000000 0.0000000000 1.0000000000
  outer loop
    vertex -0.4648880000 0.1840620000 -0.5000000000
    vertex -0.4842920000 0.1243450000 -0.5000000000
    vertex -0.4842920000 -0.1243450000 -0.5000000000
  endloop
endfacet
facet normal -0.0000000000 0.0000000000 1.0000000000
  outer loop
    vertex -0.4960570000 -0.0626666000 -0.5000000000
    vertex -0.4842920000 -0.1243450000 -0.5000000000
    vertex -0.4842920000 0.1243450000 -0.5000000000
  endloop
endfacet
facet normal 0.0000000000 0.0000000000 1.0000000000
  outer loop
    vertex -0.4842920000 0.1243450000 -0.5000000000
    vertex -0.4960570000 0.0626666000 -0.5000000000
    vertex -0.4960570000 -0.0626666000 -0.5000000000
  endloop
endfacet
facet normal -0.0000000000 0.0000000000 1.0000000000
  outer loop
    vertex -0.5000000000 0.0000000000 -0.5000000000
    vertex -0.4960570000 -0.0626666000 -0.5000000000
    vertex -0.4960570000 0.0626666000 -0.5000000000
  endloop
endfacet
facet normal 0.0000000000 0.0000000000 -1.0000000000
  outer loop
    vertex 0.4960570000 -0.0626666000 0.5000000000
    vertex 0.4960570000 0.0626666000 0.5000000000
    vertex 0.5000000000 0.0000000000 0.5000000000
  endloop
endfacet
facet normal 0.0000000000 0.0000000000 -1.0000000000
  outer loop
    vertex 0.4960570000 0.0626666000 0.5000000000
    vertex 0.4960570000 -0.0626666000 0.5000000000
    vertex 0.4842920000 0.1243450000 0.5000000000
  endloop
endfacet
facet normal 0.0000000000 0.0000000000 -1.0000000000
  outer loop
    vertex 0.4842920000 -0.1243450000 0.5000000000
    vertex 0.4842920000 0.1243450000 0.5000000000
    vertex 0.4960570000 -0.0626666000 0.5000000000
  endloop
endfacet
facet normal 0.0000000000 0.0000000000 -1.0000000000
  outer loop
    vertex 0.4842920000 0.1243450000 0.5000000000
    vertex 0.4842920000 -0.1243450000 0.5000000000
    vertex 0.4648880000 0.1840620000 0.5000000000
  endloop
endfacet
facet normal 0.0000000000 0.0000000000 -1.0000000000
  outer loop
    vertex 0.4648880000 -0.1840620000 0.5000000000
    vertex 0.4648880000 0.1840620000 0.5000000000
    vertex 0.4842920000 -0.1243450000 0.5000000000
  endloop
endfacet
facet normal 0.0000000000 0.0000000000 -1.0000000000
  outer loop
    vertex 0.4648880000 0.1840620000 0.5000000000
    vertex 0.4648880000 -0.1840620000 0.5000000000
    vertex 0.4381530000 0.2408770000 0.5000000000
  endloop
endfacet
facet normal 0.0000000000 0.0000000000 -1.0000000000
  outer loop
    vertex 0.4381530000 -0.2408770000 0.5000000000
    vertex 0.4381530000 0.2408770000 0.5000000000
    vertex 0.4648880000 -0.1840620000 0.5000000000
  endloop
endfacet
facet normal 0.0000000000 0.0000000000 -1.0000000000
  outer loop
    vertex 0.4381530000 0.2408770000 0.5000000000
    vertex 0.4381530000 -0.2408770000 0.5000000000
    vertex 0.4045090000 0.2938930000 0.5000000000
  endloop
endfacet
facet normal 0.0000000000 0.0000000000 -1.0000000000
  outer loop
    vertex 0.4045090000 -0.2938930000 0.5000000000
    vertex 0.4045090000 0.2938930000 0.5000000000
    vertex 0.4381530000 -0.2408770000 0.5000000000
  endloop
endfacet
facet normal 0.0000000000 0.0000000000 -1.0000000000
  outer loop
    vertex 0.4045090000 0.2938930000 0.5000000000
    vertex 0.4045090000 -0.2938930000 0.5000000000
    vertex 0.3644840000 0.3422740000 0.5000000000
  endloop
endfacet
facet normal 0.0000000000 0.0000000000 -1.0000000000
  outer loop
    vertex 0.3644840000 -0.3422740000 0.5000000000
    vertex 0.3644840000 0.3422740000 0.5000000000
    vertex 0.4045090000 -0.2938930000 0.5000000000
  endloop
endfacet
facet normal 0.0000000000 0.0000000000 -1.0000000000
  outer loop
    vertex 0.3644840000 0.3422740000 0.5000000000
    vertex 0.3644840000 -0.3422740000 0.5000000000
    vertex 0.3187120000 0.3852570000 0.5000000000
  endloop
endfacet
facet normal 0.0000000000 0.0000000000 -1.0000000000
  outer loop
    vertex 0.3187120000 -0.3852570000 0.5000000000
    vertex 0.3187120000 0.3852570000 0.5000000000
    vertex 0.3644840000 -0.3422740000 0.5000000000
  endloop
endfacet
facet normal 0.0000000000 0.0000000000 -1.0000000000
  outer loop
    vertex 0.3187120000 0.3852570000 0.5000000000
    vertex 0.3187120000 -0.3852570000 0.5000000000
    vertex 0.2679130000 0.4221640000 0.5000000000
  endloop
endfacet
facet normal 0.0000000000 0.0000000000 -1.0000000000
  outer loop
    vertex 0.2679130000 -0.4221640000 0.5000000000
    vertex 0.2679130000 0.4221640000 0.5000000000
    vertex 0.3187120000 -0.3852570000 0.5000000000
  endloop
endfacet
facet normal 0.0000000000 0.0000000000 -1.0000000000
  outer loop
    vertex 0.2679130000 0.4221640000 0.5000000000
    vertex 0.2679130000 -0.4221640000 0.5000000000
    vertex 0.2128900000 0.4524140000 0.5000000000
  endloop
endfacet
facet normal 0.0000000000 0.0000000000 -1.0000000000
  outer loop
    vertex 0.2128900000 -0.4524140000 0.5000000000
    vertex 0.2128900000 0.4524140000 0.5000000000
    vertex 0.2679130000 -0.4221640000 0.5000000000
  endloop
endfacet
facet normal 0.0000000000 0.0000000000 -1.0000000000
  outer loop
    vertex 0.2128900000 0.4524140000 0.5000000000
    vertex 0.2128900000 -0.4524140000 0.5000000000
    vertex 0.1545090000 0.4755280000 0.5000000000
  endloop
endfacet
facet normal 0.0000000000 0.0000000000 -1.0000000000
  outer loop
    vertex 0.1545090000 -0.4755280000 0.5000000000
    vertex 0.1545090000 0.4755280000 0.5000000000
    vertex 0.2128900000 -0.4524140000 0.5000000000
  endloop
endfacet
facet normal 0.0000000000 0.0000000000 -1.0000000000
  outer loop
    vertex 0.1545090000 0.4755280000 0.5000000000
    vertex 0.1545090000 -0.4755280000 0.5000000000
    vertex 0.0936907000 0.4911440000 0.5000000000
  endloop
endfacet
facet normal 0.0000000000 0.0000000000 -1.0000000000
  outer loop
    vertex 0.0936907000 -0.4911440000 0.5000000000
    vertex 0.0936907000 0.4911440000 0.5000000000
    vertex 0.1545090000 -0.4755280000 0.5000000000
  endloop
endfacet
facet normal 0.0000000000 0.0000000000 -1.0000000000
  outer loop
    vertex 0.0936907000 0.4911440000 0.5000000000
    vertex 0.0936907000 -0.4911440000 0.5000000000
    vertex 0.0313953000 0.4990130000 0.5000000000
  endloop
endfacet
facet normal 0.0000000000 0.0000000000 -1.0000000000
  outer loop
    vertex 0.0313953000 -0.4990130000 0.5000000000
    vertex 0.0313953000 0.4990130000 0.5000000000
    vertex 0.0936907000 -0.4911440000 0.5000000000
  endloop
endfacet
facet normal 0.0000000000 0.0000000000 -1.0000000000
  outer loop
    vertex 0.0313953000 0.4990130000 0.5000000000
    vertex 0.0313953000 -0.4990130000 0.5000000000
    vertex -0.0313953000 0.4990130000 0.5000000000
  endloop
endfacet
facet normal 0.0000000000 0.0000000000 -1.0000000000
  outer loop
    vertex -0.0313953000 -0.4990130000 0.5000000000
    vertex -0.0313953000 0.4990130000 0.5000000000
    vertex 0.0313953000 -0.4990130000 0.5000000000
  endloop
endfacet
facet normal 0.0000000000 0.0000000000 -1.0000000000
  outer loop
    vertex -0.0313953000 0.4990130000 0.5000000000
    vertex -0.0313953000 -0.4990130000 0.5000000000
    vertex -0.0936907000 0.4911440000 0.5000000000
  endloop
endfacet
facet normal 0.0000000000 0.0000000000 -1.0000000000
  outer loop
    vertex -0.0936907000 -0.4911440000 0.5000000000
    vertex -0.0936907000 0.4911440000 0.5000000000
    vertex -0.0313953000 -0.4990130000 0.5000000000
  endloop
endfacet
facet normal 0.0000000000 0.0000000000 -1.0000000000
  outer loop
    vertex -0.0936907000 0.4911440000 0.5000000000
    vertex -0.0936907000 -0.4911440000 0.5000000000
    vertex -0.1545090000 0.4755280000 0.5000000000
  endloop
endfacet
facet normal 0.0000000000 0.0000000000 -1.0000000000
  outer loop
    vertex -0.1545090000 -0.4755280000 0.5000000000
    vertex -0.1545090000 0.4755280000 0.5000000000
    vertex -0.0936907000 -0.4911440000 0.5000000000
  endloop
endfacet
facet normal 0.0000000000 0.0000000000 -1.0000000000
  outer loop
    vertex -0.1545090000 0.4755280000 0.5000000000
    vertex -0.1545090000 -0.4755280000 0.5000000000
    vertex -0.2128900000 0.4524140000 0.5000000000
  endloop
endfacet
facet normal 0.0000000000 0.0000000000 -1.0000000000
  outer loop
    vertex -0.2128900000 -0.4524140000 0.5000000000
    vertex -0.2128900000 0.4524140000 0.5000000000
    vertex -0.1545090000 -0.4755280000 0.5000000000
  endloop
endfacet
facet normal 0.0000000000 0.0000000000 -1.0000000000
  outer loop
    vertex -0.2128900000 0.4524140000 0.5000000000
    vertex -0.2128900000 -0.4524140000 0.5000000000
    vertex -0.2679130000 0.4221640000 0.5000000000
  endloop
endfacet
facet normal 0.0000000000 0.0000000000 -1.0000000000
  outer loop
    vertex -0.2679130000 -0.4221640000 0.5000000000
    vertex -0.2679130000 0.4221640000 0.5000000000
    vertex -0.2128900000 -0.4524140000 0.5000000000
  endloop
endfacet
facet normal 0.0000000000 0.0000000000 -1.0000000000
  outer loop
    vertex -0.2679130000 0.4221640000 0.5000000000
    vertex -0.2679130000 -0.4221640000 0.5000000000
    vertex -0.3187120000 0.3852570000 0.5000000000
  endloop
endfacet
facet normal 0.0000000000 0.0000000000 -1.0000000000
  outer loop
    vertex -0.3187120000 -0.3852570000 0.5000000000
    vertex -0.3187120000 0.3852570000 0.5000000000
    vertex -0.2679130000 -0.4221640000 0.5000000000
  endloop
endfacet
facet normal 0.0000000000 0.0000000000 -1.0000000000
  outer loop
    vertex -0.3187120000 0.3852570000 0.5000000000
    vertex -0.3187120000 -0.3852570000 0.5000000000
    vertex -0.3644840000 0.3422740000 0.5000000000
  endloop
endfacet
facet normal 0.0000000000 0.0000000000 -1.0000000000
  outer loop
    vertex -0.3644840000 -0.3422740000 0.5000000000
    vertex -0.3644840000 0.3422740000 0.5000000000
    vertex -0.3187120000 -0.3852570000 0.5000000000
  endloop
endfacet
facet normal 0.0000000000 0.0000000000 -1.0000000000
  outer loop
    vertex -0.3644840000 0.3422740000 0.5000000000
    vertex -0.3644840000 -0.3422740000 0.5000000000
    vertex -0.4045090000 0.2938930000 0.5000000000
  endloop
endfacet
facet normal 0.0000000000 0.0000000000 -1.0000000000
  outer loop
    vertex -0.4045090000 -0.2938930000 0.5000000000
    vertex -0.4045090000 0.2938930000 0.5000000000
    vertex -0.3644840000 -0.3422740000 0.5000000000
  endloop
endfacet
facet normal 0.0000000000 0.0000000000 -1.0000000000
  outer loop
    vertex -0.4045090000 0.2938930000 0.5000000000
    vertex -0.4045090000 -0.2938930000 0.5000000000
    vertex -0.4381530000 0.2408770000 0.5000000000
  endloop
endfacet
facet normal 0.0000000000 0.0000000000 -1.0000000000
  outer loop
    vertex -0.4381530000 -0.2408770000 0.5000000000
    vertex -0.4381530000 0.2408770000 0.5000000000
    vertex -0.4045090000 -0.2938930000 0.5000000000
  endloop
endfacet
facet normal 0.0000000000 0.0000000000 -1.0000000000
  outer loop
    vertex -0.4381530000 0.2408770000 0.5000000000
    vertex -0.4381530000 -0.2408770000 0.5000000000
    vertex -0.4648880000 0.1840620000 0.5000000000
  endloop
endfacet
facet normal 0.0000000000 0.0000000000 -1.0000000000
  outer loop
    vertex -0.4648880000 -0.1840620000 0.5000000000
    vertex -0.4648880000 0.1840620000 0.5000000000
    vertex -0.4381530000 -0.2408770000 0.5000000000
  endloop
endfacet
facet normal 0.0000000000 0.0000000000 -1.0000000000
  outer loop
    vertex -0.4648880000 0.1840620000 0.5000000000
    vertex -0.4648880000 -0.1840620000 0.5000000000
    vertex -0.4842920000 0.1243450000 0.5000000000
  endloop
endfacet
facet normal 0.0000000000 0.0000000000 -1.0000000000
  outer loop
    vertex -0.4842920000 -0.1243450000 0.5000000000
    vertex -0.4842920000 0.1243450000 0.5000000000
    vertex -0.4648880000 -0.1840620000 0.5000000000
  endloop
endfacet
facet normal 0.0000000000 0.0000000000 -1.0000000000
  outer loop
    vertex -0.4842920000 0.1243450000 0.5000000000
    vertex -0.4842920000 -0.1243450000 0.5000000000
    vertex -0.4960570000 0.0626666000 0.5000000000
  endloop
endfacet
facet normal 0.0000000000 0.0000000000 -1.0000000000
  outer loop
    vertex -0.4960570000 -0.0626666000 0.5000000000
    vertex -0.4960570000 0.0626666000 0.5000000000
    vertex -0.4842920000 -0.1243450000 0.5000000000
  endloop
endfacet
facet normal 0.0000000000 0.0000000000 -1.0000000000
  outer loop
    vertex -0.4960570000 0.0626666000 0.5000000000
    vertex -0.4960570000 -0.0626666000 0.5000000000
    vertex -0.5000000000 0.0000000000 0.5000000000
  endloop
endfacet
endsolid REINCARNATE