solid REINCARNATE
facet normal 1.0000000000 0.0000000000 0.0000000000
  outer loop
    vertex -5.1999998093 25.2000007629 9.8000001907
    vertex -5.1999998093 4.8000001907 9.8000001907
    vertex -5.1999998093 -5.0000000000 0.0000000000
  endloop
endfacet
facet normal 1.0000000000 0.0000000000 0.0000000000
  outer loop
    vertex -5.1999998093 4.8000001907 9.8000001907
    vertex -5.1999998093 -5.0000000000 50.0000000000
    vertex -5.1999998093 -5.0000000000 0.0000000000
  endloop
endfacet
facet normal 1.0000000000 0.0000000000 0.0000000000
  outer loop
    vertex -5.1999998093 35.0000000000 0.0000000000
    vertex -5.1999998093 25.2000007629 9.8000001907
    vertex -5.1999998093 -5.0000000000 0.0000000000
  endloop
endfacet
facet normal 1.0000000000 -0.0000000000 0.0000000000
  outer loop
    vertex -5.1999998093 25.2000007629 9.8000001907
    vertex -5.1999998093 35.0000000000 0.0000000000
    vertex -5.1999998093 35.0000000000 50.0000000000
  endloop
endfacet
facet normal 1.0000000000 0.0000000000 0.0000000000
  outer loop
    vertex -5.1999998093 35.0000000000 50.0000000000
    vertex -5.1999998093 25.2000007629 40.2000007629
    vertex -5.1999998093 25.2000007629 9.8000001907
  endloop
endfacet
facet normal 1.0000000000 0.0000000000 0.0000000000
  outer loop
    vertex -5.1999998093 4.8000001907 40.2000007629
    vertex -5.1999998093 25.2000007629 40.2000007629
    vertex -5.1999998093 35.0000000000 50.0000000000
  endloop
endfacet
facet normal 1.0000000000 -0.0000000000 0.0000000000
  outer loop
    vertex -5.1999998093 -5.0000000000 50.0000000000
    vertex -5.1999998093 4.8000001907 40.2000007629
    vertex -5.1999998093 35.0000000000 50.0000000000
  endloop
endfacet
facet normal 1.0000000000 0.0000000000 0.0000000000
  outer loop
    vertex -5.1999998093 -5.0000000000 50.0000000000
    vertex -5.1999998093 4.8000001907 9.8000001907
    vertex -5.1999998093 4.8000001907 40.2000007629
  endloop
endfacet
facet normal 1.0000000000 0.0000000000 0.0000000000
  outer loop
    vertex 25.0000000000 4.8000001907 40.2000007629
    vertex 25.0000000000 -5.0000000000 40.2000007629
    vertex 25.0000000000 -5.0000000000 9.8000001907
  endloop
endfacet
facet normal 1.0000000000 0.0000000000 0.0000000000
  outer loop
    vertex 25.0000000000 -5.0000000000 9.8000001907
    vertex 25.0000000000 4.8000001907 9.8000001907
    vertex 25.0000000000 4.8000001907 40.2000007629
  endloop
endfacet
facet normal 1.0000000000 0.0000000000 0.0000000000
  outer loop
    vertex 25.0000000000 25.2000007629 9.8000001907
    vertex 25.0000000000 35.0000000000 9.8000001907
    vertex 25.0000000000 35.0000000000 40.2000007629
  endloop
endfacet
facet normal 1.0000000000 0.0000000000 0.0000000000
  outer loop
    vertex 25.0000000000 35.0000000000 40.2000007629
    vertex 25.0000000000 25.2000007629 40.2000007629
    vertex 25.0000000000 25.2000007629 9.8000001907
  endloop
endfacet
facet normal -1.0000000000 0.0000000234 0.0000000000
  outer loop
    vertex 5.0000000000 4.8000001907 0.0000000000
    vertex 5.0000000000 4.8000001907 9.8000001907
    vertex 5.0000004768 25.2000007629 0.0000000000
  endloop
endfacet
facet normal -1.0000000000 0.0000000234 0.0000000000
  outer loop
    vertex 5.0000004768 25.2000007629 9.8000001907
    vertex 5.0000004768 25.2000007629 0.0000000000
    vertex 5.0000000000 4.8000001907 9.8000001907
  endloop
endfacet
facet normal -1.0000000000 0.0000000000 -0.0000000157
  outer loop
    vertex 5.0000004768 35.0000000000 9.8000001907
    vertex 5.0000004768 25.2000007629 9.8000001907
    vertex 5.0000000000 35.0000000000 40.2000007629
  endloop
endfacet
facet normal -1.0000000000 -0.0000000487 0.0000000000
  outer loop
    vertex 5.0000000000 35.0000000000 40.2000007629
    vertex 5.0000004768 25.2000007629 9.8000001907
    vertex 5.0000004768 25.2000007629 40.2000007629
  endloop
endfacet
facet normal -1.0000000000 0.0000000000 0.0000000000
  outer loop
    vertex 5.0000000000 4.8000001907 40.2000007629
    vertex 5.0000000000 4.8000001907 50.0000000000
    vertex 5.0000000000 25.2000007629 50.0000000000
  endloop
endfacet
facet normal -1.0000000000 0.0000000234 -0.0000000487
  outer loop
    vertex 5.0000000000 4.8000001907 40.2000007629
    vertex 5.0000000000 25.2000007629 50.0000000000
    vertex 5.0000004768 25.2000007629 40.2000007629
  endloop
endfacet
facet normal -1.0000000000 0.0000000000 0.0000000000
  outer loop
    vertex 5.0000000000 -5.0000000000 9.8000001907
    vertex 5.0000000000 -5.0000000000 40.2000007629
    vertex 5.0000000000 4.8000001907 9.8000001907
  endloop
endfacet
facet normal -1.0000000000 0.0000000000 0.0000000000
  outer loop
    vertex 5.0000000000 4.8000001907 40.2000007629
    vertex 5.0000000000 4.8000001907 9.8000001907
    vertex 5.0000000000 -5.0000000000 40.2000007629
  endloop
endfacet
facet normal 0.0000000000 0.0000000000 1.0000000000
  outer loop
    vertex 5.0000000000 4.8000001907 0.0000000000
    vertex -5.1999998093 35.0000000000 0.0000000000
    vertex -5.1999998093 -5.0000000000 0.0000000000
  endloop
endfacet
facet normal 0.0000000000 0.0000000000 1.0000000000
  outer loop
    vertex 35.0000000000 -5.0000000000 0.0000000000
    vertex 5.0000000000 4.8000001907 0.0000000000
    vertex -5.1999998093 -5.0000000000 0.0000000000
  endloop
endfacet
facet normal -0.0000000000 0.0000000000 1.0000000000
  outer loop
    vertex 35.0000000000 -5.0000000000 0.0000000000
    vertex 25.0000000000 4.8000001907 0.0000000000
    vertex 5.0000000000 4.8000001907 0.0000000000
  endloop
endfacet
facet normal -0.0000000000 0.0000000000 1.0000000000
  outer loop
    vertex 25.0000000000 4.8000001907 0.0000000000
    vertex 35.0000000000 -5.0000000000 0.0000000000
    vertex 35.0000000000 35.0000000000 0.0000000000
  endloop
endfacet
facet normal 0.0000000000 0.0000000000 1.0000000000
  outer loop
    vertex 35.0000000000 35.0000000000 0.0000000000
    vertex 25.0000000000 25.2000007629 0.0000000000
    vertex 25.0000000000 4.8000001907 0.0000000000
  endloop
endfacet
facet normal 0.0000000000 0.0000000000 1.0000000000
  outer loop
    vertex 5.0000004768 25.2000007629 0.0000000000
    vertex 25.0000000000 25.2000007629 0.0000000000
    vertex 35.0000000000 35.0000000000 0.0000000000
  endloop
endfacet
facet normal -0.0000000000 0.0000000000 1.0000000000
  outer loop
    vertex -5.1999998093 35.0000000000 0.0000000000
    vertex 5.0000004768 25.2000007629 0.0000000000
    vertex 35.0000000000 35.0000000000 0.0000000000
  endloop
endfacet
facet normal 0.0000000000 0.0000000000 1.0000000000
  outer loop
    vertex -5.1999998093 35.0000000000 0.0000000000
    vertex 5.0000000000 4.8000001907 0.0000000000
    vertex 5.0000004768 25.2000007629 0.0000000000
  endloop
endfacet
facet normal 0.0000000000 -1.0000000000 0.0000000000
  outer loop
    vertex 25.0000000000 4.8000001907 40.2000007629
    vertex 35.0000000000 4.8000001907 9.8000001907
    vertex 35.0000000000 4.8000001907 40.2000007629
  endloop
endfacet
facet normal 0.0000000000 -1.0000000000 0.0000000000
  outer loop
    vertex 35.0000000000 4.8000001907 9.8000001907
    vertex 25.0000000000 4.8000001907 40.2000007629
    vertex 25.0000000000 4.8000001907 9.8000001907
  endloop
endfacet
facet normal 0.0000000000 -1.0000000000 0.0000000000
  outer loop
    vertex -5.1999998093 4.8000001907 40.2000007629
    vertex 5.0000000000 4.8000001907 9.8000001907
    vertex 5.0000000000 4.8000001907 40.2000007629
  endloop
endfacet
facet normal 0.0000000000 -1.0000000000 0.0000000000
  outer loop
    vertex 5.0000000000 4.8000001907 9.8000001907
    vertex -5.1999998093 4.8000001907 40.2000007629
    vertex -5.1999998093 4.8000001907 9.8000001907
  endloop
endfacet
facet normal 0.0000000000 0.0000000000 -1.0000000000
  outer loop
    vertex 35.0000000000 35.0000000000 50.0000000000
    vertex 35.0000000000 -5.0000000000 50.0000000000
    vertex 25.0000000000 4.8000001907 50.0000000000
  endloop
endfacet
facet normal 0.0000000000 0.0000000000 -1.0000000000
  outer loop
    vertex 5.0000000000 4.8000001907 50.0000000000
    vertex 25.0000000000 4.8000001907 50.0000000000
    vertex 35.0000000000 -5.0000000000 50.0000000000
  endloop
endfacet
facet normal 0.0000000000 0.0000000000 -1.0000000000
  outer loop
    vertex -5.1999998093 -5.0000000000 50.0000000000
    vertex 5.0000000000 4.8000001907 50.0000000000
    vertex 35.0000000000 -5.0000000000 50.0000000000
  endloop
endfacet
facet normal 0.0000000000 0.0000000000 -1.0000000000
  outer loop
    vertex 5.0000000000 25.2000007629 50.0000000000
    vertex 5.0000000000 4.8000001907 50.0000000000
    vertex -5.1999998093 -5.0000000000 50.0000000000
  endloop
endfacet
facet normal 0.0000000000 0.0000000000 -1.0000000000
  outer loop
    vertex -5.1999998093 -5.0000000000 50.0000000000
    vertex -5.1999998093 35.0000000000 50.0000000000
    vertex 5.0000000000 25.2000007629 50.0000000000
  endloop
endfacet
facet normal 0.0000000000 0.0000000000 -1.0000000000
  outer loop
    vertex 25.0000000000 4.8000001907 50.0000000000
    vertex 25.0000000000 25.2000007629 50.0000000000
    vertex 35.0000000000 35.0000000000 50.0000000000
  endloop
endfacet
facet normal 0.0000000000 0.0000000000 -1.0000000000
  outer loop
    vertex 35.0000000000 35.0000000000 50.0000000000
    vertex 25.0000000000 25.2000007629 50.0000000000
    vertex 5.0000000000 25.2000007629 50.0000000000
  endloop
endfacet
facet normal 0.0000000000 0.0000000000 -1.0000000000
  outer loop
    vertex 35.0000000000 35.0000000000 50.0000000000
    vertex 5.0000000000 25.2000007629 50.0000000000
    vertex -5.1999998093 35.0000000000 50.0000000000
  endloop
endfacet
facet normal 0.0000000000 1.0000000000 0.0000000000
  outer loop
    vertex 25.0000000000 25.2000007629 9.8000001907
    vertex 25.0000000000 25.2000007629 40.2000007629
    vertex 35.0000000000 25.2000007629 40.2000007629
  endloop
endfacet
facet normal 0.0000000000 1.0000000000 0.0000000000
  outer loop
    vertex 35.0000000000 25.2000007629 40.2000007629
    vertex 35.0000000000 25.2000007629 9.8000001907
    vertex 25.0000000000 25.2000007629 9.8000001907
  endloop
endfacet
facet normal 0.0000000000 1.0000000000 0.0000000000
  outer loop
    vertex 25.0000000000 25.2000007629 9.8000001907
    vertex 25.0000000000 25.2000007629 0.0000000000
    vertex 5.0000004768 25.2000007629 0.0000000000
  endloop
endfacet
facet normal 0.0000000000 1.0000000000 0.0000000000
  outer loop
    vertex 5.0000004768 25.2000007629 0.0000000000
    vertex 5.0000004768 25.2000007629 9.8000001907
    vertex 25.0000000000 25.2000007629 9.8000001907
  endloop
endfacet
facet normal 0.0000000000 1.0000000000 0.0000000000
  outer loop
    vertex -5.1999998093 25.2000007629 9.8000001907
    vertex -5.1999998093 25.2000007629 40.2000007629
    vertex 5.0000004768 25.2000007629 9.8000001907
  endloop
endfacet
facet normal -0.0000000000 1.0000000000 0.0000000000
  outer loop
    vertex 5.0000004768 25.2000007629 40.2000007629
    vertex 5.0000004768 25.2000007629 9.8000001907
    vertex -5.1999998093 25.2000007629 40.2000007629
  endloop
endfacet
facet normal -0.0000000000 1.0000000000 0.0000000000
  outer loop
    vertex 25.0000000000 25.2000007629 50.0000000000
    vertex 5.0000004768 25.2000007629 40.2000007629
    vertex 5.0000000000 25.2000007629 50.0000000000
  endloop
endfacet
facet normal 0.0000000000 1.0000000000 0.0000000000
  outer loop
    vertex 25.0000000000 25.2000007629 50.0000000000
    vertex 25.0000000000 25.2000007629 40.2000007629
    vertex 5.0000004768 25.2000007629 40.2000007629
  endloop
endfacet
facet normal 1.0000000000 0.0000000000 0.0000000000
  outer loop
    vertex 25.0000000000 25.2000007629 0.0000000000
    vertex 25.0000000000 4.8000001907 9.8000001907
    vertex 25.0000000000 4.8000001907 0.0000000000
  endloop
endfacet
facet normal 1.0000000000 -0.0000000000 0.0000000000
  outer loop
    vertex 25.0000000000 4.8000001907 9.8000001907
    vertex 25.0000000000 25.2000007629 0.0000000000
    vertex 25.0000000000 25.2000007629 9.8000001907
  endloop
endfacet
facet normal 0.0000000000 -1.0000000000 0.0000000000
  outer loop
    vertex 25.0000000000 4.8000001907 0.0000000000
    vertex 5.0000000000 4.8000001907 9.8000001907
    vertex 5.0000000000 4.8000001907 0.0000000000
  endloop
endfacet
facet normal 0.0000000000 -1.0000000000 0.0000000000
  outer loop
    vertex 5.0000000000 4.8000001907 9.8000001907
    vertex 25.0000000000 4.8000001907 0.0000000000
    vertex 25.0000000000 4.8000001907 9.8000001907
  endloop
endfacet
facet normal 0.0000000000 0.0000000000 -1.0000000000
  outer loop
    vertex 35.0000000000 25.2000007629 9.8000001907
    vertex 35.0000000000 4.8000001907 9.8000001907
    vertex 25.0000000000 25.2000007629 9.8000001907
  endloop
endfacet
facet normal 0.0000000000 0.0000000000 -1.0000000000
  outer loop
    vertex 25.0000000000 4.8000001907 9.8000001907
    vertex 25.0000000000 25.2000007629 9.8000001907
    vertex 35.0000000000 4.8000001907 9.8000001907
  endloop
endfacet
facet normal 0.0000000000 0.0000000000 -1.0000000000
  outer loop
    vertex 5.0000004768 25.2000007629 9.8000001907
    vertex 5.0000000000 4.8000001907 9.8000001907
    vertex -5.1999998093 25.2000007629 9.8000001907
  endloop
endfacet
facet normal 0.0000000000 0.0000000000 -1.0000000000
  outer loop
    vertex -5.1999998093 4.8000001907 9.8000001907
    vertex -5.1999998093 25.2000007629 9.8000001907
    vertex 5.0000000000 4.8000001907 9.8000001907
  endloop
endfacet
facet normal 0.0000000000 0.0000000000 -1.0000000000
  outer loop
    vertex 25.0000000000 35.0000000000 9.8000001907
    vertex 25.0000000000 25.2000007629 9.8000001907
    vertex 5.0000004768 35.0000000000 9.8000001907
  endloop
endfacet
facet normal 0.0000000000 0.0000000000 -1.0000000000
  outer loop
    vertex 5.0000004768 25.2000007629 9.8000001907
    vertex 5.0000004768 35.0000000000 9.8000001907
    vertex 25.0000000000 25.2000007629 9.8000001907
  endloop
endfacet
facet normal 0.0000000000 0.0000000000 -1.0000000000
  outer loop
    vertex 5.0000000000 -5.0000000000 9.8000001907
    vertex 5.0000000000 4.8000001907 9.8000001907
    vertex 25.0000000000 -5.0000000000 9.8000001907
  endloop
endfacet
facet normal 0.0000000000 0.0000000000 -1.0000000000
  outer loop
    vertex 25.0000000000 4.8000001907 9.8000001907
    vertex 25.0000000000 -5.0000000000 9.8000001907
    vertex 5.0000000000 4.8000001907 9.8000001907
  endloop
endfacet
facet normal 0.0000000000 1.0000000000 0.0000000000
  outer loop
    vertex 25.0000000000 -5.0000000000 9.8000001907
    vertex 25.0000000000 -5.0000000000 40.2000007629
    vertex 35.0000000000 -5.0000000000 50.0000000000
  endloop
endfacet
facet normal 0.0000000000 1.0000000000 0.0000000000
  outer loop
    vertex 35.0000000000 -5.0000000000 50.0000000000
    vertex 25.0000000000 -5.0000000000 40.2000007629
    vertex 5.0000000000 -5.0000000000 40.2000007629
  endloop
endfacet
facet normal -0.0000000000 1.0000000000 0.0000000000
  outer loop
    vertex 35.0000000000 -5.0000000000 50.0000000000
    vertex 5.0000000000 -5.0000000000 40.2000007629
    vertex -5.1999998093 -5.0000000000 50.0000000000
  endloop
endfacet
facet normal 0.0000000000 1.0000000000 0.0000000000
  outer loop
    vertex 5.0000000000 -5.0000000000 40.2000007629
    vertex 5.0000000000 -5.0000000000 9.8000001907
    vertex -5.1999998093 -5.0000000000 50.0000000000
  endloop
endfacet
facet normal 0.0000000000 1.0000000000 0.0000000000
  outer loop
    vertex -5.1999998093 -5.0000000000 0.0000000000
    vertex -5.1999998093 -5.0000000000 50.0000000000
    vertex 5.0000000000 -5.0000000000 9.8000001907
  endloop
endfacet
facet normal 0.0000000000 1.0000000000 0.0000000000
  outer loop
    vertex -5.1999998093 -5.0000000000 0.0000000000
    vertex 5.0000000000 -5.0000000000 9.8000001907
    vertex 35.0000000000 -5.0000000000 0.0000000000
  endloop
endfacet
facet normal -0.0000000000 1.0000000000 0.0000000000
  outer loop
    vertex 5.0000000000 -5.0000000000 9.8000001907
    vertex 25.0000000000 -5.0000000000 9.8000001907
    vertex 35.0000000000 -5.0000000000 0.0000000000
  endloop
endfacet
facet normal -0.0000000000 1.0000000000 0.0000000000
  outer loop
    vertex 35.0000000000 -5.0000000000 50.0000000000
    vertex 35.0000000000 -5.0000000000 0.0000000000
    vertex 25.0000000000 -5.0000000000 9.8000001907
  endloop
endfacet
facet normal 0.0000000000 -1.0000000000 0.0000000000
  outer loop
    vertex 5.0000000000 4.8000001907 50.0000000000
    vertex 25.0000000000 4.8000001907 40.2000007629
    vertex 25.0000000000 4.8000001907 50.0000000000
  endloop
endfacet
facet normal 0.0000000000 -1.0000000000 0.0000000000
  outer loop
    vertex 25.0000000000 4.8000001907 40.2000007629
    vertex 5.0000000000 4.8000001907 50.0000000000
    vertex 5.0000000000 4.8000001907 40.2000007629
  endloop
endfacet
facet normal -1.0000000000 0.0000000000 0.0000000000
  outer loop
    vertex 35.0000000000 25.2000007629 9.8000001907
    vertex 35.0000000000 25.2000007629 40.2000007629
    vertex 35.0000000000 35.0000000000 50.0000000000
  endloop
endfacet
facet normal -1.0000000000 0.0000000000 0.0000000000
  outer loop
    vertex 35.0000000000 35.0000000000 50.0000000000
    vertex 35.0000000000 25.2000007629 40.2000007629
    vertex 35.0000000000 4.8000001907 40.2000007629
  endloop
endfacet
facet normal -1.0000000000 0.0000000000 0.0000000000
  outer loop
    vertex 35.0000000000 35.0000000000 50.0000000000
    vertex 35.0000000000 4.8000001907 40.2000007629
    vertex 35.0000000000 -5.0000000000 50.0000000000
  endloop
endfacet
facet normal -1.0000000000 0.0000000000 0.0000000000
  outer loop
    vertex 35.0000000000 35.0000000000 50.0000000000
    vertex 35.0000000000 35.0000000000 0.0000000000
    vertex 35.0000000000 25.2000007629 9.8000001907
  endloop
endfacet
facet normal -1.0000000000 0.0000000000 0.0000000000
  outer loop
    vertex 35.0000000000 -5.0000000000 0.0000000000
    vertex 35.0000000000 25.2000007629 9.8000001907
    vertex 35.0000000000 35.0000000000 0.0000000000
  endloop
endfacet
facet normal -1.0000000000 0.0000000000 0.0000000000
  outer loop
    vertex 35.0000000000 -5.0000000000 0.0000000000
    vertex 35.0000000000 4.8000001907 9.8000001907
    vertex 35.0000000000 25.2000007629 9.8000001907
  endloop
endfacet
facet normal -1.0000000000 0.0000000000 0.0000000000
  outer loop
    vertex 35.0000000000 -5.0000000000 0.0000000000
    vertex 35.0000000000 -5.0000000000 50.0000000000
    vertex 35.0000000000 4.8000001907 9.8000001907
  endloop
endfacet
facet normal -1.0000000000 0.0000000000 0.0000000000
  outer loop
    vertex 35.0000000000 4.8000001907 40.2000007629
    vertex 35.0000000000 4.8000001907 9.8000001907
    vertex 35.0000000000 -5.0000000000 50.0000000000
  endloop
endfacet
facet normal 1.0000000000 0.0000000000 0.0000000000
  outer loop
    vertex 25.0000000000 25.2000007629 50.0000000000
    vertex 25.0000000000 4.8000001907 50.0000000000
    vertex 25.0000000000 4.8000001907 40.2000007629
  endloop
endfacet
facet normal 1.0000000000 0.0000000000 0.0000000000
  outer loop
    vertex 25.0000000000 4.8000001907 40.2000007629
    vertex 25.0000000000 25.2000007629 40.2000007629
    vertex 25.0000000000 25.2000007629 50.0000000000
  endloop
endfacet
facet normal 0.0000000000 -1.0000000000 0.0000000000
  outer loop
    vertex 5.0000000000 35.0000000000 40.2000007629
    vertex 25.0000000000 35.0000000000 40.2000007629
    vertex 35.0000000000 35.0000000000 50.0000000000
  endloop
endfacet
facet normal 0.0000000000 -1.0000000000 0.0000000000
  outer loop
    vertex -5.1999998093 35.0000000000 50.0000000000
    vertex 5.0000000000 35.0000000000 40.2000007629
    vertex 35.0000000000 35.0000000000 50.0000000000
  endloop
endfacet
facet normal 0.0000000000 -1.0000000000 0.0000000000
  outer loop
    vertex 5.0000000000 35.0000000000 40.2000007629
    vertex -5.1999998093 35.0000000000 50.0000000000
    vertex -5.1999998093 35.0000000000 0.0000000000
  endloop
endfacet
facet normal 0.0000000000 -1.0000000000 0.0000000000
  outer loop
    vertex 5.0000004768 35.0000000000 9.8000001907
    vertex 5.0000000000 35.0000000000 40.2000007629
    vertex -5.1999998093 35.0000000000 0.0000000000
  endloop
endfacet
facet normal 0.0000000000 -1.0000000000 0.0000000000
  outer loop
    vertex 35.0000000000 35.0000000000 0.0000000000
    vertex 5.0000004768 35.0000000000 9.8000001907
    vertex -5.1999998093 35.0000000000 0.0000000000
  endloop
endfacet
facet normal 0.0000000000 -1.0000000000 0.0000000000
  outer loop
    vertex 35.0000000000 35.0000000000 0.0000000000
    vertex 25.0000000000 35.0000000000 9.8000001907
    vertex 5.0000004768 35.0000000000 9.8000001907
  endloop
endfacet
facet normal 0.0000000000 -1.0000000000 0.0000000000
  outer loop
    vertex 25.0000000000 35.0000000000 9.8000001907
    vertex 35.0000000000 35.0000000000 0.0000000000
    vertex 35.0000000000 35.0000000000 50.0000000000
  endloop
endfacet
facet normal 0.0000000000 -1.0000000000 0.0000000000
  outer loop
    vertex 35.0000000000 35.0000000000 50.0000000000
    vertex 25.0000000000 35.0000000000 40.2000007629
    vertex 25.0000000000 35.0000000000 9.8000001907
  endloop
endfacet
facet normal 0.0000000000 0.0000000000 1.0000000000
  outer loop
    vertex 5.0000000000 -5.0000000000 40.2000007629
    vertex 25.0000000000 -5.0000000000 40.2000007629
    vertex 25.0000000000 4.8000001907 40.2000007629
  endloop
endfacet
facet normal 0.0000000000 0.0000000000 1.0000000000
  outer loop
    vertex 25.0000000000 4.8000001907 40.2000007629
    vertex 5.0000000000 4.8000001907 40.2000007629
    vertex 5.0000000000 -5.0000000000 40.2000007629
  endloop
endfacet
facet normal 0.0000000000 0.0000000000 1.0000000000
  outer loop
    vertex 5.0000000000 4.8000001907 40.2000007629
    vertex -5.1999998093 25.2000007629 40.2000007629
    vertex -5.1999998093 4.8000001907 40.2000007629
  endloop
endfacet
facet normal -0.0000000000 0.0000000000 1.0000000000
  outer loop
    vertex -5.1999998093 25.2000007629 40.2000007629
    vertex 5.0000000000 4.8000001907 40.2000007629
    vertex 5.0000004768 25.2000007629 40.2000007629
  endloop
endfacet
facet normal 0.0000000000 0.0000000000 1.0000000000
  outer loop
    vertex 35.0000000000 25.2000007629 40.2000007629
    vertex 25.0000000000 25.2000007629 40.2000007629
    vertex 25.0000000000 4.8000001907 40.2000007629
  endloop
endfacet
facet normal 0.0000000000 0.0000000000 1.0000000000
  outer loop
    vertex 25.0000000000 4.8000001907 40.2000007629
    vertex 35.0000000000 4.8000001907 40.2000007629
    vertex 35.0000000000 25.2000007629 40.2000007629
  endloop
endfacet
facet normal -0.0000000000 0.0000000000 1.0000000000
  outer loop
    vertex 5.0000000000 35.0000000000 40.2000007629
    vertex 5.0000004768 25.2000007629 40.2000007629
    vertex 25.0000000000 35.0000000000 40.2000007629
  endloop
endfacet
facet normal 0.0000000000 0.0000000000 1.0000000000
  outer loop
    vertex 5.0000004768 25.2000007629 40.2000007629
    vertex 25.0000000000 25.2000007629 40.2000007629
    vertex 25.0000000000 35.0000000000 40.2000007629
  endloop
endfacet
endsolid REINCARNATE