solid OpenSCAD_Model
  facet normal -0.866025 -0.5 0
    outer loop
      vertex 8.2 5 0
      vertex 6.6 7.77128 3
      vertex 6.6 7.77128 0
    endloop
  endfacet
  facet normal -0.866025 -0.5 0
    outer loop
      vertex 6.6 7.77128 3
      vertex 8.2 5 0
      vertex 8.2 5 3
    endloop
  endfacet
  facet normal 0 1 -0
    outer loop
      vertex 6.6 2.22872 0
      vertex 3.4 2.22872 3
      vertex 6.6 2.22872 3
    endloop
  endfacet
  facet normal 0 1 0
    outer loop
      vertex 3.4 2.22872 3
      vertex 6.6 2.22872 0
      vertex 3.4 2.22872 0
    endloop
  endfacet
  facet normal 0.866025 -0.5 0
    outer loop
      vertex 1.8 5 3
      vertex 3.4 7.77128 0
      vertex 3.4 7.77128 3
    endloop
  endfacet
  facet normal 0.866025 -0.5 0
    outer loop
      vertex 3.4 7.77128 0
      vertex 1.8 5 3
      vertex 1.8 5 0
    endloop
  endfacet
  facet normal 0 -1 0
    outer loop
      vertex 3.4 7.77128 0
      vertex 6.6 7.77128 3
      vertex 3.4 7.77128 3
    endloop
  endfacet
  facet normal 0 -1 -0
    outer loop
      vertex 6.6 7.77128 3
      vertex 3.4 7.77128 0
      vertex 6.6 7.77128 0
    endloop
  endfacet
  facet normal 0.866025 0.5 0
    outer loop
      vertex 3.4 2.22872 3
      vertex 1.8 5 0
      vertex 1.8 5 3
    endloop
  endfacet
  facet normal 0.866025 0.5 0
    outer loop
      vertex 1.8 5 0
      vertex 3.4 2.22872 3
      vertex 3.4 2.22872 0
    endloop
  endfacet
  facet normal 0 0 1
    outer loop
      vertex 6.6 7.77128 3
      vertex 13.4 7.77128 3
      vertex 6.6 12.2287 3
    endloop
  endfacet
  facet normal 0 0 1
    outer loop
      vertex 13.4 7.77128 3
      vertex 6.6 7.77128 3
      vertex 8.2 5 3
    endloop
  endfacet
  facet normal -0 0 1
    outer loop
      vertex 3.4 12.2287 3
      vertex 6.6 7.77128 3
      vertex 6.6 12.2287 3
    endloop
  endfacet
  facet normal 0 0 1
    outer loop
      vertex 3.4 12.2287 3
      vertex 3.4 7.77128 3
      vertex 6.6 7.77128 3
    endloop
  endfacet
  facet normal 0 0 1
    outer loop
      vertex 1.8 15 3
      vertex 3.4 7.77128 3
      vertex 3.4 12.2287 3
    endloop
  endfacet
  facet normal 0 0 1
    outer loop
      vertex 3.4 7.77128 3
      vertex 1.8 15 3
      vertex 1.8 5 3
    endloop
  endfacet
  facet normal -0 0 1
    outer loop
      vertex 16.6 12.2287 3
      vertex 18.2 5 3
      vertex 18.2 15 3
    endloop
  endfacet
  facet normal 0 0 1
    outer loop
      vertex 16.6 12.2287 3
      vertex 16.6 7.77128 3
      vertex 18.2 5 3
    endloop
  endfacet
  facet normal -0 0 1
    outer loop
      vertex 13.4 12.2287 3
      vertex 16.6 7.77128 3
      vertex 16.6 12.2287 3
    endloop
  endfacet
  facet normal 0 0 1
    outer loop
      vertex 13.4 12.2287 3
      vertex 13.4 7.77128 3
      vertex 16.6 7.77128 3
    endloop
  endfacet
  facet normal -0 0 1
    outer loop
      vertex 8.2 15 3
      vertex 13.4 12.2287 3
      vertex 11.8 15 3
    endloop
  endfacet
  facet normal 0 0 1
    outer loop
      vertex 6.6 12.2287 3
      vertex 13.4 12.2287 3
      vertex 8.2 15 3
    endloop
  endfacet
  facet normal 0 0 1
    outer loop
      vertex 20 20 3
      vertex 18.2 15 3
      vertex 20 0 3
    endloop
  endfacet
  facet normal 0 0 1
    outer loop
      vertex 20 20 3
      vertex 16.6 17.7713 3
      vertex 18.2 15 3
    endloop
  endfacet
  facet normal 0 0 1
    outer loop
      vertex 20 20 3
      vertex 13.4 17.7713 3
      vertex 16.6 17.7713 3
    endloop
  endfacet
  facet normal 0 0 1
    outer loop
      vertex 13.4 12.2287 3
      vertex 6.6 12.2287 3
      vertex 13.4 7.77128 3
    endloop
  endfacet
  facet normal 0 0 1
    outer loop
      vertex 13.4 17.7713 3
      vertex 8.2 15 3
      vertex 11.8 15 3
    endloop
  endfacet
  facet normal 0 0 1
    outer loop
      vertex 13.4 17.7713 3
      vertex 6.6 17.7713 3
      vertex 8.2 15 3
    endloop
  endfacet
  facet normal 0 0 1
    outer loop
      vertex 20 20 3
      vertex 6.6 17.7713 3
      vertex 13.4 17.7713 3
    endloop
  endfacet
  facet normal -0 0 1
    outer loop
      vertex 0 20 3
      vertex 6.6 17.7713 3
      vertex 20 20 3
    endloop
  endfacet
  facet normal 0 0 1
    outer loop
      vertex 1.8 15 3
      vertex 0 20 3
      vertex 1.8 5 3
    endloop
  endfacet
  facet normal 0 0 1
    outer loop
      vertex 3.4 17.7713 3
      vertex 0 20 3
      vertex 1.8 15 3
    endloop
  endfacet
  facet normal 0 0 1
    outer loop
      vertex 6.6 17.7713 3
      vertex 0 20 3
      vertex 3.4 17.7713 3
    endloop
  endfacet
  facet normal -0 0 1
    outer loop
      vertex 18.2 5 3
      vertex 20 0 3
      vertex 18.2 15 3
    endloop
  endfacet
  facet normal -0 0 1
    outer loop
      vertex 16.6 2.22872 3
      vertex 20 0 3
      vertex 18.2 5 3
    endloop
  endfacet
  facet normal -0 0 1
    outer loop
      vertex 13.4 2.22872 3
      vertex 20 0 3
      vertex 16.6 2.22872 3
    endloop
  endfacet
  facet normal 0 0 1
    outer loop
      vertex 13.4 7.77128 3
      vertex 8.2 5 3
      vertex 11.8 5 3
    endloop
  endfacet
  facet normal -0 0 1
    outer loop
      vertex 8.2 5 3
      vertex 13.4 2.22872 3
      vertex 11.8 5 3
    endloop
  endfacet
  facet normal 0 0 1
    outer loop
      vertex 6.6 2.22872 3
      vertex 13.4 2.22872 3
      vertex 8.2 5 3
    endloop
  endfacet
  facet normal -0 0 1
    outer loop
      vertex 6.6 2.22872 3
      vertex 20 0 3
      vertex 13.4 2.22872 3
    endloop
  endfacet
  facet normal 0 0 1
    outer loop
      vertex 0 0 3
      vertex 6.6 2.22872 3
      vertex 3.4 2.22872 3
    endloop
  endfacet
  facet normal 0 0 1
    outer loop
      vertex 6.6 2.22872 3
      vertex 0 0 3
      vertex 20 0 3
    endloop
  endfacet
  facet normal 0 0 1
    outer loop
      vertex 1.8 5 3
      vertex 0 0 3
      vertex 3.4 2.22872 3
    endloop
  endfacet
  facet normal 0 0 1
    outer loop
      vertex 0 0 3
      vertex 1.8 5 3
      vertex 0 20 3
    endloop
  endfacet
  facet normal -0.866025 0.5 0
    outer loop
      vertex 6.6 2.22872 0
      vertex 8.2 5 3
      vertex 8.2 5 0
    endloop
  endfacet
  facet normal -0.866025 0.5 0
    outer loop
      vertex 8.2 5 3
      vertex 6.6 2.22872 0
      vertex 6.6 2.22872 3
    endloop
  endfacet
  facet normal -0.866025 -0.500001 0
    outer loop
      vertex 18.2 5 0
      vertex 16.6 7.77128 3
      vertex 16.6 7.77128 0
    endloop
  endfacet
  facet normal -0.866025 -0.500001 0
    outer loop
      vertex 16.6 7.77128 3
      vertex 18.2 5 0
      vertex 18.2 5 3
    endloop
  endfacet
  facet normal 0 1 -0
    outer loop
      vertex 16.6 2.22872 0
      vertex 13.4 2.22872 3
      vertex 16.6 2.22872 3
    endloop
  endfacet
  facet normal 0 1 0
    outer loop
      vertex 13.4 2.22872 3
      vertex 16.6 2.22872 0
      vertex 13.4 2.22872 0
    endloop
  endfacet
  facet normal 0.866025 -0.5 0
    outer loop
      vertex 11.8 5 3
      vertex 13.4 7.77128 0
      vertex 13.4 7.77128 3
    endloop
  endfacet
  facet normal 0.866025 -0.5 0
    outer loop
      vertex 13.4 7.77128 0
      vertex 11.8 5 3
      vertex 11.8 5 0
    endloop
  endfacet
  facet normal 0 -1 0
    outer loop
      vertex 13.4 7.77128 0
      vertex 16.6 7.77128 3
      vertex 13.4 7.77128 3
    endloop
  endfacet
  facet normal 0 -1 -0
    outer loop
      vertex 16.6 7.77128 3
      vertex 13.4 7.77128 0
      vertex 16.6 7.77128 0
    endloop
  endfacet
  facet normal 0.866025 0.5 0
    outer loop
      vertex 13.4 2.22872 3
      vertex 11.8 5 0
      vertex 11.8 5 3
    endloop
  endfacet
  facet normal 0.866025 0.5 0
    outer loop
      vertex 11.8 5 0
      vertex 13.4 2.22872 3
      vertex 13.4 2.22872 0
    endloop
  endfacet
  facet normal -0.866025 0.5 0
    outer loop
      vertex 16.6 2.22872 0
      vertex 18.2 5 3
      vertex 18.2 5 0
    endloop
  endfacet
  facet normal -0.866025 0.5 0
    outer loop
      vertex 18.2 5 3
      vertex 16.6 2.22872 0
      vertex 16.6 2.22872 3
    endloop
  endfacet
  facet normal -0.866025 -0.5 0
    outer loop
      vertex 8.2 15 0
      vertex 6.6 17.7713 3
      vertex 6.6 17.7713 0
    endloop
  endfacet
  facet normal -0.866025 -0.5 0
    outer loop
      vertex 6.6 17.7713 3
      vertex 8.2 15 0
      vertex 8.2 15 3
    endloop
  endfacet
  facet normal 0 1 -0
    outer loop
      vertex 6.6 12.2287 0
      vertex 3.4 12.2287 3
      vertex 6.6 12.2287 3
    endloop
  endfacet
  facet normal 0 1 0
    outer loop
      vertex 3.4 12.2287 3
      vertex 6.6 12.2287 0
      vertex 3.4 12.2287 0
    endloop
  endfacet
  facet normal 0.866025 -0.5 0
    outer loop
      vertex 1.8 15 3
      vertex 3.4 17.7713 0
      vertex 3.4 17.7713 3
    endloop
  endfacet
  facet normal 0.866025 -0.5 0
    outer loop
      vertex 3.4 17.7713 0
      vertex 1.8 15 3
      vertex 1.8 15 0
    endloop
  endfacet
  facet normal 0 -1 0
    outer loop
      vertex 3.4 17.7713 0
      vertex 6.6 17.7713 3
      vertex 3.4 17.7713 3
    endloop
  endfacet
  facet normal 0 -1 -0
    outer loop
      vertex 6.6 17.7713 3
      vertex 3.4 17.7713 0
      vertex 6.6 17.7713 0
    endloop
  endfacet
  facet normal 0.866025 0.5 0
    outer loop
      vertex 3.4 12.2287 3
      vertex 1.8 15 0
      vertex 1.8 15 3
    endloop
  endfacet
  facet normal 0.866025 0.5 0
    outer loop
      vertex 1.8 15 0
      vertex 3.4 12.2287 3
      vertex 3.4 12.2287 0
    endloop
  endfacet
  facet normal -0.866025 0.5 0
    outer loop
      vertex 6.6 12.2287 0
      vertex 8.2 15 3
      vertex 8.2 15 0
    endloop
  endfacet
  facet normal -0.866025 0.5 0
    outer loop
      vertex 8.2 15 3
      vertex 6.6 12.2287 0
      vertex 6.6 12.2287 3
    endloop
  endfacet
  facet normal -0.866025 -0.5 0
    outer loop
      vertex 18.2 15 0
      vertex 16.6 17.7713 3
      vertex 16.6 17.7713 0
    endloop
  endfacet
  facet normal -0.866025 -0.5 0
    outer loop
      vertex 16.6 17.7713 3
      vertex 18.2 15 0
      vertex 18.2 15 3
    endloop
  endfacet
  facet normal 0 1 -0
    outer loop
      vertex 16.6 12.2287 0
      vertex 13.4 12.2287 3
      vertex 16.6 12.2287 3
    endloop
  endfacet
  facet normal 0 1 0
    outer loop
      vertex 13.4 12.2287 3
      vertex 16.6 12.2287 0
      vertex 13.4 12.2287 0
    endloop
  endfacet
  facet normal 0.866025 -0.5 0
    outer loop
      vertex 11.8 15 3
      vertex 13.4 17.7713 0
      vertex 13.4 17.7713 3
    endloop
  endfacet
  facet normal 0.866025 -0.5 0
    outer loop
      vertex 13.4 17.7713 0
      vertex 11.8 15 3
      vertex 11.8 15 0
    endloop
  endfacet
  facet normal 0 -1 0
    outer loop
      vertex 13.4 17.7713 0
      vertex 16.6 17.7713 3
      vertex 13.4 17.7713 3
    endloop
  endfacet
  facet normal 0 -1 -0
    outer loop
      vertex 16.6 17.7713 3
      vertex 13.4 17.7713 0
      vertex 16.6 17.7713 0
    endloop
  endfacet
  facet normal 0.866025 0.5 0
    outer loop
      vertex 13.4 12.2287 3
      vertex 11.8 15 0
      vertex 11.8 15 3
    endloop
  endfacet
  facet normal 0.866025 0.5 0
    outer loop
      vertex 11.8 15 0
      vertex 13.4 12.2287 3
      vertex 13.4 12.2287 0
    endloop
  endfacet
  facet normal -0.866025 0.5 0
    outer loop
      vertex 16.6 12.2287 0
      vertex 18.2 15 3
      vertex 18.2 15 0
    endloop
  endfacet
  facet normal -0.866025 0.5 0
    outer loop
      vertex 18.2 15 3
      vertex 16.6 12.2287 0
      vertex 16.6 12.2287 3
    endloop
  endfacet
  facet normal -1 0 0
    outer loop
      vertex 0 0 0
      vertex 0 20 3
      vertex 0 20 0
    endloop
  endfacet
  facet normal -1 -0 0
    outer loop
      vertex 0 20 3
      vertex 0 0 0
      vertex 0 0 3
    endloop
  endfacet
  facet normal 1 -0 0
    outer loop
      vertex 20 0 3
      vertex 20 20 0
      vertex 20 20 3
    endloop
  endfacet
  facet normal 1 0 0
    outer loop
      vertex 20 20 0
      vertex 20 0 3
      vertex 20 0 0
    endloop
  endfacet
  facet normal 0 0 -1
    outer loop
      vertex 6.6 12.2287 0
      vertex 13.4 12.2287 0
      vertex 6.6 7.77128 0
    endloop
  endfacet
  facet normal 0 0 -1
    outer loop
      vertex 13.4 12.2287 0
      vertex 6.6 12.2287 0
      vertex 8.2 15 0
    endloop
  endfacet
  facet normal 0 0 -1
    outer loop
      vertex 3.4 7.77128 0
      vertex 6.6 12.2287 0
      vertex 6.6 7.77128 0
    endloop
  endfacet
  facet normal 0 0 -1
    outer loop
      vertex 3.4 7.77128 0
      vertex 3.4 12.2287 0
      vertex 6.6 12.2287 0
    endloop
  endfacet
  facet normal 0 0 -1
    outer loop
      vertex 1.8 5 0
      vertex 3.4 12.2287 0
      vertex 3.4 7.77128 0
    endloop
  endfacet
  facet normal -0 0 -1
    outer loop
      vertex 3.4 12.2287 0
      vertex 1.8 5 0
      vertex 1.8 15 0
    endloop
  endfacet
  facet normal 0 0 -1
    outer loop
      vertex 16.6 7.77128 0
      vertex 18.2 15 0
      vertex 18.2 5 0
    endloop
  endfacet
  facet normal 0 0 -1
    outer loop
      vertex 16.6 7.77128 0
      vertex 16.6 12.2287 0
      vertex 18.2 15 0
    endloop
  endfacet
  facet normal 0 0 -1
    outer loop
      vertex 13.4 7.77128 0
      vertex 16.6 12.2287 0
      vertex 16.6 7.77128 0
    endloop
  endfacet
  facet normal 0 0 -1
    outer loop
      vertex 13.4 7.77128 0
      vertex 13.4 12.2287 0
      vertex 16.6 12.2287 0
    endloop
  endfacet
  facet normal 0 0 -1
    outer loop
      vertex 8.2 5 0
      vertex 13.4 7.77128 0
      vertex 11.8 5 0
    endloop
  endfacet
  facet normal 0 0 -1
    outer loop
      vertex 6.6 7.77128 0
      vertex 13.4 7.77128 0
      vertex 8.2 5 0
    endloop
  endfacet
  facet normal 0 0 -1
    outer loop
      vertex 20 0 0
      vertex 18.2 5 0
      vertex 20 20 0
    endloop
  endfacet
  facet normal 0 0 -1
    outer loop
      vertex 20 0 0
      vertex 16.6 2.22872 0
      vertex 18.2 5 0
    endloop
  endfacet
  facet normal 0 0 -1
    outer loop
      vertex 20 0 0
      vertex 13.4 2.22872 0
      vertex 16.6 2.22872 0
    endloop
  endfacet
  facet normal 0 0 -1
    outer loop
      vertex 13.4 7.77128 0
      vertex 6.6 7.77128 0
      vertex 13.4 12.2287 0
    endloop
  endfacet
  facet normal 0 0 -1
    outer loop
      vertex 13.4 2.22872 0
      vertex 8.2 5 0
      vertex 11.8 5 0
    endloop
  endfacet
  facet normal 0 0 -1
    outer loop
      vertex 13.4 2.22872 0
      vertex 6.6 2.22872 0
      vertex 8.2 5 0
    endloop
  endfacet
  facet normal 0 0 -1
    outer loop
      vertex 20 0 0
      vertex 6.6 2.22872 0
      vertex 13.4 2.22872 0
    endloop
  endfacet
  facet normal 0 0 -1
    outer loop
      vertex 0 0 0
      vertex 6.6 2.22872 0
      vertex 20 0 0
    endloop
  endfacet
  facet normal -0 0 -1
    outer loop
      vertex 1.8 5 0
      vertex 0 0 0
      vertex 1.8 15 0
    endloop
  endfacet
  facet normal -0 0 -1
    outer loop
      vertex 3.4 2.22872 0
      vertex 0 0 0
      vertex 1.8 5 0
    endloop
  endfacet
  facet normal -0 0 -1
    outer loop
      vertex 6.6 2.22872 0
      vertex 0 0 0
      vertex 3.4 2.22872 0
    endloop
  endfacet
  facet normal 0 0 -1
    outer loop
      vertex 18.2 15 0
      vertex 20 20 0
      vertex 18.2 5 0
    endloop
  endfacet
  facet normal 0 0 -1
    outer loop
      vertex 16.6 17.7713 0
      vertex 20 20 0
      vertex 18.2 15 0
    endloop
  endfacet
  facet normal 0 0 -1
    outer loop
      vertex 13.4 17.7713 0
      vertex 20 20 0
      vertex 16.6 17.7713 0
    endloop
  endfacet
  facet normal 0 0 -1
    outer loop
      vertex 13.4 12.2287 0
      vertex 8.2 15 0
      vertex 11.8 15 0
    endloop
  endfacet
  facet normal 0 0 -1
    outer loop
      vertex 8.2 15 0
      vertex 13.4 17.7713 0
      vertex 11.8 15 0
    endloop
  endfacet
  facet normal 0 0 -1
    outer loop
      vertex 6.6 17.7713 0
      vertex 13.4 17.7713 0
      vertex 8.2 15 0
    endloop
  endfacet
  facet normal 0 0 -1
    outer loop
      vertex 6.6 17.7713 0
      vertex 20 20 0
      vertex 13.4 17.7713 0
    endloop
  endfacet
  facet normal 0 0 -1
    outer loop
      vertex 0 20 0
      vertex 6.6 17.7713 0
      vertex 3.4 17.7713 0
    endloop
  endfacet
  facet normal 0 0 -1
    outer loop
      vertex 6.6 17.7713 0
      vertex 0 20 0
      vertex 20 20 0
    endloop
  endfacet
  facet normal 0 0 -1
    outer loop
      vertex 1.8 15 0
      vertex 0 20 0
      vertex 3.4 17.7713 0
    endloop
  endfacet
  facet normal 0 0 -1
    outer loop
      vertex 0 20 0
      vertex 1.8 15 0
      vertex 0 0 0
    endloop
  endfacet
  facet normal 0 -1 0
    outer loop
      vertex 0 0 0
      vertex 20 0 3
      vertex 0 0 3
    endloop
  endfacet
  facet normal 0 -1 -0
    outer loop
      vertex 20 0 3
      vertex 0 0 0
      vertex 20 0 0
    endloop
  endfacet
  facet normal 0 1 -0
    outer loop
      vertex 20 20 0
      vertex 0 20 3
      vertex 20 20 3
    endloop
  endfacet
  facet normal 0 1 0
    outer loop
      vertex 0 20 3
      vertex 20 20 0
      vertex 0 20 0
    endloop
  endfacet
endsolid OpenSCAD_Model
