solid OpenSCAD_Model
  facet normal -1 0 0
    outer loop
      vertex 0 0 0
      vertex 0 35 30
      vertex 0 35 0
    endloop
  endfacet
  facet normal -1 -0 0
    outer loop
      vertex 0 35 30
      vertex 0 0 0
      vertex 0 0 30
    endloop
  endfacet
  facet normal -0 0 1
    outer loop
      vertex 2 18 30
      vertex 33 16 30
      vertex 33 18 30
    endloop
  endfacet
  facet normal 0 0 1
    outer loop
      vertex 33 16 30
      vertex 2 18 30
      vertex 2 16 30
    endloop
  endfacet
  facet normal 0 0 1
    outer loop
      vertex 33 18 30
      vertex 35 35 30
      vertex 33 33 30
    endloop
  endfacet
  facet normal 0 0 1
    outer loop
      vertex 35 35 30
      vertex 2 33 30
      vertex 33 33 30
    endloop
  endfacet
  facet normal 0 0 1
    outer loop
      vertex 0 35 30
      vertex 2 18 30
      vertex 2 33 30
    endloop
  endfacet
  facet normal 0 0 1
    outer loop
      vertex 2 18 30
      vertex 0 35 30
      vertex 2 16 30
    endloop
  endfacet
  facet normal 0 0 1
    outer loop
      vertex 2 16 30
      vertex 0 35 30
      vertex 0 0 30
    endloop
  endfacet
  facet normal -0 0 1
    outer loop
      vertex 0 35 30
      vertex 2 33 30
      vertex 35 35 30
    endloop
  endfacet
  facet normal 0 0 1
    outer loop
      vertex 35 35 30
      vertex 33 18 30
      vertex 35 0 30
    endloop
  endfacet
  facet normal -0 0 1
    outer loop
      vertex 33 16 30
      vertex 35 0 30
      vertex 33 18 30
    endloop
  endfacet
  facet normal -0 0 1
    outer loop
      vertex 33 1 30
      vertex 35 0 30
      vertex 33 16 30
    endloop
  endfacet
  facet normal -0 0 1
    outer loop
      vertex 2 1 30
      vertex 35 0 30
      vertex 33 1 30
    endloop
  endfacet
  facet normal 0 0 1
    outer loop
      vertex 2 1 30
      vertex 0 0 30
      vertex 35 0 30
    endloop
  endfacet
  facet normal 0 0 1
    outer loop
      vertex 2 16 30
      vertex 0 0 30
      vertex 2 1 30
    endloop
  endfacet
  facet normal 1 -0 0
    outer loop
      vertex 35 0 30
      vertex 35 35 0
      vertex 35 35 30
    endloop
  endfacet
  facet normal 1 0 0
    outer loop
      vertex 35 35 0
      vertex 35 0 30
      vertex 35 0 0
    endloop
  endfacet
  facet normal 0 0 -1
    outer loop
      vertex 0 0 0
      vertex 35 35 0
      vertex 35 0 0
    endloop
  endfacet
  facet normal -0 0 -1
    outer loop
      vertex 35 35 0
      vertex 0 0 0
      vertex 0 35 0
    endloop
  endfacet
  facet normal 0 -1 0
    outer loop
      vertex 0 0 0
      vertex 35 0 30
      vertex 0 0 30
    endloop
  endfacet
  facet normal 0 -1 -0
    outer loop
      vertex 35 0 30
      vertex 0 0 0
      vertex 35 0 0
    endloop
  endfacet
  facet normal 0 1 -0
    outer loop
      vertex 35 35 0
      vertex 0 35 30
      vertex 35 35 30
    endloop
  endfacet
  facet normal 0 1 0
    outer loop
      vertex 0 35 30
      vertex 35 35 0
      vertex 0 35 0
    endloop
  endfacet
  facet normal 1 -0 0
    outer loop
      vertex 2 1 30
      vertex 2 16 5
      vertex 2 16 30
    endloop
  endfacet
  facet normal 1 0 0
    outer loop
      vertex 2 16 5
      vertex 2 1 30
      vertex 2 1 5
    endloop
  endfacet
  facet normal -1 0 0
    outer loop
      vertex 33 1 5
      vertex 33 16 30
      vertex 33 16 5
    endloop
  endfacet
  facet normal -1 -0 0
    outer loop
      vertex 33 16 30
      vertex 33 1 5
      vertex 33 1 30
    endloop
  endfacet
  facet normal -0 0 1
    outer loop
      vertex 2 16 5
      vertex 33 1 5
      vertex 33 16 5
    endloop
  endfacet
  facet normal 0 0 1
    outer loop
      vertex 33 1 5
      vertex 2 16 5
      vertex 2 1 5
    endloop
  endfacet
  facet normal 0 1 -0
    outer loop
      vertex 33 1 5
      vertex 2 1 30
      vertex 33 1 30
    endloop
  endfacet
  facet normal 0 1 0
    outer loop
      vertex 2 1 30
      vertex 33 1 5
      vertex 2 1 5
    endloop
  endfacet
  facet normal 0 -1 0
    outer loop
      vertex 2 16 5
      vertex 33 16 30
      vertex 2 16 30
    endloop
  endfacet
  facet normal 0 -1 -0
    outer loop
      vertex 33 16 30
      vertex 2 16 5
      vertex 33 16 5
    endloop
  endfacet
  facet normal 1 -0 0
    outer loop
      vertex 2 18 30
      vertex 2 33 5
      vertex 2 33 30
    endloop
  endfacet
  facet normal 1 0 0
    outer loop
      vertex 2 33 5
      vertex 2 18 30
      vertex 2 18 5
    endloop
  endfacet
  facet normal -1 0 0
    outer loop
      vertex 33 18 5
      vertex 33 33 30
      vertex 33 33 5
    endloop
  endfacet
  facet normal -1 -0 0
    outer loop
      vertex 33 33 30
      vertex 33 18 5
      vertex 33 18 30
    endloop
  endfacet
  facet normal 0 -1 0
    outer loop
      vertex 2 33 5
      vertex 33 33 30
      vertex 2 33 30
    endloop
  endfacet
  facet normal 0 -1 -0
    outer loop
      vertex 33 33 30
      vertex 2 33 5
      vertex 33 33 5
    endloop
  endfacet
  facet normal -0 0 1
    outer loop
      vertex 2 33 5
      vertex 33 18 5
      vertex 33 33 5
    endloop
  endfacet
  facet normal 0 0 1
    outer loop
      vertex 33 18 5
      vertex 2 33 5
      vertex 2 18 5
    endloop
  endfacet
  facet normal 0 1 -0
    outer loop
      vertex 33 18 5
      vertex 2 18 30
      vertex 33 18 30
    endloop
  endfacet
  facet normal 0 1 0
    outer loop
      vertex 2 18 30
      vertex 33 18 5
      vertex 2 18 5
    endloop
  endfacet
endsolid OpenSCAD_Model
