solid OpenSCAD_Model
  facet normal 0 -0 -1
    outer loop
      vertex -12.4 -7.60001 0
      vertex -12.4 -15.6 0
      vertex -20 -15.6 0
    endloop
  endfacet
  facet normal 0 0 -1
    outer loop
      vertex 12.4 -7.60001 0
      vertex 20 -56 0
      vertex 12.4 -48.4 0
    endloop
  endfacet
  facet normal 0 0 -1
    outer loop
      vertex 3.59999 -15.6 0
      vertex -3.60001 -15.6 0
      vertex -3.60001 -7.60001 0
    endloop
  endfacet
  facet normal 0 0 -1
    outer loop
      vertex -3.60001 -7.60001 0
      vertex -12.4 -7.60001 0
      vertex -20 0 0
    endloop
  endfacet
  facet normal -0 0 -1
    outer loop
      vertex -12.4 -7.60001 0
      vertex -20 -15.6 0
      vertex -20 0 0
    endloop
  endfacet
  facet normal 0 0 -1
    outer loop
      vertex 3.59999 -7.60001 0
      vertex -3.60001 -7.60001 0
      vertex -20 0 0
    endloop
  endfacet
  facet normal 0 0 -1
    outer loop
      vertex 3.59999 -15.6 0
      vertex -3.60001 -7.60001 0
      vertex 3.59999 -7.60001 0
    endloop
  endfacet
  facet normal 0 0 -1
    outer loop
      vertex 3.59999 -7.60001 0
      vertex -20 0 0
      vertex 20 0 0
    endloop
  endfacet
  facet normal 0 0 -1
    outer loop
      vertex 20 -56 0
      vertex 12.4 -7.60001 0
      vertex 20 0 0
    endloop
  endfacet
  facet normal 0 0 -1
    outer loop
      vertex 12.4 -7.60001 0
      vertex 3.59999 -7.60001 0
      vertex 20 0 0
    endloop
  endfacet
  facet normal -0 -0 -1
    outer loop
      vertex 12.4 -48.4 0
      vertex 20 -56 0
      vertex 3.59999 -48.4 0
    endloop
  endfacet
  facet normal -0 -0 -1
    outer loop
      vertex 3.59999 -40.4 0
      vertex 3.59999 -48.4 0
      vertex -3.60001 -40.4 0
    endloop
  endfacet
  facet normal -0 0 -1
    outer loop
      vertex 3.59999 -48.4 0
      vertex -20 -56 0
      vertex -3.60001 -48.4 0
    endloop
  endfacet
  facet normal 0 0 -1
    outer loop
      vertex -3.60001 -40.4 0
      vertex 3.59999 -48.4 0
      vertex -3.60001 -48.4 0
    endloop
  endfacet
  facet normal -0 0 -1
    outer loop
      vertex -3.60001 -48.4 0
      vertex -20 -56 0
      vertex -12.4 -48.4 0
    endloop
  endfacet
  facet normal -0 -0 -1
    outer loop
      vertex -12.4 -24.4 0
      vertex -12.4 -48.4 0
      vertex -20 -24.4 0
    endloop
  endfacet
  facet normal 0 -0 -1
    outer loop
      vertex 3.59999 -48.4 0
      vertex 20 -56 0
      vertex -20 -56 0
    endloop
  endfacet
  facet normal 0 0 -1
    outer loop
      vertex -20 -24.4 0
      vertex -12.4 -48.4 0
      vertex -20 -56 0
    endloop
  endfacet
  facet normal 0 0 1
    outer loop
      vertex -20 -15.6 8
      vertex -12.4 -15.6 8
      vertex -12.4 -7.60001 8
    endloop
  endfacet
  facet normal -0 0 1
    outer loop
      vertex 12.4 -48.4 8
      vertex 20 -56 8
      vertex 12.4 -7.60001 8
    endloop
  endfacet
  facet normal 0 0 1
    outer loop
      vertex -3.60001 -7.60001 8
      vertex -3.60001 -15.6 8
      vertex 3.59999 -15.6 8
    endloop
  endfacet
  facet normal 0 0 1
    outer loop
      vertex -20 0 8
      vertex -12.4 -7.60001 8
      vertex -3.60001 -7.60001 8
    endloop
  endfacet
  facet normal 0 0 1
    outer loop
      vertex -20 0 8
      vertex -20 -15.6 8
      vertex -12.4 -7.60001 8
    endloop
  endfacet
  facet normal 0 0 1
    outer loop
      vertex -20 0 8
      vertex -3.60001 -7.60001 8
      vertex 3.59999 -7.60001 8
    endloop
  endfacet
  facet normal 0 0 1
    outer loop
      vertex 3.59999 -7.60001 8
      vertex -3.60001 -7.60001 8
      vertex 3.59999 -15.6 8
    endloop
  endfacet
  facet normal 0 0 1
    outer loop
      vertex 20 0 8
      vertex -20 0 8
      vertex 3.59999 -7.60001 8
    endloop
  endfacet
  facet normal 0 0 1
    outer loop
      vertex 20 0 8
      vertex 12.4 -7.60001 8
      vertex 20 -56 8
    endloop
  endfacet
  facet normal 0 0 1
    outer loop
      vertex 20 0 8
      vertex 3.59999 -7.60001 8
      vertex 12.4 -7.60001 8
    endloop
  endfacet
  facet normal -0 0 1
    outer loop
      vertex 3.59999 -48.4 8
      vertex 20 -56 8
      vertex 12.4 -48.4 8
    endloop
  endfacet
  facet normal -0 0 1
    outer loop
      vertex -3.60001 -40.4 8
      vertex 3.59999 -48.4 8
      vertex 3.59999 -40.4 8
    endloop
  endfacet
  facet normal -0 0 1
    outer loop
      vertex -3.60001 -48.4 8
      vertex -20 -56 8
      vertex 3.59999 -48.4 8
    endloop
  endfacet
  facet normal 0 0 1
    outer loop
      vertex -3.60001 -48.4 8
      vertex 3.59999 -48.4 8
      vertex -3.60001 -40.4 8
    endloop
  endfacet
  facet normal -0 0 1
    outer loop
      vertex -12.4 -48.4 8
      vertex -20 -56 8
      vertex -3.60001 -48.4 8
    endloop
  endfacet
  facet normal -0 0 1
    outer loop
      vertex -20 -24.4 8
      vertex -12.4 -48.4 8
      vertex -12.4 -24.4 8
    endloop
  endfacet
  facet normal 0 0 1
    outer loop
      vertex -20 -56 8
      vertex 20 -56 8
      vertex 3.59999 -48.4 8
    endloop
  endfacet
  facet normal 0 0 1
    outer loop
      vertex -20 -56 8
      vertex -12.4 -48.4 8
      vertex -20 -24.4 8
    endloop
  endfacet
  facet normal 0 1 0
    outer loop
      vertex -20 0 0
      vertex 20 0 8
      vertex 20 0 0
    endloop
  endfacet
  facet normal 0 1 0
    outer loop
      vertex -20 0 0
      vertex -20 0 8
      vertex 20 0 8
    endloop
  endfacet
  facet normal -1 0 0
    outer loop
      vertex -20 -15.6 0
      vertex -20 0 8
      vertex -20 0 0
    endloop
  endfacet
  facet normal -1 0 0
    outer loop
      vertex -20 -15.6 0
      vertex -20 -15.6 8
      vertex -20 0 8
    endloop
  endfacet
  facet normal 0 -1 0
    outer loop
      vertex -12.4 -15.6 0
      vertex -20 -15.6 8
      vertex -20 -15.6 0
    endloop
  endfacet
  facet normal 0 -1 0
    outer loop
      vertex -12.4 -15.6 0
      vertex -12.4 -15.6 8
      vertex -20 -15.6 8
    endloop
  endfacet
  facet normal 1 0 0
    outer loop
      vertex -12.4 -7.60001 0
      vertex -12.4 -15.6 8
      vertex -12.4 -15.6 0
    endloop
  endfacet
  facet normal 1 0 -0
    outer loop
      vertex -12.4 -7.60001 0
      vertex -12.4 -7.60001 8
      vertex -12.4 -15.6 8
    endloop
  endfacet
  facet normal 0 -1 0
    outer loop
      vertex -3.60001 -7.60001 0
      vertex -12.4 -7.60001 8
      vertex -12.4 -7.60001 0
    endloop
  endfacet
  facet normal 0 -1 0
    outer loop
      vertex -3.60001 -7.60001 0
      vertex -3.60001 -7.60001 8
      vertex -12.4 -7.60001 8
    endloop
  endfacet
  facet normal -1 0 0
    outer loop
      vertex -3.60001 -15.6 0
      vertex -3.60001 -7.60001 8
      vertex -3.60001 -7.60001 0
    endloop
  endfacet
  facet normal -1 0 0
    outer loop
      vertex -3.60001 -15.6 0
      vertex -3.60001 -15.6 8
      vertex -3.60001 -7.60001 8
    endloop
  endfacet
  facet normal 0 -1 0
    outer loop
      vertex 3.59999 -15.6 0
      vertex -3.60001 -15.6 8
      vertex -3.60001 -15.6 0
    endloop
  endfacet
  facet normal 0 -1 0
    outer loop
      vertex 3.59999 -15.6 0
      vertex 3.59999 -15.6 8
      vertex -3.60001 -15.6 8
    endloop
  endfacet
  facet normal 1 0 0
    outer loop
      vertex 3.59999 -7.60001 0
      vertex 3.59999 -15.6 8
      vertex 3.59999 -15.6 0
    endloop
  endfacet
  facet normal 1 0 -0
    outer loop
      vertex 3.59999 -7.60001 0
      vertex 3.59999 -7.60001 8
      vertex 3.59999 -15.6 8
    endloop
  endfacet
  facet normal 0 -1 0
    outer loop
      vertex 12.4 -7.60001 0
      vertex 3.59999 -7.60001 8
      vertex 3.59999 -7.60001 0
    endloop
  endfacet
  facet normal 0 -1 0
    outer loop
      vertex 12.4 -7.60001 0
      vertex 12.4 -7.60001 8
      vertex 3.59999 -7.60001 8
    endloop
  endfacet
  facet normal -1 0 0
    outer loop
      vertex 12.4 -48.4 0
      vertex 12.4 -7.60001 8
      vertex 12.4 -7.60001 0
    endloop
  endfacet
  facet normal -1 0 0
    outer loop
      vertex 12.4 -48.4 0
      vertex 12.4 -48.4 8
      vertex 12.4 -7.60001 8
    endloop
  endfacet
  facet normal 0 1 0
    outer loop
      vertex 3.59999 -48.4 0
      vertex 12.4 -48.4 8
      vertex 12.4 -48.4 0
    endloop
  endfacet
  facet normal 0 1 0
    outer loop
      vertex 3.59999 -48.4 0
      vertex 3.59999 -48.4 8
      vertex 12.4 -48.4 8
    endloop
  endfacet
  facet normal 1 0 0
    outer loop
      vertex 3.59999 -40.4 0
      vertex 3.59999 -48.4 8
      vertex 3.59999 -48.4 0
    endloop
  endfacet
  facet normal 1 0 -0
    outer loop
      vertex 3.59999 -40.4 0
      vertex 3.59999 -40.4 8
      vertex 3.59999 -48.4 8
    endloop
  endfacet
  facet normal 0 1 0
    outer loop
      vertex -3.60001 -40.4 0
      vertex 3.59999 -40.4 8
      vertex 3.59999 -40.4 0
    endloop
  endfacet
  facet normal 0 1 0
    outer loop
      vertex -3.60001 -40.4 0
      vertex -3.60001 -40.4 8
      vertex 3.59999 -40.4 8
    endloop
  endfacet
  facet normal -1 0 0
    outer loop
      vertex -3.60001 -48.4 0
      vertex -3.60001 -40.4 8
      vertex -3.60001 -40.4 0
    endloop
  endfacet
  facet normal -1 0 0
    outer loop
      vertex -3.60001 -48.4 0
      vertex -3.60001 -48.4 8
      vertex -3.60001 -40.4 8
    endloop
  endfacet
  facet normal 0 1 0
    outer loop
      vertex -12.4 -48.4 0
      vertex -3.60001 -48.4 8
      vertex -3.60001 -48.4 0
    endloop
  endfacet
  facet normal 0 1 0
    outer loop
      vertex -12.4 -48.4 0
      vertex -12.4 -48.4 8
      vertex -3.60001 -48.4 8
    endloop
  endfacet
  facet normal 1 0 0
    outer loop
      vertex -12.4 -24.4 0
      vertex -12.4 -48.4 8
      vertex -12.4 -48.4 0
    endloop
  endfacet
  facet normal 1 0 -0
    outer loop
      vertex -12.4 -24.4 0
      vertex -12.4 -24.4 8
      vertex -12.4 -48.4 8
    endloop
  endfacet
  facet normal 0 1 0
    outer loop
      vertex -20 -24.4 0
      vertex -12.4 -24.4 8
      vertex -12.4 -24.4 0
    endloop
  endfacet
  facet normal 0 1 0
    outer loop
      vertex -20 -24.4 0
      vertex -20 -24.4 8
      vertex -12.4 -24.4 8
    endloop
  endfacet
  facet normal -1 0 0
    outer loop
      vertex -20 -56 0
      vertex -20 -24.4 8
      vertex -20 -24.4 0
    endloop
  endfacet
  facet normal -1 0 0
    outer loop
      vertex -20 -56 0
      vertex -20 -56 8
      vertex -20 -24.4 8
    endloop
  endfacet
  facet normal 0 -1 0
    outer loop
      vertex 20 -56 0
      vertex -20 -56 8
      vertex -20 -56 0
    endloop
  endfacet
  facet normal 0 -1 0
    outer loop
      vertex 20 -56 0
      vertex 20 -56 8
      vertex -20 -56 8
    endloop
  endfacet
  facet normal 1 0 0
    outer loop
      vertex 20 0 0
      vertex 20 -56 8
      vertex 20 -56 0
    endloop
  endfacet
  facet normal 1 0 -0
    outer loop
      vertex 20 0 0
      vertex 20 0 8
      vertex 20 -56 8
    endloop
  endfacet
endsolid OpenSCAD_Model
