solid OpenSCAD_Model
  facet normal -1 0 0
    outer loop
      vertex 0 0 0
      vertex 0 19 10
      vertex 0 19 0
    endloop
  endfacet
  facet normal -1 -0 0
    outer loop
      vertex 0 19 10
      vertex 0 0 0
      vertex 0 0 10
    endloop
  endfacet
  facet normal -1 0 0
    outer loop
      vertex 0 42 0
      vertex 0 57 10
      vertex 0 57 0
    endloop
  endfacet
  facet normal -1 -0 0
    outer loop
      vertex 0 57 10
      vertex 0 42 0
      vertex 0 42 10
    endloop
  endfacet
  facet normal -1 0 0
    outer loop
      vertex 0 26 0
      vertex 0 35 10
      vertex 0 35 0
    endloop
  endfacet
  facet normal -1 -0 0
    outer loop
      vertex 0 35 10
      vertex 0 26 0
      vertex 0 26 10
    endloop
  endfacet
  facet normal 0 0 1
    outer loop
      vertex 10 19 10
      vertex 0 19 10
      vertex 10 9 10
    endloop
  endfacet
  facet normal -0 0 1
    outer loop
      vertex 0 35 10
      vertex 17 26 10
      vertex 17 35 10
    endloop
  endfacet
  facet normal 0 0 1
    outer loop
      vertex 17 26 10
      vertex 0 35 10
      vertex 0 26 10
    endloop
  endfacet
  facet normal 0 0 1
    outer loop
      vertex 40 57 10
      vertex 32 48 10
      vertex 40 22 10
    endloop
  endfacet
  facet normal 0 0 1
    outer loop
      vertex 40 57 10
      vertex 25 48 10
      vertex 32 48 10
    endloop
  endfacet
  facet normal 0 0 1
    outer loop
      vertex 17 35 10
      vertex 25 48 10
      vertex 17 48 10
    endloop
  endfacet
  facet normal 0 0 1
    outer loop
      vertex 40 57 10
      vertex 17 48 10
      vertex 25 48 10
    endloop
  endfacet
  facet normal -0 0 1
    outer loop
      vertex 0 57 10
      vertex 17 48 10
      vertex 40 57 10
    endloop
  endfacet
  facet normal 0 0 1
    outer loop
      vertex 17 48 10
      vertex 0 57 10
      vertex 10 48 10
    endloop
  endfacet
  facet normal 0 0 1
    outer loop
      vertex 0 42 10
      vertex 10 48 10
      vertex 0 57 10
    endloop
  endfacet
  facet normal 0 0 1
    outer loop
      vertex 10 48 10
      vertex 0 42 10
      vertex 10 42 10
    endloop
  endfacet
  facet normal 0 0 1
    outer loop
      vertex 40 22 10
      vertex 32 48 10
      vertex 32 22 10
    endloop
  endfacet
  facet normal 0 0 1
    outer loop
      vertex 32 9 10
      vertex 40 15 10
      vertex 32 15 10
    endloop
  endfacet
  facet normal 0 0 1
    outer loop
      vertex 40 15 10
      vertex 32 9 10
      vertex 40 0 10
    endloop
  endfacet
  facet normal -0 0 1
    outer loop
      vertex 25 9 10
      vertex 40 0 10
      vertex 32 9 10
    endloop
  endfacet
  facet normal 0 0 1
    outer loop
      vertex 17 26 10
      vertex 25 48 10
      vertex 17 35 10
    endloop
  endfacet
  facet normal 0 0 1
    outer loop
      vertex 25 48 10
      vertex 17 26 10
      vertex 25 9 10
    endloop
  endfacet
  facet normal 0 0 1
    outer loop
      vertex 17 9 10
      vertex 25 9 10
      vertex 17 26 10
    endloop
  endfacet
  facet normal -0 0 1
    outer loop
      vertex 17 9 10
      vertex 40 0 10
      vertex 25 9 10
    endloop
  endfacet
  facet normal 0 0 1
    outer loop
      vertex 0 0 10
      vertex 17 9 10
      vertex 10 9 10
    endloop
  endfacet
  facet normal 0 0 1
    outer loop
      vertex 17 9 10
      vertex 0 0 10
      vertex 40 0 10
    endloop
  endfacet
  facet normal 0 0 1
    outer loop
      vertex 0 0 10
      vertex 10 9 10
      vertex 0 19 10
    endloop
  endfacet
  facet normal 1 -0 0
    outer loop
      vertex 40 0 10
      vertex 40 15 0
      vertex 40 15 10
    endloop
  endfacet
  facet normal 1 0 0
    outer loop
      vertex 40 15 0
      vertex 40 0 10
      vertex 40 0 0
    endloop
  endfacet
  facet normal 1 -0 0
    outer loop
      vertex 40 22 10
      vertex 40 57 0
      vertex 40 57 10
    endloop
  endfacet
  facet normal 1 0 0
    outer loop
      vertex 40 57 0
      vertex 40 22 10
      vertex 40 22 0
    endloop
  endfacet
  facet normal 0 0 -1
    outer loop
      vertex 10 42 0
      vertex 0 42 0
      vertex 10 48 0
    endloop
  endfacet
  facet normal 0 0 -1
    outer loop
      vertex 0 26 0
      vertex 17 35 0
      vertex 17 26 0
    endloop
  endfacet
  facet normal -0 0 -1
    outer loop
      vertex 17 35 0
      vertex 0 26 0
      vertex 0 35 0
    endloop
  endfacet
  facet normal 0 0 -1
    outer loop
      vertex 40 0 0
      vertex 32 9 0
      vertex 40 15 0
    endloop
  endfacet
  facet normal 0 0 -1
    outer loop
      vertex 40 0 0
      vertex 25 9 0
      vertex 32 9 0
    endloop
  endfacet
  facet normal 0 0 -1
    outer loop
      vertex 17 26 0
      vertex 25 9 0
      vertex 17 9 0
    endloop
  endfacet
  facet normal 0 0 -1
    outer loop
      vertex 40 0 0
      vertex 17 9 0
      vertex 25 9 0
    endloop
  endfacet
  facet normal 0 0 -1
    outer loop
      vertex 0 0 0
      vertex 17 9 0
      vertex 40 0 0
    endloop
  endfacet
  facet normal -0 0 -1
    outer loop
      vertex 17 9 0
      vertex 0 0 0
      vertex 10 9 0
    endloop
  endfacet
  facet normal 0 0 -1
    outer loop
      vertex 0 19 0
      vertex 10 9 0
      vertex 0 0 0
    endloop
  endfacet
  facet normal 0 0 -1
    outer loop
      vertex 10 9 0
      vertex 0 19 0
      vertex 10 19 0
    endloop
  endfacet
  facet normal -0 0 -1
    outer loop
      vertex 40 15 0
      vertex 32 9 0
      vertex 32 15 0
    endloop
  endfacet
  facet normal 0 0 -1
    outer loop
      vertex 32 48 0
      vertex 40 22 0
      vertex 32 22 0
    endloop
  endfacet
  facet normal 0 0 -1
    outer loop
      vertex 40 22 0
      vertex 32 48 0
      vertex 40 57 0
    endloop
  endfacet
  facet normal 0 0 -1
    outer loop
      vertex 25 48 0
      vertex 40 57 0
      vertex 32 48 0
    endloop
  endfacet
  facet normal 0 0 -1
    outer loop
      vertex 25 9 0
      vertex 17 26 0
      vertex 25 48 0
    endloop
  endfacet
  facet normal 0 0 -1
    outer loop
      vertex 17 35 0
      vertex 25 48 0
      vertex 17 26 0
    endloop
  endfacet
  facet normal 0 0 -1
    outer loop
      vertex 17 48 0
      vertex 25 48 0
      vertex 17 35 0
    endloop
  endfacet
  facet normal 0 0 -1
    outer loop
      vertex 17 48 0
      vertex 40 57 0
      vertex 25 48 0
    endloop
  endfacet
  facet normal 0 0 -1
    outer loop
      vertex 0 57 0
      vertex 17 48 0
      vertex 10 48 0
    endloop
  endfacet
  facet normal 0 0 -1
    outer loop
      vertex 17 48 0
      vertex 0 57 0
      vertex 40 57 0
    endloop
  endfacet
  facet normal 0 0 -1
    outer loop
      vertex 0 57 0
      vertex 10 48 0
      vertex 0 42 0
    endloop
  endfacet
  facet normal 0 -1 0
    outer loop
      vertex 0 0 0
      vertex 40 0 10
      vertex 0 0 10
    endloop
  endfacet
  facet normal 0 -1 -0
    outer loop
      vertex 40 0 10
      vertex 0 0 0
      vertex 40 0 0
    endloop
  endfacet
  facet normal 0 1 -0
    outer loop
      vertex 40 57 0
      vertex 0 57 10
      vertex 40 57 10
    endloop
  endfacet
  facet normal 0 1 0
    outer loop
      vertex 0 57 10
      vertex 40 57 0
      vertex 0 57 0
    endloop
  endfacet
  facet normal 0 1 -0
    outer loop
      vertex 40 15 0
      vertex 32 15 10
      vertex 40 15 10
    endloop
  endfacet
  facet normal 0 1 0
    outer loop
      vertex 32 15 10
      vertex 40 15 0
      vertex 32 15 0
    endloop
  endfacet
  facet normal 0 -1 0
    outer loop
      vertex 32 22 0
      vertex 40 22 10
      vertex 32 22 10
    endloop
  endfacet
  facet normal 0 -1 -0
    outer loop
      vertex 40 22 10
      vertex 32 22 0
      vertex 40 22 0
    endloop
  endfacet
  facet normal 1 -0 0
    outer loop
      vertex 25 9 10
      vertex 25 48 0
      vertex 25 48 10
    endloop
  endfacet
  facet normal 1 0 0
    outer loop
      vertex 25 48 0
      vertex 25 9 10
      vertex 25 9 0
    endloop
  endfacet
  facet normal -1 0 0
    outer loop
      vertex 32 9 0
      vertex 32 15 10
      vertex 32 15 0
    endloop
  endfacet
  facet normal -1 -0 0
    outer loop
      vertex 32 15 10
      vertex 32 9 0
      vertex 32 9 10
    endloop
  endfacet
  facet normal -1 0 0
    outer loop
      vertex 32 22 0
      vertex 32 48 10
      vertex 32 48 0
    endloop
  endfacet
  facet normal -1 -0 0
    outer loop
      vertex 32 48 10
      vertex 32 22 0
      vertex 32 22 10
    endloop
  endfacet
  facet normal 0 1 -0
    outer loop
      vertex 32 9 0
      vertex 25 9 10
      vertex 32 9 10
    endloop
  endfacet
  facet normal 0 1 0
    outer loop
      vertex 25 9 10
      vertex 32 9 0
      vertex 25 9 0
    endloop
  endfacet
  facet normal 0 -1 0
    outer loop
      vertex 25 48 0
      vertex 32 48 10
      vertex 25 48 10
    endloop
  endfacet
  facet normal 0 -1 -0
    outer loop
      vertex 32 48 10
      vertex 25 48 0
      vertex 32 48 0
    endloop
  endfacet
  facet normal 1 -0 0
    outer loop
      vertex 10 9 10
      vertex 10 19 0
      vertex 10 19 10
    endloop
  endfacet
  facet normal 1 0 0
    outer loop
      vertex 10 19 0
      vertex 10 9 10
      vertex 10 9 0
    endloop
  endfacet
  facet normal -1 0 0
    outer loop
      vertex 17 9 0
      vertex 17 26 10
      vertex 17 26 0
    endloop
  endfacet
  facet normal -1 -0 0
    outer loop
      vertex 17 26 10
      vertex 17 9 0
      vertex 17 9 10
    endloop
  endfacet
  facet normal 0 1 -0
    outer loop
      vertex 17 9 0
      vertex 10 9 10
      vertex 17 9 10
    endloop
  endfacet
  facet normal 0 1 0
    outer loop
      vertex 10 9 10
      vertex 17 9 0
      vertex 10 9 0
    endloop
  endfacet
  facet normal 1 -0 0
    outer loop
      vertex 10 42 10
      vertex 10 48 0
      vertex 10 48 10
    endloop
  endfacet
  facet normal 1 0 0
    outer loop
      vertex 10 48 0
      vertex 10 42 10
      vertex 10 42 0
    endloop
  endfacet
  facet normal -1 0 0
    outer loop
      vertex 17 35 0
      vertex 17 48 10
      vertex 17 48 0
    endloop
  endfacet
  facet normal -1 -0 0
    outer loop
      vertex 17 48 10
      vertex 17 35 0
      vertex 17 35 10
    endloop
  endfacet
  facet normal 0 1 -0
    outer loop
      vertex 17 35 0
      vertex 0 35 10
      vertex 17 35 10
    endloop
  endfacet
  facet normal 0 1 0
    outer loop
      vertex 0 35 10
      vertex 17 35 0
      vertex 0 35 0
    endloop
  endfacet
  facet normal 0 -1 0
    outer loop
      vertex 10 48 0
      vertex 17 48 10
      vertex 10 48 10
    endloop
  endfacet
  facet normal 0 -1 -0
    outer loop
      vertex 17 48 10
      vertex 10 48 0
      vertex 17 48 0
    endloop
  endfacet
  facet normal 0 -1 0
    outer loop
      vertex 0 26 0
      vertex 17 26 10
      vertex 0 26 10
    endloop
  endfacet
  facet normal 0 -1 -0
    outer loop
      vertex 17 26 10
      vertex 0 26 0
      vertex 17 26 0
    endloop
  endfacet
  facet normal 0 1 -0
    outer loop
      vertex 10 19 0
      vertex 0 19 10
      vertex 10 19 10
    endloop
  endfacet
  facet normal 0 1 0
    outer loop
      vertex 0 19 10
      vertex 10 19 0
      vertex 0 19 0
    endloop
  endfacet
  facet normal 0 -1 0
    outer loop
      vertex 0 42 0
      vertex 10 42 10
      vertex 0 42 10
    endloop
  endfacet
  facet normal 0 -1 -0
    outer loop
      vertex 10 42 10
      vertex 0 42 0
      vertex 10 42 0
    endloop
  endfacet
endsolid OpenSCAD_Model
