solid REINCARNATE
facet normal 0.0000000000 1.0000000000 0.0000000000
  outer loop
    vertex 10.0000000000 42.0000000000 10.0000000000
    vertex 10.0000000000 42.0000000000 -0.0000000373
    vertex -0.0000001490 42.0000000000 -0.0000000373
  endloop
endfacet
facet normal 0.0000000000 1.0000000000 0.0000000000
  outer loop
    vertex -0.0000001490 42.0000000000 -0.0000000373
    vertex -0.0000001490 42.0000000000 10.0000000000
    vertex 10.0000000000 42.0000000000 10.0000000000
  endloop
endfacet
facet normal 0.0000000000 1.0000000000 0.0000000000
  outer loop
    vertex 17.0000000000 26.0000000000 10.0000000000
    vertex 17.0000000000 26.0000000000 -0.0000000373
    vertex -0.0000001490 26.0000000000 -0.0000000373
  endloop
endfacet
facet normal 0.0000000000 1.0000000000 0.0000000000
  outer loop
    vertex -0.0000001490 26.0000000000 -0.0000000373
    vertex -0.0000001490 26.0000000000 10.0000000000
    vertex 17.0000000000 26.0000000000 10.0000000000
  endloop
endfacet
facet normal 0.0000000000 -1.0000000000 0.0000000000
  outer loop
    vertex 10.0000000000 19.0000000000 -0.0000000373
    vertex -0.0000001490 19.0000000000 10.0000000000
    vertex -0.0000001490 19.0000000000 -0.0000000373
  endloop
endfacet
facet normal 0.0000000000 -1.0000000000 0.0000000000
  outer loop
    vertex -0.0000001490 19.0000000000 10.0000000000
    vertex 10.0000000000 19.0000000000 -0.0000000373
    vertex 10.0000000000 19.0000000000 10.0000000000
  endloop
endfacet
facet normal 0.0000000000 1.0000000000 0.0000000000
  outer loop
    vertex 17.0000000000 48.0000000000 10.0000000000
    vertex 17.0000000000 48.0000000000 -0.0000000373
    vertex 10.0000000000 48.0000000000 -0.0000000373
  endloop
endfacet
facet normal 0.0000000000 1.0000000000 0.0000000000
  outer loop
    vertex 10.0000000000 48.0000000000 -0.0000000373
    vertex 10.0000000000 48.0000000000 10.0000000000
    vertex 17.0000000000 48.0000000000 10.0000000000
  endloop
endfacet
facet normal 0.0000000000 -1.0000000000 0.0000000000
  outer loop
    vertex 17.0000000000 35.0000000000 -0.0000000373
    vertex -0.0000001490 35.0000000000 10.0000000000
    vertex -0.0000001490 35.0000000000 -0.0000000373
  endloop
endfacet
facet normal 0.0000000000 -1.0000000000 0.0000000000
  outer loop
    vertex -0.0000001490 35.0000000000 10.0000000000
    vertex 17.0000000000 35.0000000000 -0.0000000373
    vertex 17.0000000000 35.0000000000 10.0000000000
  endloop
endfacet
facet normal 1.0000000000 0.0000000000 0.0000000000
  outer loop
    vertex 17.0000000000 48.0000000000 10.0000000000
    vertex 17.0000000000 35.0000000000 10.0000000000
    vertex 17.0000000000 35.0000000000 -0.0000000373
  endloop
endfacet
facet normal 1.0000000000 0.0000000000 0.0000000000
  outer loop
    vertex 17.0000000000 35.0000000000 -0.0000000373
    vertex 17.0000000000 48.0000000000 -0.0000000373
    vertex 17.0000000000 48.0000000000 10.0000000000
  endloop
endfacet
facet normal -1.0000000000 0.0000000000 0.0000000000
  outer loop
    vertex 10.0000000000 42.0000000000 -0.0000000373
    vertex 10.0000000000 42.0000000000 10.0000000000
    vertex 10.0000000000 48.0000000000 -0.0000000373
  endloop
endfacet
facet normal -1.0000000000 0.0000000000 0.0000000000
  outer loop
    vertex 10.0000000000 48.0000000000 10.0000000000
    vertex 10.0000000000 48.0000000000 -0.0000000373
    vertex 10.0000000000 42.0000000000 10.0000000000
  endloop
endfacet
facet normal 0.0000000000 -1.0000000000 0.0000000000
  outer loop
    vertex 17.0000000000 9.0000000000 -0.0000000373
    vertex 10.0000000000 9.0000000000 10.0000000000
    vertex 10.0000000000 9.0000000000 -0.0000000373
  endloop
endfacet
facet normal 0.0000000000 -1.0000000000 0.0000000000
  outer loop
    vertex 10.0000000000 9.0000000000 10.0000000000
    vertex 17.0000000000 9.0000000000 -0.0000000373
    vertex 17.0000000000 9.0000000000 10.0000000000
  endloop
endfacet
facet normal 1.0000000000 0.0000000000 0.0000000000
  outer loop
    vertex 17.0000000000 26.0000000000 10.0000000000
    vertex 17.0000000000 9.0000000000 10.0000000000
    vertex 17.0000000000 9.0000000000 -0.0000000373
  endloop
endfacet
facet normal 1.0000000000 0.0000000000 0.0000000000
  outer loop
    vertex 17.0000000000 9.0000000000 -0.0000000373
    vertex 17.0000000000 26.0000000000 -0.0000000373
    vertex 17.0000000000 26.0000000000 10.0000000000
  endloop
endfacet
facet normal -1.0000000000 0.0000000000 0.0000000000
  outer loop
    vertex 10.0000000000 9.0000000000 -0.0000000373
    vertex 10.0000000000 9.0000000000 10.0000000000
    vertex 10.0000000000 19.0000000000 -0.0000000373
  endloop
endfacet
facet normal -1.0000000000 0.0000000000 0.0000000000
  outer loop
    vertex 10.0000000000 19.0000000000 10.0000000000
    vertex 10.0000000000 19.0000000000 -0.0000000373
    vertex 10.0000000000 9.0000000000 10.0000000000
  endloop
endfacet
facet normal 0.0000000000 1.0000000000 0.0000000000
  outer loop
    vertex 32.0000000000 48.0000000000 10.0000000000
    vertex 32.0000000000 48.0000000000 -0.0000000373
    vertex 25.0000000000 48.0000000000 -0.0000000373
  endloop
endfacet
facet normal 0.0000000000 1.0000000000 0.0000000000
  outer loop
    vertex 25.0000000000 48.0000000000 -0.0000000373
    vertex 25.0000000000 48.0000000000 10.0000000000
    vertex 32.0000000000 48.0000000000 10.0000000000
  endloop
endfacet
facet normal 0.0000000000 -1.0000000000 0.0000000000
  outer loop
    vertex 32.0000000000 9.0000000000 -0.0000000373
    vertex 25.0000000000 9.0000000000 10.0000000000
    vertex 25.0000000000 9.0000000000 -0.0000000373
  endloop
endfacet
facet normal 0.0000000000 -1.0000000000 0.0000000000
  outer loop
    vertex 25.0000000000 9.0000000000 10.0000000000
    vertex 32.0000000000 9.0000000000 -0.0000000373
    vertex 32.0000000000 9.0000000000 10.0000000000
  endloop
endfacet
facet normal 1.0000000000 0.0000000000 0.0000000000
  outer loop
    vertex 32.0000000000 48.0000000000 10.0000000000
    vertex 32.0000000000 22.0000000000 10.0000000000
    vertex 32.0000000000 22.0000000000 -0.0000000373
  endloop
endfacet
facet normal 1.0000000000 -0.0000000000 0.0000000000
  outer loop
    vertex 32.0000000000 22.0000000000 -0.0000000373
    vertex 32.0000000000 48.0000000000 -0.0000000373
    vertex 32.0000000000 48.0000000000 10.0000000000
  endloop
endfacet
facet normal 1.0000000000 0.0000000000 0.0000000000
  outer loop
    vertex 32.0000000000 15.0000000000 10.0000000000
    vertex 32.0000000000 9.0000000000 10.0000000000
    vertex 32.0000000000 9.0000000000 -0.0000000373
  endloop
endfacet
facet normal 1.0000000000 0.0000000000 0.0000000000
  outer loop
    vertex 32.0000000000 9.0000000000 -0.0000000373
    vertex 32.0000000000 15.0000000000 -0.0000000373
    vertex 32.0000000000 15.0000000000 10.0000000000
  endloop
endfacet
facet normal -1.0000000000 0.0000000000 0.0000000000
  outer loop
    vertex 25.0000000000 9.0000000000 -0.0000000373
    vertex 25.0000000000 9.0000000000 10.0000000000
    vertex 25.0000000000 48.0000000000 -0.0000000373
  endloop
endfacet
facet normal -1.0000000000 0.0000000000 0.0000000000
  outer loop
    vertex 25.0000000000 48.0000000000 10.0000000000
    vertex 25.0000000000 48.0000000000 -0.0000000373
    vertex 25.0000000000 9.0000000000 10.0000000000
  endloop
endfacet
facet normal 0.0000000000 -1.0000000000 0.0000000000
  outer loop
    vertex 40.0000000000 15.0000000000 -0.0000000373
    vertex 32.0000000000 15.0000000000 10.0000000000
    vertex 32.0000000000 15.0000000000 -0.0000000373
  endloop
endfacet
facet normal 0.0000000000 -1.0000000000 0.0000000000
  outer loop
    vertex 32.0000000000 15.0000000000 10.0000000000
    vertex 40.0000000000 15.0000000000 -0.0000000373
    vertex 40.0000000000 15.0000000000 10.0000000000
  endloop
endfacet
facet normal 0.0000000000 1.0000000000 0.0000000000
  outer loop
    vertex 40.0000000000 22.0000000000 10.0000000000
    vertex 40.0000000000 22.0000000000 -0.0000000373
    vertex 32.0000000000 22.0000000000 -0.0000000373
  endloop
endfacet
facet normal 0.0000000000 1.0000000000 0.0000000000
  outer loop
    vertex 32.0000000000 22.0000000000 -0.0000000373
    vertex 32.0000000000 22.0000000000 10.0000000000
    vertex 40.0000000000 22.0000000000 10.0000000000
  endloop
endfacet
facet normal 0.0000000000 1.0000000000 -0.0000000000
  outer loop
    vertex 40.0000000000 0.0000000000 10.0000000000
    vertex 40.0000000000 -0.0000000000 -0.0000000373
    vertex -0.0000001490 -0.0000000000 -0.0000000373
  endloop
endfacet
facet normal 0.0000000000 1.0000000000 -0.0000000000
  outer loop
    vertex -0.0000001490 -0.0000000000 -0.0000000373
    vertex -0.0000001490 0.0000000000 10.0000000000
    vertex 40.0000000000 0.0000000000 10.0000000000
  endloop
endfacet
facet normal 0.0000000000 0.0000000000 1.0000000000
  outer loop
    vertex 10.0000000000 48.0000000000 -0.0000000373
    vertex -0.0000001490 57.0000000000 -0.0000000373
    vertex -0.0000001490 42.0000000000 -0.0000000373
  endloop
endfacet
facet normal -0.0000000000 0.0000000000 1.0000000000
  outer loop
    vertex -0.0000001490 57.0000000000 -0.0000000373
    vertex 17.0000000000 48.0000000000 -0.0000000373
    vertex 40.0000000000 57.0000000000 -0.0000000373
  endloop
endfacet
facet normal 0.0000000000 0.0000000000 1.0000000000
  outer loop
    vertex -0.0000001490 57.0000000000 -0.0000000373
    vertex 10.0000000000 48.0000000000 -0.0000000373
    vertex 17.0000000000 48.0000000000 -0.0000000373
  endloop
endfacet
facet normal 0.0000000000 0.0000000000 1.0000000000
  outer loop
    vertex 17.0000000000 48.0000000000 -0.0000000373
    vertex 25.0000000000 48.0000000000 -0.0000000373
    vertex 40.0000000000 57.0000000000 -0.0000000373
  endloop
endfacet
facet normal 0.0000000000 0.0000000000 1.0000000000
  outer loop
    vertex 25.0000000000 48.0000000000 -0.0000000373
    vertex 17.0000000000 48.0000000000 -0.0000000373
    vertex 17.0000000000 35.0000000000 -0.0000000373
  endloop
endfacet
facet normal -0.0000000000 0.0000000000 1.0000000000
  outer loop
    vertex 25.0000000000 48.0000000000 -0.0000000373
    vertex 17.0000000000 35.0000000000 -0.0000000373
    vertex 17.0000000000 26.0000000000 -0.0000000373
  endloop
endfacet
facet normal 0.0000000000 0.0000000000 1.0000000000
  outer loop
    vertex 17.0000000000 26.0000000000 -0.0000000373
    vertex 25.0000000000 9.0000000000 -0.0000000373
    vertex 25.0000000000 48.0000000000 -0.0000000373
  endloop
endfacet
facet normal 0.0000000000 0.0000000000 1.0000000000
  outer loop
    vertex 25.0000000000 48.0000000000 -0.0000000373
    vertex 32.0000000000 48.0000000000 -0.0000000373
    vertex 40.0000000000 57.0000000000 -0.0000000373
  endloop
endfacet
facet normal -0.0000000000 0.0000000000 1.0000000000
  outer loop
    vertex 32.0000000000 48.0000000000 -0.0000000373
    vertex 40.0000000000 22.0000000000 -0.0000000373
    vertex 40.0000000000 57.0000000000 -0.0000000373
  endloop
endfacet
facet normal -0.0000000000 0.0000000000 1.0000000000
  outer loop
    vertex 40.0000000000 22.0000000000 -0.0000000373
    vertex 32.0000000000 48.0000000000 -0.0000000373
    vertex 32.0000000000 22.0000000000 -0.0000000373
  endloop
endfacet
facet normal 0.0000000000 0.0000000000 1.0000000000
  outer loop
    vertex 40.0000000000 15.0000000000 -0.0000000373
    vertex 32.0000000000 15.0000000000 -0.0000000373
    vertex 32.0000000000 9.0000000000 -0.0000000373
  endloop
endfacet
facet normal -0.0000000000 0.0000000000 1.0000000000
  outer loop
    vertex -0.0000001490 19.0000000000 -0.0000000373
    vertex 10.0000000000 9.0000000000 -0.0000000373
    vertex 10.0000000000 19.0000000000 -0.0000000373
  endloop
endfacet
facet normal 0.0000000000 0.0000000000 1.0000000000
  outer loop
    vertex 10.0000000000 9.0000000000 -0.0000000373
    vertex -0.0000001490 19.0000000000 -0.0000000373
    vertex -0.0000001490 -0.0000000000 -0.0000000373
  endloop
endfacet
facet normal 0.0000000000 0.0000000000 1.0000000000
  outer loop
    vertex 17.0000000000 9.0000000000 -0.0000000373
    vertex 10.0000000000 9.0000000000 -0.0000000373
    vertex -0.0000001490 -0.0000000000 -0.0000000373
  endloop
endfacet
facet normal 0.0000000000 0.0000000000 1.0000000000
  outer loop
    vertex 40.0000000000 -0.0000000000 -0.0000000373
    vertex 17.0000000000 9.0000000000 -0.0000000373
    vertex -0.0000001490 -0.0000000000 -0.0000000373
  endloop
endfacet
facet normal -0.0000000000 0.0000000000 1.0000000000
  outer loop
    vertex 40.0000000000 -0.0000000000 -0.0000000373
    vertex 25.0000000000 9.0000000000 -0.0000000373
    vertex 17.0000000000 9.0000000000 -0.0000000373
  endloop
endfacet
facet normal 0.0000000000 0.0000000000 1.0000000000
  outer loop
    vertex 25.0000000000 9.0000000000 -0.0000000373
    vertex 17.0000000000 26.0000000000 -0.0000000373
    vertex 17.0000000000 9.0000000000 -0.0000000373
  endloop
endfacet
facet normal -0.0000000000 0.0000000000 1.0000000000
  outer loop
    vertex 40.0000000000 -0.0000000000 -0.0000000373
    vertex 32.0000000000 9.0000000000 -0.0000000373
    vertex 25.0000000000 9.0000000000 -0.0000000373
  endloop
endfacet
facet normal -0.0000000000 0.0000000000 1.0000000000
  outer loop
    vertex 32.0000000000 9.0000000000 -0.0000000373
    vertex 40.0000000000 -0.0000000000 -0.0000000373
    vertex 40.0000000000 15.0000000000 -0.0000000373
  endloop
endfacet
facet normal 0.0000000000 0.0000000000 1.0000000000
  outer loop
    vertex 17.0000000000 35.0000000000 -0.0000000373
    vertex -0.0000001490 35.0000000000 -0.0000000373
    vertex -0.0000001490 26.0000000000 -0.0000000373
  endloop
endfacet
facet normal -0.0000000000 0.0000000000 1.0000000000
  outer loop
    vertex -0.0000001490 26.0000000000 -0.0000000373
    vertex 17.0000000000 26.0000000000 -0.0000000373
    vertex 17.0000000000 35.0000000000 -0.0000000373
  endloop
endfacet
facet normal 0.0000000000 0.0000000000 1.0000000000
  outer loop
    vertex -0.0000001490 42.0000000000 -0.0000000373
    vertex 10.0000000000 42.0000000000 -0.0000000373
    vertex 10.0000000000 48.0000000000 -0.0000000373
  endloop
endfacet
facet normal 0.0000000000 -1.0000000000 0.0000000000
  outer loop
    vertex 40.0000000000 57.0000000000 -0.0000000373
    vertex -0.0000001490 57.0000000000 10.0000000000
    vertex -0.0000001490 57.0000000000 -0.0000000373
  endloop
endfacet
facet normal 0.0000000000 -1.0000000000 0.0000000000
  outer loop
    vertex -0.0000001490 57.0000000000 10.0000000000
    vertex 40.0000000000 57.0000000000 -0.0000000373
    vertex 40.0000000000 57.0000000000 10.0000000000
  endloop
endfacet
facet normal -1.0000000000 0.0000000000 0.0000000000
  outer loop
    vertex 40.0000000000 22.0000000000 -0.0000000373
    vertex 40.0000000000 22.0000000000 10.0000000000
    vertex 40.0000000000 57.0000000000 -0.0000000373
  endloop
endfacet
facet normal -1.0000000000 0.0000000000 0.0000000000
  outer loop
    vertex 40.0000000000 57.0000000000 10.0000000000
    vertex 40.0000000000 57.0000000000 -0.0000000373
    vertex 40.0000000000 22.0000000000 10.0000000000
  endloop
endfacet
facet normal -1.0000000000 0.0000000000 0.0000000000
  outer loop
    vertex 40.0000000000 -0.0000000000 -0.0000000373
    vertex 40.0000000000 0.0000000000 10.0000000000
    vertex 40.0000000000 15.0000000000 -0.0000000373
  endloop
endfacet
facet normal -1.0000000000 0.0000000000 0.0000000000
  outer loop
    vertex 40.0000000000 15.0000000000 10.0000000000
    vertex 40.0000000000 15.0000000000 -0.0000000373
    vertex 40.0000000000 0.0000000000 10.0000000000
  endloop
endfacet
facet normal 0.0000000000 0.0000000000 -1.0000000000
  outer loop
    vertex -0.0000001490 0.0000000000 10.0000000000
    vertex -0.0000001490 19.0000000000 10.0000000000
    vertex 10.0000000000 9.0000000000 10.0000000000
  endloop
endfacet
facet normal 0.0000000000 0.0000000000 -1.0000000000
  outer loop
    vertex -0.0000001490 0.0000000000 10.0000000000
    vertex 17.0000000000 9.0000000000 10.0000000000
    vertex 40.0000000000 0.0000000000 10.0000000000
  endloop
endfacet
facet normal 0.0000000000 0.0000000000 -1.0000000000
  outer loop
    vertex -0.0000001490 0.0000000000 10.0000000000
    vertex 10.0000000000 9.0000000000 10.0000000000
    vertex 17.0000000000 9.0000000000 10.0000000000
  endloop
endfacet
facet normal 0.0000000000 0.0000000000 -1.0000000000
  outer loop
    vertex 17.0000000000 9.0000000000 10.0000000000
    vertex 25.0000000000 9.0000000000 10.0000000000
    vertex 40.0000000000 0.0000000000 10.0000000000
  endloop
endfacet
facet normal 0.0000000000 0.0000000000 -1.0000000000
  outer loop
    vertex 17.0000000000 9.0000000000 10.0000000000
    vertex 17.0000000000 26.0000000000 10.0000000000
    vertex 25.0000000000 9.0000000000 10.0000000000
  endloop
endfacet
facet normal 0.0000000000 0.0000000000 -1.0000000000
  outer loop
    vertex 25.0000000000 48.0000000000 10.0000000000
    vertex 25.0000000000 9.0000000000 10.0000000000
    vertex 17.0000000000 26.0000000000 10.0000000000
  endloop
endfacet
facet normal 0.0000000000 0.0000000000 -1.0000000000
  outer loop
    vertex 17.0000000000 26.0000000000 10.0000000000
    vertex 17.0000000000 35.0000000000 10.0000000000
    vertex 25.0000000000 48.0000000000 10.0000000000
  endloop
endfacet
facet normal 0.0000000000 0.0000000000 -1.0000000000
  outer loop
    vertex 25.0000000000 9.0000000000 10.0000000000
    vertex 32.0000000000 9.0000000000 10.0000000000
    vertex 40.0000000000 0.0000000000 10.0000000000
  endloop
endfacet
facet normal 0.0000000000 0.0000000000 -1.0000000000
  outer loop
    vertex 40.0000000000 15.0000000000 10.0000000000
    vertex 40.0000000000 0.0000000000 10.0000000000
    vertex 32.0000000000 9.0000000000 10.0000000000
  endloop
endfacet
facet normal 0.0000000000 0.0000000000 -1.0000000000
  outer loop
    vertex 32.0000000000 9.0000000000 10.0000000000
    vertex 32.0000000000 15.0000000000 10.0000000000
    vertex 40.0000000000 15.0000000000 10.0000000000
  endloop
endfacet
facet normal 0.0000000000 0.0000000000 -1.0000000000
  outer loop
    vertex 32.0000000000 22.0000000000 10.0000000000
    vertex 32.0000000000 48.0000000000 10.0000000000
    vertex 40.0000000000 22.0000000000 10.0000000000
  endloop
endfacet
facet normal 0.0000000000 0.0000000000 -1.0000000000
  outer loop
    vertex 10.0000000000 48.0000000000 10.0000000000
    vertex 10.0000000000 42.0000000000 10.0000000000
    vertex -0.0000001490 42.0000000000 10.0000000000
  endloop
endfacet
facet normal 0.0000000000 0.0000000000 -1.0000000000
  outer loop
    vertex -0.0000001490 42.0000000000 10.0000000000
    vertex -0.0000001490 57.0000000000 10.0000000000
    vertex 10.0000000000 48.0000000000 10.0000000000
  endloop
endfacet
facet normal 0.0000000000 0.0000000000 -1.0000000000
  outer loop
    vertex 17.0000000000 48.0000000000 10.0000000000
    vertex 10.0000000000 48.0000000000 10.0000000000
    vertex -0.0000001490 57.0000000000 10.0000000000
  endloop
endfacet
facet normal 0.0000000000 0.0000000000 -1.0000000000
  outer loop
    vertex 40.0000000000 57.0000000000 10.0000000000
    vertex 17.0000000000 48.0000000000 10.0000000000
    vertex -0.0000001490 57.0000000000 10.0000000000
  endloop
endfacet
facet normal 0.0000000000 0.0000000000 -1.0000000000
  outer loop
    vertex 40.0000000000 57.0000000000 10.0000000000
    vertex 25.0000000000 48.0000000000 10.0000000000
    vertex 17.0000000000 48.0000000000 10.0000000000
  endloop
endfacet
facet normal 0.0000000000 0.0000000000 -1.0000000000
  outer loop
    vertex 17.0000000000 35.0000000000 10.0000000000
    vertex 17.0000000000 48.0000000000 10.0000000000
    vertex 25.0000000000 48.0000000000 10.0000000000
  endloop
endfacet
facet normal 0.0000000000 0.0000000000 -1.0000000000
  outer loop
    vertex 40.0000000000 57.0000000000 10.0000000000
    vertex 32.0000000000 48.0000000000 10.0000000000
    vertex 25.0000000000 48.0000000000 10.0000000000
  endloop
endfacet
facet normal 0.0000000000 0.0000000000 -1.0000000000
  outer loop
    vertex 40.0000000000 57.0000000000 10.0000000000
    vertex 40.0000000000 22.0000000000 10.0000000000
    vertex 32.0000000000 48.0000000000 10.0000000000
  endloop
endfacet
facet normal 0.0000000000 0.0000000000 -1.0000000000
  outer loop
    vertex -0.0000001490 26.0000000000 10.0000000000
    vertex -0.0000001490 35.0000000000 10.0000000000
    vertex 17.0000000000 26.0000000000 10.0000000000
  endloop
endfacet
facet normal 0.0000000000 0.0000000000 -1.0000000000
  outer loop
    vertex 17.0000000000 35.0000000000 10.0000000000
    vertex 17.0000000000 26.0000000000 10.0000000000
    vertex -0.0000001490 35.0000000000 10.0000000000
  endloop
endfacet
facet normal 0.0000000000 0.0000000000 -1.0000000000
  outer loop
    vertex 10.0000000000 19.0000000000 10.0000000000
    vertex 10.0000000000 9.0000000000 10.0000000000
    vertex -0.0000001490 19.0000000000 10.0000000000
  endloop
endfacet
facet normal 1.0000000000 0.0000000000 0.0000000000
  outer loop
    vertex -0.0000001490 35.0000000000 10.0000000000
    vertex -0.0000001490 26.0000000000 10.0000000000
    vertex -0.0000001490 26.0000000000 -0.0000000373
  endloop
endfacet
facet normal 1.0000000000 -0.0000000000 0.0000000000
  outer loop
    vertex -0.0000001490 26.0000000000 -0.0000000373
    vertex -0.0000001490 35.0000000000 -0.0000000373
    vertex -0.0000001490 35.0000000000 10.0000000000
  endloop
endfacet
facet normal 1.0000000000 0.0000000000 0.0000000000
  outer loop
    vertex -0.0000001490 57.0000000000 10.0000000000
    vertex -0.0000001490 42.0000000000 10.0000000000
    vertex -0.0000001490 42.0000000000 -0.0000000373
  endloop
endfacet
facet normal 1.0000000000 0.0000000000 0.0000000000
  outer loop
    vertex -0.0000001490 42.0000000000 -0.0000000373
    vertex -0.0000001490 57.0000000000 -0.0000000373
    vertex -0.0000001490 57.0000000000 10.0000000000
  endloop
endfacet
facet normal 1.0000000000 0.0000000000 0.0000000000
  outer loop
    vertex -0.0000001490 19.0000000000 10.0000000000
    vertex -0.0000001490 0.0000000000 10.0000000000
    vertex -0.0000001490 -0.0000000000 -0.0000000373
  endloop
endfacet
facet normal 1.0000000000 0.0000000000 0.0000000000
  outer loop
    vertex -0.0000001490 -0.0000000000 -0.0000000373
    vertex -0.0000001490 19.0000000000 -0.0000000373
    vertex -0.0000001490 19.0000000000 10.0000000000
  endloop
endfacet
endsolid REINCARNATE