solid REINCARNATE
facet normal -0.3814221731 -0.0810727412 -0.9208389308
  outer loop
    vertex 0.1950900000 0.0000000000 0.9807850000
    vertex 0.5075390000 0.2259710000 0.8314700000
    vertex 0.5555700000 0.0000000000 0.8314700000
  endloop
endfacet
facet normal -0.3814227974 -0.0810717640 -0.9208387583
  outer loop
    vertex 0.5075390000 0.2259710000 0.8314700000
    vertex 0.1950900000 0.0000000000 0.9807850000
    vertex 0.1782240000 0.0793504000 0.9807850000
  endloop
endfacet
facet normal -0.3154702326 -0.2292036452 -0.9208388683
  outer loop
    vertex 0.1782240000 0.0793504000 0.9807850000
    vertex 0.3717490000 0.4128690000 0.8314700000
    vertex 0.5075390000 0.2259710000 0.8314700000
  endloop
endfacet
facet normal -0.3154699738 -0.2292038160 -0.9208389144
  outer loop
    vertex 0.3717490000 0.4128690000 0.8314700000
    vertex 0.1782240000 0.0793504000 0.9807850000
    vertex 0.1305410000 0.1449800000 0.9807850000
  endloop
endfacet
facet normal -0.1949724325 -0.3377001526 -0.9208389422
  outer loop
    vertex 0.1305410000 0.1449800000 0.9807850000
    vertex 0.1716810000 0.5283790000 0.8314700000
    vertex 0.3717490000 0.4128690000 0.8314700000
  endloop
endfacet
facet normal -0.1949730084 -0.3377000569 -0.9208388554
  outer loop
    vertex 0.1716810000 0.5283790000 0.8314700000
    vertex 0.1305410000 0.1449800000 0.9807850000
    vertex 0.0602862000 0.1855420000 0.9807850000
  endloop
endfacet
facet normal -0.0407599831 -0.3878070685 -0.9208389118
  outer loop
    vertex 0.1716810000 0.5283790000 0.8314700000
    vertex 0.0602862000 0.1855420000 0.9807850000
    vertex -0.0580729000 0.5525270000 0.8314700000
  endloop
endfacet
facet normal -0.0407617861 -0.3878075372 -0.9208386346
  outer loop
    vertex 0.0602862000 0.1855420000 0.9807850000
    vertex -0.0203925000 0.1940220000 0.9807850000
    vertex -0.0580729000 0.5525270000 0.8314700000
  endloop
endfacet
facet normal 0.1204995312 -0.3708583263 -0.9208387290
  outer loop
    vertex -0.2777850000 0.4811380000 0.8314700000
    vertex -0.0580729000 0.5525270000 0.8314700000
    vertex -0.0203925000 0.1940220000 0.9807850000
  endloop
endfacet
facet normal 0.1205014171 -0.3708568224 -0.9208390879
  outer loop
    vertex -0.0203925000 0.1940220000 0.9807850000
    vertex -0.0975452000 0.1689530000 0.9807850000
    vertex -0.2777850000 0.4811380000 0.8314700000
  endloop
endfacet
facet normal 0.2609227416 -0.2897845623 -0.9208388732
  outer loop
    vertex -0.4494660000 0.3265560000 0.8314700000
    vertex -0.2777850000 0.4811380000 0.8314700000
    vertex -0.0975452000 0.1689530000 0.9807850000
  endloop
endfacet
facet normal 0.2609236477 -0.2897828164 -0.9208391659
  outer loop
    vertex -0.0975452000 0.1689530000 0.9807850000
    vertex -0.1578310000 0.1146710000 0.9807850000
    vertex -0.4494660000 0.3265560000 0.8314700000
  endloop
endfacet
facet normal 0.3562302368 -0.1586043705 -0.9208391130
  outer loop
    vertex -0.5434300000 0.1155100000 0.8314700000
    vertex -0.4494660000 0.3265560000 0.8314700000
    vertex -0.1578310000 0.1146710000 0.9807850000
  endloop
endfacet
facet normal 0.3562301596 -0.1586056606 -0.9208389207
  outer loop
    vertex -0.1578310000 0.1146710000 0.9807850000
    vertex -0.1908270000 0.0405616000 0.9807850000
    vertex -0.5434300000 0.1155100000 0.8314700000
  endloop
endfacet
facet normal 0.3899430074 0.0000000000 -0.9208389930
  outer loop
    vertex -0.5434300000 -0.1155100000 0.8314700000
    vertex -0.5434300000 0.1155100000 0.8314700000
    vertex -0.1908270000 0.0405616000 0.9807850000
  endloop
endfacet
facet normal 0.3899430074 0.0000000000 -0.9208389930
  outer loop
    vertex -0.1908270000 0.0405616000 0.9807850000
    vertex -0.1908270000 -0.0405616000 0.9807850000
    vertex -0.5434300000 -0.1155100000 0.8314700000
  endloop
endfacet
facet normal 0.3562304525 0.1586044665 -0.9208390130
  outer loop
    vertex -0.1908270000 -0.0405616000 0.9807850000
    vertex -0.4494660000 -0.3265560000 0.8314700000
    vertex -0.5434300000 -0.1155100000 0.8314700000
  endloop
endfacet
facet normal 0.3562295454 0.1586053872 -0.9208392054
  outer loop
    vertex -0.4494660000 -0.3265560000 0.8314700000
    vertex -0.1908270000 -0.0405616000 0.9807850000
    vertex -0.1578310000 -0.1146710000 0.9807850000
  endloop
endfacet
facet normal 0.2609225013 0.2897842953 -0.9208390253
  outer loop
    vertex -0.1578310000 -0.1146710000 0.9807850000
    vertex -0.2777850000 -0.4811380000 0.8314700000
    vertex -0.4494660000 -0.3265560000 0.8314700000
  endloop
endfacet
facet normal 0.2609243323 0.2897835767 -0.9208387326
  outer loop
    vertex -0.2777850000 -0.4811380000 0.8314700000
    vertex -0.1578310000 -0.1146710000 0.9807850000
    vertex -0.0975452000 -0.1689530000 0.9807850000
  endloop
endfacet
facet normal 0.1204993951 0.3708579073 -0.9208389155
  outer loop
    vertex -0.2777850000 -0.4811380000 0.8314700000
    vertex -0.0975452000 -0.1689530000 0.9807850000
    vertex -0.0580729000 -0.5525270000 0.8314700000
  endloop
endfacet
facet normal 0.1205018048 0.3708580156 -0.9208385566
  outer loop
    vertex -0.0203925000 -0.1940220000 0.9807850000
    vertex -0.0580729000 -0.5525270000 0.8314700000
    vertex -0.0975452000 -0.1689530000 0.9807850000
  endloop
endfacet
facet normal -0.0407600187 0.3878074069 -0.9208387677
  outer loop
    vertex -0.0580729000 -0.5525270000 0.8314700000
    vertex -0.0203925000 -0.1940220000 0.9807850000
    vertex 0.1716810000 -0.5283790000 0.8314700000
  endloop
endfacet
facet normal -0.0407616849 0.3878065735 -0.9208390449
  outer loop
    vertex -0.0203925000 -0.1940220000 0.9807850000
    vertex 0.0602862000 -0.1855420000 0.9807850000
    vertex 0.1716810000 -0.5283790000 0.8314700000
  endloop
endfacet
facet normal -0.1949724858 0.3377002449 -0.9208388971
  outer loop
    vertex 0.3717490000 -0.4128690000 0.8314700000
    vertex 0.1716810000 -0.5283790000 0.8314700000
    vertex 0.0602862000 -0.1855420000 0.9807850000
  endloop
endfacet
facet normal -0.1949728566 0.3376997940 -0.9208389840
  outer loop
    vertex 0.0602862000 -0.1855420000 0.9807850000
    vertex 0.1305410000 -0.1449800000 0.9807850000
    vertex 0.3717490000 -0.4128690000 0.8314700000
  endloop
endfacet
facet normal -0.3154701868 0.2292036119 -0.9208388923
  outer loop
    vertex 0.5075390000 -0.2259710000 0.8314700000
    vertex 0.3717490000 -0.4128690000 0.8314700000
    vertex 0.1305410000 -0.1449800000 0.9807850000
  endloop
endfacet
facet normal -0.3154701043 0.2292039108 -0.9208388462
  outer loop
    vertex 0.1305410000 -0.1449800000 0.9807850000
    vertex 0.1782240000 -0.0793504000 0.9807850000
    vertex 0.5075390000 -0.2259710000 0.8314700000
  endloop
endfacet
facet normal -0.3814223803 0.0810727852 -0.9208388411
  outer loop
    vertex 0.5555700000 0.0000000000 0.8314700000
    vertex 0.5075390000 -0.2259710000 0.8314700000
    vertex 0.1782240000 -0.0793504000 0.9807850000
  endloop
endfacet
facet normal -0.3814222074 0.0810716386 -0.9208390137
  outer loop
    vertex 0.1782240000 -0.0793504000 0.9807850000
    vertex 0.1950900000 0.0000000000 0.9807850000
    vertex 0.5555700000 0.0000000000 0.8314700000
  endloop
endfacet
facet normal -0.6992526257 -0.1486321997 -0.6992526257
  outer loop
    vertex 0.5555700000 0.0000000000 0.8314700000
    vertex 0.7595850000 0.3381890000 0.5555700000
    vertex 0.8314700000 0.0000000000 0.5555700000
  endloop
endfacet
facet normal -0.6992550033 -0.1486293244 -0.6992508593
  outer loop
    vertex 0.7595850000 0.3381890000 0.5555700000
    vertex 0.5555700000 0.0000000000 0.8314700000
    vertex 0.5075390000 0.2259710000 0.8314700000
  endloop
endfacet
facet normal -0.5783473533 -0.4201931415 -0.6992510727
  outer loop
    vertex 0.5075390000 0.2259710000 0.8314700000
    vertex 0.5563620000 0.6179020000 0.5555700000
    vertex 0.7595850000 0.3381890000 0.5555700000
  endloop
endfacet
facet normal -0.5783450379 -0.4201942915 -0.6992522967
  outer loop
    vertex 0.5563620000 0.6179020000 0.5555700000
    vertex 0.5075390000 0.2259710000 0.8314700000
    vertex 0.3717490000 0.4128690000 0.8314700000
  endloop
endfacet
facet normal -0.3574383522 -0.6190996926 -0.6992520253
  outer loop
    vertex 0.5563620000 0.6179020000 0.5555700000
    vertex 0.3717490000 0.4128690000 0.8314700000
    vertex 0.2569380000 0.7907750000 0.5555700000
  endloop
endfacet
facet normal -0.3574394708 -0.6190996455 -0.6992514953
  outer loop
    vertex 0.1716810000 0.5283790000 0.8314700000
    vertex 0.2569380000 0.7907750000 0.5555700000
    vertex 0.3717490000 0.4128690000 0.8314700000
  endloop
endfacet
facet normal -0.0747245834 -0.7109591294 -0.6992519953
  outer loop
    vertex 0.2569380000 0.7907750000 0.5555700000
    vertex 0.1716810000 0.5283790000 0.8314700000
    vertex -0.0869122000 0.8269150000 0.5555700000
  endloop
endfacet
facet normal -0.0747244771 -0.7109590873 -0.6992520494
  outer loop
    vertex 0.1716810000 0.5283790000 0.8314700000
    vertex -0.0580729000 0.5525270000 0.8314700000
    vertex -0.0869122000 0.8269150000 0.5555700000
  endloop
endfacet
facet normal 0.2209085991 -0.6798867859 -0.6992519926
  outer loop
    vertex -0.4157350000 0.7200740000 0.5555700000
    vertex -0.0869122000 0.8269150000 0.5555700000
    vertex -0.0580729000 0.5525270000 0.8314700000
  endloop
endfacet
facet normal 0.2209090965 -0.6798862781 -0.6992523292
  outer loop
    vertex -0.0580729000 0.5525270000 0.8314700000
    vertex -0.2777850000 0.4811380000 0.8314700000
    vertex -0.4157350000 0.7200740000 0.5555700000
  endloop
endfacet
facet normal 0.4783446539 -0.5312555919 -0.6992523781
  outer loop
    vertex -0.6726730000 0.4887260000 0.5555700000
    vertex -0.4157350000 0.7200740000 0.5555700000
    vertex -0.2777850000 0.4811380000 0.8314700000
  endloop
endfacet
facet normal 0.4783444211 -0.5312562172 -0.6992520622
  outer loop
    vertex -0.2777850000 0.4811380000 0.8314700000
    vertex -0.4494660000 0.3265560000 0.8314700000
    vertex -0.6726730000 0.4887260000 0.5555700000
  endloop
endfacet
facet normal 0.6530714298 -0.2907655941 -0.6992517979
  outer loop
    vertex -0.8133000000 0.1728720000 0.5555700000
    vertex -0.6726730000 0.4887260000 0.5555700000
    vertex -0.4494660000 0.3265560000 0.8314700000
  endloop
endfacet
facet normal 0.6530715179 -0.2907669992 -0.6992511314
  outer loop
    vertex -0.4494660000 0.3265560000 0.8314700000
    vertex -0.5434300000 0.1155100000 0.8314700000
    vertex -0.8133000000 0.1728720000 0.5555700000
  endloop
endfacet
facet normal 0.7148756967 0.0000000000 -0.6992515558
  outer loop
    vertex -0.8133000000 -0.1728720000 0.5555700000
    vertex -0.8133000000 0.1728720000 0.5555700000
    vertex -0.5434300000 0.1155100000 0.8314700000
  endloop
endfacet
facet normal 0.7148756967 0.0000000000 -0.6992515558
  outer loop
    vertex -0.5434300000 0.1155100000 0.8314700000
    vertex -0.5434300000 -0.1155100000 0.8314700000
    vertex -0.8133000000 -0.1728720000 0.5555700000
  endloop
endfacet
facet normal 0.6530719069 0.2907658065 -0.6992512639
  outer loop
    vertex -0.5434300000 -0.1155100000 0.8314700000
    vertex -0.6726730000 -0.4887260000 0.5555700000
    vertex -0.8133000000 -0.1728720000 0.5555700000
  endloop
endfacet
facet normal 0.6530708038 0.2907666813 -0.6992519305
  outer loop
    vertex -0.6726730000 -0.4887260000 0.5555700000
    vertex -0.5434300000 -0.1155100000 0.8314700000
    vertex -0.4494660000 -0.3265560000 0.8314700000
  endloop
endfacet
facet normal 0.4783448195 0.5312557758 -0.6992521250
  outer loop
    vertex -0.6726730000 -0.4887260000 0.5555700000
    vertex -0.4494660000 -0.3265560000 0.8314700000
    vertex -0.4157350000 -0.7200740000 0.5555700000
  endloop
endfacet
facet normal 0.4783441733 0.5312559419 -0.6992524409
  outer loop
    vertex -0.2777850000 -0.4811380000 0.8314700000
    vertex -0.4157350000 -0.7200740000 0.5555700000
    vertex -0.4494660000 -0.3265560000 0.8314700000
  endloop
endfacet
facet normal 0.2209085176 0.6798865351 -0.6992522622
  outer loop
    vertex -0.4157350000 -0.7200740000 0.5555700000
    vertex -0.2777850000 -0.4811380000 0.8314700000
    vertex -0.0869122000 -0.8269150000 0.5555700000
  endloop
endfacet
facet normal 0.2209092185 0.6798866535 -0.6992519257
  outer loop
    vertex -0.0580729000 -0.5525270000 0.8314700000
    vertex -0.0869122000 -0.8269150000 0.5555700000
    vertex -0.2777850000 -0.4811380000 0.8314700000
  endloop
endfacet
facet normal -0.0747245789 0.7109590872 -0.6992520387
  outer loop
    vertex -0.0869122000 -0.8269150000 0.5555700000
    vertex -0.0580729000 -0.5525270000 0.8314700000
    vertex 0.2569380000 -0.7907750000 0.5555700000
  endloop
endfacet
facet normal -0.0747244837 0.7109591504 -0.6992519846
  outer loop
    vertex -0.0580729000 -0.5525270000 0.8314700000
    vertex 0.1716810000 -0.5283790000 0.8314700000
    vertex 0.2569380000 -0.7907750000 0.5555700000
  endloop
endfacet
facet normal -0.3574385599 0.6191000524 -0.6992516007
  outer loop
    vertex 0.5563620000 -0.6179020000 0.5555700000
    vertex 0.2569380000 -0.7907750000 0.5555700000
    vertex 0.1716810000 -0.5283790000 0.8314700000
  endloop
endfacet
facet normal -0.3574391600 0.6190991071 -0.6992521308
  outer loop
    vertex 0.1716810000 -0.5283790000 0.8314700000
    vertex 0.3717490000 -0.4128690000 0.8314700000
    vertex 0.5563620000 -0.6179020000 0.5555700000
  endloop
endfacet
facet normal -0.5783465774 0.4201925778 -0.6992520533
  outer loop
    vertex 0.7595850000 -0.3381890000 0.5555700000
    vertex 0.5563620000 -0.6179020000 0.5555700000
    vertex 0.3717490000 -0.4128690000 0.8314700000
  endloop
endfacet
facet normal -0.5783461992 0.4201951352 -0.6992508293
  outer loop
    vertex 0.3717490000 -0.4128690000 0.8314700000
    vertex 0.5075390000 -0.2259710000 0.8314700000
    vertex 0.7595850000 -0.3381890000 0.5555700000
  endloop
endfacet
facet normal -0.6992539796 0.1486324875 -0.6992512107
  outer loop
    vertex 0.8314700000 0.0000000000 0.5555700000
    vertex 0.7595850000 -0.3381890000 0.5555700000
    vertex 0.5075390000 -0.2259710000 0.8314700000
  endloop
endfacet
facet normal -0.6992529771 0.1486288937 -0.6992529771
  outer loop
    vertex 0.5075390000 -0.2259710000 0.8314700000
    vertex 0.5555700000 0.0000000000 0.8314700000
    vertex 0.8314700000 0.0000000000 0.5555700000
  endloop
endfacet
facet normal -0.9065653149 -0.1926957787 -0.3755098757
  outer loop
    vertex 0.8314700000 0.0000000000 0.5555700000
    vertex 0.8959920000 0.3989210000 0.1950900000
    vertex 0.9807850000 0.0000000000 0.1950900000
  endloop
endfacet
facet normal -0.9065639209 -0.1926980104 -0.3755120959
  outer loop
    vertex 0.8959920000 0.3989210000 0.1950900000
    vertex 0.8314700000 0.0000000000 0.5555700000
    vertex 0.7595850000 0.3381890000 0.5555700000
  endloop
endfacet
facet normal -0.7498113100 -0.5447696356 -0.3755117090
  outer loop
    vertex 0.8959920000 0.3989210000 0.1950900000
    vertex 0.7595850000 0.3381890000 0.5555700000
    vertex 0.6562730000 0.7288660000 0.1950900000
  endloop
endfacet
facet normal -0.7498119356 -0.5447692134 -0.3755110722
  outer loop
    vertex 0.5563620000 0.6179020000 0.5555700000
    vertex 0.6562730000 0.7288660000 0.1950900000
    vertex 0.7595850000 0.3381890000 0.5555700000
  endloop
endfacet
facet normal -0.4634076527 -0.8026481614 -0.3755120189
  outer loop
    vertex 0.6562730000 0.7288660000 0.1950900000
    vertex 0.5563620000 0.6179020000 0.5555700000
    vertex 0.3030790000 0.9327820000 0.1950900000
  endloop
endfacet
facet normal -0.4634101459 -0.8026477214 -0.3755098827
  outer loop
    vertex 0.2569380000 0.7907750000 0.5555700000
    vertex 0.3030790000 0.9327820000 0.1950900000
    vertex 0.5563620000 0.6179020000 0.5555700000
  endloop
endfacet
facet normal -0.0968785164 -0.9217412469 -0.3755098226
  outer loop
    vertex 0.3030790000 0.9327820000 0.1950900000
    vertex 0.2569380000 0.7907750000 0.5555700000
    vertex -0.1025200000 0.9754120000 0.1950900000
  endloop
endfacet
facet normal -0.0968786102 -0.9217412703 -0.3755097410
  outer loop
    vertex 0.2569380000 0.7907750000 0.5555700000
    vertex -0.0869122000 0.8269150000 0.5555700000
    vertex -0.1025200000 0.9754120000 0.1950900000
  endloop
endfacet
facet normal 0.2864014398 -0.8814570344 -0.3755099357
  outer loop
    vertex -0.4903930000 0.8493850000 0.1950900000
    vertex -0.1025200000 0.9754120000 0.1950900000
    vertex -0.0869122000 0.8269150000 0.5555700000
  endloop
endfacet
facet normal 0.2864024771 -0.8814562242 -0.3755110462
  outer loop
    vertex -0.0869122000 0.8269150000 0.5555700000
    vertex -0.4157350000 0.7200740000 0.5555700000
    vertex -0.4903930000 0.8493850000 0.1950900000
  endloop
endfacet
facet normal 0.6201627502 -0.6887593944 -0.3755111980
  outer loop
    vertex -0.7934720000 0.5764910000 0.1950900000
    vertex -0.4903930000 0.8493850000 0.1950900000
    vertex -0.4157350000 0.7200740000 0.5555700000
  endloop
endfacet
facet normal 0.6201623624 -0.6887601236 -0.3755105012
  outer loop
    vertex -0.4157350000 0.7200740000 0.5555700000
    vertex -0.6726730000 0.4887260000 0.5555700000
    vertex -0.7934720000 0.5764910000 0.1950900000
  endloop
endfacet
facet normal 0.8466900011 -0.3769715119 -0.3755110136
  outer loop
    vertex -0.9593530000 0.2039170000 0.1950900000
    vertex -0.7934720000 0.5764910000 0.1950900000
    vertex -0.6726730000 0.4887260000 0.5555700000
  endloop
endfacet
facet normal 0.8466901055 -0.3769700224 -0.3755122734
  outer loop
    vertex -0.6726730000 0.4887260000 0.5555700000
    vertex -0.8133000000 0.1728720000 0.5555700000
    vertex -0.9593530000 0.2039170000 0.1950900000
  endloop
endfacet
facet normal 0.9268176139 0.0000000000 -0.3755117981
  outer loop
    vertex -0.9593530000 -0.2039170000 0.1950900000
    vertex -0.9593530000 0.2039170000 0.1950900000
    vertex -0.8133000000 0.1728720000 0.5555700000
  endloop
endfacet
facet normal 0.9268176139 0.0000000000 -0.3755117981
  outer loop
    vertex -0.8133000000 0.1728720000 0.5555700000
    vertex -0.8133000000 -0.1728720000 0.5555700000
    vertex -0.9593530000 -0.2039170000 0.1950900000
  endloop
endfacet
facet normal 0.8466895732 0.3769713214 -0.3755121696
  outer loop
    vertex -0.9593530000 -0.2039170000 0.1950900000
    vertex -0.8133000000 -0.1728720000 0.5555700000
    vertex -0.7934720000 -0.5764910000 0.1950900000
  endloop
endfacet
facet normal 0.8466906102 0.3769702471 -0.3755109098
  outer loop
    vertex -0.6726730000 -0.4887260000 0.5555700000
    vertex -0.7934720000 -0.5764910000 0.1950900000
    vertex -0.8133000000 -0.1728720000 0.5555700000
  endloop
endfacet
facet normal 0.6201629236 0.6887595869 -0.3755105586
  outer loop
    vertex -0.7934720000 -0.5764910000 0.1950900000
    vertex -0.6726730000 -0.4887260000 0.5555700000
    vertex -0.4903930000 -0.8493850000 0.1950900000
  endloop
endfacet
facet normal 0.6201621579 0.6887598965 -0.3755112554
  outer loop
    vertex -0.4157350000 -0.7200740000 0.5555700000
    vertex -0.4903930000 -0.8493850000 0.1950900000
    vertex -0.6726730000 -0.4887260000 0.5555700000
  endloop
endfacet
facet normal 0.2864013122 0.8814566417 -0.3755109547
  outer loop
    vertex -0.4903930000 -0.8493850000 0.1950900000
    vertex -0.4157350000 -0.7200740000 0.5555700000
    vertex -0.1025200000 -0.9754120000 0.1950900000
  endloop
endfacet
facet normal 0.2864026276 0.8814566874 -0.3755098442
  outer loop
    vertex -0.0869122000 -0.8269150000 0.5555700000
    vertex -0.1025200000 -0.9754120000 0.1950900000
    vertex -0.4157350000 -0.7200740000 0.5555700000
  endloop
endfacet
facet normal -0.0968785195 0.9217412770 -0.3755097477
  outer loop
    vertex -0.1025200000 -0.9754120000 0.1950900000
    vertex -0.0869122000 -0.8269150000 0.5555700000
    vertex 0.3030790000 -0.9327820000 0.1950900000
  endloop
endfacet
facet normal -0.0968786065 0.9217412346 -0.3755098294
  outer loop
    vertex -0.0869122000 -0.8269150000 0.5555700000
    vertex 0.2569380000 -0.7907750000 0.5555700000
    vertex 0.3030790000 -0.9327820000 0.1950900000
  endloop
endfacet
facet normal -0.4634080498 0.8026488492 -0.3755100587
  outer loop
    vertex 0.6562730000 -0.7288660000 0.1950900000
    vertex 0.3030790000 -0.9327820000 0.1950900000
    vertex 0.2569380000 -0.7907750000 0.5555700000
  endloop
endfacet
facet normal -0.4634096775 0.8026469101 -0.3755121949
  outer loop
    vertex 0.2569380000 -0.7907750000 0.5555700000
    vertex 0.5563620000 -0.6179020000 0.5555700000
    vertex 0.6562730000 -0.7288660000 0.1950900000
  endloop
endfacet
facet normal -0.7498115015 0.5447697747 -0.3755111246
  outer loop
    vertex 0.8959920000 -0.3989210000 0.1950900000
    vertex 0.6562730000 -0.7288660000 0.1950900000
    vertex 0.5563620000 -0.6179020000 0.5555700000
  endloop
endfacet
facet normal -0.7498117097 0.5447690493 -0.3755117615
  outer loop
    vertex 0.5563620000 -0.6179020000 0.5555700000
    vertex 0.7595850000 -0.3381890000 0.5555700000
    vertex 0.8959920000 -0.3989210000 0.1950900000
  endloop
endfacet
facet normal -0.9065645075 0.1926956071 -0.3755119130
  outer loop
    vertex 0.9807850000 0.0000000000 0.1950900000
    vertex 0.8959920000 -0.3989210000 0.1950900000
    vertex 0.7595850000 -0.3381890000 0.5555700000
  endloop
endfacet
facet normal -0.9065648732 0.1926982129 -0.3755096928
  outer loop
    vertex 0.7595850000 -0.3381890000 0.5555700000
    vertex 0.8314700000 0.0000000000 0.5555700000
    vertex 0.9807850000 0.0000000000 0.1950900000
  endloop
endfacet
facet normal -0.9781477384 -0.2079110430 0.0000000000
  outer loop
    vertex 0.8959920000 0.3989210000 -0.1950900000
    vertex 0.9807850000 0.0000000000 -0.1950900000
    vertex 0.9807850000 0.0000000000 0.1950900000
  endloop
endfacet
facet normal -0.9781477384 -0.2079110430 0.0000000000
  outer loop
    vertex 0.9807850000 0.0000000000 0.1950900000
    vertex 0.8959920000 0.3989210000 0.1950900000
    vertex 0.8959920000 0.3989210000 -0.1950900000
  endloop
endfacet
facet normal -0.8090170811 -0.5877851329 0.0000000000
  outer loop
    vertex 0.6562730000 0.7288660000 -0.1950900000
    vertex 0.8959920000 0.3989210000 -0.1950900000
    vertex 0.8959920000 0.3989210000 0.1950900000
  endloop
endfacet
facet normal -0.8090170811 -0.5877851329 0.0000000000
  outer loop
    vertex 0.8959920000 0.3989210000 0.1950900000
    vertex 0.6562730000 0.7288660000 0.1950900000
    vertex 0.6562730000 0.7288660000 -0.1950900000
  endloop
endfacet
facet normal -0.4999988029 -0.8660260950 0.0000000000
  outer loop
    vertex 0.3030790000 0.9327820000 -0.1950900000
    vertex 0.6562730000 0.7288660000 -0.1950900000
    vertex 0.6562730000 0.7288660000 0.1950900000
  endloop
endfacet
facet normal -0.4999988029 -0.8660260950 0.0000000000
  outer loop
    vertex 0.6562730000 0.7288660000 0.1950900000
    vertex 0.3030790000 0.9327820000 0.1950900000
    vertex 0.3030790000 0.9327820000 -0.1950900000
  endloop
endfacet
facet normal -0.1045280444 -0.9945219394 0.0000000000
  outer loop
    vertex -0.1025200000 0.9754120000 -0.1950900000
    vertex 0.3030790000 0.9327820000 -0.1950900000
    vertex 0.3030790000 0.9327820000 0.1950900000
  endloop
endfacet
facet normal -0.1045280444 -0.9945219394 0.0000000000
  outer loop
    vertex 0.3030790000 0.9327820000 0.1950900000
    vertex -0.1025200000 0.9754120000 0.1950900000
    vertex -0.1025200000 0.9754120000 -0.1950900000
  endloop
endfacet
facet normal 0.3090157139 -0.9510569323 0.0000000000
  outer loop
    vertex -0.4903930000 0.8493850000 -0.1950900000
    vertex -0.1025200000 0.9754120000 -0.1950900000
    vertex -0.1025200000 0.9754120000 0.1950900000
  endloop
endfacet
facet normal 0.3090157139 -0.9510569323 0.0000000000
  outer loop
    vertex -0.1025200000 0.9754120000 0.1950900000
    vertex -0.4903930000 0.8493850000 0.1950900000
    vertex -0.4903930000 0.8493850000 -0.1950900000
  endloop
endfacet
facet normal 0.6691312058 -0.7431442858 0.0000000000
  outer loop
    vertex -0.7934720000 0.5764910000 -0.1950900000
    vertex -0.4903930000 0.8493850000 -0.1950900000
    vertex -0.4903930000 0.8493850000 0.1950900000
  endloop
endfacet
facet normal 0.6691312058 -0.7431442858 0.0000000000
  outer loop
    vertex -0.4903930000 0.8493850000 0.1950900000
    vertex -0.7934720000 0.5764910000 0.1950900000
    vertex -0.7934720000 0.5764910000 -0.1950900000
  endloop
endfacet
facet normal 0.9135451225 -0.4067373957 0.0000000000
  outer loop
    vertex -0.9593530000 0.2039170000 -0.1950900000
    vertex -0.7934720000 0.5764910000 -0.1950900000
    vertex -0.7934720000 0.5764910000 0.1950900000
  endloop
endfacet
facet normal 0.9135451225 -0.4067373957 0.0000000000
  outer loop
    vertex -0.7934720000 0.5764910000 0.1950900000
    vertex -0.9593530000 0.2039170000 0.1950900000
    vertex -0.9593530000 0.2039170000 -0.1950900000
  endloop
endfacet
facet normal 1.0000000000 0.0000000000 0.0000000000
  outer loop
    vertex -0.9593530000 -0.2039170000 -0.1950900000
    vertex -0.9593530000 0.2039170000 -0.1950900000
    vertex -0.9593530000 0.2039170000 0.1950900000
  endloop
endfacet
facet normal 1.0000000000 0.0000000000 0.0000000000
  outer loop
    vertex -0.9593530000 0.2039170000 0.1950900000
    vertex -0.9593530000 -0.2039170000 0.1950900000
    vertex -0.9593530000 -0.2039170000 -0.1950900000
  endloop
endfacet
facet normal 0.9135451225 0.4067373957 -0.0000000000
  outer loop
    vertex -0.9593530000 -0.2039170000 -0.1950900000
    vertex -0.9593530000 -0.2039170000 0.1950900000
    vertex -0.7934720000 -0.5764910000 -0.1950900000
  endloop
endfacet
facet normal 0.9135451225 0.4067373957 0.0000000000
  outer loop
    vertex -0.7934720000 -0.5764910000 0.1950900000
    vertex -0.7934720000 -0.5764910000 -0.1950900000
    vertex -0.9593530000 -0.2039170000 0.1950900000
  endloop
endfacet
facet normal 0.6691312058 0.7431442858 -0.0000000000
  outer loop
    vertex -0.7934720000 -0.5764910000 -0.1950900000
    vertex -0.7934720000 -0.5764910000 0.1950900000
    vertex -0.4903930000 -0.8493850000 -0.1950900000
  endloop
endfacet
facet normal 0.6691312058 0.7431442858 0.0000000000
  outer loop
    vertex -0.4903930000 -0.8493850000 0.1950900000
    vertex -0.4903930000 -0.8493850000 -0.1950900000
    vertex -0.7934720000 -0.5764910000 0.1950900000
  endloop
endfacet
facet normal 0.3090157139 0.9510569323 -0.0000000000
  outer loop
    vertex -0.4903930000 -0.8493850000 -0.1950900000
    vertex -0.4903930000 -0.8493850000 0.1950900000
    vertex -0.1025200000 -0.9754120000 -0.1950900000
  endloop
endfacet
facet normal 0.3090157139 0.9510569323 0.0000000000
  outer loop
    vertex -0.1025200000 -0.9754120000 0.1950900000
    vertex -0.1025200000 -0.9754120000 -0.1950900000
    vertex -0.4903930000 -0.8493850000 0.1950900000
  endloop
endfacet
facet normal -0.1045280444 0.9945219394 0.0000000000
  outer loop
    vertex -0.1025200000 -0.9754120000 -0.1950900000
    vertex -0.1025200000 -0.9754120000 0.1950900000
    vertex 0.3030790000 -0.9327820000 -0.1950900000
  endloop
endfacet
facet normal -0.1045280444 0.9945219394 0.0000000000
  outer loop
    vertex 0.3030790000 -0.9327820000 0.1950900000
    vertex 0.3030790000 -0.9327820000 -0.1950900000
    vertex -0.1025200000 -0.9754120000 0.1950900000
  endloop
endfacet
facet normal -0.4999988029 0.8660260950 0.0000000000
  outer loop
    vertex 0.3030790000 -0.9327820000 -0.1950900000
    vertex 0.3030790000 -0.9327820000 0.1950900000
    vertex 0.6562730000 -0.7288660000 -0.1950900000
  endloop
endfacet
facet normal -0.4999988029 0.8660260950 0.0000000000
  outer loop
    vertex 0.6562730000 -0.7288660000 0.1950900000
    vertex 0.6562730000 -0.7288660000 -0.1950900000
    vertex 0.3030790000 -0.9327820000 0.1950900000
  endloop
endfacet
facet normal -0.8090170811 0.5877851329 0.0000000000
  outer loop
    vertex 0.6562730000 -0.7288660000 -0.1950900000
    vertex 0.6562730000 -0.7288660000 0.1950900000
    vertex 0.8959920000 -0.3989210000 -0.1950900000
  endloop
endfacet
facet normal -0.8090170811 0.5877851329 0.0000000000
  outer loop
    vertex 0.8959920000 -0.3989210000 0.1950900000
    vertex 0.8959920000 -0.3989210000 -0.1950900000
    vertex 0.6562730000 -0.7288660000 0.1950900000
  endloop
endfacet
facet normal -0.9781477384 0.2079110430 0.0000000000
  outer loop
    vertex 0.8959920000 -0.3989210000 -0.1950900000
    vertex 0.8959920000 -0.3989210000 0.1950900000
    vertex 0.9807850000 0.0000000000 -0.1950900000
  endloop
endfacet
facet normal -0.9781477384 0.2079110430 0.0000000000
  outer loop
    vertex 0.9807850000 0.0000000000 0.1950900000
    vertex 0.9807850000 0.0000000000 -0.1950900000
    vertex 0.8959920000 -0.3989210000 0.1950900000
  endloop
endfacet
facet normal -0.9065648732 -0.1926982129 0.3755096928
  outer loop
    vertex 0.7595850000 0.3381890000 -0.5555700000
    vertex 0.8314700000 0.0000000000 -0.5555700000
    vertex 0.9807850000 0.0000000000 -0.1950900000
  endloop
endfacet
facet normal -0.9065645075 -0.1926956071 0.3755119130
  outer loop
    vertex 0.9807850000 0.0000000000 -0.1950900000
    vertex 0.8959920000 0.3989210000 -0.1950900000
    vertex 0.7595850000 0.3381890000 -0.5555700000
  endloop
endfacet
facet normal -0.7498117097 -0.5447690493 0.3755117615
  outer loop
    vertex 0.5563620000 0.6179020000 -0.5555700000
    vertex 0.7595850000 0.3381890000 -0.5555700000
    vertex 0.8959920000 0.3989210000 -0.1950900000
  endloop
endfacet
facet normal -0.7498115015 -0.5447697747 0.3755111246
  outer loop
    vertex 0.8959920000 0.3989210000 -0.1950900000
    vertex 0.6562730000 0.7288660000 -0.1950900000
    vertex 0.5563620000 0.6179020000 -0.5555700000
  endloop
endfacet
facet normal -0.4634096775 -0.8026469101 0.3755121949
  outer loop
    vertex 0.2569380000 0.7907750000 -0.5555700000
    vertex 0.5563620000 0.6179020000 -0.5555700000
    vertex 0.6562730000 0.7288660000 -0.1950900000
  endloop
endfacet
facet normal -0.4634080498 -0.8026488492 0.3755100587
  outer loop
    vertex 0.6562730000 0.7288660000 -0.1950900000
    vertex 0.3030790000 0.9327820000 -0.1950900000
    vertex 0.2569380000 0.7907750000 -0.5555700000
  endloop
endfacet
facet normal -0.0968786065 -0.9217412346 0.3755098294
  outer loop
    vertex -0.0869122000 0.8269150000 -0.5555700000
    vertex 0.2569380000 0.7907750000 -0.5555700000
    vertex 0.3030790000 0.9327820000 -0.1950900000
  endloop
endfacet
facet normal -0.0968785195 -0.9217412770 0.3755097477
  outer loop
    vertex -0.1025200000 0.9754120000 -0.1950900000
    vertex -0.0869122000 0.8269150000 -0.5555700000
    vertex 0.3030790000 0.9327820000 -0.1950900000
  endloop
endfacet
facet normal 0.2864026276 -0.8814566874 0.3755098442
  outer loop
    vertex -0.0869122000 0.8269150000 -0.5555700000
    vertex -0.1025200000 0.9754120000 -0.1950900000
    vertex -0.4157350000 0.7200740000 -0.5555700000
  endloop
endfacet
facet normal 0.2864013122 -0.8814566417 0.3755109547
  outer loop
    vertex -0.4903930000 0.8493850000 -0.1950900000
    vertex -0.4157350000 0.7200740000 -0.5555700000
    vertex -0.1025200000 0.9754120000 -0.1950900000
  endloop
endfacet
facet normal 0.6201621579 -0.6887598965 0.3755112554
  outer loop
    vertex -0.4157350000 0.7200740000 -0.5555700000
    vertex -0.4903930000 0.8493850000 -0.1950900000
    vertex -0.6726730000 0.4887260000 -0.5555700000
  endloop
endfacet
facet normal 0.6201629236 -0.6887595869 0.3755105586
  outer loop
    vertex -0.7934720000 0.5764910000 -0.1950900000
    vertex -0.6726730000 0.4887260000 -0.5555700000
    vertex -0.4903930000 0.8493850000 -0.1950900000
  endloop
endfacet
facet normal 0.8466906102 -0.3769702471 0.3755109098
  outer loop
    vertex -0.6726730000 0.4887260000 -0.5555700000
    vertex -0.7934720000 0.5764910000 -0.1950900000
    vertex -0.8133000000 0.1728720000 -0.5555700000
  endloop
endfacet
facet normal 0.8466895732 -0.3769713214 0.3755121696
  outer loop
    vertex -0.9593530000 0.2039170000 -0.1950900000
    vertex -0.8133000000 0.1728720000 -0.5555700000
    vertex -0.7934720000 0.5764910000 -0.1950900000
  endloop
endfacet
facet normal 0.9268176139 0.0000000000 0.3755117981
  outer loop
    vertex -0.9593530000 0.2039170000 -0.1950900000
    vertex -0.8133000000 -0.1728720000 -0.5555700000
    vertex -0.8133000000 0.1728720000 -0.5555700000
  endloop
endfacet
facet normal 0.9268176139 -0.0000000000 0.3755117981
  outer loop
    vertex -0.8133000000 -0.1728720000 -0.5555700000
    vertex -0.9593530000 0.2039170000 -0.1950900000
    vertex -0.9593530000 -0.2039170000 -0.1950900000
  endloop
endfacet
facet normal 0.8466901055 0.3769700224 0.3755122734
  outer loop
    vertex -0.6726730000 -0.4887260000 -0.5555700000
    vertex -0.8133000000 -0.1728720000 -0.5555700000
    vertex -0.9593530000 -0.2039170000 -0.1950900000
  endloop
endfacet
facet normal 0.8466900011 0.3769715119 0.3755110136
  outer loop
    vertex -0.9593530000 -0.2039170000 -0.1950900000
    vertex -0.7934720000 -0.5764910000 -0.1950900000
    vertex -0.6726730000 -0.4887260000 -0.5555700000
  endloop
endfacet
facet normal 0.6201623624 0.6887601236 0.3755105012
  outer loop
    vertex -0.4157350000 -0.7200740000 -0.5555700000
    vertex -0.6726730000 -0.4887260000 -0.5555700000
    vertex -0.7934720000 -0.5764910000 -0.1950900000
  endloop
endfacet
facet normal 0.6201627502 0.6887593944 0.3755111980
  outer loop
    vertex -0.7934720000 -0.5764910000 -0.1950900000
    vertex -0.4903930000 -0.8493850000 -0.1950900000
    vertex -0.4157350000 -0.7200740000 -0.5555700000
  endloop
endfacet
facet normal 0.2864024771 0.8814562242 0.3755110462
  outer loop
    vertex -0.0869122000 -0.8269150000 -0.5555700000
    vertex -0.4157350000 -0.7200740000 -0.5555700000
    vertex -0.4903930000 -0.8493850000 -0.1950900000
  endloop
endfacet
facet normal 0.2864014398 0.8814570344 0.3755099357
  outer loop
    vertex -0.4903930000 -0.8493850000 -0.1950900000
    vertex -0.1025200000 -0.9754120000 -0.1950900000
    vertex -0.0869122000 -0.8269150000 -0.5555700000
  endloop
endfacet
facet normal -0.0968786102 0.9217412703 0.3755097410
  outer loop
    vertex 0.2569380000 -0.7907750000 -0.5555700000
    vertex -0.0869122000 -0.8269150000 -0.5555700000
    vertex -0.1025200000 -0.9754120000 -0.1950900000
  endloop
endfacet
facet normal -0.0968785164 0.9217412469 0.3755098226
  outer loop
    vertex 0.3030790000 -0.9327820000 -0.1950900000
    vertex 0.2569380000 -0.7907750000 -0.5555700000
    vertex -0.1025200000 -0.9754120000 -0.1950900000
  endloop
endfacet
facet normal -0.4634101459 0.8026477214 0.3755098827
  outer loop
    vertex 0.2569380000 -0.7907750000 -0.5555700000
    vertex 0.3030790000 -0.9327820000 -0.1950900000
    vertex 0.5563620000 -0.6179020000 -0.5555700000
  endloop
endfacet
facet normal -0.4634076527 0.8026481614 0.3755120189
  outer loop
    vertex 0.6562730000 -0.7288660000 -0.1950900000
    vertex 0.5563620000 -0.6179020000 -0.5555700000
    vertex 0.3030790000 -0.9327820000 -0.1950900000
  endloop
endfacet
facet normal -0.7498119356 0.5447692134 0.3755110722
  outer loop
    vertex 0.5563620000 -0.6179020000 -0.5555700000
    vertex 0.6562730000 -0.7288660000 -0.1950900000
    vertex 0.7595850000 -0.3381890000 -0.5555700000
  endloop
endfacet
facet normal -0.7498113100 0.5447696356 0.3755117090
  outer loop
    vertex 0.8959920000 -0.3989210000 -0.1950900000
    vertex 0.7595850000 -0.3381890000 -0.5555700000
    vertex 0.6562730000 -0.7288660000 -0.1950900000
  endloop
endfacet
facet normal -0.9065639209 0.1926980104 0.3755120959
  outer loop
    vertex 0.8959920000 -0.3989210000 -0.1950900000
    vertex 0.8314700000 0.0000000000 -0.5555700000
    vertex 0.7595850000 -0.3381890000 -0.5555700000
  endloop
endfacet
facet normal -0.9065653149 0.1926957787 0.3755098757
  outer loop
    vertex 0.8314700000 0.0000000000 -0.5555700000
    vertex 0.8959920000 -0.3989210000 -0.1950900000
    vertex 0.9807850000 0.0000000000 -0.1950900000
  endloop
endfacet
facet normal -0.6992529771 -0.1486288937 0.6992529771
  outer loop
    vertex 0.5075390000 0.2259710000 -0.8314700000
    vertex 0.5555700000 0.0000000000 -0.8314700000
    vertex 0.8314700000 0.0000000000 -0.5555700000
  endloop
endfacet
facet normal -0.6992539796 -0.1486324875 0.6992512107
  outer loop
    vertex 0.8314700000 0.0000000000 -0.5555700000
    vertex 0.7595850000 0.3381890000 -0.5555700000
    vertex 0.5075390000 0.2259710000 -0.8314700000
  endloop
endfacet
facet normal -0.5783461992 -0.4201951352 0.6992508293
  outer loop
    vertex 0.3717490000 0.4128690000 -0.8314700000
    vertex 0.5075390000 0.2259710000 -0.8314700000
    vertex 0.7595850000 0.3381890000 -0.5555700000
  endloop
endfacet
facet normal -0.5783465774 -0.4201925778 0.6992520533
  outer loop
    vertex 0.7595850000 0.3381890000 -0.5555700000
    vertex 0.5563620000 0.6179020000 -0.5555700000
    vertex 0.3717490000 0.4128690000 -0.8314700000
  endloop
endfacet
facet normal -0.3574391600 -0.6190991071 0.6992521308
  outer loop
    vertex 0.1716810000 0.5283790000 -0.8314700000
    vertex 0.3717490000 0.4128690000 -0.8314700000
    vertex 0.5563620000 0.6179020000 -0.5555700000
  endloop
endfacet
facet normal -0.3574385599 -0.6191000524 0.6992516007
  outer loop
    vertex 0.5563620000 0.6179020000 -0.5555700000
    vertex 0.2569380000 0.7907750000 -0.5555700000
    vertex 0.1716810000 0.5283790000 -0.8314700000
  endloop
endfacet
facet normal -0.0747244837 -0.7109591504 0.6992519846
  outer loop
    vertex -0.0580729000 0.5525270000 -0.8314700000
    vertex 0.1716810000 0.5283790000 -0.8314700000
    vertex 0.2569380000 0.7907750000 -0.5555700000
  endloop
endfacet
facet normal -0.0747245789 -0.7109590872 0.6992520387
  outer loop
    vertex -0.0869122000 0.8269150000 -0.5555700000
    vertex -0.0580729000 0.5525270000 -0.8314700000
    vertex 0.2569380000 0.7907750000 -0.5555700000
  endloop
endfacet
facet normal 0.2209092185 -0.6798866535 0.6992519257
  outer loop
    vertex -0.0580729000 0.5525270000 -0.8314700000
    vertex -0.0869122000 0.8269150000 -0.5555700000
    vertex -0.2777850000 0.4811380000 -0.8314700000
  endloop
endfacet
facet normal 0.2209085176 -0.6798865351 0.6992522622
  outer loop
    vertex -0.4157350000 0.7200740000 -0.5555700000
    vertex -0.2777850000 0.4811380000 -0.8314700000
    vertex -0.0869122000 0.8269150000 -0.5555700000
  endloop
endfacet
facet normal 0.4783441733 -0.5312559419 0.6992524409
  outer loop
    vertex -0.2777850000 0.4811380000 -0.8314700000
    vertex -0.4157350000 0.7200740000 -0.5555700000
    vertex -0.4494660000 0.3265560000 -0.8314700000
  endloop
endfacet
facet normal 0.4783448195 -0.5312557758 0.6992521250
  outer loop
    vertex -0.6726730000 0.4887260000 -0.5555700000
    vertex -0.4494660000 0.3265560000 -0.8314700000
    vertex -0.4157350000 0.7200740000 -0.5555700000
  endloop
endfacet
facet normal 0.6530708038 -0.2907666813 0.6992519305
  outer loop
    vertex -0.6726730000 0.4887260000 -0.5555700000
    vertex -0.5434300000 0.1155100000 -0.8314700000
    vertex -0.4494660000 0.3265560000 -0.8314700000
  endloop
endfacet
facet normal 0.6530719069 -0.2907658065 0.6992512639
  outer loop
    vertex -0.5434300000 0.1155100000 -0.8314700000
    vertex -0.6726730000 0.4887260000 -0.5555700000
    vertex -0.8133000000 0.1728720000 -0.5555700000
  endloop
endfacet
facet normal 0.7148756967 0.0000000000 0.6992515558
  outer loop
    vertex -0.8133000000 0.1728720000 -0.5555700000
    vertex -0.5434300000 -0.1155100000 -0.8314700000
    vertex -0.5434300000 0.1155100000 -0.8314700000
  endloop
endfacet
facet normal 0.7148756967 -0.0000000000 0.6992515558
  outer loop
    vertex -0.5434300000 -0.1155100000 -0.8314700000
    vertex -0.8133000000 0.1728720000 -0.5555700000
    vertex -0.8133000000 -0.1728720000 -0.5555700000
  endloop
endfacet
facet normal 0.6530715179 0.2907669992 0.6992511314
  outer loop
    vertex -0.4494660000 -0.3265560000 -0.8314700000
    vertex -0.5434300000 -0.1155100000 -0.8314700000
    vertex -0.8133000000 -0.1728720000 -0.5555700000
  endloop
endfacet
facet normal 0.6530714298 0.2907655941 0.6992517979
  outer loop
    vertex -0.8133000000 -0.1728720000 -0.5555700000
    vertex -0.6726730000 -0.4887260000 -0.5555700000
    vertex -0.4494660000 -0.3265560000 -0.8314700000
  endloop
endfacet
facet normal 0.4783444211 0.5312562172 0.6992520622
  outer loop
    vertex -0.2777850000 -0.4811380000 -0.8314700000
    vertex -0.4494660000 -0.3265560000 -0.8314700000
    vertex -0.6726730000 -0.4887260000 -0.5555700000
  endloop
endfacet
facet normal 0.4783446539 0.5312555919 0.6992523781
  outer loop
    vertex -0.6726730000 -0.4887260000 -0.5555700000
    vertex -0.4157350000 -0.7200740000 -0.5555700000
    vertex -0.2777850000 -0.4811380000 -0.8314700000
  endloop
endfacet
facet normal 0.2209090965 0.6798862781 0.6992523292
  outer loop
    vertex -0.0580729000 -0.5525270000 -0.8314700000
    vertex -0.2777850000 -0.4811380000 -0.8314700000
    vertex -0.4157350000 -0.7200740000 -0.5555700000
  endloop
endfacet
facet normal 0.2209085991 0.6798867859 0.6992519926
  outer loop
    vertex -0.4157350000 -0.7200740000 -0.5555700000
    vertex -0.0869122000 -0.8269150000 -0.5555700000
    vertex -0.0580729000 -0.5525270000 -0.8314700000
  endloop
endfacet
facet normal -0.0747244771 0.7109590873 0.6992520494
  outer loop
    vertex 0.1716810000 -0.5283790000 -0.8314700000
    vertex -0.0580729000 -0.5525270000 -0.8314700000
    vertex -0.0869122000 -0.8269150000 -0.5555700000
  endloop
endfacet
facet normal -0.0747245834 0.7109591294 0.6992519953
  outer loop
    vertex 0.2569380000 -0.7907750000 -0.5555700000
    vertex 0.1716810000 -0.5283790000 -0.8314700000
    vertex -0.0869122000 -0.8269150000 -0.5555700000
  endloop
endfacet
facet normal -0.3574394708 0.6190996455 0.6992514953
  outer loop
    vertex 0.1716810000 -0.5283790000 -0.8314700000
    vertex 0.2569380000 -0.7907750000 -0.5555700000
    vertex 0.3717490000 -0.4128690000 -0.8314700000
  endloop
endfacet
facet normal -0.3574383522 0.6190996926 0.6992520253
  outer loop
    vertex 0.5563620000 -0.6179020000 -0.5555700000
    vertex 0.3717490000 -0.4128690000 -0.8314700000
    vertex 0.2569380000 -0.7907750000 -0.5555700000
  endloop
endfacet
facet normal -0.5783450379 0.4201942915 0.6992522967
  outer loop
    vertex 0.5563620000 -0.6179020000 -0.5555700000
    vertex 0.5075390000 -0.2259710000 -0.8314700000
    vertex 0.3717490000 -0.4128690000 -0.8314700000
  endloop
endfacet
facet normal -0.5783473533 0.4201931415 0.6992510727
  outer loop
    vertex 0.5075390000 -0.2259710000 -0.8314700000
    vertex 0.5563620000 -0.6179020000 -0.5555700000
    vertex 0.7595850000 -0.3381890000 -0.5555700000
  endloop
endfacet
facet normal -0.6992550033 0.1486293244 0.6992508593
  outer loop
    vertex 0.7595850000 -0.3381890000 -0.5555700000
    vertex 0.5555700000 0.0000000000 -0.8314700000
    vertex 0.5075390000 -0.2259710000 -0.8314700000
  endloop
endfacet
facet normal -0.6992526257 0.1486321997 0.6992526257
  outer loop
    vertex 0.5555700000 0.0000000000 -0.8314700000
    vertex 0.7595850000 -0.3381890000 -0.5555700000
    vertex 0.8314700000 0.0000000000 -0.5555700000
  endloop
endfacet
facet normal -0.3814222074 -0.0810716386 0.9208390137
  outer loop
    vertex 0.1782240000 0.0793504000 -0.9807850000
    vertex 0.1950900000 0.0000000000 -0.9807850000
    vertex 0.5555700000 0.0000000000 -0.8314700000
  endloop
endfacet
facet normal -0.3814223803 -0.0810727852 0.9208388411
  outer loop
    vertex 0.5555700000 0.0000000000 -0.8314700000
    vertex 0.5075390000 0.2259710000 -0.8314700000
    vertex 0.1782240000 0.0793504000 -0.9807850000
  endloop
endfacet
facet normal -0.3154701043 -0.2292039108 0.9208388462
  outer loop
    vertex 0.1305410000 0.1449800000 -0.9807850000
    vertex 0.1782240000 0.0793504000 -0.9807850000
    vertex 0.5075390000 0.2259710000 -0.8314700000
  endloop
endfacet
facet normal -0.3154701868 -0.2292036119 0.9208388923
  outer loop
    vertex 0.5075390000 0.2259710000 -0.8314700000
    vertex 0.3717490000 0.4128690000 -0.8314700000
    vertex 0.1305410000 0.1449800000 -0.9807850000
  endloop
endfacet
facet normal -0.1949728566 -0.3376997940 0.9208389840
  outer loop
    vertex 0.0602862000 0.1855420000 -0.9807850000
    vertex 0.1305410000 0.1449800000 -0.9807850000
    vertex 0.3717490000 0.4128690000 -0.8314700000
  endloop
endfacet
facet normal -0.1949724858 -0.3377002449 0.9208388971
  outer loop
    vertex 0.3717490000 0.4128690000 -0.8314700000
    vertex 0.1716810000 0.5283790000 -0.8314700000
    vertex 0.0602862000 0.1855420000 -0.9807850000
  endloop
endfacet
facet normal -0.0407616849 -0.3878065735 0.9208390449
  outer loop
    vertex -0.0203925000 0.1940220000 -0.9807850000
    vertex 0.0602862000 0.1855420000 -0.9807850000
    vertex 0.1716810000 0.5283790000 -0.8314700000
  endloop
endfacet
facet normal -0.0407600187 -0.3878074069 0.9208387677
  outer loop
    vertex -0.0580729000 0.5525270000 -0.8314700000
    vertex -0.0203925000 0.1940220000 -0.9807850000
    vertex 0.1716810000 0.5283790000 -0.8314700000
  endloop
endfacet
facet normal 0.1205018048 -0.3708580156 0.9208385566
  outer loop
    vertex -0.0203925000 0.1940220000 -0.9807850000
    vertex -0.0580729000 0.5525270000 -0.8314700000
    vertex -0.0975452000 0.1689530000 -0.9807850000
  endloop
endfacet
facet normal 0.1204993951 -0.3708579073 0.9208389155
  outer loop
    vertex -0.2777850000 0.4811380000 -0.8314700000
    vertex -0.0975452000 0.1689530000 -0.9807850000
    vertex -0.0580729000 0.5525270000 -0.8314700000
  endloop
endfacet
facet normal 0.2609243323 -0.2897835767 0.9208387326
  outer loop
    vertex -0.2777850000 0.4811380000 -0.8314700000
    vertex -0.1578310000 0.1146710000 -0.9807850000
    vertex -0.0975452000 0.1689530000 -0.9807850000
  endloop
endfacet
facet normal 0.2609225013 -0.2897842953 0.9208390253
  outer loop
    vertex -0.1578310000 0.1146710000 -0.9807850000
    vertex -0.2777850000 0.4811380000 -0.8314700000
    vertex -0.4494660000 0.3265560000 -0.8314700000
  endloop
endfacet
facet normal 0.3562295454 -0.1586053872 0.9208392054
  outer loop
    vertex -0.4494660000 0.3265560000 -0.8314700000
    vertex -0.1908270000 0.0405616000 -0.9807850000
    vertex -0.1578310000 0.1146710000 -0.9807850000
  endloop
endfacet
facet normal 0.3562304525 -0.1586044665 0.9208390130
  outer loop
    vertex -0.1908270000 0.0405616000 -0.9807850000
    vertex -0.4494660000 0.3265560000 -0.8314700000
    vertex -0.5434300000 0.1155100000 -0.8314700000
  endloop
endfacet
facet normal 0.3899430074 0.0000000000 0.9208389930
  outer loop
    vertex -0.5434300000 0.1155100000 -0.8314700000
    vertex -0.1908270000 -0.0405616000 -0.9807850000
    vertex -0.1908270000 0.0405616000 -0.9807850000
  endloop
endfacet
facet normal 0.3899430074 -0.0000000000 0.9208389930
  outer loop
    vertex -0.1908270000 -0.0405616000 -0.9807850000
    vertex -0.5434300000 0.1155100000 -0.8314700000
    vertex -0.5434300000 -0.1155100000 -0.8314700000
  endloop
endfacet
facet normal 0.3562301596 0.1586056606 0.9208389207
  outer loop
    vertex -0.1578310000 -0.1146710000 -0.9807850000
    vertex -0.1908270000 -0.0405616000 -0.9807850000
    vertex -0.5434300000 -0.1155100000 -0.8314700000
  endloop
endfacet
facet normal 0.3562302368 0.1586043705 0.9208391130
  outer loop
    vertex -0.5434300000 -0.1155100000 -0.8314700000
    vertex -0.4494660000 -0.3265560000 -0.8314700000
    vertex -0.1578310000 -0.1146710000 -0.9807850000
  endloop
endfacet
facet normal 0.2609236477 0.2897828164 0.9208391659
  outer loop
    vertex -0.0975452000 -0.1689530000 -0.9807850000
    vertex -0.1578310000 -0.1146710000 -0.9807850000
    vertex -0.4494660000 -0.3265560000 -0.8314700000
  endloop
endfacet
facet normal 0.2609227416 0.2897845623 0.9208388732
  outer loop
    vertex -0.4494660000 -0.3265560000 -0.8314700000
    vertex -0.2777850000 -0.4811380000 -0.8314700000
    vertex -0.0975452000 -0.1689530000 -0.9807850000
  endloop
endfacet
facet normal 0.1205014171 0.3708568224 0.9208390879
  outer loop
    vertex -0.0203925000 -0.1940220000 -0.9807850000
    vertex -0.0975452000 -0.1689530000 -0.9807850000
    vertex -0.2777850000 -0.4811380000 -0.8314700000
  endloop
endfacet
facet normal 0.1204995312 0.3708583263 0.9208387290
  outer loop
    vertex -0.2777850000 -0.4811380000 -0.8314700000
    vertex -0.0580729000 -0.5525270000 -0.8314700000
    vertex -0.0203925000 -0.1940220000 -0.9807850000
  endloop
endfacet
facet normal -0.0407617861 0.3878075372 0.9208386346
  outer loop
    vertex 0.0602862000 -0.1855420000 -0.9807850000
    vertex -0.0203925000 -0.1940220000 -0.9807850000
    vertex -0.0580729000 -0.5525270000 -0.8314700000
  endloop
endfacet
facet normal -0.0407599831 0.3878070685 0.9208389118
  outer loop
    vertex 0.1716810000 -0.5283790000 -0.8314700000
    vertex 0.0602862000 -0.1855420000 -0.9807850000
    vertex -0.0580729000 -0.5525270000 -0.8314700000
  endloop
endfacet
facet normal -0.1949730084 0.3377000569 0.9208388554
  outer loop
    vertex 0.1716810000 -0.5283790000 -0.8314700000
    vertex 0.1305410000 -0.1449800000 -0.9807850000
    vertex 0.0602862000 -0.1855420000 -0.9807850000
  endloop
endfacet
facet normal -0.1949724325 0.3377001526 0.9208389422
  outer loop
    vertex 0.1305410000 -0.1449800000 -0.9807850000
    vertex 0.1716810000 -0.5283790000 -0.8314700000
    vertex 0.3717490000 -0.4128690000 -0.8314700000
  endloop
endfacet
facet normal -0.3154699738 0.2292038160 0.9208389144
  outer loop
    vertex 0.3717490000 -0.4128690000 -0.8314700000
    vertex 0.1782240000 -0.0793504000 -0.9807850000
    vertex 0.1305410000 -0.1449800000 -0.9807850000
  endloop
endfacet
facet normal -0.3154702326 0.2292036452 0.9208388683
  outer loop
    vertex 0.1782240000 -0.0793504000 -0.9807850000
    vertex 0.3717490000 -0.4128690000 -0.8314700000
    vertex 0.5075390000 -0.2259710000 -0.8314700000
  endloop
endfacet
facet normal -0.3814227974 0.0810717640 0.9208387583
  outer loop
    vertex 0.5075390000 -0.2259710000 -0.8314700000
    vertex 0.1950900000 0.0000000000 -0.9807850000
    vertex 0.1782240000 -0.0793504000 -0.9807850000
  endloop
endfacet
facet normal -0.3814221731 0.0810727412 0.9208389308
  outer loop
    vertex 0.1950900000 0.0000000000 -0.9807850000
    vertex 0.5075390000 -0.2259710000 -0.8314700000
    vertex 0.5555700000 0.0000000000 -0.8314700000
  endloop
endfacet
facet normal 0.0000000000 0.0000000000 -1.0000000000
  outer loop
    vertex 0.1782240000 -0.0793504000 0.9807850000
    vertex 0.1782240000 0.0793504000 0.9807850000
    vertex 0.1950900000 0.0000000000 0.9807850000
  endloop
endfacet
facet normal 0.0000000000 0.0000000000 -1.0000000000
  outer loop
    vertex 0.1782240000 0.0793504000 0.9807850000
    vertex 0.1782240000 -0.0793504000 0.9807850000
    vertex 0.1305410000 0.1449800000 0.9807850000
  endloop
endfacet
facet normal 0.0000000000 0.0000000000 -1.0000000000
  outer loop
    vertex 0.1305410000 -0.1449800000 0.9807850000
    vertex 0.1305410000 0.1449800000 0.9807850000
    vertex 0.1782240000 -0.0793504000 0.9807850000
  endloop
endfacet
facet normal 0.0000000000 0.0000000000 -1.0000000000
  outer loop
    vertex 0.1305410000 0.1449800000 0.9807850000
    vertex 0.1305410000 -0.1449800000 0.9807850000
    vertex 0.0602862000 0.1855420000 0.9807850000
  endloop
endfacet
facet normal 0.0000000000 0.0000000000 -1.0000000000
  outer loop
    vertex 0.0602862000 -0.1855420000 0.9807850000
    vertex 0.0602862000 0.1855420000 0.9807850000
    vertex 0.1305410000 -0.1449800000 0.9807850000
  endloop
endfacet
facet normal 0.0000000000 0.0000000000 -1.0000000000
  outer loop
    vertex 0.0602862000 0.1855420000 0.9807850000
    vertex 0.0602862000 -0.1855420000 0.9807850000
    vertex -0.0203925000 0.1940220000 0.9807850000
  endloop
endfacet
facet normal 0.0000000000 0.0000000000 -1.0000000000
  outer loop
    vertex -0.0203925000 -0.1940220000 0.9807850000
    vertex -0.0203925000 0.1940220000 0.9807850000
    vertex 0.0602862000 -0.1855420000 0.9807850000
  endloop
endfacet
facet normal 0.0000000000 0.0000000000 -1.0000000000
  outer loop
    vertex -0.0203925000 0.1940220000 0.9807850000
    vertex -0.0203925000 -0.1940220000 0.9807850000
    vertex -0.0975452000 0.1689530000 0.9807850000
  endloop
endfacet
facet normal 0.0000000000 0.0000000000 -1.0000000000
  outer loop
    vertex -0.0975452000 -0.1689530000 0.9807850000
    vertex -0.0975452000 0.1689530000 0.9807850000
    vertex -0.0203925000 -0.1940220000 0.9807850000
  endloop
endfacet
facet normal 0.0000000000 0.0000000000 -1.0000000000
  outer loop
    vertex -0.0975452000 0.1689530000 0.9807850000
    vertex -0.0975452000 -0.1689530000 0.9807850000
    vertex -0.1578310000 0.1146710000 0.9807850000
  endloop
endfacet
facet normal 0.0000000000 0.0000000000 -1.0000000000
  outer loop
    vertex -0.1578310000 -0.1146710000 0.9807850000
    vertex -0.1578310000 0.1146710000 0.9807850000
    vertex -0.0975452000 -0.1689530000 0.9807850000
  endloop
endfacet
facet normal 0.0000000000 0.0000000000 -1.0000000000
  outer loop
    vertex -0.1578310000 0.1146710000 0.9807850000
    vertex -0.1578310000 -0.1146710000 0.9807850000
    vertex -0.1908270000 0.0405616000 0.9807850000
  endloop
endfacet
facet normal 0.0000000000 0.0000000000 -1.0000000000
  outer loop
    vertex -0.1908270000 -0.0405616000 0.9807850000
    vertex -0.1908270000 0.0405616000 0.9807850000
    vertex -0.1578310000 -0.1146710000 0.9807850000
  endloop
endfacet
facet normal 0.0000000000 0.0000000000 1.0000000000
  outer loop
    vertex 0.1950900000 0.0000000000 -0.9807850000
    vertex 0.1782240000 0.0793504000 -0.9807850000
    vertex 0.1782240000 -0.0793504000 -0.9807850000
  endloop
endfacet
facet normal 0.0000000000 0.0000000000 1.0000000000
  outer loop
    vertex 0.1305410000 -0.1449800000 -0.9807850000
    vertex 0.1782240000 -0.0793504000 -0.9807850000
    vertex 0.1782240000 0.0793504000 -0.9807850000
  endloop
endfacet
facet normal 0.0000000000 0.0000000000 1.0000000000
  outer loop
    vertex 0.1782240000 0.0793504000 -0.9807850000
    vertex 0.1305410000 0.1449800000 -0.9807850000
    vertex 0.1305410000 -0.1449800000 -0.9807850000
  endloop
endfacet
facet normal 0.0000000000 0.0000000000 1.0000000000
  outer loop
    vertex 0.0602862000 -0.1855420000 -0.9807850000
    vertex 0.1305410000 -0.1449800000 -0.9807850000
    vertex 0.1305410000 0.1449800000 -0.9807850000
  endloop
endfacet
facet normal 0.0000000000 0.0000000000 1.0000000000
  outer loop
    vertex 0.1305410000 0.1449800000 -0.9807850000
    vertex 0.0602862000 0.1855420000 -0.9807850000
    vertex 0.0602862000 -0.1855420000 -0.9807850000
  endloop
endfacet
facet normal 0.0000000000 0.0000000000 1.0000000000
  outer loop
    vertex -0.0203925000 -0.1940220000 -0.9807850000
    vertex 0.0602862000 -0.1855420000 -0.9807850000
    vertex 0.0602862000 0.1855420000 -0.9807850000
  endloop
endfacet
facet normal 0.0000000000 0.0000000000 1.0000000000
  outer loop
    vertex 0.0602862000 0.1855420000 -0.9807850000
    vertex -0.0203925000 0.1940220000 -0.9807850000
    vertex -0.0203925000 -0.1940220000 -0.9807850000
  endloop
endfacet
facet normal -0.0000000000 0.0000000000 1.0000000000
  outer loop
    vertex -0.0975452000 -0.1689530000 -0.9807850000
    vertex -0.0203925000 -0.1940220000 -0.9807850000
    vertex -0.0203925000 0.1940220000 -0.9807850000
  endloop
endfacet
facet normal 0.0000000000 0.0000000000 1.0000000000
  outer loop
    vertex -0.0203925000 0.1940220000 -0.9807850000
    vertex -0.0975452000 0.1689530000 -0.9807850000
    vertex -0.0975452000 -0.1689530000 -0.9807850000
  endloop
endfacet
facet normal -0.0000000000 0.0000000000 1.0000000000
  outer loop
    vertex -0.1578310000 -0.1146710000 -0.9807850000
    vertex -0.0975452000 -0.1689530000 -0.9807850000
    vertex -0.0975452000 0.1689530000 -0.9807850000
  endloop
endfacet
facet normal 0.0000000000 0.0000000000 1.0000000000
  outer loop
    vertex -0.0975452000 0.1689530000 -0.9807850000
    vertex -0.1578310000 0.1146710000 -0.9807850000
    vertex -0.1578310000 -0.1146710000 -0.9807850000
  endloop
endfacet
facet normal -0.0000000000 0.0000000000 1.0000000000
  outer loop
    vertex -0.1908270000 -0.0405616000 -0.9807850000
    vertex -0.1578310000 -0.1146710000 -0.9807850000
    vertex -0.1578310000 0.1146710000 -0.9807850000
  endloop
endfacet
facet normal 0.0000000000 0.0000000000 1.0000000000
  outer loop
    vertex -0.1578310000 0.1146710000 -0.9807850000
    vertex -0.1908270000 0.0405616000 -0.9807850000
    vertex -0.1908270000 -0.0405616000 -0.9807850000
  endloop
endfacet
endsolid REINCARNATE