solid REINCARNATE
facet normal 0.0626666000 0.0039430000 -0.0000000000
  outer loop
    vertex 0.4960570000 0.0626666000 -0.5000000000
    vertex 0.4960570000 0.0626666000 0.5000000000
    vertex 0.5000000000 0.0000000000 0.5000000000
  endloop
endfacet
facet normal 0.0626666000 0.0039430000 0.0000000000
  outer loop
    vertex 0.5000000000 0.0000000000 0.5000000000
    vertex 0.5000000000 0.0000000000 -0.5000000000
    vertex 0.4960570000 0.0626666000 -0.5000000000
  endloop
endfacet
facet normal 0.0616784000 0.0117650000 -0.0000000000
  outer loop
    vertex 0.4842920000 0.1243450000 -0.5000000000
    vertex 0.4842920000 0.1243450000 0.5000000000
    vertex 0.4960570000 0.0626666000 0.5000000000
  endloop
endfacet
facet normal 0.0616784000 0.0117650000 0.0000000000
  outer loop
    vertex 0.4960570000 0.0626666000 0.5000000000
    vertex 0.4960570000 0.0626666000 -0.5000000000
    vertex 0.4842920000 0.1243450000 -0.5000000000
  endloop
endfacet
facet normal 0.0597170000 0.0194040000 -0.0000000000
  outer loop
    vertex 0.4648880000 0.1840620000 -0.5000000000
    vertex 0.4648880000 0.1840620000 0.5000000000
    vertex 0.4842920000 0.1243450000 0.5000000000
  endloop
endfacet
facet normal 0.0597170000 0.0194040000 0.0000000000
  outer loop
    vertex 0.4842920000 0.1243450000 0.5000000000
    vertex 0.4842920000 0.1243450000 -0.5000000000
    vertex 0.4648880000 0.1840620000 -0.5000000000
  endloop
endfacet
facet normal 0.0568150000 0.0267350000 -0.0000000000
  outer loop
    vertex 0.4381530000 0.2408770000 -0.5000000000
    vertex 0.4381530000 0.2408770000 0.5000000000
    vertex 0.4648880000 0.1840620000 0.5000000000
  endloop
endfacet
facet normal 0.0568150000 0.0267350000 0.0000000000
  outer loop
    vertex 0.4648880000 0.1840620000 0.5000000000
    vertex 0.4648880000 0.1840620000 -0.5000000000
    vertex 0.4381530000 0.2408770000 -0.5000000000
  endloop
endfacet
facet normal 0.0530160000 0.0336440000 -0.0000000000
  outer loop
    vertex 0.4045090000 0.2938930000 -0.5000000000
    vertex 0.4045090000 0.2938930000 0.5000000000
    vertex 0.4381530000 0.2408770000 0.5000000000
  endloop
endfacet
facet normal 0.0530160000 0.0336440000 0.0000000000
  outer loop
    vertex 0.4381530000 0.2408770000 0.5000000000
    vertex 0.4381530000 0.2408770000 -0.5000000000
    vertex 0.4045090000 0.2938930000 -0.5000000000
  endloop
endfacet
facet normal 0.0483810000 0.0400250000 -0.0000000000
  outer loop
    vertex 0.3644840000 0.3422740000 -0.5000000000
    vertex 0.3644840000 0.3422740000 0.5000000000
    vertex 0.4045090000 0.2938930000 0.5000000000
  endloop
endfacet
facet normal 0.0483810000 0.0400250000 0.0000000000
  outer loop
    vertex 0.4045090000 0.2938930000 0.5000000000
    vertex 0.4045090000 0.2938930000 -0.5000000000
    vertex 0.3644840000 0.3422740000 -0.5000000000
  endloop
endfacet
facet normal 0.0429830000 0.0457720000 0.0000000000
  outer loop
    vertex 0.3644840000 0.3422740000 0.5000000000
    vertex 0.3644840000 0.3422740000 -0.5000000000
    vertex 0.3187120000 0.3852570000 0.5000000000
  endloop
endfacet
facet normal 0.0429830000 0.0457720000 -0.0000000000
  outer loop
    vertex 0.3187120000 0.3852570000 -0.5000000000
    vertex 0.3187120000 0.3852570000 0.5000000000
    vertex 0.3644840000 0.3422740000 -0.5000000000
  endloop
endfacet
facet normal 0.0369070000 0.0507990000 0.0000000000
  outer loop
    vertex 0.3187120000 0.3852570000 0.5000000000
    vertex 0.3187120000 0.3852570000 -0.5000000000
    vertex 0.2679130000 0.4221640000 0.5000000000
  endloop
endfacet
facet normal 0.0369070000 0.0507990000 -0.0000000000
  outer loop
    vertex 0.2679130000 0.4221640000 -0.5000000000
    vertex 0.2679130000 0.4221640000 0.5000000000
    vertex 0.3187120000 0.3852570000 -0.5000000000
  endloop
endfacet
facet normal 0.0302500000 0.0550230000 0.0000000000
  outer loop
    vertex 0.2679130000 0.4221640000 0.5000000000
    vertex 0.2679130000 0.4221640000 -0.5000000000
    vertex 0.2128900000 0.4524140000 0.5000000000
  endloop
endfacet
facet normal 0.0302500000 0.0550230000 -0.0000000000
  outer loop
    vertex 0.2128900000 0.4524140000 -0.5000000000
    vertex 0.2128900000 0.4524140000 0.5000000000
    vertex 0.2679130000 0.4221640000 -0.5000000000
  endloop
endfacet
facet normal 0.0231140000 0.0583810000 0.0000000000
  outer loop
    vertex 0.2128900000 0.4524140000 0.5000000000
    vertex 0.2128900000 0.4524140000 -0.5000000000
    vertex 0.1545090000 0.4755280000 0.5000000000
  endloop
endfacet
facet normal 0.0231140000 0.0583810000 -0.0000000000
  outer loop
    vertex 0.1545090000 0.4755280000 -0.5000000000
    vertex 0.1545090000 0.4755280000 0.5000000000
    vertex 0.2128900000 0.4524140000 -0.5000000000
  endloop
endfacet
facet normal 0.0156160000 0.0608183000 0.0000000000
  outer loop
    vertex 0.1545090000 0.4755280000 0.5000000000
    vertex 0.1545090000 0.4755280000 -0.5000000000
    vertex 0.0936907000 0.4911440000 0.5000000000
  endloop
endfacet
facet normal 0.0156160000 0.0608183000 -0.0000000000
  outer loop
    vertex 0.0936907000 0.4911440000 -0.5000000000
    vertex 0.0936907000 0.4911440000 0.5000000000
    vertex 0.1545090000 0.4755280000 -0.5000000000
  endloop
endfacet
facet normal 0.0078690000 0.0622954000 0.0000000000
  outer loop
    vertex 0.0936907000 0.4911440000 0.5000000000
    vertex 0.0936907000 0.4911440000 -0.5000000000
    vertex 0.0313953000 0.4990130000 0.5000000000
  endloop
endfacet
facet normal 0.0078690000 0.0622954000 -0.0000000000
  outer loop
    vertex 0.0313953000 0.4990130000 -0.5000000000
    vertex 0.0313953000 0.4990130000 0.5000000000
    vertex 0.0936907000 0.4911440000 -0.5000000000
  endloop
endfacet
facet normal -0.0000000000 0.0627906000 0.0000000000
  outer loop
    vertex 0.0313953000 0.4990130000 0.5000000000
    vertex 0.0313953000 0.4990130000 -0.5000000000
    vertex -0.0313953000 0.4990130000 0.5000000000
  endloop
endfacet
facet normal 0.0000000000 0.0627906000 0.0000000000
  outer loop
    vertex -0.0313953000 0.4990130000 -0.5000000000
    vertex -0.0313953000 0.4990130000 0.5000000000
    vertex 0.0313953000 0.4990130000 -0.5000000000
  endloop
endfacet
facet normal -0.0078690000 0.0622954000 0.0000000000
  outer loop
    vertex -0.0313953000 0.4990130000 0.5000000000
    vertex -0.0313953000 0.4990130000 -0.5000000000
    vertex -0.0936907000 0.4911440000 0.5000000000
  endloop
endfacet
facet normal -0.0078690000 0.0622954000 0.0000000000
  outer loop
    vertex -0.0936907000 0.4911440000 -0.5000000000
    vertex -0.0936907000 0.4911440000 0.5000000000
    vertex -0.0313953000 0.4990130000 -0.5000000000
  endloop
endfacet
facet normal -0.0156160000 0.0608183000 0.0000000000
  outer loop
    vertex -0.0936907000 0.4911440000 0.5000000000
    vertex -0.0936907000 0.4911440000 -0.5000000000
    vertex -0.1545090000 0.4755280000 0.5000000000
  endloop
endfacet
facet normal -0.0156160000 0.0608183000 0.0000000000
  outer loop
    vertex -0.1545090000 0.4755280000 -0.5000000000
    vertex -0.1545090000 0.4755280000 0.5000000000
    vertex -0.0936907000 0.4911440000 -0.5000000000
  endloop
endfacet
facet normal -0.0231140000 0.0583810000 0.0000000000
  outer loop
    vertex -0.1545090000 0.4755280000 0.5000000000
    vertex -0.1545090000 0.4755280000 -0.5000000000
    vertex -0.2128900000 0.4524140000 0.5000000000
  endloop
endfacet
facet normal -0.0231140000 0.0583810000 0.0000000000
  outer loop
    vertex -0.2128900000 0.4524140000 -0.5000000000
    vertex -0.2128900000 0.4524140000 0.5000000000
    vertex -0.1545090000 0.4755280000 -0.5000000000
  endloop
endfacet
facet normal -0.0302500000 0.0550230000 0.0000000000
  outer loop
    vertex -0.2128900000 0.4524140000 0.5000000000
    vertex -0.2128900000 0.4524140000 -0.5000000000
    vertex -0.2679130000 0.4221640000 0.5000000000
  endloop
endfacet
facet normal -0.0302500000 0.0550230000 0.0000000000
  outer loop
    vertex -0.2679130000 0.4221640000 -0.5000000000
    vertex -0.2679130000 0.4221640000 0.5000000000
    vertex -0.2128900000 0.4524140000 -0.5000000000
  endloop
endfacet
facet normal -0.0369070000 0.0507990000 0.0000000000
  outer loop
    vertex -0.2679130000 0.4221640000 0.5000000000
    vertex -0.2679130000 0.4221640000 -0.5000000000
    vertex -0.3187120000 0.3852570000 0.5000000000
  endloop
endfacet
facet normal -0.0369070000 0.0507990000 0.0000000000
  outer loop
    vertex -0.3187120000 0.3852570000 -0.5000000000
    vertex -0.3187120000 0.3852570000 0.5000000000
    vertex -0.2679130000 0.4221640000 -0.5000000000
  endloop
endfacet
facet normal -0.0429830000 0.0457720000 0.0000000000
  outer loop
    vertex -0.3187120000 0.3852570000 0.5000000000
    vertex -0.3187120000 0.3852570000 -0.5000000000
    vertex -0.3644840000 0.3422740000 0.5000000000
  endloop
endfacet
facet normal -0.0429830000 0.0457720000 0.0000000000
  outer loop
    vertex -0.3644840000 0.3422740000 -0.5000000000
    vertex -0.3644840000 0.3422740000 0.5000000000
    vertex -0.3187120000 0.3852570000 -0.5000000000
  endloop
endfacet
facet normal -0.0483810000 0.0400250000 0.0000000000
  outer loop
    vertex -0.3644840000 0.3422740000 0.5000000000
    vertex -0.3644840000 0.3422740000 -0.5000000000
    vertex -0.4045090000 0.2938930000 -0.5000000000
  endloop
endfacet
facet normal -0.0483810000 0.0400250000 0.0000000000
  outer loop
    vertex -0.4045090000 0.2938930000 -0.5000000000
    vertex -0.4045090000 0.2938930000 0.5000000000
    vertex -0.3644840000 0.3422740000 0.5000000000
  endloop
endfacet
facet normal -0.0530160000 0.0336440000 0.0000000000
  outer loop
    vertex -0.4045090000 0.2938930000 0.5000000000
    vertex -0.4045090000 0.2938930000 -0.5000000000
    vertex -0.4381530000 0.2408770000 -0.5000000000
  endloop
endfacet
facet normal -0.0530160000 0.0336440000 0.0000000000
  outer loop
    vertex -0.4381530000 0.2408770000 -0.5000000000
    vertex -0.4381530000 0.2408770000 0.5000000000
    vertex -0.4045090000 0.2938930000 0.5000000000
  endloop
endfacet
facet normal -0.0568150000 0.0267350000 0.0000000000
  outer loop
    vertex -0.4381530000 0.2408770000 0.5000000000
    vertex -0.4381530000 0.2408770000 -0.5000000000
    vertex -0.4648880000 0.1840620000 -0.5000000000
  endloop
endfacet
facet normal -0.0568150000 0.0267350000 0.0000000000
  outer loop
    vertex -0.4648880000 0.1840620000 -0.5000000000
    vertex -0.4648880000 0.1840620000 0.5000000000
    vertex -0.4381530000 0.2408770000 0.5000000000
  endloop
endfacet
facet normal -0.0597170000 0.0194040000 0.0000000000
  outer loop
    vertex -0.4648880000 0.1840620000 0.5000000000
    vertex -0.4648880000 0.1840620000 -0.5000000000
    vertex -0.4842920000 0.1243450000 -0.5000000000
  endloop
endfacet
facet normal -0.0597170000 0.0194040000 0.0000000000
  outer loop
    vertex -0.4842920000 0.1243450000 -0.5000000000
    vertex -0.4842920000 0.1243450000 0.5000000000
    vertex -0.4648880000 0.1840620000 0.5000000000
  endloop
endfacet
facet normal -0.0616784000 0.0117650000 0.0000000000
  outer loop
    vertex -0.4842920000 0.1243450000 0.5000000000
    vertex -0.4842920000 0.1243450000 -0.5000000000
    vertex -0.4960570000 0.0626666000 -0.5000000000
  endloop
endfacet
facet normal -0.0616784000 0.0117650000 0.0000000000
  outer loop
    vertex -0.4960570000 0.0626666000 -0.5000000000
    vertex -0.4960570000 0.0626666000 0.5000000000
    vertex -0.4842920000 0.1243450000 0.5000000000
  endloop
endfacet
facet normal -0.0626666000 0.0039430000 0.0000000000
  outer loop
    vertex -0.4960570000 0.0626666000 0.5000000000
    vertex -0.4960570000 0.0626666000 -0.5000000000
    vertex -0.5000000000 0.0000000000 -0.5000000000
  endloop
endfacet
facet normal -0.0626666000 0.0039430000 0.0000000000
  outer loop
    vertex -0.5000000000 0.0000000000 -0.5000000000
    vertex -0.5000000000 0.0000000000 0.5000000000
    vertex -0.4960570000 0.0626666000 0.5000000000
  endloop
endfacet
facet normal -0.0626666000 -0.0039430000 0.0000000000
  outer loop
    vertex -0.4960570000 -0.0626666000 -0.5000000000
    vertex -0.5000000000 0.0000000000 0.5000000000
    vertex -0.5000000000 0.0000000000 -0.5000000000
  endloop
endfacet
facet normal -0.0626666000 -0.0039430000 0.0000000000
  outer loop
    vertex -0.5000000000 0.0000000000 0.5000000000
    vertex -0.4960570000 -0.0626666000 -0.5000000000
    vertex -0.4960570000 -0.0626666000 0.5000000000
  endloop
endfacet
facet normal -0.0616784000 -0.0117650000 0.0000000000
  outer loop
    vertex -0.4842920000 -0.1243450000 -0.5000000000
    vertex -0.4960570000 -0.0626666000 0.5000000000
    vertex -0.4960570000 -0.0626666000 -0.5000000000
  endloop
endfacet
facet normal -0.0616784000 -0.0117650000 0.0000000000
  outer loop
    vertex -0.4960570000 -0.0626666000 0.5000000000
    vertex -0.4842920000 -0.1243450000 -0.5000000000
    vertex -0.4842920000 -0.1243450000 0.5000000000
  endloop
endfacet
facet normal -0.0597170000 -0.0194040000 0.0000000000
  outer loop
    vertex -0.4648880000 -0.1840620000 -0.5000000000
    vertex -0.4842920000 -0.1243450000 0.5000000000
    vertex -0.4842920000 -0.1243450000 -0.5000000000
  endloop
endfacet
facet normal -0.0597170000 -0.0194040000 0.0000000000
  outer loop
    vertex -0.4842920000 -0.1243450000 0.5000000000
    vertex -0.4648880000 -0.1840620000 -0.5000000000
    vertex -0.4648880000 -0.1840620000 0.5000000000
  endloop
endfacet
facet normal -0.0568150000 -0.0267350000 0.0000000000
  outer loop
    vertex -0.4381530000 -0.2408770000 -0.5000000000
    vertex -0.4648880000 -0.1840620000 0.5000000000
    vertex -0.4648880000 -0.1840620000 -0.5000000000
  endloop
endfacet
facet normal -0.0568150000 -0.0267350000 0.0000000000
  outer loop
    vertex -0.4648880000 -0.1840620000 0.5000000000
    vertex -0.4381530000 -0.2408770000 -0.5000000000
    vertex -0.4381530000 -0.2408770000 0.5000000000
  endloop
endfacet
facet normal -0.0530160000 -0.0336440000 0.0000000000
  outer loop
    vertex -0.4045090000 -0.2938930000 -0.5000000000
    vertex -0.4381530000 -0.2408770000 0.5000000000
    vertex -0.4381530000 -0.2408770000 -0.5000000000
  endloop
endfacet
facet normal -0.0530160000 -0.0336440000 0.0000000000
  outer loop
    vertex -0.4381530000 -0.2408770000 0.5000000000
    vertex -0.4045090000 -0.2938930000 -0.5000000000
    vertex -0.4045090000 -0.2938930000 0.5000000000
  endloop
endfacet
facet normal -0.0483810000 -0.0400250000 0.0000000000
  outer loop
    vertex -0.3644840000 -0.3422740000 -0.5000000000
    vertex -0.4045090000 -0.2938930000 0.5000000000
    vertex -0.4045090000 -0.2938930000 -0.5000000000
  endloop
endfacet
facet normal -0.0483810000 -0.0400250000 0.0000000000
  outer loop
    vertex -0.4045090000 -0.2938930000 0.5000000000
    vertex -0.3644840000 -0.3422740000 -0.5000000000
    vertex -0.3644840000 -0.3422740000 0.5000000000
  endloop
endfacet
facet normal -0.0429830000 -0.0457720000 0.0000000000
  outer loop
    vertex -0.3187120000 -0.3852570000 0.5000000000
    vertex -0.3644840000 -0.3422740000 0.5000000000
    vertex -0.3644840000 -0.3422740000 -0.5000000000
  endloop
endfacet
facet normal -0.0429830000 -0.0457720000 0.0000000000
  outer loop
    vertex -0.3644840000 -0.3422740000 -0.5000000000
    vertex -0.3187120000 -0.3852570000 -0.5000000000
    vertex -0.3187120000 -0.3852570000 0.5000000000
  endloop
endfacet
facet normal -0.0369070000 -0.0507990000 0.0000000000
  outer loop
    vertex -0.2679130000 -0.4221640000 0.5000000000
    vertex -0.3187120000 -0.3852570000 0.5000000000
    vertex -0.3187120000 -0.3852570000 -0.5000000000
  endloop
endfacet
facet normal -0.0369070000 -0.0507990000 0.0000000000
  outer loop
    vertex -0.3187120000 -0.3852570000 -0.5000000000
    vertex -0.2679130000 -0.4221640000 -0.5000000000
    vertex -0.2679130000 -0.4221640000 0.5000000000
  endloop
endfacet
facet normal -0.0302500000 -0.0550230000 0.0000000000
  outer loop
    vertex -0.2128900000 -0.4524140000 0.5000000000
    vertex -0.2679130000 -0.4221640000 0.5000000000
    vertex -0.2679130000 -0.4221640000 -0.5000000000
  endloop
endfacet
facet normal -0.0302500000 -0.0550230000 0.0000000000
  outer loop
    vertex -0.2679130000 -0.4221640000 -0.5000000000
    vertex -0.2128900000 -0.4524140000 -0.5000000000
    vertex -0.2128900000 -0.4524140000 0.5000000000
  endloop
endfacet
facet normal -0.0231140000 -0.0583810000 0.0000000000
  outer loop
    vertex -0.1545090000 -0.4755280000 0.5000000000
    vertex -0.2128900000 -0.4524140000 0.5000000000
    vertex -0.2128900000 -0.4524140000 -0.5000000000
  endloop
endfacet
facet normal -0.0231140000 -0.0583810000 0.0000000000
  outer loop
    vertex -0.2128900000 -0.4524140000 -0.5000000000
    vertex -0.1545090000 -0.4755280000 -0.5000000000
    vertex -0.1545090000 -0.4755280000 0.5000000000
  endloop
endfacet
facet normal -0.0156160000 -0.0608183000 0.0000000000
  outer loop
    vertex -0.0936907000 -0.4911440000 0.5000000000
    vertex -0.1545090000 -0.4755280000 0.5000000000
    vertex -0.1545090000 -0.4755280000 -0.5000000000
  endloop
endfacet
facet normal -0.0156160000 -0.0608183000 0.0000000000
  outer loop
    vertex -0.1545090000 -0.4755280000 -0.5000000000
    vertex -0.0936907000 -0.4911440000 -0.5000000000
    vertex -0.0936907000 -0.4911440000 0.5000000000
  endloop
endfacet
facet normal -0.0078690000 -0.0622954000 0.0000000000
  outer loop
    vertex -0.0313953000 -0.4990130000 0.5000000000
    vertex -0.0936907000 -0.4911440000 0.5000000000
    vertex -0.0936907000 -0.4911440000 -0.5000000000
  endloop
endfacet
facet normal -0.0078690000 -0.0622954000 0.0000000000
  outer loop
    vertex -0.0936907000 -0.4911440000 -0.5000000000
    vertex -0.0313953000 -0.4990130000 -0.5000000000
    vertex -0.0313953000 -0.4990130000 0.5000000000
  endloop
endfacet
facet normal 0.0000000000 -0.0627906000 0.0000000000
  outer loop
    vertex 0.0313953000 -0.4990130000 0.5000000000
    vertex -0.0313953000 -0.4990130000 0.5000000000
    vertex -0.0313953000 -0.4990130000 -0.5000000000
  endloop
endfacet
facet normal 0.0000000000 -0.0627906000 0.0000000000
  outer loop
    vertex -0.0313953000 -0.4990130000 -0.5000000000
    vertex 0.0313953000 -0.4990130000 -0.5000000000
    vertex 0.0313953000 -0.4990130000 0.5000000000
  endloop
endfacet
facet normal 0.0078690000 -0.0622954000 0.0000000000
  outer loop
    vertex 0.0936907000 -0.4911440000 0.5000000000
    vertex 0.0313953000 -0.4990130000 0.5000000000
    vertex 0.0313953000 -0.4990130000 -0.5000000000
  endloop
endfacet
facet normal 0.0078690000 -0.0622954000 0.0000000000
  outer loop
    vertex 0.0313953000 -0.4990130000 -0.5000000000
    vertex 0.0936907000 -0.4911440000 -0.5000000000
    vertex 0.0936907000 -0.4911440000 0.5000000000
  endloop
endfacet
facet normal 0.0156160000 -0.0608183000 0.0000000000
  outer loop
    vertex 0.1545090000 -0.4755280000 0.5000000000
    vertex 0.0936907000 -0.4911440000 0.5000000000
    vertex 0.0936907000 -0.4911440000 -0.5000000000
  endloop
endfacet
facet normal 0.0156160000 -0.0608183000 0.0000000000
  outer loop
    vertex 0.0936907000 -0.4911440000 -0.5000000000
    vertex 0.1545090000 -0.4755280000 -0.5000000000
    vertex 0.1545090000 -0.4755280000 0.5000000000
  endloop
endfacet
facet normal 0.0231140000 -0.0583810000 0.0000000000
  outer loop
    vertex 0.2128900000 -0.4524140000 0.5000000000
    vertex 0.1545090000 -0.4755280000 0.5000000000
    vertex 0.1545090000 -0.4755280000 -0.5000000000
  endloop
endfacet
facet normal 0.0231140000 -0.0583810000 0.0000000000
  outer loop
    vertex 0.1545090000 -0.4755280000 -0.5000000000
    vertex 0.2128900000 -0.4524140000 -0.5000000000
    vertex 0.2128900000 -0.4524140000 0.5000000000
  endloop
endfacet
facet normal 0.0302500000 -0.0550230000 0.0000000000
  outer loop
    vertex 0.2679130000 -0.4221640000 0.5000000000
    vertex 0.2128900000 -0.4524140000 0.5000000000
    vertex 0.2128900000 -0.4524140000 -0.5000000000
  endloop
endfacet
facet normal 0.0302500000 -0.0550230000 0.0000000000
  outer loop
    vertex 0.2128900000 -0.4524140000 -0.5000000000
    vertex 0.2679130000 -0.4221640000 -0.5000000000
    vertex 0.2679130000 -0.4221640000 0.5000000000
  endloop
endfacet
facet normal 0.0369070000 -0.0507990000 0.0000000000
  outer loop
    vertex 0.3187120000 -0.3852570000 0.5000000000
    vertex 0.2679130000 -0.4221640000 0.5000000000
    vertex 0.2679130000 -0.4221640000 -0.5000000000
  endloop
endfacet
facet normal 0.0369070000 -0.0507990000 0.0000000000
  outer loop
    vertex 0.2679130000 -0.4221640000 -0.5000000000
    vertex 0.3187120000 -0.3852570000 -0.5000000000
    vertex 0.3187120000 -0.3852570000 0.5000000000
  endloop
endfacet
facet normal 0.0429830000 -0.0457720000 0.0000000000
  outer loop
    vertex 0.3644840000 -0.3422740000 0.5000000000
    vertex 0.3187120000 -0.3852570000 0.5000000000
    vertex 0.3187120000 -0.3852570000 -0.5000000000
  endloop
endfacet
facet normal 0.0429830000 -0.0457720000 0.0000000000
  outer loop
    vertex 0.3187120000 -0.3852570000 -0.5000000000
    vertex 0.3644840000 -0.3422740000 -0.5000000000
    vertex 0.3644840000 -0.3422740000 0.5000000000
  endloop
endfacet
facet normal 0.0483810000 -0.0400250000 0.0000000000
  outer loop
    vertex 0.3644840000 -0.3422740000 0.5000000000
    vertex 0.4045090000 -0.2938930000 -0.5000000000
    vertex 0.4045090000 -0.2938930000 0.5000000000
  endloop
endfacet
facet normal 0.0483810000 -0.0400250000 0.0000000000
  outer loop
    vertex 0.4045090000 -0.2938930000 -0.5000000000
    vertex 0.3644840000 -0.3422740000 0.5000000000
    vertex 0.3644840000 -0.3422740000 -0.5000000000
  endloop
endfacet
facet normal 0.0530160000 -0.0336440000 0.0000000000
  outer loop
    vertex 0.4045090000 -0.2938930000 0.5000000000
    vertex 0.4381530000 -0.2408770000 -0.5000000000
    vertex 0.4381530000 -0.2408770000 0.5000000000
  endloop
endfacet
facet normal 0.0530160000 -0.0336440000 0.0000000000
  outer loop
    vertex 0.4381530000 -0.2408770000 -0.5000000000
    vertex 0.4045090000 -0.2938930000 0.5000000000
    vertex 0.4045090000 -0.2938930000 -0.5000000000
  endloop
endfacet
facet normal 0.0568150000 -0.0267350000 0.0000000000
  outer loop
    vertex 0.4381530000 -0.2408770000 0.5000000000
    vertex 0.4648880000 -0.1840620000 -0.5000000000
    vertex 0.4648880000 -0.1840620000 0.5000000000
  endloop
endfacet
facet normal 0.0568150000 -0.0267350000 0.0000000000
  outer loop
    vertex 0.4648880000 -0.1840620000 -0.5000000000
    vertex 0.4381530000 -0.2408770000 0.5000000000
    vertex 0.4381530000 -0.2408770000 -0.5000000000
  endloop
endfacet
facet normal 0.0597170000 -0.0194040000 0.0000000000
  outer loop
    vertex 0.4648880000 -0.1840620000 0.5000000000
    vertex 0.4842920000 -0.1243450000 -0.5000000000
    vertex 0.4842920000 -0.1243450000 0.5000000000
  endloop
endfacet
facet normal 0.0597170000 -0.0194040000 0.0000000000
  outer loop
    vertex 0.4842920000 -0.1243450000 -0.5000000000
    vertex 0.4648880000 -0.1840620000 0.5000000000
    vertex 0.4648880000 -0.1840620000 -0.5000000000
  endloop
endfacet
facet normal 0.0616784000 -0.0117650000 0.0000000000
  outer loop
    vertex 0.4842920000 -0.1243450000 0.5000000000
    vertex 0.4960570000 -0.0626666000 -0.5000000000
    vertex 0.4960570000 -0.0626666000 0.5000000000
  endloop
endfacet
facet normal 0.0616784000 -0.0117650000 0.0000000000
  outer loop
    vertex 0.4960570000 -0.0626666000 -0.5000000000
    vertex 0.4842920000 -0.1243450000 0.5000000000
    vertex 0.4842920000 -0.1243450000 -0.5000000000
  endloop
endfacet
facet normal 0.0626666000 -0.0039430000 0.0000000000
  outer loop
    vertex 0.4960570000 -0.0626666000 0.5000000000
    vertex 0.5000000000 0.0000000000 -0.5000000000
    vertex 0.5000000000 0.0000000000 0.5000000000
  endloop
endfacet
facet normal 0.0626666000 -0.0039430000 0.0000000000
  outer loop
    vertex 0.5000000000 0.0000000000 -0.5000000000
    vertex 0.4960570000 -0.0626666000 0.5000000000
    vertex 0.4960570000 -0.0626666000 -0.5000000000
  endloop
endfacet
facet normal 0.0000000000 0.0000000000 -0.0004941888
  outer loop
    vertex 0.4960570000 -0.0626666000 -0.5000000000
    vertex 0.4960570000 0.0626666000 -0.5000000000
    vertex 0.5000000000 0.0000000000 -0.5000000000
  endloop
endfacet
facet normal 0.0000000000 0.0000000000 -0.0014745451
  outer loop
    vertex 0.4960570000 0.0626666000 -0.5000000000
    vertex 0.4960570000 -0.0626666000 -0.5000000000
    vertex 0.4842920000 -0.1243450000 -0.5000000000
  endloop
endfacet
facet normal 0.0000000000 0.0000000000 -0.0029258379
  outer loop
    vertex 0.4842920000 -0.1243450000 -0.5000000000
    vertex 0.4842920000 0.1243450000 -0.5000000000
    vertex 0.4960570000 0.0626666000 -0.5000000000
  endloop
endfacet
facet normal 0.0000000000 0.0000000000 -0.0048255808
  outer loop
    vertex 0.4842920000 0.1243450000 -0.5000000000
    vertex 0.4842920000 -0.1243450000 -0.5000000000
    vertex 0.4648880000 -0.1840620000 -0.5000000000
  endloop
endfacet
facet normal 0.0000000000 0.0000000000 -0.0071430781
  outer loop
    vertex 0.4648880000 -0.1840620000 -0.5000000000
    vertex 0.4648880000 0.1840620000 -0.5000000000
    vertex 0.4842920000 0.1243450000 -0.5000000000
  endloop
endfacet
facet normal 0.0000000000 0.0000000000 -0.0098417951
  outer loop
    vertex 0.4648880000 0.1840620000 -0.5000000000
    vertex 0.4648880000 -0.1840620000 -0.5000000000
    vertex 0.4381530000 -0.2408770000 -0.5000000000
  endloop
endfacet
facet normal 0.0000000000 0.0000000000 -0.0128796932
  outer loop
    vertex 0.4381530000 -0.2408770000 -0.5000000000
    vertex 0.4381530000 0.2408770000 -0.5000000000
    vertex 0.4648880000 0.1840620000 -0.5000000000
  endloop
endfacet
facet normal 0.0000000000 0.0000000000 -0.0162081316
  outer loop
    vertex 0.4381530000 0.2408770000 -0.5000000000
    vertex 0.4381530000 -0.2408770000 -0.5000000000
    vertex 0.4045090000 -0.2938930000 -0.5000000000
  endloop
endfacet
facet normal 0.0000000000 0.0000000000 -0.0197754722
  outer loop
    vertex 0.4045090000 -0.2938930000 -0.5000000000
    vertex 0.4045090000 0.2938930000 -0.5000000000
    vertex 0.4381530000 0.2408770000 -0.5000000000
  endloop
endfacet
facet normal 0.0000000000 0.0000000000 -0.0235261347
  outer loop
    vertex 0.4045090000 0.2938930000 -0.5000000000
    vertex 0.4045090000 -0.2938930000 -0.5000000000
    vertex 0.3644840000 -0.3422740000 -0.5000000000
  endloop
endfacet
facet normal 0.0000000000 0.0000000000 -0.0273990337
  outer loop
    vertex 0.3644840000 -0.3422740000 -0.5000000000
    vertex 0.3644840000 0.3422740000 -0.5000000000
    vertex 0.4045090000 0.2938930000 -0.5000000000
  endloop
endfacet
facet normal 0.0000000000 0.0000000000 -0.0313331311
  outer loop
    vertex 0.3644840000 0.3422740000 -0.5000000000
    vertex 0.3644840000 -0.3422740000 -0.5000000000
    vertex 0.3187120000 -0.3852570000 -0.5000000000
  endloop
endfacet
facet normal 0.0000000000 0.0000000000 -0.0352679668
  outer loop
    vertex 0.3187120000 -0.3852570000 -0.5000000000
    vertex 0.3187120000 0.3852570000 -0.5000000000
    vertex 0.3644840000 0.3422740000 -0.5000000000
  endloop
endfacet
facet normal 0.0000000000 0.0000000000 -0.0391413407
  outer loop
    vertex 0.3187120000 0.3852570000 -0.5000000000
    vertex 0.3187120000 -0.3852570000 -0.5000000000
    vertex 0.2679130000 -0.4221640000 -0.5000000000
  endloop
endfacet
facet normal 0.0000000000 0.0000000000 -0.0428910181
  outer loop
    vertex 0.2679130000 -0.4221640000 -0.5000000000
    vertex 0.2679130000 0.4221640000 -0.5000000000
    vertex 0.3187120000 0.3852570000 -0.5000000000
  endloop
endfacet
facet normal 0.0000000000 0.0000000000 -0.0464574595
  outer loop
    vertex 0.2679130000 0.4221640000 -0.5000000000
    vertex 0.2679130000 -0.4221640000 -0.5000000000
    vertex 0.2128900000 -0.4524140000 -0.5000000000
  endloop
endfacet
facet normal 0.0000000000 0.0000000000 -0.0497863510
  outer loop
    vertex 0.2128900000 -0.4524140000 -0.5000000000
    vertex 0.2128900000 0.4524140000 -0.5000000000
    vertex 0.2679130000 0.4221640000 -0.5000000000
  endloop
endfacet
facet normal 0.0000000000 0.0000000000 -0.0528247635
  outer loop
    vertex 0.2128900000 0.4524140000 -0.5000000000
    vertex 0.2128900000 -0.4524140000 -0.5000000000
    vertex 0.1545090000 -0.4755280000 -0.5000000000
  endloop
endfacet
facet normal 0.0000000000 0.0000000000 -0.0555236003
  outer loop
    vertex 0.1545090000 -0.4755280000 -0.5000000000
    vertex 0.1545090000 0.4755280000 -0.5000000000
    vertex 0.2128900000 0.4524140000 -0.5000000000
  endloop
endfacet
facet normal 0.0000000000 0.0000000000 -0.0578416091
  outer loop
    vertex 0.1545090000 0.4755280000 -0.5000000000
    vertex 0.1545090000 -0.4755280000 -0.5000000000
    vertex 0.0936907000 -0.4911440000 -0.5000000000
  endloop
endfacet
facet normal 0.0000000000 0.0000000000 -0.0597410863
  outer loop
    vertex 0.0936907000 -0.4911440000 -0.5000000000
    vertex 0.0936907000 0.4911440000 -0.5000000000
    vertex 0.1545090000 0.4755280000 -0.5000000000
  endloop
endfacet
facet normal 0.0000000000 0.0000000000 -0.0611920239
  outer loop
    vertex 0.0936907000 0.4911440000 -0.5000000000
    vertex 0.0936907000 -0.4911440000 -0.5000000000
    vertex 0.0313953000 -0.4990130000 -0.5000000000
  endloop
endfacet
facet normal 0.0000000000 0.0000000000 -0.0621724289
  outer loop
    vertex 0.0313953000 -0.4990130000 -0.5000000000
    vertex 0.0313953000 0.4990130000 -0.5000000000
    vertex 0.0936907000 0.4911440000 -0.5000000000
  endloop
endfacet
facet normal 0.0000000000 0.0000000000 -0.0626666514
  outer loop
    vertex 0.0313953000 0.4990130000 -0.5000000000
    vertex 0.0313953000 -0.4990130000 -0.5000000000
    vertex -0.0313953000 -0.4990130000 -0.5000000000
  endloop
endfacet
facet normal 0.0000000000 0.0000000000 -0.0626666514
  outer loop
    vertex -0.0313953000 -0.4990130000 -0.5000000000
    vertex -0.0313953000 0.4990130000 -0.5000000000
    vertex 0.0313953000 0.4990130000 -0.5000000000
  endloop
endfacet
facet normal 0.0000000000 0.0000000000 -0.0621724289
  outer loop
    vertex -0.0313953000 0.4990130000 -0.5000000000
    vertex -0.0313953000 -0.4990130000 -0.5000000000
    vertex -0.0936907000 -0.4911440000 -0.5000000000
  endloop
endfacet
facet normal 0.0000000000 0.0000000000 -0.0611920239
  outer loop
    vertex -0.0936907000 -0.4911440000 -0.5000000000
    vertex -0.0936907000 0.4911440000 -0.5000000000
    vertex -0.0313953000 0.4990130000 -0.5000000000
  endloop
endfacet
facet normal 0.0000000000 0.0000000000 -0.0597410863
  outer loop
    vertex -0.0936907000 0.4911440000 -0.5000000000
    vertex -0.0936907000 -0.4911440000 -0.5000000000
    vertex -0.1545090000 -0.4755280000 -0.5000000000
  endloop
endfacet
facet normal 0.0000000000 0.0000000000 -0.0578416091
  outer loop
    vertex -0.1545090000 -0.4755280000 -0.5000000000
    vertex -0.1545090000 0.4755280000 -0.5000000000
    vertex -0.0936907000 0.4911440000 -0.5000000000
  endloop
endfacet
facet normal 0.0000000000 0.0000000000 -0.0555236003
  outer loop
    vertex -0.1545090000 0.4755280000 -0.5000000000
    vertex -0.1545090000 -0.4755280000 -0.5000000000
    vertex -0.2128900000 -0.4524140000 -0.5000000000
  endloop
endfacet
facet normal 0.0000000000 0.0000000000 -0.0528247635
  outer loop
    vertex -0.2128900000 -0.4524140000 -0.5000000000
    vertex -0.2128900000 0.4524140000 -0.5000000000
    vertex -0.1545090000 0.4755280000 -0.5000000000
  endloop
endfacet
facet normal 0.0000000000 0.0000000000 -0.0497863510
  outer loop
    vertex -0.2128900000 0.4524140000 -0.5000000000
    vertex -0.2128900000 -0.4524140000 -0.5000000000
    vertex -0.2679130000 -0.4221640000 -0.5000000000
  endloop
endfacet
facet normal 0.0000000000 0.0000000000 -0.0464574595
  outer loop
    vertex -0.2679130000 -0.4221640000 -0.5000000000
    vertex -0.2679130000 0.4221640000 -0.5000000000
    vertex -0.2128900000 0.4524140000 -0.5000000000
  endloop
endfacet
facet normal 0.0000000000 0.0000000000 -0.0428910181
  outer loop
    vertex -0.2679130000 0.4221640000 -0.5000000000
    vertex -0.2679130000 -0.4221640000 -0.5000000000
    vertex -0.3187120000 -0.3852570000 -0.5000000000
  endloop
endfacet
facet normal 0.0000000000 0.0000000000 -0.0391413407
  outer loop
    vertex -0.3187120000 -0.3852570000 -0.5000000000
    vertex -0.3187120000 0.3852570000 -0.5000000000
    vertex -0.2679130000 0.4221640000 -0.5000000000
  endloop
endfacet
facet normal 0.0000000000 0.0000000000 -0.0352679668
  outer loop
    vertex -0.3187120000 0.3852570000 -0.5000000000
    vertex -0.3187120000 -0.3852570000 -0.5000000000
    vertex -0.3644840000 -0.3422740000 -0.5000000000
  endloop
endfacet
facet normal 0.0000000000 0.0000000000 -0.0313331311
  outer loop
    vertex -0.3644840000 -0.3422740000 -0.5000000000
    vertex -0.3644840000 0.3422740000 -0.5000000000
    vertex -0.3187120000 0.3852570000 -0.5000000000
  endloop
endfacet
facet normal 0.0000000000 0.0000000000 -0.0273990337
  outer loop
    vertex -0.3644840000 0.3422740000 -0.5000000000
    vertex -0.3644840000 -0.3422740000 -0.5000000000
    vertex -0.4045090000 -0.2938930000 -0.5000000000
  endloop
endfacet
facet normal 0.0000000000 0.0000000000 -0.0235261347
  outer loop
    vertex -0.4045090000 -0.2938930000 -0.5000000000
    vertex -0.4045090000 0.2938930000 -0.5000000000
    vertex -0.3644840000 0.3422740000 -0.5000000000
  endloop
endfacet
facet normal 0.0000000000 0.0000000000 -0.0197754722
  outer loop
    vertex -0.4045090000 0.2938930000 -0.5000000000
    vertex -0.4045090000 -0.2938930000 -0.5000000000
    vertex -0.4381530000 -0.2408770000 -0.5000000000
  endloop
endfacet
facet normal 0.0000000000 0.0000000000 -0.0162081316
  outer loop
    vertex -0.4381530000 -0.2408770000 -0.5000000000
    vertex -0.4381530000 0.2408770000 -0.5000000000
    vertex -0.4045090000 0.2938930000 -0.5000000000
  endloop
endfacet
facet normal 0.0000000000 0.0000000000 -0.0128796932
  outer loop
    vertex -0.4381530000 0.2408770000 -0.5000000000
    vertex -0.4381530000 -0.2408770000 -0.5000000000
    vertex -0.4648880000 -0.1840620000 -0.5000000000
  endloop
endfacet
facet normal 0.0000000000 0.0000000000 -0.0098417951
  outer loop
    vertex -0.4648880000 -0.1840620000 -0.5000000000
    vertex -0.4648880000 0.1840620000 -0.5000000000
    vertex -0.4381530000 0.2408770000 -0.5000000000
  endloop
endfacet
facet normal 0.0000000000 0.0000000000 -0.0071430781
  outer loop
    vertex -0.4648880000 0.1840620000 -0.5000000000
    vertex -0.4648880000 -0.1840620000 -0.5000000000
    vertex -0.4842920000 -0.1243450000 -0.5000000000
  endloop
endfacet
facet normal 0.0000000000 0.0000000000 -0.0048255808
  outer loop
    vertex -0.4842920000 -0.1243450000 -0.5000000000
    vertex -0.4842920000 0.1243450000 -0.5000000000
    vertex -0.4648880000 0.1840620000 -0.5000000000
  endloop
endfacet
facet normal 0.0000000000 0.0000000000 -0.0029258379
  outer loop
    vertex -0.4842920000 0.1243450000 -0.5000000000
    vertex -0.4842920000 -0.1243450000 -0.5000000000
    vertex -0.4960570000 -0.0626666000 -0.5000000000
  endloop
endfacet
facet normal 0.0000000000 0.0000000000 -0.0014745451
  outer loop
    vertex -0.4960570000 -0.0626666000 -0.5000000000
    vertex -0.4960570000 0.0626666000 -0.5000000000
    vertex -0.4842920000 0.1243450000 -0.5000000000
  endloop
endfacet
facet normal 0.0000000000 0.0000000000 -0.0004941888
  outer loop
    vertex -0.4960570000 0.0626666000 -0.5000000000
    vertex -0.4960570000 -0.0626666000 -0.5000000000
    vertex -0.5000000000 0.0000000000 -0.5000000000
  endloop
endfacet
facet normal 0.0000000000 0.0000000000 0.0004941888
  outer loop
    vertex 0.5000000000 0.0000000000 0.5000000000
    vertex 0.4960570000 0.0626666000 0.5000000000
    vertex 0.4960570000 -0.0626666000 0.5000000000
  endloop
endfacet
facet normal 0.0000000000 0.0000000000 0.0014745451
  outer loop
    vertex 0.4842920000 0.1243450000 0.5000000000
    vertex 0.4960570000 -0.0626666000 0.5000000000
    vertex 0.4960570000 0.0626666000 0.5000000000
  endloop
endfacet
facet normal 0.0000000000 0.0000000000 0.0029258379
  outer loop
    vertex 0.4960570000 -0.0626666000 0.5000000000
    vertex 0.4842920000 0.1243450000 0.5000000000
    vertex 0.4842920000 -0.1243450000 0.5000000000
  endloop
endfacet
facet normal 0.0000000000 0.0000000000 0.0048255808
  outer loop
    vertex 0.4648880000 0.1840620000 0.5000000000
    vertex 0.4842920000 -0.1243450000 0.5000000000
    vertex 0.4842920000 0.1243450000 0.5000000000
  endloop
endfacet
facet normal 0.0000000000 0.0000000000 0.0071430781
  outer loop
    vertex 0.4842920000 -0.1243450000 0.5000000000
    vertex 0.4648880000 0.1840620000 0.5000000000
    vertex 0.4648880000 -0.1840620000 0.5000000000
  endloop
endfacet
facet normal 0.0000000000 0.0000000000 0.0098417951
  outer loop
    vertex 0.4381530000 0.2408770000 0.5000000000
    vertex 0.4648880000 -0.1840620000 0.5000000000
    vertex 0.4648880000 0.1840620000 0.5000000000
  endloop
endfacet
facet normal 0.0000000000 0.0000000000 0.0128796932
  outer loop
    vertex 0.4648880000 -0.1840620000 0.5000000000
    vertex 0.4381530000 0.2408770000 0.5000000000
    vertex 0.4381530000 -0.2408770000 0.5000000000
  endloop
endfacet
facet normal 0.0000000000 0.0000000000 0.0162081316
  outer loop
    vertex 0.4045090000 0.2938930000 0.5000000000
    vertex 0.4381530000 -0.2408770000 0.5000000000
    vertex 0.4381530000 0.2408770000 0.5000000000
  endloop
endfacet
facet normal 0.0000000000 0.0000000000 0.0197754722
  outer loop
    vertex 0.4381530000 -0.2408770000 0.5000000000
    vertex 0.4045090000 0.2938930000 0.5000000000
    vertex 0.4045090000 -0.2938930000 0.5000000000
  endloop
endfacet
facet normal 0.0000000000 0.0000000000 0.0235261347
  outer loop
    vertex 0.3644840000 0.3422740000 0.5000000000
    vertex 0.4045090000 -0.2938930000 0.5000000000
    vertex 0.4045090000 0.2938930000 0.5000000000
  endloop
endfacet
facet normal 0.0000000000 0.0000000000 0.0273990337
  outer loop
    vertex 0.4045090000 -0.2938930000 0.5000000000
    vertex 0.3644840000 0.3422740000 0.5000000000
    vertex 0.3644840000 -0.3422740000 0.5000000000
  endloop
endfacet
facet normal 0.0000000000 0.0000000000 0.0313331311
  outer loop
    vertex 0.3187120000 0.3852570000 0.5000000000
    vertex 0.3644840000 -0.3422740000 0.5000000000
    vertex 0.3644840000 0.3422740000 0.5000000000
  endloop
endfacet
facet normal 0.0000000000 0.0000000000 0.0352679668
  outer loop
    vertex 0.3644840000 -0.3422740000 0.5000000000
    vertex 0.3187120000 0.3852570000 0.5000000000
    vertex 0.3187120000 -0.3852570000 0.5000000000
  endloop
endfacet
facet normal 0.0000000000 0.0000000000 0.0391413407
  outer loop
    vertex 0.2679130000 0.4221640000 0.5000000000
    vertex 0.3187120000 -0.3852570000 0.5000000000
    vertex 0.3187120000 0.3852570000 0.5000000000
  endloop
endfacet
facet normal 0.0000000000 0.0000000000 0.0428910181
  outer loop
    vertex 0.3187120000 -0.3852570000 0.5000000000
    vertex 0.2679130000 0.4221640000 0.5000000000
    vertex 0.2679130000 -0.4221640000 0.5000000000
  endloop
endfacet
facet normal 0.0000000000 0.0000000000 0.0464574595
  outer loop
    vertex 0.2128900000 0.4524140000 0.5000000000
    vertex 0.2679130000 -0.4221640000 0.5000000000
    vertex 0.2679130000 0.4221640000 0.5000000000
  endloop
endfacet
facet normal 0.0000000000 0.0000000000 0.0497863510
  outer loop
    vertex 0.2679130000 -0.4221640000 0.5000000000
    vertex 0.2128900000 0.4524140000 0.5000000000
    vertex 0.2128900000 -0.4524140000 0.5000000000
  endloop
endfacet
facet normal 0.0000000000 0.0000000000 0.0528247635
  outer loop
    vertex 0.1545090000 0.4755280000 0.5000000000
    vertex 0.2128900000 -0.4524140000 0.5000000000
    vertex 0.2128900000 0.4524140000 0.5000000000
  endloop
endfacet
facet normal 0.0000000000 0.0000000000 0.0555236003
  outer loop
    vertex 0.2128900000 -0.4524140000 0.5000000000
    vertex 0.1545090000 0.4755280000 0.5000000000
    vertex 0.1545090000 -0.4755280000 0.5000000000
  endloop
endfacet
facet normal 0.0000000000 0.0000000000 0.0578416091
  outer loop
    vertex 0.0936907000 0.4911440000 0.5000000000
    vertex 0.1545090000 -0.4755280000 0.5000000000
    vertex 0.1545090000 0.4755280000 0.5000000000
  endloop
endfacet
facet normal 0.0000000000 0.0000000000 0.0597410863
  outer loop
    vertex 0.1545090000 -0.4755280000 0.5000000000
    vertex 0.0936907000 0.4911440000 0.5000000000
    vertex 0.0936907000 -0.4911440000 0.5000000000
  endloop
endfacet
facet normal 0.0000000000 0.0000000000 0.0611920239
  outer loop
    vertex 0.0313953000 0.4990130000 0.5000000000
    vertex 0.0936907000 -0.4911440000 0.5000000000
    vertex 0.0936907000 0.4911440000 0.5000000000
  endloop
endfacet
facet normal 0.0000000000 0.0000000000 0.0621724289
  outer loop
    vertex 0.0936907000 -0.4911440000 0.5000000000
    vertex 0.0313953000 0.4990130000 0.5000000000
    vertex 0.0313953000 -0.4990130000 0.5000000000
  endloop
endfacet
facet normal -0.0000000000 0.0000000000 0.0626666514
  outer loop
    vertex -0.0313953000 0.4990130000 0.5000000000
    vertex 0.0313953000 -0.4990130000 0.5000000000
    vertex 0.0313953000 0.4990130000 0.5000000000
  endloop
endfacet
facet normal 0.0000000000 0.0000000000 0.0626666514
  outer loop
    vertex 0.0313953000 -0.4990130000 0.5000000000
    vertex -0.0313953000 0.4990130000 0.5000000000
    vertex -0.0313953000 -0.4990130000 0.5000000000
  endloop
endfacet
facet normal -0.0000000000 0.0000000000 0.0621724289
  outer loop
    vertex -0.0936907000 0.4911440000 0.5000000000
    vertex -0.0313953000 -0.4990130000 0.5000000000
    vertex -0.0313953000 0.4990130000 0.5000000000
  endloop
endfacet
facet normal -0.0000000000 0.0000000000 0.0611920239
  outer loop
    vertex -0.0313953000 -0.4990130000 0.5000000000
    vertex -0.0936907000 0.4911440000 0.5000000000
    vertex -0.0936907000 -0.4911440000 0.5000000000
  endloop
endfacet
facet normal -0.0000000000 0.0000000000 0.0597410863
  outer loop
    vertex -0.1545090000 0.4755280000 0.5000000000
    vertex -0.0936907000 -0.4911440000 0.5000000000
    vertex -0.0936907000 0.4911440000 0.5000000000
  endloop
endfacet
facet normal -0.0000000000 0.0000000000 0.0578416091
  outer loop
    vertex -0.0936907000 -0.4911440000 0.5000000000
    vertex -0.1545090000 0.4755280000 0.5000000000
    vertex -0.1545090000 -0.4755280000 0.5000000000
  endloop
endfacet
facet normal -0.0000000000 0.0000000000 0.0555236003
  outer loop
    vertex -0.2128900000 0.4524140000 0.5000000000
    vertex -0.1545090000 -0.4755280000 0.5000000000
    vertex -0.1545090000 0.4755280000 0.5000000000
  endloop
endfacet
facet normal -0.0000000000 0.0000000000 0.0528247635
  outer loop
    vertex -0.1545090000 -0.4755280000 0.5000000000
    vertex -0.2128900000 0.4524140000 0.5000000000
    vertex -0.2128900000 -0.4524140000 0.5000000000
  endloop
endfacet
facet normal -0.0000000000 0.0000000000 0.0497863510
  outer loop
    vertex -0.2679130000 0.4221640000 0.5000000000
    vertex -0.2128900000 -0.4524140000 0.5000000000
    vertex -0.2128900000 0.4524140000 0.5000000000
  endloop
endfacet
facet normal -0.0000000000 0.0000000000 0.0464574595
  outer loop
    vertex -0.2128900000 -0.4524140000 0.5000000000
    vertex -0.2679130000 0.4221640000 0.5000000000
    vertex -0.2679130000 -0.4221640000 0.5000000000
  endloop
endfacet
facet normal -0.0000000000 0.0000000000 0.0428910181
  outer loop
    vertex -0.3187120000 0.3852570000 0.5000000000
    vertex -0.2679130000 -0.4221640000 0.5000000000
    vertex -0.2679130000 0.4221640000 0.5000000000
  endloop
endfacet
facet normal -0.0000000000 0.0000000000 0.0391413407
  outer loop
    vertex -0.2679130000 -0.4221640000 0.5000000000
    vertex -0.3187120000 0.3852570000 0.5000000000
    vertex -0.3187120000 -0.3852570000 0.5000000000
  endloop
endfacet
facet normal -0.0000000000 0.0000000000 0.0352679668
  outer loop
    vertex -0.3644840000 0.3422740000 0.5000000000
    vertex -0.3187120000 -0.3852570000 0.5000000000
    vertex -0.3187120000 0.3852570000 0.5000000000
  endloop
endfacet
facet normal -0.0000000000 0.0000000000 0.0313331311
  outer loop
    vertex -0.3187120000 -0.3852570000 0.5000000000
    vertex -0.3644840000 0.3422740000 0.5000000000
    vertex -0.3644840000 -0.3422740000 0.5000000000
  endloop
endfacet
facet normal -0.0000000000 0.0000000000 0.0273990337
  outer loop
    vertex -0.4045090000 0.2938930000 0.5000000000
    vertex -0.3644840000 -0.3422740000 0.5000000000
    vertex -0.3644840000 0.3422740000 0.5000000000
  endloop
endfacet
facet normal -0.0000000000 0.0000000000 0.0235261347
  outer loop
    vertex -0.3644840000 -0.3422740000 0.5000000000
    vertex -0.4045090000 0.2938930000 0.5000000000
    vertex -0.4045090000 -0.2938930000 0.5000000000
  endloop
endfacet
facet normal -0.0000000000 0.0000000000 0.0197754722
  outer loop
    vertex -0.4381530000 0.2408770000 0.5000000000
    vertex -0.4045090000 -0.2938930000 0.5000000000
    vertex -0.4045090000 0.2938930000 0.5000000000
  endloop
endfacet
facet normal -0.0000000000 0.0000000000 0.0162081316
  outer loop
    vertex -0.4045090000 -0.2938930000 0.5000000000
    vertex -0.4381530000 0.2408770000 0.5000000000
    vertex -0.4381530000 -0.2408770000 0.5000000000
  endloop
endfacet
facet normal -0.0000000000 0.0000000000 0.0128796932
  outer loop
    vertex -0.4648880000 0.1840620000 0.5000000000
    vertex -0.4381530000 -0.2408770000 0.5000000000
    vertex -0.4381530000 0.2408770000 0.5000000000
  endloop
endfacet
facet normal -0.0000000000 0.0000000000 0.0098417951
  outer loop
    vertex -0.4381530000 -0.2408770000 0.5000000000
    vertex -0.4648880000 0.1840620000 0.5000000000
    vertex -0.4648880000 -0.1840620000 0.5000000000
  endloop
endfacet
facet normal -0.0000000000 0.0000000000 0.0071430781
  outer loop
    vertex -0.4842920000 0.1243450000 0.5000000000
    vertex -0.4648880000 -0.1840620000 0.5000000000
    vertex -0.4648880000 0.1840620000 0.5000000000
  endloop
endfacet
facet normal -0.0000000000 0.0000000000 0.0048255808
  outer loop
    vertex -0.4648880000 -0.1840620000 0.5000000000
    vertex -0.4842920000 0.1243450000 0.5000000000
    vertex -0.4842920000 -0.1243450000 0.5000000000
  endloop
endfacet
facet normal -0.0000000000 0.0000000000 0.0029258379
  outer loop
    vertex -0.4960570000 0.0626666000 0.5000000000
    vertex -0.4842920000 -0.1243450000 0.5000000000
    vertex -0.4842920000 0.1243450000 0.5000000000
  endloop
endfacet
facet normal -0.0000000000 0.0000000000 0.0014745451
  outer loop
    vertex -0.4842920000 -0.1243450000 0.5000000000
    vertex -0.4960570000 0.0626666000 0.5000000000
    vertex -0.4960570000 -0.0626666000 0.5000000000
  endloop
endfacet
facet normal -0.0000000000 0.0000000000 0.0004941888
  outer loop
    vertex -0.5000000000 0.0000000000 0.5000000000
    vertex -0.4960570000 -0.0626666000 0.5000000000
    vertex -0.4960570000 0.0626666000 0.5000000000
  endloop
endfacet
endsolid REINCARNATE