solid REINCARNATE
facet normal 0.4996970000 0.2500000000 -0.0000000000
  outer loop
    vertex 0.2500000000 0.4996970000 -0.5000000000
    vertex 0.2500000000 0.4996970000 0.5000000000
    vertex 0.5000000000 0.0000000000 0.5000000000
  endloop
endfacet
facet normal 0.4996970000 0.2500000000 0.0000000000
  outer loop
    vertex 0.5000000000 0.0000000000 0.5000000000
    vertex 0.5000000000 0.0000000000 -0.5000000000
    vertex 0.2500000000 0.4996970000 -0.5000000000
  endloop
endfacet
facet normal -0.0000000000 0.5000000000 0.0000000000
  outer loop
    vertex 0.2500000000 0.4996970000 0.5000000000
    vertex 0.2500000000 0.4996970000 -0.5000000000
    vertex -0.2500000000 0.4996970000 0.5000000000
  endloop
endfacet
facet normal 0.0000000000 0.5000000000 0.0000000000
  outer loop
    vertex -0.2500000000 0.4996970000 -0.5000000000
    vertex -0.2500000000 0.4996970000 0.5000000000
    vertex 0.2500000000 0.4996970000 -0.5000000000
  endloop
endfacet
facet normal -0.4996970000 0.2500000000 0.0000000000
  outer loop
    vertex -0.2500000000 0.4996970000 0.5000000000
    vertex -0.2500000000 0.4996970000 -0.5000000000
    vertex -0.5000000000 0.0000000000 -0.5000000000
  endloop
endfacet
facet normal -0.4996970000 0.2500000000 0.0000000000
  outer loop
    vertex -0.5000000000 0.0000000000 -0.5000000000
    vertex -0.5000000000 0.0000000000 0.5000000000
    vertex -0.2500000000 0.4996970000 0.5000000000
  endloop
endfacet
facet normal -0.4996970000 -0.2500000000 0.0000000000
  outer loop
    vertex -0.2500000000 -0.4996970000 -0.5000000000
    vertex -0.5000000000 0.0000000000 0.5000000000
    vertex -0.5000000000 0.0000000000 -0.5000000000
  endloop
endfacet
facet normal -0.4996970000 -0.2500000000 0.0000000000
  outer loop
    vertex -0.5000000000 0.0000000000 0.5000000000
    vertex -0.2500000000 -0.4996970000 -0.5000000000
    vertex -0.2500000000 -0.4996970000 0.5000000000
  endloop
endfacet
facet normal 0.0000000000 -0.5000000000 0.0000000000
  outer loop
    vertex 0.2500000000 -0.4996970000 0.5000000000
    vertex -0.2500000000 -0.4996970000 0.5000000000
    vertex -0.2500000000 -0.4996970000 -0.5000000000
  endloop
endfacet
facet normal 0.0000000000 -0.5000000000 0.0000000000
  outer loop
    vertex -0.2500000000 -0.4996970000 -0.5000000000
    vertex 0.2500000000 -0.4996970000 -0.5000000000
    vertex 0.2500000000 -0.4996970000 0.5000000000
  endloop
endfacet
facet normal 0.4996970000 -0.2500000000 0.0000000000
  outer loop
    vertex 0.2500000000 -0.4996970000 0.5000000000
    vertex 0.5000000000 0.0000000000 -0.5000000000
    vertex 0.5000000000 0.0000000000 0.5000000000
  endloop
endfacet
facet normal 0.4996970000 -0.2500000000 0.0000000000
  outer loop
    vertex 0.5000000000 0.0000000000 -0.5000000000
    vertex 0.2500000000 -0.4996970000 0.5000000000
    vertex 0.2500000000 -0.4996970000 -0.5000000000
  endloop
endfacet
facet normal 0.0000000000 0.0000000000 -0.4996970000
  outer loop
    vertex 0.5000000000 0.0000000000 -0.5000000000
    vertex 0.2500000000 -0.4996970000 -0.5000000000
    vertex -0.5000000000 0.0000000000 -0.5000000000
  endloop
endfacet
facet normal 0.0000000000 0.0000000000 -0.2498485000
  outer loop
    vertex 0.2500000000 -0.4996970000 -0.5000000000
    vertex -0.2500000000 -0.4996970000 -0.5000000000
    vertex -0.5000000000 0.0000000000 -0.5000000000
  endloop
endfacet
facet normal 0.0000000000 0.0000000000 -0.4996970000
  outer loop
    vertex -0.5000000000 0.0000000000 -0.5000000000
    vertex 0.2500000000 0.4996970000 -0.5000000000
    vertex 0.5000000000 0.0000000000 -0.5000000000
  endloop
endfacet
facet normal 0.0000000000 0.0000000000 -0.2498485000
  outer loop
    vertex -0.5000000000 0.0000000000 -0.5000000000
    vertex -0.2500000000 0.4996970000 -0.5000000000
    vertex 0.2500000000 0.4996970000 -0.5000000000
  endloop
endfacet
facet normal 0.0000000000 0.0000000000 0.4996970000
  outer loop
    vertex 0.5000000000 0.0000000000 0.5000000000
    vertex 0.2500000000 0.4996970000 0.5000000000
    vertex -0.5000000000 0.0000000000 0.5000000000
  endloop
endfacet
facet normal 0.0000000000 0.0000000000 0.2498485000
  outer loop
    vertex 0.2500000000 0.4996970000 0.5000000000
    vertex -0.2500000000 0.4996970000 0.5000000000
    vertex -0.5000000000 0.0000000000 0.5000000000
  endloop
endfacet
facet normal -0.0000000000 0.0000000000 0.4996970000
  outer loop
    vertex -0.5000000000 0.0000000000 0.5000000000
    vertex 0.2500000000 -0.4996970000 0.5000000000
    vertex 0.5000000000 0.0000000000 0.5000000000
  endloop
endfacet
facet normal 0.0000000000 0.0000000000 0.2498485000
  outer loop
    vertex -0.5000000000 0.0000000000 0.5000000000
    vertex -0.2500000000 -0.4996970000 0.5000000000
    vertex 0.2500000000 -0.4996970000 0.5000000000
  endloop
endfacet
endsolid REINCARNATE