solid REINCARNATE
facet normal -1.0000000000 0.0000000000 0.0000000000
  outer loop
    vertex 0.0000000000 30.0000000000 5.0000000000
    vertex 0.0000000000 30.0000000000 0.0000000000
    vertex 0.0000000000 0.0000000000 0.0000000000
  endloop
endfacet
facet normal -1.0000000000 0.0000000000 0.0000000000
  outer loop
    vertex 0.0000000000 0.0000000000 0.0000000000
    vertex 0.0000000000 0.0000000000 5.0000000000
    vertex 0.0000000000 30.0000000000 5.0000000000
  endloop
endfacet
facet normal -0.0000000000 0.0000000000 1.0000000000
  outer loop
    vertex 15.5000000000 14.0622000000 5.0000000000
    vertex 13.0000000000 23.0000000000 5.0000000000
    vertex 11.5000000000 20.4019000000 5.0000000000
  endloop
endfacet
facet normal 0.0000000000 0.0000000000 1.0000000000
  outer loop
    vertex 15.5000000000 14.0622000000 5.0000000000
    vertex 11.5000000000 20.4019000000 5.0000000000
    vertex 8.5000000000 14.0622000000 5.0000000000
  endloop
endfacet
facet normal 0.0000000000 0.0000000000 1.0000000000
  outer loop
    vertex 11.5000000000 20.4019000000 5.0000000000
    vertex 8.5000000000 20.4019000000 5.0000000000
    vertex 8.5000000000 14.0622000000 5.0000000000
  endloop
endfacet
facet normal 0.0000000000 0.0000000000 1.0000000000
  outer loop
    vertex 7.0000000000 23.0000000000 5.0000000000
    vertex 8.5000000000 14.0622000000 5.0000000000
    vertex 8.5000000000 20.4019000000 5.0000000000
  endloop
endfacet
facet normal 0.0000000000 0.0000000000 1.0000000000
  outer loop
    vertex 8.5000000000 14.0622000000 5.0000000000
    vertex 7.0000000000 23.0000000000 5.0000000000
    vertex 5.0000000000 8.0000000000 5.0000000000
  endloop
endfacet
facet normal 0.0000000000 0.0000000000 1.0000000000
  outer loop
    vertex 42.0000000000 19.5359000000 5.0000000000
    vertex 38.0000000000 19.5359000000 5.0000000000
    vertex 36.2500000000 13.6292000000 5.0000000000
  endloop
endfacet
facet normal -0.0000000000 0.0000000000 1.0000000000
  outer loop
    vertex 36.2500000000 13.6292000000 5.0000000000
    vertex 39.5000000000 8.0000000000 5.0000000000
    vertex 42.0000000000 19.5359000000 5.0000000000
  endloop
endfacet
facet normal 0.0000000000 0.0000000000 1.0000000000
  outer loop
    vertex 38.0000000000 19.5359000000 5.0000000000
    vertex 36.0000000000 23.0000000000 5.0000000000
    vertex 29.7500000000 13.6292000000 5.0000000000
  endloop
endfacet
facet normal 0.0000000000 0.0000000000 1.0000000000
  outer loop
    vertex 29.7500000000 13.6292000000 5.0000000000
    vertex 36.2500000000 13.6292000000 5.0000000000
    vertex 38.0000000000 19.5359000000 5.0000000000
  endloop
endfacet
facet normal -0.0000000000 0.0000000000 1.0000000000
  outer loop
    vertex 57.5000000000 18.6699000000 5.0000000000
    vertex 58.7000000000 8.0000000000 5.0000000000
    vertex 60.0000000000 23.0000000000 5.0000000000
  endloop
endfacet
facet normal -0.0000000000 0.0000000000 1.0000000000
  outer loop
    vertex 58.7000000000 8.0000000000 5.0000000000
    vertex 57.5000000000 18.6699000000 5.0000000000
    vertex 55.8500000000 12.9363000000 5.0000000000
  endloop
endfacet
facet normal -0.0000000000 0.0000000000 1.0000000000
  outer loop
    vertex 52.5000000000 18.6699000000 5.0000000000
    vertex 55.8500000000 12.9363000000 5.0000000000
    vertex 57.5000000000 18.6699000000 5.0000000000
  endloop
endfacet
facet normal 0.0000000000 0.0000000000 1.0000000000
  outer loop
    vertex 55.8500000000 12.9363000000 5.0000000000
    vertex 52.5000000000 18.6699000000 5.0000000000
    vertex 50.1500000000 12.9363000000 5.0000000000
  endloop
endfacet
facet normal -0.0000000000 0.0000000000 1.0000000000
  outer loop
    vertex 52.5000000000 18.6699000000 5.0000000000
    vertex 50.0000000000 23.0000000000 5.0000000000
    vertex 42.0000000000 19.5359000000 5.0000000000
  endloop
endfacet
facet normal 0.0000000000 0.0000000000 1.0000000000
  outer loop
    vertex 42.0000000000 19.5359000000 5.0000000000
    vertex 50.1500000000 12.9363000000 5.0000000000
    vertex 52.5000000000 18.6699000000 5.0000000000
  endloop
endfacet
facet normal -0.0000000000 0.0000000000 1.0000000000
  outer loop
    vertex 60.0000000000 23.0000000000 5.0000000000
    vertex 65.0000000000 0.0000000000 5.0000000000
    vertex 65.0000000000 30.0000000000 5.0000000000
  endloop
endfacet
facet normal -0.0000000000 0.0000000000 1.0000000000
  outer loop
    vertex 57.5000000000 27.3301000000 5.0000000000
    vertex 60.0000000000 23.0000000000 5.0000000000
    vertex 65.0000000000 30.0000000000 5.0000000000
  endloop
endfacet
facet normal 0.0000000000 0.0000000000 1.0000000000
  outer loop
    vertex 52.5000000000 27.3301000000 5.0000000000
    vertex 57.5000000000 27.3301000000 5.0000000000
    vertex 65.0000000000 30.0000000000 5.0000000000
  endloop
endfacet
facet normal 0.0000000000 0.0000000000 1.0000000000
  outer loop
    vertex 50.0000000000 23.0000000000 5.0000000000
    vertex 44.0000000000 23.0000000000 5.0000000000
    vertex 42.0000000000 19.5359000000 5.0000000000
  endloop
endfacet
facet normal -0.0000000000 0.0000000000 1.0000000000
  outer loop
    vertex 42.0000000000 26.4641000000 5.0000000000
    vertex 50.0000000000 23.0000000000 5.0000000000
    vertex 52.5000000000 27.3301000000 5.0000000000
  endloop
endfacet
facet normal 0.0000000000 0.0000000000 1.0000000000
  outer loop
    vertex 42.0000000000 26.4641000000 5.0000000000
    vertex 44.0000000000 23.0000000000 5.0000000000
    vertex 50.0000000000 23.0000000000 5.0000000000
  endloop
endfacet
facet normal 0.0000000000 0.0000000000 1.0000000000
  outer loop
    vertex 42.0000000000 26.4641000000 5.0000000000
    vertex 52.5000000000 27.3301000000 5.0000000000
    vertex 65.0000000000 30.0000000000 5.0000000000
  endloop
endfacet
facet normal 0.0000000000 0.0000000000 1.0000000000
  outer loop
    vertex 38.0000000000 26.4641000000 5.0000000000
    vertex 42.0000000000 26.4641000000 5.0000000000
    vertex 65.0000000000 30.0000000000 5.0000000000
  endloop
endfacet
facet normal -0.0000000000 0.0000000000 1.0000000000
  outer loop
    vertex 26.7500000000 26.0311000000 5.0000000000
    vertex 36.0000000000 23.0000000000 5.0000000000
    vertex 38.0000000000 26.4641000000 5.0000000000
  endloop
endfacet
facet normal 0.0000000000 0.0000000000 1.0000000000
  outer loop
    vertex 36.0000000000 23.0000000000 5.0000000000
    vertex 28.5000000000 23.0000000000 5.0000000000
    vertex 26.7500000000 19.9689000000 5.0000000000
  endloop
endfacet
facet normal 0.0000000000 0.0000000000 1.0000000000
  outer loop
    vertex 26.7500000000 26.0311000000 5.0000000000
    vertex 28.5000000000 23.0000000000 5.0000000000
    vertex 36.0000000000 23.0000000000 5.0000000000
  endloop
endfacet
facet normal -0.0000000000 0.0000000000 1.0000000000
  outer loop
    vertex 0.0000000000 30.0000000000 5.0000000000
    vertex 38.0000000000 26.4641000000 5.0000000000
    vertex 65.0000000000 30.0000000000 5.0000000000
  endloop
endfacet
facet normal 0.0000000000 0.0000000000 1.0000000000
  outer loop
    vertex 0.0000000000 30.0000000000 5.0000000000
    vertex 26.7500000000 26.0311000000 5.0000000000
    vertex 38.0000000000 26.4641000000 5.0000000000
  endloop
endfacet
facet normal -0.0000000000 0.0000000000 1.0000000000
  outer loop
    vertex 15.5000000000 14.0622000000 5.0000000000
    vertex 19.0000000000 8.0000000000 5.0000000000
    vertex 23.2500000000 19.9689000000 5.0000000000
  endloop
endfacet
facet normal -0.0000000000 0.0000000000 1.0000000000
  outer loop
    vertex 11.5000000000 25.5981000000 5.0000000000
    vertex 21.5000000000 23.0000000000 5.0000000000
    vertex 23.2500000000 26.0311000000 5.0000000000
  endloop
endfacet
facet normal -0.0000000000 0.0000000000 1.0000000000
  outer loop
    vertex 13.0000000000 23.0000000000 5.0000000000
    vertex 15.5000000000 14.0622000000 5.0000000000
    vertex 21.5000000000 23.0000000000 5.0000000000
  endloop
endfacet
facet normal 0.0000000000 0.0000000000 1.0000000000
  outer loop
    vertex 11.5000000000 25.5981000000 5.0000000000
    vertex 13.0000000000 23.0000000000 5.0000000000
    vertex 21.5000000000 23.0000000000 5.0000000000
  endloop
endfacet
facet normal 0.0000000000 0.0000000000 1.0000000000
  outer loop
    vertex 0.0000000000 30.0000000000 5.0000000000
    vertex 23.2500000000 26.0311000000 5.0000000000
    vertex 26.7500000000 26.0311000000 5.0000000000
  endloop
endfacet
facet normal 0.0000000000 0.0000000000 1.0000000000
  outer loop
    vertex 0.0000000000 30.0000000000 5.0000000000
    vertex 11.5000000000 25.5981000000 5.0000000000
    vertex 23.2500000000 26.0311000000 5.0000000000
  endloop
endfacet
facet normal 0.0000000000 0.0000000000 1.0000000000
  outer loop
    vertex 0.0000000000 30.0000000000 5.0000000000
    vertex 5.0000000000 8.0000000000 5.0000000000
    vertex 7.0000000000 23.0000000000 5.0000000000
  endloop
endfacet
facet normal 0.0000000000 0.0000000000 1.0000000000
  outer loop
    vertex 0.0000000000 30.0000000000 5.0000000000
    vertex 7.0000000000 23.0000000000 5.0000000000
    vertex 8.5000000000 25.5981000000 5.0000000000
  endloop
endfacet
facet normal 0.0000000000 0.0000000000 1.0000000000
  outer loop
    vertex 0.0000000000 30.0000000000 5.0000000000
    vertex 8.5000000000 25.5981000000 5.0000000000
    vertex 11.5000000000 25.5981000000 5.0000000000
  endloop
endfacet
facet normal -0.0000000000 0.0000000000 1.0000000000
  outer loop
    vertex 65.0000000000 0.0000000000 5.0000000000
    vertex 60.0000000000 23.0000000000 5.0000000000
    vertex 58.7000000000 8.0000000000 5.0000000000
  endloop
endfacet
facet normal -0.0000000000 0.0000000000 1.0000000000
  outer loop
    vertex 65.0000000000 0.0000000000 5.0000000000
    vertex 58.7000000000 8.0000000000 5.0000000000
    vertex 55.8500000000 3.0636500000 5.0000000000
  endloop
endfacet
facet normal -0.0000000000 0.0000000000 1.0000000000
  outer loop
    vertex 65.0000000000 0.0000000000 5.0000000000
    vertex 55.8500000000 3.0636500000 5.0000000000
    vertex 50.1500000000 3.0636500000 5.0000000000
  endloop
endfacet
facet normal 0.0000000000 0.0000000000 1.0000000000
  outer loop
    vertex 42.0000000000 19.5359000000 5.0000000000
    vertex 47.3000000000 8.0000000000 5.0000000000
    vertex 50.1500000000 12.9363000000 5.0000000000
  endloop
endfacet
facet normal 0.0000000000 0.0000000000 1.0000000000
  outer loop
    vertex 47.3000000000 8.0000000000 5.0000000000
    vertex 42.0000000000 19.5359000000 5.0000000000
    vertex 39.5000000000 8.0000000000 5.0000000000
  endloop
endfacet
facet normal -0.0000000000 0.0000000000 1.0000000000
  outer loop
    vertex 50.1500000000 3.0636500000 5.0000000000
    vertex 47.3000000000 8.0000000000 5.0000000000
    vertex 39.5000000000 8.0000000000 5.0000000000
  endloop
endfacet
facet normal 0.0000000000 0.0000000000 1.0000000000
  outer loop
    vertex 50.1500000000 3.0636500000 5.0000000000
    vertex 39.5000000000 8.0000000000 5.0000000000
    vertex 36.2500000000 2.3708300000 5.0000000000
  endloop
endfacet
facet normal -0.0000000000 0.0000000000 1.0000000000
  outer loop
    vertex 65.0000000000 0.0000000000 5.0000000000
    vertex 50.1500000000 3.0636500000 5.0000000000
    vertex 36.2500000000 2.3708300000 5.0000000000
  endloop
endfacet
facet normal -0.0000000000 0.0000000000 1.0000000000
  outer loop
    vertex 65.0000000000 0.0000000000 5.0000000000
    vertex 36.2500000000 2.3708300000 5.0000000000
    vertex 29.7500000000 2.3708300000 5.0000000000
  endloop
endfacet
facet normal 0.0000000000 0.0000000000 1.0000000000
  outer loop
    vertex 23.2500000000 19.9689000000 5.0000000000
    vertex 21.5000000000 23.0000000000 5.0000000000
    vertex 15.5000000000 14.0622000000 5.0000000000
  endloop
endfacet
facet normal 0.0000000000 0.0000000000 1.0000000000
  outer loop
    vertex 26.5000000000 8.0000000000 5.0000000000
    vertex 23.2500000000 19.9689000000 5.0000000000
    vertex 19.0000000000 8.0000000000 5.0000000000
  endloop
endfacet
facet normal -0.0000000000 0.0000000000 1.0000000000
  outer loop
    vertex 29.7500000000 2.3708300000 5.0000000000
    vertex 26.5000000000 8.0000000000 5.0000000000
    vertex 19.0000000000 8.0000000000 5.0000000000
  endloop
endfacet
facet normal 0.0000000000 0.0000000000 1.0000000000
  outer loop
    vertex 29.7500000000 2.3708300000 5.0000000000
    vertex 19.0000000000 8.0000000000 5.0000000000
    vertex 15.5000000000 1.9378200000 5.0000000000
  endloop
endfacet
facet normal 0.0000000000 0.0000000000 1.0000000000
  outer loop
    vertex 29.7500000000 2.3708300000 5.0000000000
    vertex 15.5000000000 1.9378200000 5.0000000000
    vertex 0.0000000000 0.0000000000 5.0000000000
  endloop
endfacet
facet normal 0.0000000000 0.0000000000 1.0000000000
  outer loop
    vertex 15.5000000000 1.9378200000 5.0000000000
    vertex 8.5000000000 1.9378200000 5.0000000000
    vertex 0.0000000000 0.0000000000 5.0000000000
  endloop
endfacet
facet normal 0.0000000000 0.0000000000 1.0000000000
  outer loop
    vertex 65.0000000000 0.0000000000 5.0000000000
    vertex 29.7500000000 2.3708300000 5.0000000000
    vertex 0.0000000000 0.0000000000 5.0000000000
  endloop
endfacet
facet normal 0.0000000000 0.0000000000 1.0000000000
  outer loop
    vertex 8.5000000000 1.9378200000 5.0000000000
    vertex 5.0000000000 8.0000000000 5.0000000000
    vertex 0.0000000000 0.0000000000 5.0000000000
  endloop
endfacet
facet normal 0.0000000000 0.0000000000 1.0000000000
  outer loop
    vertex 5.0000000000 8.0000000000 5.0000000000
    vertex 0.0000000000 30.0000000000 5.0000000000
    vertex 0.0000000000 0.0000000000 5.0000000000
  endloop
endfacet
facet normal -0.0000000000 0.0000000000 1.0000000000
  outer loop
    vertex 26.7500000000 19.9689000000 5.0000000000
    vertex 29.7500000000 13.6292000000 5.0000000000
    vertex 36.0000000000 23.0000000000 5.0000000000
  endloop
endfacet
facet normal -0.0000000000 0.0000000000 1.0000000000
  outer loop
    vertex 29.7500000000 13.6292000000 5.0000000000
    vertex 26.7500000000 19.9689000000 5.0000000000
    vertex 23.2500000000 19.9689000000 5.0000000000
  endloop
endfacet
facet normal 0.0000000000 0.0000000000 1.0000000000
  outer loop
    vertex 23.2500000000 19.9689000000 5.0000000000
    vertex 26.5000000000 8.0000000000 5.0000000000
    vertex 29.7500000000 13.6292000000 5.0000000000
  endloop
endfacet
facet normal 1.0000000000 -0.0000000000 0.0000000000
  outer loop
    vertex 65.0000000000 0.0000000000 5.0000000000
    vertex 65.0000000000 30.0000000000 0.0000000000
    vertex 65.0000000000 30.0000000000 5.0000000000
  endloop
endfacet
facet normal 1.0000000000 0.0000000000 0.0000000000
  outer loop
    vertex 65.0000000000 30.0000000000 0.0000000000
    vertex 65.0000000000 0.0000000000 5.0000000000
    vertex 65.0000000000 0.0000000000 0.0000000000
  endloop
endfacet
facet normal 0.0000000000 0.0000000000 -1.0000000000
  outer loop
    vertex 11.5000000000 20.4019000000 0.0000000000
    vertex 13.0000000000 23.0000000000 0.0000000000
    vertex 15.5000000000 14.0622000000 0.0000000000
  endloop
endfacet
facet normal 0.0000000000 0.0000000000 -1.0000000000
  outer loop
    vertex 8.5000000000 14.0622000000 0.0000000000
    vertex 11.5000000000 20.4019000000 0.0000000000
    vertex 15.5000000000 14.0622000000 0.0000000000
  endloop
endfacet
facet normal 0.0000000000 0.0000000000 -1.0000000000
  outer loop
    vertex 8.5000000000 14.0622000000 0.0000000000
    vertex 8.5000000000 20.4019000000 0.0000000000
    vertex 11.5000000000 20.4019000000 0.0000000000
  endloop
endfacet
facet normal 0.0000000000 0.0000000000 -1.0000000000
  outer loop
    vertex 8.5000000000 20.4019000000 0.0000000000
    vertex 8.5000000000 14.0622000000 0.0000000000
    vertex 7.0000000000 23.0000000000 0.0000000000
  endloop
endfacet
facet normal 0.0000000000 0.0000000000 -1.0000000000
  outer loop
    vertex 5.0000000000 8.0000000000 0.0000000000
    vertex 7.0000000000 23.0000000000 0.0000000000
    vertex 8.5000000000 14.0622000000 0.0000000000
  endloop
endfacet
facet normal 0.0000000000 0.0000000000 -1.0000000000
  outer loop
    vertex 26.7500000000 19.9689000000 0.0000000000
    vertex 28.5000000000 23.0000000000 0.0000000000
    vertex 36.0000000000 23.0000000000 0.0000000000
  endloop
endfacet
facet normal 0.0000000000 0.0000000000 -1.0000000000
  outer loop
    vertex 29.7500000000 13.6292000000 0.0000000000
    vertex 26.5000000000 8.0000000000 0.0000000000
    vertex 23.2500000000 19.9689000000 0.0000000000
  endloop
endfacet
facet normal 0.0000000000 0.0000000000 -1.0000000000
  outer loop
    vertex 23.2500000000 19.9689000000 0.0000000000
    vertex 26.7500000000 19.9689000000 0.0000000000
    vertex 29.7500000000 13.6292000000 0.0000000000
  endloop
endfacet
facet normal 0.0000000000 0.0000000000 -1.0000000000
  outer loop
    vertex 42.0000000000 19.5359000000 0.0000000000
    vertex 39.5000000000 8.0000000000 0.0000000000
    vertex 36.2500000000 13.6292000000 0.0000000000
  endloop
endfacet
facet normal 0.0000000000 0.0000000000 -1.0000000000
  outer loop
    vertex 36.2500000000 13.6292000000 0.0000000000
    vertex 38.0000000000 19.5359000000 0.0000000000
    vertex 42.0000000000 19.5359000000 0.0000000000
  endloop
endfacet
facet normal 0.0000000000 0.0000000000 -1.0000000000
  outer loop
    vertex 38.0000000000 19.5359000000 0.0000000000
    vertex 36.2500000000 13.6292000000 0.0000000000
    vertex 29.7500000000 13.6292000000 0.0000000000
  endloop
endfacet
facet normal 0.0000000000 0.0000000000 -1.0000000000
  outer loop
    vertex 29.7500000000 13.6292000000 0.0000000000
    vertex 36.0000000000 23.0000000000 0.0000000000
    vertex 38.0000000000 19.5359000000 0.0000000000
  endloop
endfacet
facet normal 0.0000000000 0.0000000000 -1.0000000000
  outer loop
    vertex 65.0000000000 30.0000000000 0.0000000000
    vertex 65.0000000000 0.0000000000 0.0000000000
    vertex 60.0000000000 23.0000000000 0.0000000000
  endloop
endfacet
facet normal 0.0000000000 0.0000000000 -1.0000000000
  outer loop
    vertex 58.7000000000 8.0000000000 0.0000000000
    vertex 60.0000000000 23.0000000000 0.0000000000
    vertex 65.0000000000 0.0000000000 0.0000000000
  endloop
endfacet
facet normal 0.0000000000 0.0000000000 -1.0000000000
  outer loop
    vertex 55.8500000000 3.0636500000 0.0000000000
    vertex 58.7000000000 8.0000000000 0.0000000000
    vertex 65.0000000000 0.0000000000 0.0000000000
  endloop
endfacet
facet normal 0.0000000000 0.0000000000 -1.0000000000
  outer loop
    vertex 50.1500000000 3.0636500000 0.0000000000
    vertex 55.8500000000 3.0636500000 0.0000000000
    vertex 65.0000000000 0.0000000000 0.0000000000
  endloop
endfacet
facet normal 0.0000000000 0.0000000000 -1.0000000000
  outer loop
    vertex 42.0000000000 19.5359000000 0.0000000000
    vertex 44.0000000000 23.0000000000 0.0000000000
    vertex 50.0000000000 23.0000000000 0.0000000000
  endloop
endfacet
facet normal 0.0000000000 0.0000000000 -1.0000000000
  outer loop
    vertex 39.5000000000 8.0000000000 0.0000000000
    vertex 42.0000000000 19.5359000000 0.0000000000
    vertex 47.3000000000 8.0000000000 0.0000000000
  endloop
endfacet
facet normal 0.0000000000 0.0000000000 -1.0000000000
  outer loop
    vertex 39.5000000000 8.0000000000 0.0000000000
    vertex 47.3000000000 8.0000000000 0.0000000000
    vertex 50.1500000000 3.0636500000 0.0000000000
  endloop
endfacet
facet normal 0.0000000000 0.0000000000 -1.0000000000
  outer loop
    vertex 36.2500000000 2.3708300000 0.0000000000
    vertex 39.5000000000 8.0000000000 0.0000000000
    vertex 50.1500000000 3.0636500000 0.0000000000
  endloop
endfacet
facet normal 0.0000000000 0.0000000000 -1.0000000000
  outer loop
    vertex 36.2500000000 2.3708300000 0.0000000000
    vertex 50.1500000000 3.0636500000 0.0000000000
    vertex 65.0000000000 0.0000000000 0.0000000000
  endloop
endfacet
facet normal 0.0000000000 0.0000000000 -1.0000000000
  outer loop
    vertex 29.7500000000 2.3708300000 0.0000000000
    vertex 36.2500000000 2.3708300000 0.0000000000
    vertex 65.0000000000 0.0000000000 0.0000000000
  endloop
endfacet
facet normal 0.0000000000 0.0000000000 -1.0000000000
  outer loop
    vertex 19.0000000000 8.0000000000 0.0000000000
    vertex 23.2500000000 19.9689000000 0.0000000000
    vertex 26.5000000000 8.0000000000 0.0000000000
  endloop
endfacet
facet normal 0.0000000000 0.0000000000 -1.0000000000
  outer loop
    vertex 23.2500000000 19.9689000000 0.0000000000
    vertex 19.0000000000 8.0000000000 0.0000000000
    vertex 15.5000000000 14.0622000000 0.0000000000
  endloop
endfacet
facet normal 0.0000000000 0.0000000000 -1.0000000000
  outer loop
    vertex 19.0000000000 8.0000000000 0.0000000000
    vertex 26.5000000000 8.0000000000 0.0000000000
    vertex 29.7500000000 2.3708300000 0.0000000000
  endloop
endfacet
facet normal 0.0000000000 0.0000000000 -1.0000000000
  outer loop
    vertex 15.5000000000 1.9378200000 0.0000000000
    vertex 19.0000000000 8.0000000000 0.0000000000
    vertex 29.7500000000 2.3708300000 0.0000000000
  endloop
endfacet
facet normal 0.0000000000 0.0000000000 -1.0000000000
  outer loop
    vertex 0.0000000000 0.0000000000 0.0000000000
    vertex 29.7500000000 2.3708300000 0.0000000000
    vertex 65.0000000000 0.0000000000 0.0000000000
  endloop
endfacet
facet normal 0.0000000000 0.0000000000 -1.0000000000
  outer loop
    vertex 0.0000000000 0.0000000000 0.0000000000
    vertex 15.5000000000 1.9378200000 0.0000000000
    vertex 29.7500000000 2.3708300000 0.0000000000
  endloop
endfacet
facet normal 0.0000000000 0.0000000000 -1.0000000000
  outer loop
    vertex 0.0000000000 0.0000000000 0.0000000000
    vertex 5.0000000000 8.0000000000 0.0000000000
    vertex 8.5000000000 1.9378200000 0.0000000000
  endloop
endfacet
facet normal 0.0000000000 0.0000000000 -1.0000000000
  outer loop
    vertex 0.0000000000 0.0000000000 0.0000000000
    vertex 8.5000000000 1.9378200000 0.0000000000
    vertex 15.5000000000 1.9378200000 0.0000000000
  endloop
endfacet
facet normal 0.0000000000 0.0000000000 -1.0000000000
  outer loop
    vertex 65.0000000000 30.0000000000 0.0000000000
    vertex 60.0000000000 23.0000000000 0.0000000000
    vertex 57.5000000000 27.3301000000 0.0000000000
  endloop
endfacet
facet normal 0.0000000000 0.0000000000 -1.0000000000
  outer loop
    vertex 65.0000000000 30.0000000000 0.0000000000
    vertex 57.5000000000 27.3301000000 0.0000000000
    vertex 52.5000000000 27.3301000000 0.0000000000
  endloop
endfacet
facet normal 0.0000000000 0.0000000000 -1.0000000000
  outer loop
    vertex 42.0000000000 19.5359000000 0.0000000000
    vertex 50.0000000000 23.0000000000 0.0000000000
    vertex 52.5000000000 18.6699000000 0.0000000000
  endloop
endfacet
facet normal 0.0000000000 0.0000000000 -1.0000000000
  outer loop
    vertex 50.0000000000 23.0000000000 0.0000000000
    vertex 44.0000000000 23.0000000000 0.0000000000
    vertex 42.0000000000 26.4641000000 0.0000000000
  endloop
endfacet
facet normal 0.0000000000 0.0000000000 -1.0000000000
  outer loop
    vertex 52.5000000000 27.3301000000 0.0000000000
    vertex 50.0000000000 23.0000000000 0.0000000000
    vertex 42.0000000000 26.4641000000 0.0000000000
  endloop
endfacet
facet normal 0.0000000000 0.0000000000 -1.0000000000
  outer loop
    vertex 65.0000000000 30.0000000000 0.0000000000
    vertex 52.5000000000 27.3301000000 0.0000000000
    vertex 42.0000000000 26.4641000000 0.0000000000
  endloop
endfacet
facet normal 0.0000000000 0.0000000000 -1.0000000000
  outer loop
    vertex 65.0000000000 30.0000000000 0.0000000000
    vertex 42.0000000000 26.4641000000 0.0000000000
    vertex 38.0000000000 26.4641000000 0.0000000000
  endloop
endfacet
facet normal 0.0000000000 0.0000000000 -1.0000000000
  outer loop
    vertex 36.0000000000 23.0000000000 0.0000000000
    vertex 29.7500000000 13.6292000000 0.0000000000
    vertex 26.7500000000 19.9689000000 0.0000000000
  endloop
endfacet
facet normal 0.0000000000 0.0000000000 -1.0000000000
  outer loop
    vertex 36.0000000000 23.0000000000 0.0000000000
    vertex 28.5000000000 23.0000000000 0.0000000000
    vertex 26.7500000000 26.0311000000 0.0000000000
  endloop
endfacet
facet normal 0.0000000000 0.0000000000 -1.0000000000
  outer loop
    vertex 38.0000000000 26.4641000000 0.0000000000
    vertex 36.0000000000 23.0000000000 0.0000000000
    vertex 26.7500000000 26.0311000000 0.0000000000
  endloop
endfacet
facet normal 0.0000000000 0.0000000000 -1.0000000000
  outer loop
    vertex 38.0000000000 26.4641000000 0.0000000000
    vertex 26.7500000000 26.0311000000 0.0000000000
    vertex 0.0000000000 30.0000000000 0.0000000000
  endloop
endfacet
facet normal 0.0000000000 0.0000000000 -1.0000000000
  outer loop
    vertex 26.7500000000 26.0311000000 0.0000000000
    vertex 23.2500000000 26.0311000000 0.0000000000
    vertex 0.0000000000 30.0000000000 0.0000000000
  endloop
endfacet
facet normal 0.0000000000 0.0000000000 -1.0000000000
  outer loop
    vertex 15.5000000000 14.0622000000 0.0000000000
    vertex 21.5000000000 23.0000000000 0.0000000000
    vertex 23.2500000000 19.9689000000 0.0000000000
  endloop
endfacet
facet normal 0.0000000000 0.0000000000 -1.0000000000
  outer loop
    vertex 21.5000000000 23.0000000000 0.0000000000
    vertex 15.5000000000 14.0622000000 0.0000000000
    vertex 13.0000000000 23.0000000000 0.0000000000
  endloop
endfacet
facet normal 0.0000000000 0.0000000000 -1.0000000000
  outer loop
    vertex 21.5000000000 23.0000000000 0.0000000000
    vertex 13.0000000000 23.0000000000 0.0000000000
    vertex 11.5000000000 25.5981000000 0.0000000000
  endloop
endfacet
facet normal 0.0000000000 0.0000000000 -1.0000000000
  outer loop
    vertex 23.2500000000 26.0311000000 0.0000000000
    vertex 21.5000000000 23.0000000000 0.0000000000
    vertex 11.5000000000 25.5981000000 0.0000000000
  endloop
endfacet
facet normal 0.0000000000 0.0000000000 -1.0000000000
  outer loop
    vertex 23.2500000000 26.0311000000 0.0000000000
    vertex 11.5000000000 25.5981000000 0.0000000000
    vertex 0.0000000000 30.0000000000 0.0000000000
  endloop
endfacet
facet normal 0.0000000000 0.0000000000 -1.0000000000
  outer loop
    vertex 11.5000000000 25.5981000000 0.0000000000
    vertex 8.5000000000 25.5981000000 0.0000000000
    vertex 0.0000000000 30.0000000000 0.0000000000
  endloop
endfacet
facet normal 0.0000000000 0.0000000000 -1.0000000000
  outer loop
    vertex 0.0000000000 0.0000000000 0.0000000000
    vertex 0.0000000000 30.0000000000 0.0000000000
    vertex 5.0000000000 8.0000000000 0.0000000000
  endloop
endfacet
facet normal 0.0000000000 0.0000000000 -1.0000000000
  outer loop
    vertex 65.0000000000 30.0000000000 0.0000000000
    vertex 38.0000000000 26.4641000000 0.0000000000
    vertex 0.0000000000 30.0000000000 0.0000000000
  endloop
endfacet
facet normal 0.0000000000 0.0000000000 -1.0000000000
  outer loop
    vertex 8.5000000000 25.5981000000 0.0000000000
    vertex 7.0000000000 23.0000000000 0.0000000000
    vertex 0.0000000000 30.0000000000 0.0000000000
  endloop
endfacet
facet normal 0.0000000000 0.0000000000 -1.0000000000
  outer loop
    vertex 7.0000000000 23.0000000000 0.0000000000
    vertex 5.0000000000 8.0000000000 0.0000000000
    vertex 0.0000000000 30.0000000000 0.0000000000
  endloop
endfacet
facet normal 0.0000000000 0.0000000000 -1.0000000000
  outer loop
    vertex 60.0000000000 23.0000000000 0.0000000000
    vertex 58.7000000000 8.0000000000 0.0000000000
    vertex 57.5000000000 18.6699000000 0.0000000000
  endloop
endfacet
facet normal 0.0000000000 0.0000000000 -1.0000000000
  outer loop
    vertex 55.8500000000 12.9363000000 0.0000000000
    vertex 57.5000000000 18.6699000000 0.0000000000
    vertex 58.7000000000 8.0000000000 0.0000000000
  endloop
endfacet
facet normal 0.0000000000 0.0000000000 -1.0000000000
  outer loop
    vertex 57.5000000000 18.6699000000 0.0000000000
    vertex 55.8500000000 12.9363000000 0.0000000000
    vertex 52.5000000000 18.6699000000 0.0000000000
  endloop
endfacet
facet normal 0.0000000000 0.0000000000 -1.0000000000
  outer loop
    vertex 50.1500000000 12.9363000000 0.0000000000
    vertex 52.5000000000 18.6699000000 0.0000000000
    vertex 55.8500000000 12.9363000000 0.0000000000
  endloop
endfacet
facet normal 0.0000000000 0.0000000000 -1.0000000000
  outer loop
    vertex 52.5000000000 18.6699000000 0.0000000000
    vertex 50.1500000000 12.9363000000 0.0000000000
    vertex 42.0000000000 19.5359000000 0.0000000000
  endloop
endfacet
facet normal 0.0000000000 0.0000000000 -1.0000000000
  outer loop
    vertex 50.1500000000 12.9363000000 0.0000000000
    vertex 47.3000000000 8.0000000000 0.0000000000
    vertex 42.0000000000 19.5359000000 0.0000000000
  endloop
endfacet
facet normal 0.0000000000 -1.0000000000 0.0000000000
  outer loop
    vertex 65.0000000000 0.0000000000 5.0000000000
    vertex 0.0000000000 0.0000000000 5.0000000000
    vertex 0.0000000000 0.0000000000 0.0000000000
  endloop
endfacet
facet normal 0.0000000000 -1.0000000000 0.0000000000
  outer loop
    vertex 0.0000000000 0.0000000000 0.0000000000
    vertex 65.0000000000 0.0000000000 0.0000000000
    vertex 65.0000000000 0.0000000000 5.0000000000
  endloop
endfacet
facet normal -0.0000000000 1.0000000000 0.0000000000
  outer loop
    vertex 65.0000000000 30.0000000000 5.0000000000
    vertex 65.0000000000 30.0000000000 0.0000000000
    vertex 0.0000000000 30.0000000000 5.0000000000
  endloop
endfacet
facet normal 0.0000000000 1.0000000000 0.0000000000
  outer loop
    vertex 0.0000000000 30.0000000000 0.0000000000
    vertex 0.0000000000 30.0000000000 5.0000000000
    vertex 65.0000000000 30.0000000000 0.0000000000
  endloop
endfacet
facet normal -0.8660261957 -0.4999986284 0.0000000000
  outer loop
    vertex 19.0000000000 8.0000000000 0.0000000000
    vertex 15.5000000000 14.0622000000 5.0000000000
    vertex 15.5000000000 14.0622000000 0.0000000000
  endloop
endfacet
facet normal -0.8660261957 -0.4999986284 0.0000000000
  outer loop
    vertex 15.5000000000 14.0622000000 5.0000000000
    vertex 19.0000000000 8.0000000000 0.0000000000
    vertex 19.0000000000 8.0000000000 5.0000000000
  endloop
endfacet
facet normal 0.8660254814 0.4999998655 -0.0000000000
  outer loop
    vertex 5.0000000000 8.0000000000 0.0000000000
    vertex 5.0000000000 8.0000000000 5.0000000000
    vertex 8.5000000000 1.9378200000 5.0000000000
  endloop
endfacet
facet normal 0.8660254814 0.4999998655 0.0000000000
  outer loop
    vertex 8.5000000000 1.9378200000 5.0000000000
    vertex 8.5000000000 1.9378200000 0.0000000000
    vertex 5.0000000000 8.0000000000 0.0000000000
  endloop
endfacet
facet normal 0.0000000000 -1.0000000000 0.0000000000
  outer loop
    vertex 15.5000000000 14.0622000000 5.0000000000
    vertex 8.5000000000 14.0622000000 5.0000000000
    vertex 8.5000000000 14.0622000000 0.0000000000
  endloop
endfacet
facet normal 0.0000000000 -1.0000000000 0.0000000000
  outer loop
    vertex 8.5000000000 14.0622000000 0.0000000000
    vertex 15.5000000000 14.0622000000 0.0000000000
    vertex 15.5000000000 14.0622000000 5.0000000000
  endloop
endfacet
facet normal -0.0000000000 1.0000000000 0.0000000000
  outer loop
    vertex 15.5000000000 1.9378200000 5.0000000000
    vertex 15.5000000000 1.9378200000 0.0000000000
    vertex 8.5000000000 1.9378200000 5.0000000000
  endloop
endfacet
facet normal 0.0000000000 1.0000000000 0.0000000000
  outer loop
    vertex 8.5000000000 1.9378200000 0.0000000000
    vertex 8.5000000000 1.9378200000 5.0000000000
    vertex 15.5000000000 1.9378200000 0.0000000000
  endloop
endfacet
facet normal 0.8660261957 -0.4999986284 0.0000000000
  outer loop
    vertex 5.0000000000 8.0000000000 5.0000000000
    vertex 8.5000000000 14.0622000000 0.0000000000
    vertex 8.5000000000 14.0622000000 5.0000000000
  endloop
endfacet
facet normal 0.8660261957 -0.4999986284 0.0000000000
  outer loop
    vertex 8.5000000000 14.0622000000 0.0000000000
    vertex 5.0000000000 8.0000000000 5.0000000000
    vertex 5.0000000000 8.0000000000 0.0000000000
  endloop
endfacet
facet normal -0.8660254814 0.4999998655 0.0000000000
  outer loop
    vertex 19.0000000000 8.0000000000 5.0000000000
    vertex 19.0000000000 8.0000000000 0.0000000000
    vertex 15.5000000000 1.9378200000 0.0000000000
  endloop
endfacet
facet normal -0.8660254814 0.4999998655 0.0000000000
  outer loop
    vertex 15.5000000000 1.9378200000 0.0000000000
    vertex 15.5000000000 1.9378200000 5.0000000000
    vertex 19.0000000000 8.0000000000 5.0000000000
  endloop
endfacet
facet normal -0.8660267451 -0.4999976767 0.0000000000
  outer loop
    vertex 39.5000000000 8.0000000000 0.0000000000
    vertex 36.2500000000 13.6292000000 5.0000000000
    vertex 36.2500000000 13.6292000000 0.0000000000
  endloop
endfacet
facet normal -0.8660267451 -0.4999976767 0.0000000000
  outer loop
    vertex 36.2500000000 13.6292000000 5.0000000000
    vertex 39.5000000000 8.0000000000 0.0000000000
    vertex 39.5000000000 8.0000000000 5.0000000000
  endloop
endfacet
facet normal 0.0000000000 -1.0000000000 0.0000000000
  outer loop
    vertex 36.2500000000 13.6292000000 5.0000000000
    vertex 29.7500000000 13.6292000000 5.0000000000
    vertex 29.7500000000 13.6292000000 0.0000000000
  endloop
endfacet
facet normal 0.0000000000 -1.0000000000 0.0000000000
  outer loop
    vertex 29.7500000000 13.6292000000 0.0000000000
    vertex 36.2500000000 13.6292000000 0.0000000000
    vertex 36.2500000000 13.6292000000 5.0000000000
  endloop
endfacet
facet normal -0.0000000000 1.0000000000 0.0000000000
  outer loop
    vertex 36.2500000000 2.3708300000 5.0000000000
    vertex 36.2500000000 2.3708300000 0.0000000000
    vertex 29.7500000000 2.3708300000 5.0000000000
  endloop
endfacet
facet normal 0.0000000000 1.0000000000 0.0000000000
  outer loop
    vertex 29.7500000000 2.3708300000 0.0000000000
    vertex 29.7500000000 2.3708300000 5.0000000000
    vertex 36.2500000000 2.3708300000 0.0000000000
  endloop
endfacet
facet normal 0.8660267451 -0.4999976767 0.0000000000
  outer loop
    vertex 26.5000000000 8.0000000000 5.0000000000
    vertex 29.7500000000 13.6292000000 0.0000000000
    vertex 29.7500000000 13.6292000000 5.0000000000
  endloop
endfacet
facet normal 0.8660267451 -0.4999976767 0.0000000000
  outer loop
    vertex 29.7500000000 13.6292000000 0.0000000000
    vertex 26.5000000000 8.0000000000 5.0000000000
    vertex 26.5000000000 8.0000000000 0.0000000000
  endloop
endfacet
facet normal -0.8660255913 0.4999996752 0.0000000000
  outer loop
    vertex 39.5000000000 8.0000000000 5.0000000000
    vertex 39.5000000000 8.0000000000 0.0000000000
    vertex 36.2500000000 2.3708300000 0.0000000000
  endloop
endfacet
facet normal -0.8660255913 0.4999996752 0.0000000000
  outer loop
    vertex 36.2500000000 2.3708300000 0.0000000000
    vertex 36.2500000000 2.3708300000 5.0000000000
    vertex 39.5000000000 8.0000000000 5.0000000000
  endloop
endfacet
facet normal 0.8660255913 0.4999996752 -0.0000000000
  outer loop
    vertex 26.5000000000 8.0000000000 0.0000000000
    vertex 26.5000000000 8.0000000000 5.0000000000
    vertex 29.7500000000 2.3708300000 5.0000000000
  endloop
endfacet
facet normal 0.8660255913 0.4999996752 0.0000000000
  outer loop
    vertex 29.7500000000 2.3708300000 5.0000000000
    vertex 29.7500000000 2.3708300000 0.0000000000
    vertex 26.5000000000 8.0000000000 0.0000000000
  endloop
endfacet
facet normal -0.8660234388 -0.5000034035 0.0000000000
  outer loop
    vertex 58.7000000000 8.0000000000 0.0000000000
    vertex 55.8500000000 12.9363000000 5.0000000000
    vertex 55.8500000000 12.9363000000 0.0000000000
  endloop
endfacet
facet normal -0.8660234388 -0.5000034035 0.0000000000
  outer loop
    vertex 55.8500000000 12.9363000000 5.0000000000
    vertex 58.7000000000 8.0000000000 0.0000000000
    vertex 58.7000000000 8.0000000000 5.0000000000
  endloop
endfacet
facet normal 0.8660234388 -0.5000034035 0.0000000000
  outer loop
    vertex 47.3000000000 8.0000000000 5.0000000000
    vertex 50.1500000000 12.9363000000 0.0000000000
    vertex 50.1500000000 12.9363000000 5.0000000000
  endloop
endfacet
facet normal 0.8660234388 -0.5000034035 0.0000000000
  outer loop
    vertex 50.1500000000 12.9363000000 0.0000000000
    vertex 47.3000000000 8.0000000000 5.0000000000
    vertex 47.3000000000 8.0000000000 0.0000000000
  endloop
endfacet
facet normal 0.0000000000 -1.0000000000 0.0000000000
  outer loop
    vertex 55.8500000000 12.9363000000 5.0000000000
    vertex 50.1500000000 12.9363000000 5.0000000000
    vertex 50.1500000000 12.9363000000 0.0000000000
  endloop
endfacet
facet normal 0.0000000000 -1.0000000000 0.0000000000
  outer loop
    vertex 50.1500000000 12.9363000000 0.0000000000
    vertex 55.8500000000 12.9363000000 0.0000000000
    vertex 55.8500000000 12.9363000000 5.0000000000
  endloop
endfacet
facet normal 0.8660256318 0.4999996051 -0.0000000000
  outer loop
    vertex 47.3000000000 8.0000000000 0.0000000000
    vertex 47.3000000000 8.0000000000 5.0000000000
    vertex 50.1500000000 3.0636500000 5.0000000000
  endloop
endfacet
facet normal 0.8660256318 0.4999996051 0.0000000000
  outer loop
    vertex 50.1500000000 3.0636500000 5.0000000000
    vertex 50.1500000000 3.0636500000 0.0000000000
    vertex 47.3000000000 8.0000000000 0.0000000000
  endloop
endfacet
facet normal -0.8660256318 0.4999996051 0.0000000000
  outer loop
    vertex 58.7000000000 8.0000000000 5.0000000000
    vertex 58.7000000000 8.0000000000 0.0000000000
    vertex 55.8500000000 3.0636500000 0.0000000000
  endloop
endfacet
facet normal -0.8660256318 0.4999996051 0.0000000000
  outer loop
    vertex 55.8500000000 3.0636500000 0.0000000000
    vertex 55.8500000000 3.0636500000 5.0000000000
    vertex 58.7000000000 8.0000000000 5.0000000000
  endloop
endfacet
facet normal -0.0000000000 1.0000000000 0.0000000000
  outer loop
    vertex 55.8500000000 3.0636500000 5.0000000000
    vertex 55.8500000000 3.0636500000 0.0000000000
    vertex 50.1500000000 3.0636500000 5.0000000000
  endloop
endfacet
facet normal 0.0000000000 1.0000000000 0.0000000000
  outer loop
    vertex 50.1500000000 3.0636500000 0.0000000000
    vertex 50.1500000000 3.0636500000 5.0000000000
    vertex 55.8500000000 3.0636500000 0.0000000000
  endloop
endfacet
facet normal -0.8660240528 -0.5000023399 0.0000000000
  outer loop
    vertex 60.0000000000 23.0000000000 0.0000000000
    vertex 57.5000000000 27.3301000000 5.0000000000
    vertex 57.5000000000 27.3301000000 0.0000000000
  endloop
endfacet
facet normal -0.8660240528 -0.5000023399 0.0000000000
  outer loop
    vertex 57.5000000000 27.3301000000 5.0000000000
    vertex 60.0000000000 23.0000000000 0.0000000000
    vertex 60.0000000000 23.0000000000 5.0000000000
  endloop
endfacet
facet normal -0.0000000000 1.0000000000 0.0000000000
  outer loop
    vertex 57.5000000000 18.6699000000 5.0000000000
    vertex 57.5000000000 18.6699000000 0.0000000000
    vertex 52.5000000000 18.6699000000 5.0000000000
  endloop
endfacet
facet normal 0.0000000000 1.0000000000 0.0000000000
  outer loop
    vertex 52.5000000000 18.6699000000 0.0000000000
    vertex 52.5000000000 18.6699000000 5.0000000000
    vertex 57.5000000000 18.6699000000 0.0000000000
  endloop
endfacet
facet normal 0.8660240528 -0.5000023399 0.0000000000
  outer loop
    vertex 50.0000000000 23.0000000000 5.0000000000
    vertex 52.5000000000 27.3301000000 0.0000000000
    vertex 52.5000000000 27.3301000000 5.0000000000
  endloop
endfacet
facet normal 0.8660240528 -0.5000023399 0.0000000000
  outer loop
    vertex 52.5000000000 27.3301000000 0.0000000000
    vertex 50.0000000000 23.0000000000 5.0000000000
    vertex 50.0000000000 23.0000000000 0.0000000000
  endloop
endfacet
facet normal 0.0000000000 -1.0000000000 0.0000000000
  outer loop
    vertex 57.5000000000 27.3301000000 5.0000000000
    vertex 52.5000000000 27.3301000000 5.0000000000
    vertex 52.5000000000 27.3301000000 0.0000000000
  endloop
endfacet
facet normal 0.0000000000 -1.0000000000 0.0000000000
  outer loop
    vertex 52.5000000000 27.3301000000 0.0000000000
    vertex 57.5000000000 27.3301000000 0.0000000000
    vertex 57.5000000000 27.3301000000 5.0000000000
  endloop
endfacet
facet normal 0.8660240528 0.5000023399 -0.0000000000
  outer loop
    vertex 50.0000000000 23.0000000000 0.0000000000
    vertex 50.0000000000 23.0000000000 5.0000000000
    vertex 52.5000000000 18.6699000000 5.0000000000
  endloop
endfacet
facet normal 0.8660240528 0.5000023399 0.0000000000
  outer loop
    vertex 52.5000000000 18.6699000000 5.0000000000
    vertex 52.5000000000 18.6699000000 0.0000000000
    vertex 50.0000000000 23.0000000000 0.0000000000
  endloop
endfacet
facet normal -0.8660240528 0.5000023399 0.0000000000
  outer loop
    vertex 60.0000000000 23.0000000000 5.0000000000
    vertex 60.0000000000 23.0000000000 0.0000000000
    vertex 57.5000000000 18.6699000000 0.0000000000
  endloop
endfacet
facet normal -0.8660240528 0.5000023399 0.0000000000
  outer loop
    vertex 57.5000000000 18.6699000000 0.0000000000
    vertex 57.5000000000 18.6699000000 5.0000000000
    vertex 60.0000000000 23.0000000000 5.0000000000
  endloop
endfacet
facet normal -0.8660253028 -0.5000001748 0.0000000000
  outer loop
    vertex 44.0000000000 23.0000000000 0.0000000000
    vertex 42.0000000000 26.4641000000 5.0000000000
    vertex 42.0000000000 26.4641000000 0.0000000000
  endloop
endfacet
facet normal -0.8660253028 -0.5000001748 0.0000000000
  outer loop
    vertex 42.0000000000 26.4641000000 5.0000000000
    vertex 44.0000000000 23.0000000000 0.0000000000
    vertex 44.0000000000 23.0000000000 5.0000000000
  endloop
endfacet
facet normal -0.0000000000 1.0000000000 0.0000000000
  outer loop
    vertex 42.0000000000 19.5359000000 5.0000000000
    vertex 42.0000000000 19.5359000000 0.0000000000
    vertex 38.0000000000 19.5359000000 5.0000000000
  endloop
endfacet
facet normal 0.0000000000 1.0000000000 0.0000000000
  outer loop
    vertex 38.0000000000 19.5359000000 0.0000000000
    vertex 38.0000000000 19.5359000000 5.0000000000
    vertex 42.0000000000 19.5359000000 0.0000000000
  endloop
endfacet
facet normal 0.8660253028 -0.5000001748 0.0000000000
  outer loop
    vertex 36.0000000000 23.0000000000 5.0000000000
    vertex 38.0000000000 26.4641000000 0.0000000000
    vertex 38.0000000000 26.4641000000 5.0000000000
  endloop
endfacet
facet normal 0.8660253028 -0.5000001748 0.0000000000
  outer loop
    vertex 38.0000000000 26.4641000000 0.0000000000
    vertex 36.0000000000 23.0000000000 5.0000000000
    vertex 36.0000000000 23.0000000000 0.0000000000
  endloop
endfacet
facet normal 0.0000000000 -1.0000000000 0.0000000000
  outer loop
    vertex 42.0000000000 26.4641000000 5.0000000000
    vertex 38.0000000000 26.4641000000 5.0000000000
    vertex 38.0000000000 26.4641000000 0.0000000000
  endloop
endfacet
facet normal 0.0000000000 -1.0000000000 0.0000000000
  outer loop
    vertex 38.0000000000 26.4641000000 0.0000000000
    vertex 42.0000000000 26.4641000000 0.0000000000
    vertex 42.0000000000 26.4641000000 5.0000000000
  endloop
endfacet
facet normal 0.8660253028 0.5000001748 -0.0000000000
  outer loop
    vertex 36.0000000000 23.0000000000 0.0000000000
    vertex 36.0000000000 23.0000000000 5.0000000000
    vertex 38.0000000000 19.5359000000 5.0000000000
  endloop
endfacet
facet normal 0.8660253028 0.5000001748 0.0000000000
  outer loop
    vertex 38.0000000000 19.5359000000 5.0000000000
    vertex 38.0000000000 19.5359000000 0.0000000000
    vertex 36.0000000000 23.0000000000 0.0000000000
  endloop
endfacet
facet normal -0.8660253028 0.5000001748 0.0000000000
  outer loop
    vertex 44.0000000000 23.0000000000 5.0000000000
    vertex 44.0000000000 23.0000000000 0.0000000000
    vertex 42.0000000000 19.5359000000 0.0000000000
  endloop
endfacet
facet normal -0.8660253028 0.5000001748 0.0000000000
  outer loop
    vertex 42.0000000000 19.5359000000 0.0000000000
    vertex 42.0000000000 19.5359000000 5.0000000000
    vertex 44.0000000000 23.0000000000 5.0000000000
  endloop
endfacet
facet normal -0.8660261957 -0.4999986284 0.0000000000
  outer loop
    vertex 28.5000000000 23.0000000000 0.0000000000
    vertex 26.7500000000 26.0311000000 5.0000000000
    vertex 26.7500000000 26.0311000000 0.0000000000
  endloop
endfacet
facet normal -0.8660261957 -0.4999986284 0.0000000000
  outer loop
    vertex 26.7500000000 26.0311000000 5.0000000000
    vertex 28.5000000000 23.0000000000 0.0000000000
    vertex 28.5000000000 23.0000000000 5.0000000000
  endloop
endfacet
facet normal -0.0000000000 1.0000000000 0.0000000000
  outer loop
    vertex 26.7500000000 19.9689000000 5.0000000000
    vertex 26.7500000000 19.9689000000 0.0000000000
    vertex 23.2500000000 19.9689000000 5.0000000000
  endloop
endfacet
facet normal 0.0000000000 1.0000000000 0.0000000000
  outer loop
    vertex 23.2500000000 19.9689000000 0.0000000000
    vertex 23.2500000000 19.9689000000 5.0000000000
    vertex 26.7500000000 19.9689000000 0.0000000000
  endloop
endfacet
facet normal 0.8660261957 -0.4999986284 0.0000000000
  outer loop
    vertex 21.5000000000 23.0000000000 5.0000000000
    vertex 23.2500000000 26.0311000000 0.0000000000
    vertex 23.2500000000 26.0311000000 5.0000000000
  endloop
endfacet
facet normal 0.8660261957 -0.4999986284 0.0000000000
  outer loop
    vertex 23.2500000000 26.0311000000 0.0000000000
    vertex 21.5000000000 23.0000000000 5.0000000000
    vertex 21.5000000000 23.0000000000 0.0000000000
  endloop
endfacet
facet normal 0.0000000000 -1.0000000000 0.0000000000
  outer loop
    vertex 26.7500000000 26.0311000000 5.0000000000
    vertex 23.2500000000 26.0311000000 5.0000000000
    vertex 23.2500000000 26.0311000000 0.0000000000
  endloop
endfacet
facet normal 0.0000000000 -1.0000000000 0.0000000000
  outer loop
    vertex 23.2500000000 26.0311000000 0.0000000000
    vertex 26.7500000000 26.0311000000 0.0000000000
    vertex 26.7500000000 26.0311000000 5.0000000000
  endloop
endfacet
facet normal 0.8660261957 0.4999986284 -0.0000000000
  outer loop
    vertex 21.5000000000 23.0000000000 0.0000000000
    vertex 21.5000000000 23.0000000000 5.0000000000
    vertex 23.2500000000 19.9689000000 5.0000000000
  endloop
endfacet
facet normal 0.8660261957 0.4999986284 0.0000000000
  outer loop
    vertex 23.2500000000 19.9689000000 5.0000000000
    vertex 23.2500000000 19.9689000000 0.0000000000
    vertex 21.5000000000 23.0000000000 0.0000000000
  endloop
endfacet
facet normal -0.8660261957 0.4999986284 0.0000000000
  outer loop
    vertex 28.5000000000 23.0000000000 5.0000000000
    vertex 28.5000000000 23.0000000000 0.0000000000
    vertex 26.7500000000 19.9689000000 0.0000000000
  endloop
endfacet
facet normal -0.8660261957 0.4999986284 0.0000000000
  outer loop
    vertex 26.7500000000 19.9689000000 0.0000000000
    vertex 26.7500000000 19.9689000000 5.0000000000
    vertex 28.5000000000 23.0000000000 5.0000000000
  endloop
endfacet
facet normal -0.8660273862 -0.4999965664 0.0000000000
  outer loop
    vertex 13.0000000000 23.0000000000 0.0000000000
    vertex 11.5000000000 25.5981000000 5.0000000000
    vertex 11.5000000000 25.5981000000 0.0000000000
  endloop
endfacet
facet normal -0.8660273862 -0.4999965664 0.0000000000
  outer loop
    vertex 11.5000000000 25.5981000000 5.0000000000
    vertex 13.0000000000 23.0000000000 0.0000000000
    vertex 13.0000000000 23.0000000000 5.0000000000
  endloop
endfacet
facet normal 0.0000000000 -1.0000000000 0.0000000000
  outer loop
    vertex 11.5000000000 25.5981000000 5.0000000000
    vertex 8.5000000000 25.5981000000 5.0000000000
    vertex 8.5000000000 25.5981000000 0.0000000000
  endloop
endfacet
facet normal 0.0000000000 -1.0000000000 0.0000000000
  outer loop
    vertex 8.5000000000 25.5981000000 0.0000000000
    vertex 11.5000000000 25.5981000000 0.0000000000
    vertex 11.5000000000 25.5981000000 5.0000000000
  endloop
endfacet
facet normal -0.0000000000 1.0000000000 0.0000000000
  outer loop
    vertex 11.5000000000 20.4019000000 5.0000000000
    vertex 11.5000000000 20.4019000000 0.0000000000
    vertex 8.5000000000 20.4019000000 5.0000000000
  endloop
endfacet
facet normal 0.0000000000 1.0000000000 0.0000000000
  outer loop
    vertex 8.5000000000 20.4019000000 0.0000000000
    vertex 8.5000000000 20.4019000000 5.0000000000
    vertex 11.5000000000 20.4019000000 0.0000000000
  endloop
endfacet
facet normal 0.8660273862 -0.4999965664 0.0000000000
  outer loop
    vertex 7.0000000000 23.0000000000 5.0000000000
    vertex 8.5000000000 25.5981000000 0.0000000000
    vertex 8.5000000000 25.5981000000 5.0000000000
  endloop
endfacet
facet normal 0.8660273862 -0.4999965664 0.0000000000
  outer loop
    vertex 8.5000000000 25.5981000000 0.0000000000
    vertex 7.0000000000 23.0000000000 5.0000000000
    vertex 7.0000000000 23.0000000000 0.0000000000
  endloop
endfacet
facet normal -0.8660273862 0.4999965664 0.0000000000
  outer loop
    vertex 13.0000000000 23.0000000000 5.0000000000
    vertex 13.0000000000 23.0000000000 0.0000000000
    vertex 11.5000000000 20.4019000000 0.0000000000
  endloop
endfacet
facet normal -0.8660273862 0.4999965664 0.0000000000
  outer loop
    vertex 11.5000000000 20.4019000000 0.0000000000
    vertex 11.5000000000 20.4019000000 5.0000000000
    vertex 13.0000000000 23.0000000000 5.0000000000
  endloop
endfacet
facet normal 0.8660273862 0.4999965664 -0.0000000000
  outer loop
    vertex 7.0000000000 23.0000000000 0.0000000000
    vertex 7.0000000000 23.0000000000 5.0000000000
    vertex 8.5000000000 20.4019000000 5.0000000000
  endloop
endfacet
facet normal 0.8660273862 0.4999965664 0.0000000000
  outer loop
    vertex 8.5000000000 20.4019000000 5.0000000000
    vertex 8.5000000000 20.4019000000 0.0000000000
    vertex 7.0000000000 23.0000000000 0.0000000000
  endloop
endfacet
endsolid REINCARNATE