solid OpenSCAD_Model
  facet normal -1 0 0
    outer loop
      vertex 0 0 0
      vertex 0 3 0.5
      vertex 0 3 0
    endloop
  endfacet
  facet normal -1 -0 0
    outer loop
      vertex 0 3 0.5
      vertex 0 0 0
      vertex 0 0 0.5
    endloop
  endfacet
  facet normal 0 0 1
    outer loop
      vertex 11 3 0.5
      vertex 10 1.5 0.5
      vertex 11 0 0.5
    endloop
  endfacet
  facet normal 0 0 1
    outer loop
      vertex 11 3 0.5
      vertex 9.75 1.93301 0.5
      vertex 10 1.5 0.5
    endloop
  endfacet
  facet normal 0 0 1
    outer loop
      vertex 11 3 0.5
      vertex 9.25 1.93301 0.5
      vertex 9.75 1.93301 0.5
    endloop
  endfacet
  facet normal 0 0 1
    outer loop
      vertex 9.25 1.93301 0.5
      vertex 6.8 1.5 0.5
      vertex 9 1.5 0.5
    endloop
  endfacet
  facet normal -0 0 1
    outer loop
      vertex 6.4 2.19282 0.5
      vertex 9.25 1.93301 0.5
      vertex 11 3 0.5
    endloop
  endfacet
  facet normal 0 0 1
    outer loop
      vertex 9.25 1.93301 0.5
      vertex 6.4 2.19282 0.5
      vertex 6.8 1.5 0.5
    endloop
  endfacet
  facet normal 0 0 1
    outer loop
      vertex 11 3 0.5
      vertex 5.6 2.19282 0.5
      vertex 6.4 2.19282 0.5
    endloop
  endfacet
  facet normal 0 0 1
    outer loop
      vertex 5.6 2.19282 0.5
      vertex 3 1.5 0.5
      vertex 5.2 1.5 0.5
    endloop
  endfacet
  facet normal 0 0 1
    outer loop
      vertex 5.6 2.19282 0.5
      vertex 2.5 2.36602 0.5
      vertex 3 1.5 0.5
    endloop
  endfacet
  facet normal -0 0 1
    outer loop
      vertex 0 3 0.5
      vertex 5.6 2.19282 0.5
      vertex 11 3 0.5
    endloop
  endfacet
  facet normal 0 0 1
    outer loop
      vertex 5.6 2.19282 0.5
      vertex 0 3 0.5
      vertex 2.5 2.36602 0.5
    endloop
  endfacet
  facet normal 0 0 1
    outer loop
      vertex 1.5 2.36602 0.5
      vertex 0 3 0.5
      vertex 1 1.5 0.5
    endloop
  endfacet
  facet normal 0 0 1
    outer loop
      vertex 2.5 2.36602 0.5
      vertex 0 3 0.5
      vertex 1.5 2.36602 0.5
    endloop
  endfacet
  facet normal -0 0 1
    outer loop
      vertex 9.75 1.06699 0.5
      vertex 11 0 0.5
      vertex 10 1.5 0.5
    endloop
  endfacet
  facet normal -0 0 1
    outer loop
      vertex 9.25 1.06699 0.5
      vertex 11 0 0.5
      vertex 9.75 1.06699 0.5
    endloop
  endfacet
  facet normal -0 0 1
    outer loop
      vertex 6.8 1.5 0.5
      vertex 9.25 1.06699 0.5
      vertex 9 1.5 0.5
    endloop
  endfacet
  facet normal 0 0 1
    outer loop
      vertex 6.4 0.807179 0.5
      vertex 9.25 1.06699 0.5
      vertex 6.8 1.5 0.5
    endloop
  endfacet
  facet normal 0 0 1
    outer loop
      vertex 9.25 1.06699 0.5
      vertex 6.4 0.807179 0.5
      vertex 11 0 0.5
    endloop
  endfacet
  facet normal -0 0 1
    outer loop
      vertex 5.6 0.807179 0.5
      vertex 11 0 0.5
      vertex 6.4 0.807179 0.5
    endloop
  endfacet
  facet normal -0 0 1
    outer loop
      vertex 3 1.5 0.5
      vertex 5.6 0.807179 0.5
      vertex 5.2 1.5 0.5
    endloop
  endfacet
  facet normal 0 0 1
    outer loop
      vertex 2.5 0.633974 0.5
      vertex 5.6 0.807179 0.5
      vertex 3 1.5 0.5
    endloop
  endfacet
  facet normal 0 0 1
    outer loop
      vertex 0 0 0.5
      vertex 5.6 0.807179 0.5
      vertex 2.5 0.633974 0.5
    endloop
  endfacet
  facet normal 0 0 1
    outer loop
      vertex 0 0 0.5
      vertex 2.5 0.633974 0.5
      vertex 1.5 0.633974 0.5
    endloop
  endfacet
  facet normal 0 0 1
    outer loop
      vertex 0 0 0.5
      vertex 1 1.5 0.5
      vertex 0 3 0.5
    endloop
  endfacet
  facet normal 0 0 1
    outer loop
      vertex 5.6 0.807179 0.5
      vertex 0 0 0.5
      vertex 11 0 0.5
    endloop
  endfacet
  facet normal 0 0 1
    outer loop
      vertex 1 1.5 0.5
      vertex 0 0 0.5
      vertex 1.5 0.633974 0.5
    endloop
  endfacet
  facet normal 1 -0 0
    outer loop
      vertex 11 0 0.5
      vertex 11 3 0
      vertex 11 3 0.5
    endloop
  endfacet
  facet normal 1 0 0
    outer loop
      vertex 11 3 0
      vertex 11 0 0.5
      vertex 11 0 0
    endloop
  endfacet
  facet normal 0 1 -0
    outer loop
      vertex 11 3 0
      vertex 0 3 0.5
      vertex 11 3 0.5
    endloop
  endfacet
  facet normal 0 1 0
    outer loop
      vertex 0 3 0.5
      vertex 11 3 0
      vertex 0 3 0
    endloop
  endfacet
  facet normal 0 0 -1
    outer loop
      vertex 11 0 0
      vertex 10 1.5 0
      vertex 11 3 0
    endloop
  endfacet
  facet normal 0 0 -1
    outer loop
      vertex 11 0 0
      vertex 9.75 1.06699 0
      vertex 10 1.5 0
    endloop
  endfacet
  facet normal 0 0 -1
    outer loop
      vertex 11 0 0
      vertex 9.25 1.06699 0
      vertex 9.75 1.06699 0
    endloop
  endfacet
  facet normal 0 0 -1
    outer loop
      vertex 9.25 1.06699 0
      vertex 6.8 1.5 0
      vertex 9 1.5 0
    endloop
  endfacet
  facet normal 0 0 -1
    outer loop
      vertex 6.4 0.807179 0
      vertex 9.25 1.06699 0
      vertex 11 0 0
    endloop
  endfacet
  facet normal -0 0 -1
    outer loop
      vertex 9.25 1.06699 0
      vertex 6.4 0.807179 0
      vertex 6.8 1.5 0
    endloop
  endfacet
  facet normal 0 0 -1
    outer loop
      vertex 11 0 0
      vertex 5.6 0.807179 0
      vertex 6.4 0.807179 0
    endloop
  endfacet
  facet normal 0 0 -1
    outer loop
      vertex 5.6 0.807179 0
      vertex 3 1.5 0
      vertex 5.2 1.5 0
    endloop
  endfacet
  facet normal -0 0 -1
    outer loop
      vertex 5.6 0.807179 0
      vertex 2.5 0.633974 0
      vertex 3 1.5 0
    endloop
  endfacet
  facet normal 0 0 -1
    outer loop
      vertex 0 0 0
      vertex 5.6 0.807179 0
      vertex 11 0 0
    endloop
  endfacet
  facet normal 0 0 -1
    outer loop
      vertex 5.6 0.807179 0
      vertex 0 0 0
      vertex 2.5 0.633974 0
    endloop
  endfacet
  facet normal -0 0 -1
    outer loop
      vertex 1.5 0.633974 0
      vertex 0 0 0
      vertex 1 1.5 0
    endloop
  endfacet
  facet normal -0 0 -1
    outer loop
      vertex 2.5 0.633974 0
      vertex 0 0 0
      vertex 1.5 0.633974 0
    endloop
  endfacet
  facet normal 0 0 -1
    outer loop
      vertex 9.75 1.93301 0
      vertex 11 3 0
      vertex 10 1.5 0
    endloop
  endfacet
  facet normal 0 0 -1
    outer loop
      vertex 9.25 1.93301 0
      vertex 11 3 0
      vertex 9.75 1.93301 0
    endloop
  endfacet
  facet normal 0 0 -1
    outer loop
      vertex 6.8 1.5 0
      vertex 9.25 1.93301 0
      vertex 9 1.5 0
    endloop
  endfacet
  facet normal 0 0 -1
    outer loop
      vertex 6.4 2.19282 0
      vertex 9.25 1.93301 0
      vertex 6.8 1.5 0
    endloop
  endfacet
  facet normal 0 0 -1
    outer loop
      vertex 9.25 1.93301 0
      vertex 6.4 2.19282 0
      vertex 11 3 0
    endloop
  endfacet
  facet normal 0 0 -1
    outer loop
      vertex 5.6 2.19282 0
      vertex 11 3 0
      vertex 6.4 2.19282 0
    endloop
  endfacet
  facet normal 0 0 -1
    outer loop
      vertex 3 1.5 0
      vertex 5.6 2.19282 0
      vertex 5.2 1.5 0
    endloop
  endfacet
  facet normal 0 0 -1
    outer loop
      vertex 2.5 2.36602 0
      vertex 5.6 2.19282 0
      vertex 3 1.5 0
    endloop
  endfacet
  facet normal 0 0 -1
    outer loop
      vertex 0 3 0
      vertex 5.6 2.19282 0
      vertex 2.5 2.36602 0
    endloop
  endfacet
  facet normal 0 0 -1
    outer loop
      vertex 0 3 0
      vertex 2.5 2.36602 0
      vertex 1.5 2.36602 0
    endloop
  endfacet
  facet normal 0 0 -1
    outer loop
      vertex 0 3 0
      vertex 1 1.5 0
      vertex 0 0 0
    endloop
  endfacet
  facet normal 0 0 -1
    outer loop
      vertex 5.6 2.19282 0
      vertex 0 3 0
      vertex 11 3 0
    endloop
  endfacet
  facet normal 0 0 -1
    outer loop
      vertex 1 1.5 0
      vertex 0 3 0
      vertex 1.5 2.36602 0
    endloop
  endfacet
  facet normal 0 -1 0
    outer loop
      vertex 0 0 0
      vertex 11 0 0.5
      vertex 0 0 0.5
    endloop
  endfacet
  facet normal 0 -1 -0
    outer loop
      vertex 11 0 0.5
      vertex 0 0 0
      vertex 11 0 0
    endloop
  endfacet
  facet normal -0.866025 -0.5 0
    outer loop
      vertex 3 1.5 0
      vertex 2.5 2.36602 0.5
      vertex 2.5 2.36602 0
    endloop
  endfacet
  facet normal -0.866025 -0.5 0
    outer loop
      vertex 2.5 2.36602 0.5
      vertex 3 1.5 0
      vertex 3 1.5 0.5
    endloop
  endfacet
  facet normal 0.866026 0.499999 0
    outer loop
      vertex 1.5 0.633974 0.5
      vertex 1 1.5 0
      vertex 1 1.5 0.5
    endloop
  endfacet
  facet normal 0.866026 0.499999 0
    outer loop
      vertex 1 1.5 0
      vertex 1.5 0.633974 0.5
      vertex 1.5 0.633974 0
    endloop
  endfacet
  facet normal 0 -1 0
    outer loop
      vertex 1.5 2.36602 0
      vertex 2.5 2.36602 0.5
      vertex 1.5 2.36602 0.5
    endloop
  endfacet
  facet normal 0 -1 -0
    outer loop
      vertex 2.5 2.36602 0.5
      vertex 1.5 2.36602 0
      vertex 2.5 2.36602 0
    endloop
  endfacet
  facet normal 0 1 -0
    outer loop
      vertex 2.5 0.633974 0
      vertex 1.5 0.633974 0.5
      vertex 2.5 0.633974 0.5
    endloop
  endfacet
  facet normal 0 1 0
    outer loop
      vertex 1.5 0.633974 0.5
      vertex 2.5 0.633974 0
      vertex 1.5 0.633974 0
    endloop
  endfacet
  facet normal 0.866025 -0.5 0
    outer loop
      vertex 1 1.5 0.5
      vertex 1.5 2.36602 0
      vertex 1.5 2.36602 0.5
    endloop
  endfacet
  facet normal 0.866025 -0.5 0
    outer loop
      vertex 1.5 2.36602 0
      vertex 1 1.5 0.5
      vertex 1 1.5 0
    endloop
  endfacet
  facet normal -0.866026 0.5 0
    outer loop
      vertex 2.5 0.633974 0
      vertex 3 1.5 0.5
      vertex 3 1.5 0
    endloop
  endfacet
  facet normal -0.866026 0.5 0
    outer loop
      vertex 3 1.5 0.5
      vertex 2.5 0.633974 0
      vertex 2.5 0.633974 0.5
    endloop
  endfacet
  facet normal -0.866025 -0.5 0
    outer loop
      vertex 6.8 1.5 0
      vertex 6.4 2.19282 0.5
      vertex 6.4 2.19282 0
    endloop
  endfacet
  facet normal -0.866025 -0.5 0
    outer loop
      vertex 6.4 2.19282 0.5
      vertex 6.8 1.5 0
      vertex 6.8 1.5 0.5
    endloop
  endfacet
  facet normal 0.866026 0.5 0
    outer loop
      vertex 5.6 0.807179 0.5
      vertex 5.2 1.5 0
      vertex 5.2 1.5 0.5
    endloop
  endfacet
  facet normal 0.866026 0.5 0
    outer loop
      vertex 5.2 1.5 0
      vertex 5.6 0.807179 0.5
      vertex 5.6 0.807179 0
    endloop
  endfacet
  facet normal 0 -1 0
    outer loop
      vertex 5.6 2.19282 0
      vertex 6.4 2.19282 0.5
      vertex 5.6 2.19282 0.5
    endloop
  endfacet
  facet normal 0 -1 -0
    outer loop
      vertex 6.4 2.19282 0.5
      vertex 5.6 2.19282 0
      vertex 6.4 2.19282 0
    endloop
  endfacet
  facet normal 0 1 -0
    outer loop
      vertex 6.4 0.807179 0
      vertex 5.6 0.807179 0.5
      vertex 6.4 0.807179 0.5
    endloop
  endfacet
  facet normal 0 1 0
    outer loop
      vertex 5.6 0.807179 0.5
      vertex 6.4 0.807179 0
      vertex 5.6 0.807179 0
    endloop
  endfacet
  facet normal 0.866025 -0.5 0
    outer loop
      vertex 5.2 1.5 0.5
      vertex 5.6 2.19282 0
      vertex 5.6 2.19282 0.5
    endloop
  endfacet
  facet normal 0.866025 -0.5 0
    outer loop
      vertex 5.6 2.19282 0
      vertex 5.2 1.5 0.5
      vertex 5.2 1.5 0
    endloop
  endfacet
  facet normal -0.866026 0.5 0
    outer loop
      vertex 6.4 0.807179 0
      vertex 6.8 1.5 0.5
      vertex 6.8 1.5 0
    endloop
  endfacet
  facet normal -0.866026 0.5 0
    outer loop
      vertex 6.8 1.5 0.5
      vertex 6.4 0.807179 0
      vertex 6.4 0.807179 0.5
    endloop
  endfacet
  facet normal -0.866025 -0.500001 0
    outer loop
      vertex 10 1.5 0
      vertex 9.75 1.93301 0.5
      vertex 9.75 1.93301 0
    endloop
  endfacet
  facet normal -0.866025 -0.500001 0
    outer loop
      vertex 9.75 1.93301 0.5
      vertex 10 1.5 0
      vertex 10 1.5 0.5
    endloop
  endfacet
  facet normal 0 1 -0
    outer loop
      vertex 9.75 1.06699 0
      vertex 9.25 1.06699 0.5
      vertex 9.75 1.06699 0.5
    endloop
  endfacet
  facet normal 0 1 0
    outer loop
      vertex 9.25 1.06699 0.5
      vertex 9.75 1.06699 0
      vertex 9.25 1.06699 0
    endloop
  endfacet
  facet normal 0.866025 -0.500001 0
    outer loop
      vertex 9 1.5 0.5
      vertex 9.25 1.93301 0
      vertex 9.25 1.93301 0.5
    endloop
  endfacet
  facet normal 0.866025 -0.500001 0
    outer loop
      vertex 9.25 1.93301 0
      vertex 9 1.5 0.5
      vertex 9 1.5 0
    endloop
  endfacet
  facet normal 0 -1 0
    outer loop
      vertex 9.25 1.93301 0
      vertex 9.75 1.93301 0.5
      vertex 9.25 1.93301 0.5
    endloop
  endfacet
  facet normal 0 -1 -0
    outer loop
      vertex 9.75 1.93301 0.5
      vertex 9.25 1.93301 0
      vertex 9.75 1.93301 0
    endloop
  endfacet
  facet normal 0.866026 0.5 0
    outer loop
      vertex 9.25 1.06699 0.5
      vertex 9 1.5 0
      vertex 9 1.5 0.5
    endloop
  endfacet
  facet normal 0.866026 0.5 0
    outer loop
      vertex 9 1.5 0
      vertex 9.25 1.06699 0.5
      vertex 9.25 1.06699 0
    endloop
  endfacet
  facet normal -0.866026 0.5 0
    outer loop
      vertex 9.75 1.06699 0
      vertex 10 1.5 0.5
      vertex 10 1.5 0
    endloop
  endfacet
  facet normal -0.866026 0.5 0
    outer loop
      vertex 10 1.5 0.5
      vertex 9.75 1.06699 0
      vertex 9.75 1.06699 0.5
    endloop
  endfacet
endsolid OpenSCAD_Model
