solid OpenSCAD_Model
  facet normal 0.866025 0.5 0
    outer loop
      vertex 17 8 5
      vertex 13.5 14.0622 0
      vertex 13.5 14.0622 5
    endloop
  endfacet
  facet normal 0.866025 0.5 0
    outer loop
      vertex 13.5 14.0622 0
      vertex 17 8 5
      vertex 17 8 0
    endloop
  endfacet
  facet normal 0 1 -0
    outer loop
      vertex 13.5 14.0622 0
      vertex 6.5 14.0622 5
      vertex 13.5 14.0622 5
    endloop
  endfacet
  facet normal 0 1 0
    outer loop
      vertex 6.5 14.0622 5
      vertex 13.5 14.0622 0
      vertex 6.5 14.0622 0
    endloop
  endfacet
  facet normal 0 -1 0
    outer loop
      vertex 6.5 1.93782 0
      vertex 13.5 1.93782 5
      vertex 6.5 1.93782 5
    endloop
  endfacet
  facet normal 0 -1 -0
    outer loop
      vertex 13.5 1.93782 5
      vertex 6.5 1.93782 0
      vertex 13.5 1.93782 0
    endloop
  endfacet
  facet normal 0 0 1
    outer loop
      vertex 13.5 14.0622 5
      vertex 13.5 1.93782 5
      vertex 17 8 5
    endloop
  endfacet
  facet normal -0 0 1
    outer loop
      vertex 6.5 14.0622 5
      vertex 13.5 1.93782 5
      vertex 13.5 14.0622 5
    endloop
  endfacet
  facet normal 0 0 1
    outer loop
      vertex 6.5 14.0622 5
      vertex 6.5 1.93782 5
      vertex 13.5 1.93782 5
    endloop
  endfacet
  facet normal 0 -0 1
    outer loop
      vertex 6.5 1.93782 5
      vertex 6.5 14.0622 5
      vertex 3 8 5
    endloop
  endfacet
  facet normal -0.866025 0.5 0
    outer loop
      vertex 3 8 0
      vertex 6.5 14.0622 5
      vertex 6.5 14.0622 0
    endloop
  endfacet
  facet normal -0.866025 0.5 0
    outer loop
      vertex 6.5 14.0622 5
      vertex 3 8 0
      vertex 3 8 5
    endloop
  endfacet
  facet normal 0 0 -1
    outer loop
      vertex 13.5 1.93782 0
      vertex 13.5 14.0622 0
      vertex 17 8 0
    endloop
  endfacet
  facet normal 0 0 -1
    outer loop
      vertex 13.5 1.93782 0
      vertex 6.5 14.0622 0
      vertex 13.5 14.0622 0
    endloop
  endfacet
  facet normal 0 0 -1
    outer loop
      vertex 6.5 1.93782 0
      vertex 6.5 14.0622 0
      vertex 13.5 1.93782 0
    endloop
  endfacet
  facet normal 0 0 -1
    outer loop
      vertex 6.5 14.0622 0
      vertex 6.5 1.93782 0
      vertex 3 8 0
    endloop
  endfacet
  facet normal 0.866025 -0.5 0
    outer loop
      vertex 13.5 1.93782 5
      vertex 17 8 0
      vertex 17 8 5
    endloop
  endfacet
  facet normal 0.866025 -0.5 0
    outer loop
      vertex 17 8 0
      vertex 13.5 1.93782 5
      vertex 13.5 1.93782 0
    endloop
  endfacet
  facet normal -0.866025 -0.5 0
    outer loop
      vertex 6.5 1.93782 0
      vertex 3 8 5
      vertex 3 8 0
    endloop
  endfacet
  facet normal -0.866025 -0.5 0
    outer loop
      vertex 3 8 5
      vertex 6.5 1.93782 0
      vertex 6.5 1.93782 5
    endloop
  endfacet
  facet normal 0.866025 0.5 0
    outer loop
      vertex 36.5 8 5
      vertex 33.25 13.6292 0
      vertex 33.25 13.6292 5
    endloop
  endfacet
  facet normal 0.866025 0.5 0
    outer loop
      vertex 33.25 13.6292 0
      vertex 36.5 8 5
      vertex 36.5 8 0
    endloop
  endfacet
  facet normal 0 1 -0
    outer loop
      vertex 33.25 13.6292 0
      vertex 26.75 13.6292 5
      vertex 33.25 13.6292 5
    endloop
  endfacet
  facet normal 0 1 0
    outer loop
      vertex 26.75 13.6292 5
      vertex 33.25 13.6292 0
      vertex 26.75 13.6292 0
    endloop
  endfacet
  facet normal 0 -1 0
    outer loop
      vertex 26.75 2.37083 0
      vertex 33.25 2.37083 5
      vertex 26.75 2.37083 5
    endloop
  endfacet
  facet normal 0 -1 -0
    outer loop
      vertex 33.25 2.37083 5
      vertex 26.75 2.37083 0
      vertex 33.25 2.37083 0
    endloop
  endfacet
  facet normal 0 0 1
    outer loop
      vertex 33.25 13.6292 5
      vertex 33.25 2.37083 5
      vertex 36.5 8 5
    endloop
  endfacet
  facet normal -0 0 1
    outer loop
      vertex 26.75 13.6292 5
      vertex 33.25 2.37083 5
      vertex 33.25 13.6292 5
    endloop
  endfacet
  facet normal 0 0 1
    outer loop
      vertex 26.75 13.6292 5
      vertex 26.75 2.37083 5
      vertex 33.25 2.37083 5
    endloop
  endfacet
  facet normal 0 -0 1
    outer loop
      vertex 26.75 2.37083 5
      vertex 26.75 13.6292 5
      vertex 23.5 8 5
    endloop
  endfacet
  facet normal -0.866025 0.5 0
    outer loop
      vertex 23.5 8 0
      vertex 26.75 13.6292 5
      vertex 26.75 13.6292 0
    endloop
  endfacet
  facet normal -0.866025 0.5 0
    outer loop
      vertex 26.75 13.6292 5
      vertex 23.5 8 0
      vertex 23.5 8 5
    endloop
  endfacet
  facet normal 0 0 -1
    outer loop
      vertex 33.25 2.37083 0
      vertex 33.25 13.6292 0
      vertex 36.5 8 0
    endloop
  endfacet
  facet normal 0 0 -1
    outer loop
      vertex 26.75 2.37083 0
      vertex 33.25 13.6292 0
      vertex 33.25 2.37083 0
    endloop
  endfacet
  facet normal 0 0 -1
    outer loop
      vertex 26.75 2.37083 0
      vertex 26.75 13.6292 0
      vertex 33.25 13.6292 0
    endloop
  endfacet
  facet normal 0 -0 -1
    outer loop
      vertex 26.75 13.6292 0
      vertex 26.75 2.37083 0
      vertex 23.5 8 0
    endloop
  endfacet
  facet normal 0.866025 -0.5 0
    outer loop
      vertex 33.25 2.37083 5
      vertex 36.5 8 0
      vertex 36.5 8 5
    endloop
  endfacet
  facet normal 0.866025 -0.5 0
    outer loop
      vertex 36.5 8 0
      vertex 33.25 2.37083 5
      vertex 33.25 2.37083 0
    endloop
  endfacet
  facet normal -0.866025 -0.5 0
    outer loop
      vertex 26.75 2.37083 0
      vertex 23.5 8 5
      vertex 23.5 8 0
    endloop
  endfacet
  facet normal -0.866025 -0.5 0
    outer loop
      vertex 23.5 8 5
      vertex 26.75 2.37083 0
      vertex 26.75 2.37083 5
    endloop
  endfacet
  facet normal 0 0 -1
    outer loop
      vertex 51.85 3.06365 0
      vertex 51.85 12.9363 0
      vertex 54.7 8 0
    endloop
  endfacet
  facet normal 0 0 -1
    outer loop
      vertex 46.15 3.06365 0
      vertex 51.85 12.9363 0
      vertex 51.85 3.06365 0
    endloop
  endfacet
  facet normal 0 0 -1
    outer loop
      vertex 46.15 3.06365 0
      vertex 46.15 12.9363 0
      vertex 51.85 12.9363 0
    endloop
  endfacet
  facet normal 0 -0 -1
    outer loop
      vertex 46.15 12.9363 0
      vertex 46.15 3.06365 0
      vertex 43.3 8 0
    endloop
  endfacet
  facet normal 0.866025 0.5 0
    outer loop
      vertex 54.7 8 5
      vertex 51.85 12.9363 0
      vertex 51.85 12.9363 5
    endloop
  endfacet
  facet normal 0.866025 0.5 0
    outer loop
      vertex 51.85 12.9363 0
      vertex 54.7 8 5
      vertex 54.7 8 0
    endloop
  endfacet
  facet normal -0.866025 0.5 0
    outer loop
      vertex 43.3 8 0
      vertex 46.15 12.9363 5
      vertex 46.15 12.9363 0
    endloop
  endfacet
  facet normal -0.866025 0.5 0
    outer loop
      vertex 46.15 12.9363 5
      vertex 43.3 8 0
      vertex 43.3 8 5
    endloop
  endfacet
  facet normal 0 1 -0
    outer loop
      vertex 51.85 12.9363 0
      vertex 46.15 12.9363 5
      vertex 51.85 12.9363 5
    endloop
  endfacet
  facet normal 0 1 0
    outer loop
      vertex 46.15 12.9363 5
      vertex 51.85 12.9363 0
      vertex 46.15 12.9363 0
    endloop
  endfacet
  facet normal -0.866025 -0.5 0
    outer loop
      vertex 46.15 3.06365 0
      vertex 43.3 8 5
      vertex 43.3 8 0
    endloop
  endfacet
  facet normal -0.866025 -0.5 0
    outer loop
      vertex 43.3 8 5
      vertex 46.15 3.06365 0
      vertex 46.15 3.06365 5
    endloop
  endfacet
  facet normal 0 0 1
    outer loop
      vertex 51.85 12.9363 5
      vertex 51.85 3.06365 5
      vertex 54.7 8 5
    endloop
  endfacet
  facet normal -0 0 1
    outer loop
      vertex 46.15 12.9363 5
      vertex 51.85 3.06365 5
      vertex 51.85 12.9363 5
    endloop
  endfacet
  facet normal 0 0 1
    outer loop
      vertex 46.15 12.9363 5
      vertex 46.15 3.06365 5
      vertex 51.85 3.06365 5
    endloop
  endfacet
  facet normal 0 -0 1
    outer loop
      vertex 46.15 3.06365 5
      vertex 46.15 12.9363 5
      vertex 43.3 8 5
    endloop
  endfacet
  facet normal 0.866025 -0.5 0
    outer loop
      vertex 51.85 3.06365 5
      vertex 54.7 8 0
      vertex 54.7 8 5
    endloop
  endfacet
  facet normal 0.866025 -0.5 0
    outer loop
      vertex 54.7 8 0
      vertex 51.85 3.06365 5
      vertex 51.85 3.06365 0
    endloop
  endfacet
  facet normal 0 -1 0
    outer loop
      vertex 46.15 3.06365 0
      vertex 51.85 3.06365 5
      vertex 46.15 3.06365 5
    endloop
  endfacet
  facet normal 0 -1 -0
    outer loop
      vertex 51.85 3.06365 5
      vertex 46.15 3.06365 0
      vertex 51.85 3.06365 0
    endloop
  endfacet
  facet normal 0 0 -1
    outer loop
      vertex 68.5 3.66987 0
      vertex 68.5 12.3301 0
      vertex 71 8 0
    endloop
  endfacet
  facet normal 0 0 -1
    outer loop
      vertex 63.5 3.66987 0
      vertex 68.5 12.3301 0
      vertex 68.5 3.66987 0
    endloop
  endfacet
  facet normal 0 0 -1
    outer loop
      vertex 63.5 3.66987 0
      vertex 63.5 12.3301 0
      vertex 68.5 12.3301 0
    endloop
  endfacet
  facet normal 0 -0 -1
    outer loop
      vertex 63.5 12.3301 0
      vertex 63.5 3.66987 0
      vertex 61 8 0
    endloop
  endfacet
  facet normal 0.866025 0.5 0
    outer loop
      vertex 71 8 5
      vertex 68.5 12.3301 0
      vertex 68.5 12.3301 5
    endloop
  endfacet
  facet normal 0.866025 0.5 0
    outer loop
      vertex 68.5 12.3301 0
      vertex 71 8 5
      vertex 71 8 0
    endloop
  endfacet
  facet normal 0 -1 0
    outer loop
      vertex 63.5 3.66987 0
      vertex 68.5 3.66987 5
      vertex 63.5 3.66987 5
    endloop
  endfacet
  facet normal 0 -1 -0
    outer loop
      vertex 68.5 3.66987 5
      vertex 63.5 3.66987 0
      vertex 68.5 3.66987 0
    endloop
  endfacet
  facet normal -0.866025 0.5 0
    outer loop
      vertex 61 8 0
      vertex 63.5 12.3301 5
      vertex 63.5 12.3301 0
    endloop
  endfacet
  facet normal -0.866025 0.5 0
    outer loop
      vertex 63.5 12.3301 5
      vertex 61 8 0
      vertex 61 8 5
    endloop
  endfacet
  facet normal 0 1 -0
    outer loop
      vertex 68.5 12.3301 0
      vertex 63.5 12.3301 5
      vertex 68.5 12.3301 5
    endloop
  endfacet
  facet normal 0 1 0
    outer loop
      vertex 63.5 12.3301 5
      vertex 68.5 12.3301 0
      vertex 63.5 12.3301 0
    endloop
  endfacet
  facet normal -0.866025 -0.5 0
    outer loop
      vertex 63.5 3.66987 0
      vertex 61 8 5
      vertex 61 8 0
    endloop
  endfacet
  facet normal -0.866025 -0.5 0
    outer loop
      vertex 61 8 5
      vertex 63.5 3.66987 0
      vertex 63.5 3.66987 5
    endloop
  endfacet
  facet normal 0 0 1
    outer loop
      vertex 68.5 12.3301 5
      vertex 68.5 3.66987 5
      vertex 71 8 5
    endloop
  endfacet
  facet normal -0 0 1
    outer loop
      vertex 63.5 12.3301 5
      vertex 68.5 3.66987 5
      vertex 68.5 12.3301 5
    endloop
  endfacet
  facet normal 0 0 1
    outer loop
      vertex 63.5 12.3301 5
      vertex 63.5 3.66987 5
      vertex 68.5 3.66987 5
    endloop
  endfacet
  facet normal 0 -0 1
    outer loop
      vertex 63.5 3.66987 5
      vertex 63.5 12.3301 5
      vertex 61 8 5
    endloop
  endfacet
  facet normal 0.866025 -0.5 0
    outer loop
      vertex 68.5 3.66987 5
      vertex 71 8 0
      vertex 71 8 5
    endloop
  endfacet
  facet normal 0.866025 -0.5 0
    outer loop
      vertex 71 8 0
      vertex 68.5 3.66987 5
      vertex 68.5 3.66987 0
    endloop
  endfacet
  facet normal 0 0 -1
    outer loop
      vertex 82.25 4.10289 0
      vertex 82.25 11.8971 0
      vertex 84.5 8 0
    endloop
  endfacet
  facet normal 0 0 -1
    outer loop
      vertex 77.75 4.10289 0
      vertex 82.25 11.8971 0
      vertex 82.25 4.10289 0
    endloop
  endfacet
  facet normal 0 0 -1
    outer loop
      vertex 77.75 4.10289 0
      vertex 77.75 11.8971 0
      vertex 82.25 11.8971 0
    endloop
  endfacet
  facet normal 0 -0 -1
    outer loop
      vertex 77.75 11.8971 0
      vertex 77.75 4.10289 0
      vertex 75.5 8 0
    endloop
  endfacet
  facet normal 0.866025 0.5 0
    outer loop
      vertex 84.5 8 5
      vertex 82.25 11.8971 0
      vertex 82.25 11.8971 5
    endloop
  endfacet
  facet normal 0.866025 0.5 0
    outer loop
      vertex 82.25 11.8971 0
      vertex 84.5 8 5
      vertex 84.5 8 0
    endloop
  endfacet
  facet normal 0 -1 0
    outer loop
      vertex 77.75 4.10289 0
      vertex 82.25 4.10289 5
      vertex 77.75 4.10289 5
    endloop
  endfacet
  facet normal 0 -1 -0
    outer loop
      vertex 82.25 4.10289 5
      vertex 77.75 4.10289 0
      vertex 82.25 4.10289 0
    endloop
  endfacet
  facet normal -0.866025 0.5 0
    outer loop
      vertex 75.5 8 0
      vertex 77.75 11.8971 5
      vertex 77.75 11.8971 0
    endloop
  endfacet
  facet normal -0.866025 0.5 0
    outer loop
      vertex 77.75 11.8971 5
      vertex 75.5 8 0
      vertex 75.5 8 5
    endloop
  endfacet
  facet normal 0 1 -0
    outer loop
      vertex 82.25 11.8971 0
      vertex 77.75 11.8971 5
      vertex 82.25 11.8971 5
    endloop
  endfacet
  facet normal 0 1 0
    outer loop
      vertex 77.75 11.8971 5
      vertex 82.25 11.8971 0
      vertex 77.75 11.8971 0
    endloop
  endfacet
  facet normal -0.866025 -0.5 0
    outer loop
      vertex 77.75 4.10289 0
      vertex 75.5 8 5
      vertex 75.5 8 0
    endloop
  endfacet
  facet normal -0.866025 -0.5 0
    outer loop
      vertex 75.5 8 5
      vertex 77.75 4.10289 0
      vertex 77.75 4.10289 5
    endloop
  endfacet
  facet normal 0 0 1
    outer loop
      vertex 82.25 11.8971 5
      vertex 82.25 4.10289 5
      vertex 84.5 8 5
    endloop
  endfacet
  facet normal -0 0 1
    outer loop
      vertex 77.75 11.8971 5
      vertex 82.25 4.10289 5
      vertex 82.25 11.8971 5
    endloop
  endfacet
  facet normal 0 0 1
    outer loop
      vertex 77.75 11.8971 5
      vertex 77.75 4.10289 5
      vertex 82.25 4.10289 5
    endloop
  endfacet
  facet normal 0 -0 1
    outer loop
      vertex 77.75 4.10289 5
      vertex 77.75 11.8971 5
      vertex 75.5 8 5
    endloop
  endfacet
  facet normal 0.866025 -0.5 0
    outer loop
      vertex 82.25 4.10289 5
      vertex 84.5 8 0
      vertex 84.5 8 5
    endloop
  endfacet
  facet normal 0.866025 -0.5 0
    outer loop
      vertex 84.5 8 0
      vertex 82.25 4.10289 5
      vertex 82.25 4.10289 0
    endloop
  endfacet
  facet normal 0 0 -1
    outer loop
      vertex 97 4.5359 0
      vertex 97 11.4641 0
      vertex 99 8 0
    endloop
  endfacet
  facet normal 0 0 -1
    outer loop
      vertex 93 4.5359 0
      vertex 97 11.4641 0
      vertex 97 4.5359 0
    endloop
  endfacet
  facet normal 0 0 -1
    outer loop
      vertex 93 4.5359 0
      vertex 93 11.4641 0
      vertex 97 11.4641 0
    endloop
  endfacet
  facet normal 0 -0 -1
    outer loop
      vertex 93 11.4641 0
      vertex 93 4.5359 0
      vertex 91 8 0
    endloop
  endfacet
  facet normal 0.866025 0.5 0
    outer loop
      vertex 99 8 5
      vertex 97 11.4641 0
      vertex 97 11.4641 5
    endloop
  endfacet
  facet normal 0.866025 0.5 0
    outer loop
      vertex 97 11.4641 0
      vertex 99 8 5
      vertex 99 8 0
    endloop
  endfacet
  facet normal 0 -1 0
    outer loop
      vertex 93 4.5359 0
      vertex 97 4.5359 5
      vertex 93 4.5359 5
    endloop
  endfacet
  facet normal 0 -1 -0
    outer loop
      vertex 97 4.5359 5
      vertex 93 4.5359 0
      vertex 97 4.5359 0
    endloop
  endfacet
  facet normal -0.866025 0.5 0
    outer loop
      vertex 91 8 0
      vertex 93 11.4641 5
      vertex 93 11.4641 0
    endloop
  endfacet
  facet normal -0.866025 0.5 0
    outer loop
      vertex 93 11.4641 5
      vertex 91 8 0
      vertex 91 8 5
    endloop
  endfacet
  facet normal 0 1 -0
    outer loop
      vertex 97 11.4641 0
      vertex 93 11.4641 5
      vertex 97 11.4641 5
    endloop
  endfacet
  facet normal 0 1 0
    outer loop
      vertex 93 11.4641 5
      vertex 97 11.4641 0
      vertex 93 11.4641 0
    endloop
  endfacet
  facet normal -0.866025 -0.5 0
    outer loop
      vertex 93 4.5359 0
      vertex 91 8 5
      vertex 91 8 0
    endloop
  endfacet
  facet normal -0.866025 -0.5 0
    outer loop
      vertex 91 8 5
      vertex 93 4.5359 0
      vertex 93 4.5359 5
    endloop
  endfacet
  facet normal 0.866025 -0.5 0
    outer loop
      vertex 97 4.5359 5
      vertex 99 8 0
      vertex 99 8 5
    endloop
  endfacet
  facet normal 0.866025 -0.5 0
    outer loop
      vertex 99 8 0
      vertex 97 4.5359 5
      vertex 97 4.5359 0
    endloop
  endfacet
  facet normal 0 0 1
    outer loop
      vertex 97 11.4641 5
      vertex 97 4.5359 5
      vertex 99 8 5
    endloop
  endfacet
  facet normal -0 0 1
    outer loop
      vertex 93 11.4641 5
      vertex 97 4.5359 5
      vertex 97 11.4641 5
    endloop
  endfacet
  facet normal 0 0 1
    outer loop
      vertex 93 11.4641 5
      vertex 93 4.5359 5
      vertex 97 4.5359 5
    endloop
  endfacet
  facet normal 0 -0 1
    outer loop
      vertex 93 4.5359 5
      vertex 93 11.4641 5
      vertex 91 8 5
    endloop
  endfacet
endsolid OpenSCAD_Model
