solid OpenSCAD_Model
  facet normal 0.866025 0.5 0
    outer loop
      vertex 19 8 5
      vertex 15.5 14.0622 0
      vertex 15.5 14.0622 5
    endloop
  endfacet
  facet normal 0.866025 0.5 0
    outer loop
      vertex 15.5 14.0622 0
      vertex 19 8 5
      vertex 19 8 0
    endloop
  endfacet
  facet normal 0 1 -0
    outer loop
      vertex 15.5 14.0622 0
      vertex 8.5 14.0622 5
      vertex 15.5 14.0622 5
    endloop
  endfacet
  facet normal 0 1 0
    outer loop
      vertex 8.5 14.0622 5
      vertex 15.5 14.0622 0
      vertex 8.5 14.0622 0
    endloop
  endfacet
  facet normal 0 -1 0
    outer loop
      vertex 8.5 1.93782 0
      vertex 15.5 1.93782 5
      vertex 8.5 1.93782 5
    endloop
  endfacet
  facet normal 0 -1 -0
    outer loop
      vertex 15.5 1.93782 5
      vertex 8.5 1.93782 0
      vertex 15.5 1.93782 0
    endloop
  endfacet
  facet normal 0 0 1
    outer loop
      vertex 15.5 14.0622 5
      vertex 15.5 1.93782 5
      vertex 19 8 5
    endloop
  endfacet
  facet normal -0 0 1
    outer loop
      vertex 8.5 14.0622 5
      vertex 15.5 1.93782 5
      vertex 15.5 14.0622 5
    endloop
  endfacet
  facet normal 0 0 1
    outer loop
      vertex 8.5 14.0622 5
      vertex 8.5 1.93782 5
      vertex 15.5 1.93782 5
    endloop
  endfacet
  facet normal 0 -0 1
    outer loop
      vertex 8.5 1.93782 5
      vertex 8.5 14.0622 5
      vertex 5 8 5
    endloop
  endfacet
  facet normal -0.866025 0.5 0
    outer loop
      vertex 5 8 0
      vertex 8.5 14.0622 5
      vertex 8.5 14.0622 0
    endloop
  endfacet
  facet normal -0.866025 0.5 0
    outer loop
      vertex 8.5 14.0622 5
      vertex 5 8 0
      vertex 5 8 5
    endloop
  endfacet
  facet normal 0 0 -1
    outer loop
      vertex 15.5 1.93782 0
      vertex 15.5 14.0622 0
      vertex 19 8 0
    endloop
  endfacet
  facet normal 0 0 -1
    outer loop
      vertex 15.5 1.93782 0
      vertex 8.5 14.0622 0
      vertex 15.5 14.0622 0
    endloop
  endfacet
  facet normal 0 0 -1
    outer loop
      vertex 8.5 1.93782 0
      vertex 8.5 14.0622 0
      vertex 15.5 1.93782 0
    endloop
  endfacet
  facet normal 0 0 -1
    outer loop
      vertex 8.5 14.0622 0
      vertex 8.5 1.93782 0
      vertex 5 8 0
    endloop
  endfacet
  facet normal 0.866025 -0.5 0
    outer loop
      vertex 15.5 1.93782 5
      vertex 19 8 0
      vertex 19 8 5
    endloop
  endfacet
  facet normal 0.866025 -0.5 0
    outer loop
      vertex 19 8 0
      vertex 15.5 1.93782 5
      vertex 15.5 1.93782 0
    endloop
  endfacet
  facet normal -0.866025 -0.5 0
    outer loop
      vertex 8.5 1.93782 0
      vertex 5 8 5
      vertex 5 8 0
    endloop
  endfacet
  facet normal -0.866025 -0.5 0
    outer loop
      vertex 5 8 5
      vertex 8.5 1.93782 0
      vertex 8.5 1.93782 5
    endloop
  endfacet
  facet normal 0.866025 0.5 0
    outer loop
      vertex 39.5 8 5
      vertex 36.25 13.6292 0
      vertex 36.25 13.6292 5
    endloop
  endfacet
  facet normal 0.866025 0.5 0
    outer loop
      vertex 36.25 13.6292 0
      vertex 39.5 8 5
      vertex 39.5 8 0
    endloop
  endfacet
  facet normal -0.866025 -0.5 0
    outer loop
      vertex 29.75 2.37083 0
      vertex 26.5 8 5
      vertex 26.5 8 0
    endloop
  endfacet
  facet normal -0.866025 -0.5 0
    outer loop
      vertex 26.5 8 5
      vertex 29.75 2.37083 0
      vertex 29.75 2.37083 5
    endloop
  endfacet
  facet normal 0 1 -0
    outer loop
      vertex 36.25 13.6292 0
      vertex 29.75 13.6292 5
      vertex 36.25 13.6292 5
    endloop
  endfacet
  facet normal 0 1 0
    outer loop
      vertex 29.75 13.6292 5
      vertex 36.25 13.6292 0
      vertex 29.75 13.6292 0
    endloop
  endfacet
  facet normal 0 -1 0
    outer loop
      vertex 29.75 2.37083 0
      vertex 36.25 2.37083 5
      vertex 29.75 2.37083 5
    endloop
  endfacet
  facet normal 0 -1 -0
    outer loop
      vertex 36.25 2.37083 5
      vertex 29.75 2.37083 0
      vertex 36.25 2.37083 0
    endloop
  endfacet
  facet normal 0 0 1
    outer loop
      vertex 36.25 13.6292 5
      vertex 36.25 2.37083 5
      vertex 39.5 8 5
    endloop
  endfacet
  facet normal -0 0 1
    outer loop
      vertex 29.75 13.6292 5
      vertex 36.25 2.37083 5
      vertex 36.25 13.6292 5
    endloop
  endfacet
  facet normal 0 0 1
    outer loop
      vertex 29.75 13.6292 5
      vertex 29.75 2.37083 5
      vertex 36.25 2.37083 5
    endloop
  endfacet
  facet normal 0 -0 1
    outer loop
      vertex 29.75 2.37083 5
      vertex 29.75 13.6292 5
      vertex 26.5 8 5
    endloop
  endfacet
  facet normal -0.866025 0.5 0
    outer loop
      vertex 26.5 8 0
      vertex 29.75 13.6292 5
      vertex 29.75 13.6292 0
    endloop
  endfacet
  facet normal -0.866025 0.5 0
    outer loop
      vertex 29.75 13.6292 5
      vertex 26.5 8 0
      vertex 26.5 8 5
    endloop
  endfacet
  facet normal 0 0 -1
    outer loop
      vertex 36.25 2.37083 0
      vertex 36.25 13.6292 0
      vertex 39.5 8 0
    endloop
  endfacet
  facet normal 0 0 -1
    outer loop
      vertex 29.75 2.37083 0
      vertex 36.25 13.6292 0
      vertex 36.25 2.37083 0
    endloop
  endfacet
  facet normal 0 0 -1
    outer loop
      vertex 29.75 2.37083 0
      vertex 29.75 13.6292 0
      vertex 36.25 13.6292 0
    endloop
  endfacet
  facet normal 0 -0 -1
    outer loop
      vertex 29.75 13.6292 0
      vertex 29.75 2.37083 0
      vertex 26.5 8 0
    endloop
  endfacet
  facet normal 0.866025 -0.5 0
    outer loop
      vertex 36.25 2.37083 5
      vertex 39.5 8 0
      vertex 39.5 8 5
    endloop
  endfacet
  facet normal 0.866025 -0.5 0
    outer loop
      vertex 39.5 8 0
      vertex 36.25 2.37083 5
      vertex 36.25 2.37083 0
    endloop
  endfacet
  facet normal 0 0 -1
    outer loop
      vertex 55.85 3.06365 0
      vertex 55.85 12.9363 0
      vertex 58.7 8 0
    endloop
  endfacet
  facet normal 0 0 -1
    outer loop
      vertex 50.15 3.06365 0
      vertex 55.85 12.9363 0
      vertex 55.85 3.06365 0
    endloop
  endfacet
  facet normal 0 0 -1
    outer loop
      vertex 50.15 3.06365 0
      vertex 50.15 12.9363 0
      vertex 55.85 12.9363 0
    endloop
  endfacet
  facet normal 0 -0 -1
    outer loop
      vertex 50.15 12.9363 0
      vertex 50.15 3.06365 0
      vertex 47.3 8 0
    endloop
  endfacet
  facet normal 0.866025 0.5 0
    outer loop
      vertex 58.7 8 5
      vertex 55.85 12.9363 0
      vertex 55.85 12.9363 5
    endloop
  endfacet
  facet normal 0.866025 0.5 0
    outer loop
      vertex 55.85 12.9363 0
      vertex 58.7 8 5
      vertex 58.7 8 0
    endloop
  endfacet
  facet normal -0.866025 0.5 0
    outer loop
      vertex 47.3 8 0
      vertex 50.15 12.9363 5
      vertex 50.15 12.9363 0
    endloop
  endfacet
  facet normal -0.866025 0.5 0
    outer loop
      vertex 50.15 12.9363 5
      vertex 47.3 8 0
      vertex 47.3 8 5
    endloop
  endfacet
  facet normal 0 1 -0
    outer loop
      vertex 55.85 12.9363 0
      vertex 50.15 12.9363 5
      vertex 55.85 12.9363 5
    endloop
  endfacet
  facet normal 0 1 0
    outer loop
      vertex 50.15 12.9363 5
      vertex 55.85 12.9363 0
      vertex 50.15 12.9363 0
    endloop
  endfacet
  facet normal -0.866025 -0.5 0
    outer loop
      vertex 50.15 3.06365 0
      vertex 47.3 8 5
      vertex 47.3 8 0
    endloop
  endfacet
  facet normal -0.866025 -0.5 0
    outer loop
      vertex 47.3 8 5
      vertex 50.15 3.06365 0
      vertex 50.15 3.06365 5
    endloop
  endfacet
  facet normal 0 0 1
    outer loop
      vertex 55.85 12.9363 5
      vertex 55.85 3.06365 5
      vertex 58.7 8 5
    endloop
  endfacet
  facet normal -0 0 1
    outer loop
      vertex 50.15 12.9363 5
      vertex 55.85 3.06365 5
      vertex 55.85 12.9363 5
    endloop
  endfacet
  facet normal 0 0 1
    outer loop
      vertex 50.15 12.9363 5
      vertex 50.15 3.06365 5
      vertex 55.85 3.06365 5
    endloop
  endfacet
  facet normal 0 -0 1
    outer loop
      vertex 50.15 3.06365 5
      vertex 50.15 12.9363 5
      vertex 47.3 8 5
    endloop
  endfacet
  facet normal 0.866025 -0.5 0
    outer loop
      vertex 55.85 3.06365 5
      vertex 58.7 8 0
      vertex 58.7 8 5
    endloop
  endfacet
  facet normal 0.866025 -0.5 0
    outer loop
      vertex 58.7 8 0
      vertex 55.85 3.06365 5
      vertex 55.85 3.06365 0
    endloop
  endfacet
  facet normal 0 -1 0
    outer loop
      vertex 50.15 3.06365 0
      vertex 55.85 3.06365 5
      vertex 50.15 3.06365 5
    endloop
  endfacet
  facet normal 0 -1 -0
    outer loop
      vertex 55.85 3.06365 5
      vertex 50.15 3.06365 0
      vertex 55.85 3.06365 0
    endloop
  endfacet
  facet normal 0 0 -1
    outer loop
      vertex 57.5 18.6699 0
      vertex 57.5 27.3301 0
      vertex 60 23 0
    endloop
  endfacet
  facet normal 0 0 -1
    outer loop
      vertex 52.5 18.6699 0
      vertex 57.5 27.3301 0
      vertex 57.5 18.6699 0
    endloop
  endfacet
  facet normal 0 0 -1
    outer loop
      vertex 52.5 18.6699 0
      vertex 52.5 27.3301 0
      vertex 57.5 27.3301 0
    endloop
  endfacet
  facet normal 0 -0 -1
    outer loop
      vertex 52.5 27.3301 0
      vertex 52.5 18.6699 0
      vertex 50 23 0
    endloop
  endfacet
  facet normal 0.866025 0.5 0
    outer loop
      vertex 60 23 5
      vertex 57.5 27.3301 0
      vertex 57.5 27.3301 5
    endloop
  endfacet
  facet normal 0.866025 0.5 0
    outer loop
      vertex 57.5 27.3301 0
      vertex 60 23 5
      vertex 60 23 0
    endloop
  endfacet
  facet normal 0 -1 0
    outer loop
      vertex 52.5 18.6699 0
      vertex 57.5 18.6699 5
      vertex 52.5 18.6699 5
    endloop
  endfacet
  facet normal 0 -1 -0
    outer loop
      vertex 57.5 18.6699 5
      vertex 52.5 18.6699 0
      vertex 57.5 18.6699 0
    endloop
  endfacet
  facet normal -0.866025 0.5 0
    outer loop
      vertex 50 23 0
      vertex 52.5 27.3301 5
      vertex 52.5 27.3301 0
    endloop
  endfacet
  facet normal -0.866025 0.5 0
    outer loop
      vertex 52.5 27.3301 5
      vertex 50 23 0
      vertex 50 23 5
    endloop
  endfacet
  facet normal 0 1 -0
    outer loop
      vertex 57.5 27.3301 0
      vertex 52.5 27.3301 5
      vertex 57.5 27.3301 5
    endloop
  endfacet
  facet normal 0 1 0
    outer loop
      vertex 52.5 27.3301 5
      vertex 57.5 27.3301 0
      vertex 52.5 27.3301 0
    endloop
  endfacet
  facet normal -0.866025 -0.5 0
    outer loop
      vertex 52.5 18.6699 0
      vertex 50 23 5
      vertex 50 23 0
    endloop
  endfacet
  facet normal -0.866025 -0.5 0
    outer loop
      vertex 50 23 5
      vertex 52.5 18.6699 0
      vertex 52.5 18.6699 5
    endloop
  endfacet
  facet normal 0 0 1
    outer loop
      vertex 57.5 27.3301 5
      vertex 57.5 18.6699 5
      vertex 60 23 5
    endloop
  endfacet
  facet normal -0 0 1
    outer loop
      vertex 52.5 27.3301 5
      vertex 57.5 18.6699 5
      vertex 57.5 27.3301 5
    endloop
  endfacet
  facet normal 0 0 1
    outer loop
      vertex 52.5 27.3301 5
      vertex 52.5 18.6699 5
      vertex 57.5 18.6699 5
    endloop
  endfacet
  facet normal 0 -0 1
    outer loop
      vertex 52.5 18.6699 5
      vertex 52.5 27.3301 5
      vertex 50 23 5
    endloop
  endfacet
  facet normal 0.866025 -0.5 0
    outer loop
      vertex 57.5 18.6699 5
      vertex 60 23 0
      vertex 60 23 5
    endloop
  endfacet
  facet normal 0.866025 -0.5 0
    outer loop
      vertex 60 23 0
      vertex 57.5 18.6699 5
      vertex 57.5 18.6699 0
    endloop
  endfacet
  facet normal 0 0 -1
    outer loop
      vertex 42 19.5359 0
      vertex 42 26.4641 0
      vertex 44 23 0
    endloop
  endfacet
  facet normal 0 0 -1
    outer loop
      vertex 38 19.5359 0
      vertex 42 26.4641 0
      vertex 42 19.5359 0
    endloop
  endfacet
  facet normal 0 0 -1
    outer loop
      vertex 38 19.5359 0
      vertex 38 26.4641 0
      vertex 42 26.4641 0
    endloop
  endfacet
  facet normal 0 -0 -1
    outer loop
      vertex 38 26.4641 0
      vertex 38 19.5359 0
      vertex 36 23 0
    endloop
  endfacet
  facet normal 0.866025 0.5 0
    outer loop
      vertex 44 23 5
      vertex 42 26.4641 0
      vertex 42 26.4641 5
    endloop
  endfacet
  facet normal 0.866025 0.5 0
    outer loop
      vertex 42 26.4641 0
      vertex 44 23 5
      vertex 44 23 0
    endloop
  endfacet
  facet normal 0 -1 0
    outer loop
      vertex 38 19.5359 0
      vertex 42 19.5359 5
      vertex 38 19.5359 5
    endloop
  endfacet
  facet normal 0 -1 -0
    outer loop
      vertex 42 19.5359 5
      vertex 38 19.5359 0
      vertex 42 19.5359 0
    endloop
  endfacet
  facet normal -0.866025 0.5 0
    outer loop
      vertex 36 23 0
      vertex 38 26.4641 5
      vertex 38 26.4641 0
    endloop
  endfacet
  facet normal -0.866025 0.5 0
    outer loop
      vertex 38 26.4641 5
      vertex 36 23 0
      vertex 36 23 5
    endloop
  endfacet
  facet normal 0 1 -0
    outer loop
      vertex 42 26.4641 0
      vertex 38 26.4641 5
      vertex 42 26.4641 5
    endloop
  endfacet
  facet normal 0 1 0
    outer loop
      vertex 38 26.4641 5
      vertex 42 26.4641 0
      vertex 38 26.4641 0
    endloop
  endfacet
  facet normal -0.866025 -0.5 0
    outer loop
      vertex 38 19.5359 0
      vertex 36 23 5
      vertex 36 23 0
    endloop
  endfacet
  facet normal -0.866025 -0.5 0
    outer loop
      vertex 36 23 5
      vertex 38 19.5359 0
      vertex 38 19.5359 5
    endloop
  endfacet
  facet normal 0.866025 -0.5 0
    outer loop
      vertex 42 19.5359 5
      vertex 44 23 0
      vertex 44 23 5
    endloop
  endfacet
  facet normal 0.866025 -0.5 0
    outer loop
      vertex 44 23 0
      vertex 42 19.5359 5
      vertex 42 19.5359 0
    endloop
  endfacet
  facet normal 0 0 1
    outer loop
      vertex 42 26.4641 5
      vertex 42 19.5359 5
      vertex 44 23 5
    endloop
  endfacet
  facet normal -0 0 1
    outer loop
      vertex 38 26.4641 5
      vertex 42 19.5359 5
      vertex 42 26.4641 5
    endloop
  endfacet
  facet normal 0 0 1
    outer loop
      vertex 38 26.4641 5
      vertex 38 19.5359 5
      vertex 42 19.5359 5
    endloop
  endfacet
  facet normal 0 -0 1
    outer loop
      vertex 38 19.5359 5
      vertex 38 26.4641 5
      vertex 36 23 5
    endloop
  endfacet
  facet normal 0 0 -1
    outer loop
      vertex 26.75 19.9689 0
      vertex 26.75 26.0311 0
      vertex 28.5 23 0
    endloop
  endfacet
  facet normal 0 0 -1
    outer loop
      vertex 23.25 19.9689 0
      vertex 26.75 26.0311 0
      vertex 26.75 19.9689 0
    endloop
  endfacet
  facet normal 0 0 -1
    outer loop
      vertex 23.25 19.9689 0
      vertex 23.25 26.0311 0
      vertex 26.75 26.0311 0
    endloop
  endfacet
  facet normal 0 -0 -1
    outer loop
      vertex 23.25 26.0311 0
      vertex 23.25 19.9689 0
      vertex 21.5 23 0
    endloop
  endfacet
  facet normal 0.866025 0.5 0
    outer loop
      vertex 28.5 23 5
      vertex 26.75 26.0311 0
      vertex 26.75 26.0311 5
    endloop
  endfacet
  facet normal 0.866025 0.5 0
    outer loop
      vertex 26.75 26.0311 0
      vertex 28.5 23 5
      vertex 28.5 23 0
    endloop
  endfacet
  facet normal 0 -1 0
    outer loop
      vertex 23.25 19.9689 0
      vertex 26.75 19.9689 5
      vertex 23.25 19.9689 5
    endloop
  endfacet
  facet normal 0 -1 -0
    outer loop
      vertex 26.75 19.9689 5
      vertex 23.25 19.9689 0
      vertex 26.75 19.9689 0
    endloop
  endfacet
  facet normal -0.866025 0.5 0
    outer loop
      vertex 21.5 23 0
      vertex 23.25 26.0311 5
      vertex 23.25 26.0311 0
    endloop
  endfacet
  facet normal -0.866025 0.5 0
    outer loop
      vertex 23.25 26.0311 5
      vertex 21.5 23 0
      vertex 21.5 23 5
    endloop
  endfacet
  facet normal 0 1 -0
    outer loop
      vertex 26.75 26.0311 0
      vertex 23.25 26.0311 5
      vertex 26.75 26.0311 5
    endloop
  endfacet
  facet normal 0 1 0
    outer loop
      vertex 23.25 26.0311 5
      vertex 26.75 26.0311 0
      vertex 23.25 26.0311 0
    endloop
  endfacet
  facet normal -0.866025 -0.5 0
    outer loop
      vertex 23.25 19.9689 0
      vertex 21.5 23 5
      vertex 21.5 23 0
    endloop
  endfacet
  facet normal -0.866025 -0.5 0
    outer loop
      vertex 21.5 23 5
      vertex 23.25 19.9689 0
      vertex 23.25 19.9689 5
    endloop
  endfacet
  facet normal 0.866025 -0.5 0
    outer loop
      vertex 26.75 19.9689 5
      vertex 28.5 23 0
      vertex 28.5 23 5
    endloop
  endfacet
  facet normal 0.866025 -0.5 0
    outer loop
      vertex 28.5 23 0
      vertex 26.75 19.9689 5
      vertex 26.75 19.9689 0
    endloop
  endfacet
  facet normal 0 0 1
    outer loop
      vertex 26.75 26.0311 5
      vertex 26.75 19.9689 5
      vertex 28.5 23 5
    endloop
  endfacet
  facet normal -0 0 1
    outer loop
      vertex 23.25 26.0311 5
      vertex 26.75 19.9689 5
      vertex 26.75 26.0311 5
    endloop
  endfacet
  facet normal 0 0 1
    outer loop
      vertex 23.25 26.0311 5
      vertex 23.25 19.9689 5
      vertex 26.75 19.9689 5
    endloop
  endfacet
  facet normal 0 -0 1
    outer loop
      vertex 23.25 19.9689 5
      vertex 23.25 26.0311 5
      vertex 21.5 23 5
    endloop
  endfacet
  facet normal 0.866025 0.5 0
    outer loop
      vertex 13 23 5
      vertex 11.5 25.5981 0
      vertex 11.5 25.5981 5
    endloop
  endfacet
  facet normal 0.866025 0.5 0
    outer loop
      vertex 11.5 25.5981 0
      vertex 13 23 5
      vertex 13 23 0
    endloop
  endfacet
  facet normal -0.866026 -0.5 0
    outer loop
      vertex 8.5 20.4019 0
      vertex 7 23 5
      vertex 7 23 0
    endloop
  endfacet
  facet normal -0.866026 -0.5 0
    outer loop
      vertex 7 23 5
      vertex 8.5 20.4019 0
      vertex 8.5 20.4019 5
    endloop
  endfacet
  facet normal 0 1 -0
    outer loop
      vertex 11.5 25.5981 0
      vertex 8.5 25.5981 5
      vertex 11.5 25.5981 5
    endloop
  endfacet
  facet normal 0 1 0
    outer loop
      vertex 8.5 25.5981 5
      vertex 11.5 25.5981 0
      vertex 8.5 25.5981 0
    endloop
  endfacet
  facet normal 0 -1 0
    outer loop
      vertex 8.5 20.4019 0
      vertex 11.5 20.4019 5
      vertex 8.5 20.4019 5
    endloop
  endfacet
  facet normal 0 -1 -0
    outer loop
      vertex 11.5 20.4019 5
      vertex 8.5 20.4019 0
      vertex 11.5 20.4019 0
    endloop
  endfacet
  facet normal 0 0 1
    outer loop
      vertex 11.5 25.5981 5
      vertex 11.5 20.4019 5
      vertex 13 23 5
    endloop
  endfacet
  facet normal -0 0 1
    outer loop
      vertex 8.5 25.5981 5
      vertex 11.5 20.4019 5
      vertex 11.5 25.5981 5
    endloop
  endfacet
  facet normal 0 0 1
    outer loop
      vertex 8.5 25.5981 5
      vertex 8.5 20.4019 5
      vertex 11.5 20.4019 5
    endloop
  endfacet
  facet normal 0 -0 1
    outer loop
      vertex 8.5 20.4019 5
      vertex 8.5 25.5981 5
      vertex 7 23 5
    endloop
  endfacet
  facet normal -0.866025 0.5 0
    outer loop
      vertex 7 23 0
      vertex 8.5 25.5981 5
      vertex 8.5 25.5981 0
    endloop
  endfacet
  facet normal -0.866025 0.5 0
    outer loop
      vertex 8.5 25.5981 5
      vertex 7 23 0
      vertex 7 23 5
    endloop
  endfacet
  facet normal 0 0 -1
    outer loop
      vertex 11.5 20.4019 0
      vertex 11.5 25.5981 0
      vertex 13 23 0
    endloop
  endfacet
  facet normal 0 0 -1
    outer loop
      vertex 11.5 20.4019 0
      vertex 8.5 25.5981 0
      vertex 11.5 25.5981 0
    endloop
  endfacet
  facet normal 0 0 -1
    outer loop
      vertex 8.5 20.4019 0
      vertex 8.5 25.5981 0
      vertex 11.5 20.4019 0
    endloop
  endfacet
  facet normal 0 0 -1
    outer loop
      vertex 8.5 25.5981 0
      vertex 8.5 20.4019 0
      vertex 7 23 0
    endloop
  endfacet
  facet normal 0.866025 -0.5 0
    outer loop
      vertex 11.5 20.4019 5
      vertex 13 23 0
      vertex 13 23 5
    endloop
  endfacet
  facet normal 0.866025 -0.5 0
    outer loop
      vertex 13 23 0
      vertex 11.5 20.4019 5
      vertex 11.5 20.4019 0
    endloop
  endfacet
endsolid OpenSCAD_Model
