solid REINCARNATE
facet normal 0.0000000000 0.0000000000 -0.5544004000
  outer loop
    vertex 6.4000000000 0.8069990000 0.0000000000
    vertex 6.4000000000 2.1930000000 0.0000000000
    vertex 6.8000000000 1.5000000000 0.0000000000
  endloop
endfacet
facet normal 0.0000000000 0.0000000000 -1.1088008000
  outer loop
    vertex 6.4000000000 2.1930000000 0.0000000000
    vertex 6.4000000000 0.8069990000 0.0000000000
    vertex 5.6000000000 0.8069990000 0.0000000000
  endloop
endfacet
facet normal 0.0000000000 0.0000000000 -1.1088008000
  outer loop
    vertex 5.6000000000 0.8069990000 0.0000000000
    vertex 5.6000000000 2.1930000000 0.0000000000
    vertex 6.4000000000 2.1930000000 0.0000000000
  endloop
endfacet
facet normal 0.0000000000 0.0000000000 -0.5544004000
  outer loop
    vertex 5.6000000000 2.1930000000 0.0000000000
    vertex 5.6000000000 0.8069990000 0.0000000000
    vertex 5.2000000000 1.5000000000 0.0000000000
  endloop
endfacet
facet normal 0.0000000000 0.0000000000 -0.8660000000
  outer loop
    vertex 2.5000000000 0.6340000000 0.0000000000
    vertex 2.5000000000 2.3660000000 0.0000000000
    vertex 3.0000000000 1.5000000000 0.0000000000
  endloop
endfacet
facet normal 0.0000000000 0.0000000000 -1.7320000000
  outer loop
    vertex 2.5000000000 2.3660000000 0.0000000000
    vertex 2.5000000000 0.6340000000 0.0000000000
    vertex 1.5000000000 0.6340000000 0.0000000000
  endloop
endfacet
facet normal 0.0000000000 0.0000000000 -1.7320000000
  outer loop
    vertex 1.5000000000 0.6340000000 0.0000000000
    vertex 1.5000000000 2.3660000000 0.0000000000
    vertex 2.5000000000 2.3660000000 0.0000000000
  endloop
endfacet
facet normal 0.0000000000 0.0000000000 -0.8660000000
  outer loop
    vertex 1.5000000000 2.3660000000 0.0000000000
    vertex 1.5000000000 0.6340000000 0.0000000000
    vertex 1.0000000000 1.5000000000 0.0000000000
  endloop
endfacet
facet normal 0.0000000000 0.0000000000 -0.2165000000
  outer loop
    vertex 9.7500000000 1.0670000000 0.0000000000
    vertex 9.7500000000 1.9330000000 0.0000000000
    vertex 10.0000000000 1.5000000000 0.0000000000
  endloop
endfacet
facet normal 0.0000000000 0.0000000000 -0.4330000000
  outer loop
    vertex 9.7500000000 1.9330000000 0.0000000000
    vertex 9.7500000000 1.0670000000 0.0000000000
    vertex 9.2500000000 1.0670000000 0.0000000000
  endloop
endfacet
facet normal 0.0000000000 0.0000000000 -0.4330000000
  outer loop
    vertex 9.2500000000 1.0670000000 0.0000000000
    vertex 9.2500000000 1.9330000000 0.0000000000
    vertex 9.7500000000 1.9330000000 0.0000000000
  endloop
endfacet
facet normal 0.0000000000 0.0000000000 -0.2165000000
  outer loop
    vertex 9.2500000000 1.9330000000 0.0000000000
    vertex 9.2500000000 1.0670000000 0.0000000000
    vertex 9.0000000000 1.5000000000 0.0000000000
  endloop
endfacet
facet normal 0.0000000000 0.0000000000 0.5544004000
  outer loop
    vertex 6.8000000000 1.5000000000 0.5000000000
    vertex 6.4000000000 2.1930000000 0.5000000000
    vertex 6.4000000000 0.8069990000 0.5000000000
  endloop
endfacet
facet normal -0.0000000000 0.0000000000 1.1088008000
  outer loop
    vertex 5.6000000000 2.1930000000 0.5000000000
    vertex 6.4000000000 0.8069990000 0.5000000000
    vertex 6.4000000000 2.1930000000 0.5000000000
  endloop
endfacet
facet normal 0.0000000000 0.0000000000 1.1088008000
  outer loop
    vertex 6.4000000000 0.8069990000 0.5000000000
    vertex 5.6000000000 2.1930000000 0.5000000000
    vertex 5.6000000000 0.8069990000 0.5000000000
  endloop
endfacet
facet normal -0.0000000000 0.0000000000 0.5544004000
  outer loop
    vertex 5.2000000000 1.5000000000 0.5000000000
    vertex 5.6000000000 0.8069990000 0.5000000000
    vertex 5.6000000000 2.1930000000 0.5000000000
  endloop
endfacet
facet normal 0.0000000000 0.0000000000 0.8660000000
  outer loop
    vertex 3.0000000000 1.5000000000 0.5000000000
    vertex 2.5000000000 2.3660000000 0.5000000000
    vertex 2.5000000000 0.6340000000 0.5000000000
  endloop
endfacet
facet normal -0.0000000000 0.0000000000 1.7320000000
  outer loop
    vertex 1.5000000000 2.3660000000 0.5000000000
    vertex 2.5000000000 0.6340000000 0.5000000000
    vertex 2.5000000000 2.3660000000 0.5000000000
  endloop
endfacet
facet normal 0.0000000000 0.0000000000 1.7320000000
  outer loop
    vertex 2.5000000000 0.6340000000 0.5000000000
    vertex 1.5000000000 2.3660000000 0.5000000000
    vertex 1.5000000000 0.6340000000 0.5000000000
  endloop
endfacet
facet normal -0.0000000000 0.0000000000 0.8660000000
  outer loop
    vertex 1.0000000000 1.5000000000 0.5000000000
    vertex 1.5000000000 0.6340000000 0.5000000000
    vertex 1.5000000000 2.3660000000 0.5000000000
  endloop
endfacet
facet normal 0.0000000000 0.0000000000 0.2165000000
  outer loop
    vertex 10.0000000000 1.5000000000 0.5000000000
    vertex 9.7500000000 1.9330000000 0.5000000000
    vertex 9.7500000000 1.0670000000 0.5000000000
  endloop
endfacet
facet normal -0.0000000000 0.0000000000 0.4330000000
  outer loop
    vertex 9.2500000000 1.9330000000 0.5000000000
    vertex 9.7500000000 1.0670000000 0.5000000000
    vertex 9.7500000000 1.9330000000 0.5000000000
  endloop
endfacet
facet normal 0.0000000000 0.0000000000 0.4330000000
  outer loop
    vertex 9.7500000000 1.0670000000 0.5000000000
    vertex 9.2500000000 1.9330000000 0.5000000000
    vertex 9.2500000000 1.0670000000 0.5000000000
  endloop
endfacet
facet normal -0.0000000000 0.0000000000 0.2165000000
  outer loop
    vertex 9.0000000000 1.5000000000 0.5000000000
    vertex 9.2500000000 1.0670000000 0.5000000000
    vertex 9.2500000000 1.9330000000 0.5000000000
  endloop
endfacet
facet normal -0.3465000000 0.2000000000 0.0000000000
  outer loop
    vertex 5.6000000000 2.1930000000 0.5000000000
    vertex 5.6000000000 2.1930000000 0.0000000000
    vertex 5.2000000000 1.5000000000 0.0000000000
  endloop
endfacet
facet normal -0.3465000000 0.2000000000 0.0000000000
  outer loop
    vertex 5.2000000000 1.5000000000 0.0000000000
    vertex 5.2000000000 1.5000000000 0.5000000000
    vertex 5.6000000000 2.1930000000 0.5000000000
  endloop
endfacet
facet normal -0.0000000000 0.5000000000 0.0000000000
  outer loop
    vertex 2.5000000000 2.3660000000 0.5000000000
    vertex 2.5000000000 2.3660000000 0.0000000000
    vertex 1.5000000000 2.3660000000 0.5000000000
  endloop
endfacet
facet normal 0.0000000000 0.5000000000 0.0000000000
  outer loop
    vertex 1.5000000000 2.3660000000 0.0000000000
    vertex 1.5000000000 2.3660000000 0.5000000000
    vertex 2.5000000000 2.3660000000 0.0000000000
  endloop
endfacet
facet normal 0.4330000000 0.2500000000 -0.0000000000
  outer loop
    vertex 2.5000000000 2.3660000000 0.0000000000
    vertex 2.5000000000 2.3660000000 0.5000000000
    vertex 3.0000000000 1.5000000000 0.5000000000
  endloop
endfacet
facet normal 0.4330000000 0.2500000000 0.0000000000
  outer loop
    vertex 3.0000000000 1.5000000000 0.5000000000
    vertex 3.0000000000 1.5000000000 0.0000000000
    vertex 2.5000000000 2.3660000000 0.0000000000
  endloop
endfacet
facet normal -0.4330000000 0.2500000000 0.0000000000
  outer loop
    vertex 1.5000000000 2.3660000000 0.5000000000
    vertex 1.5000000000 2.3660000000 0.0000000000
    vertex 1.0000000000 1.5000000000 0.0000000000
  endloop
endfacet
facet normal -0.4330000000 0.2500000000 0.0000000000
  outer loop
    vertex 1.0000000000 1.5000000000 0.0000000000
    vertex 1.0000000000 1.5000000000 0.5000000000
    vertex 1.5000000000 2.3660000000 0.5000000000
  endloop
endfacet
facet normal -0.4330000000 -0.2500000000 0.0000000000
  outer loop
    vertex 1.5000000000 0.6340000000 0.0000000000
    vertex 1.0000000000 1.5000000000 0.5000000000
    vertex 1.0000000000 1.5000000000 0.0000000000
  endloop
endfacet
facet normal -0.4330000000 -0.2500000000 0.0000000000
  outer loop
    vertex 1.0000000000 1.5000000000 0.5000000000
    vertex 1.5000000000 0.6340000000 0.0000000000
    vertex 1.5000000000 0.6340000000 0.5000000000
  endloop
endfacet
facet normal -0.3465005000 -0.2000000000 0.0000000000
  outer loop
    vertex 5.6000000000 0.8069990000 0.0000000000
    vertex 5.2000000000 1.5000000000 0.5000000000
    vertex 5.2000000000 1.5000000000 0.0000000000
  endloop
endfacet
facet normal -0.3465005000 -0.2000000000 0.0000000000
  outer loop
    vertex 5.2000000000 1.5000000000 0.5000000000
    vertex 5.6000000000 0.8069990000 0.0000000000
    vertex 5.6000000000 0.8069990000 0.5000000000
  endloop
endfacet
facet normal 0.4330000000 -0.2500000000 0.0000000000
  outer loop
    vertex 2.5000000000 0.6340000000 0.5000000000
    vertex 3.0000000000 1.5000000000 0.0000000000
    vertex 3.0000000000 1.5000000000 0.5000000000
  endloop
endfacet
facet normal 0.4330000000 -0.2500000000 0.0000000000
  outer loop
    vertex 3.0000000000 1.5000000000 0.0000000000
    vertex 2.5000000000 0.6340000000 0.5000000000
    vertex 2.5000000000 0.6340000000 0.0000000000
  endloop
endfacet
facet normal 0.3465005000 -0.2000000000 0.0000000000
  outer loop
    vertex 6.4000000000 0.8069990000 0.5000000000
    vertex 6.8000000000 1.5000000000 0.0000000000
    vertex 6.8000000000 1.5000000000 0.5000000000
  endloop
endfacet
facet normal 0.3465005000 -0.2000000000 0.0000000000
  outer loop
    vertex 6.8000000000 1.5000000000 0.0000000000
    vertex 6.4000000000 0.8069990000 0.5000000000
    vertex 6.4000000000 0.8069990000 0.0000000000
  endloop
endfacet
facet normal -0.2165000000 0.1250000000 0.0000000000
  outer loop
    vertex 9.2500000000 1.9330000000 0.5000000000
    vertex 9.2500000000 1.9330000000 0.0000000000
    vertex 9.0000000000 1.5000000000 0.0000000000
  endloop
endfacet
facet normal -0.2165000000 0.1250000000 0.0000000000
  outer loop
    vertex 9.0000000000 1.5000000000 0.0000000000
    vertex 9.0000000000 1.5000000000 0.5000000000
    vertex 9.2500000000 1.9330000000 0.5000000000
  endloop
endfacet
facet normal 0.0000000000 -0.5000000000 0.0000000000
  outer loop
    vertex 2.5000000000 0.6340000000 0.5000000000
    vertex 1.5000000000 0.6340000000 0.5000000000
    vertex 1.5000000000 0.6340000000 0.0000000000
  endloop
endfacet
facet normal 0.0000000000 -0.5000000000 0.0000000000
  outer loop
    vertex 1.5000000000 0.6340000000 0.0000000000
    vertex 2.5000000000 0.6340000000 0.0000000000
    vertex 2.5000000000 0.6340000000 0.5000000000
  endloop
endfacet
facet normal -0.0000000000 0.4000000000 0.0000000000
  outer loop
    vertex 6.4000000000 2.1930000000 0.5000000000
    vertex 6.4000000000 2.1930000000 0.0000000000
    vertex 5.6000000000 2.1930000000 0.5000000000
  endloop
endfacet
facet normal 0.0000000000 0.4000000000 0.0000000000
  outer loop
    vertex 5.6000000000 2.1930000000 0.0000000000
    vertex 5.6000000000 2.1930000000 0.5000000000
    vertex 6.4000000000 2.1930000000 0.0000000000
  endloop
endfacet
facet normal 0.3465000000 0.2000000000 -0.0000000000
  outer loop
    vertex 6.4000000000 2.1930000000 0.0000000000
    vertex 6.4000000000 2.1930000000 0.5000000000
    vertex 6.8000000000 1.5000000000 0.5000000000
  endloop
endfacet
facet normal 0.3465000000 0.2000000000 0.0000000000
  outer loop
    vertex 6.8000000000 1.5000000000 0.5000000000
    vertex 6.8000000000 1.5000000000 0.0000000000
    vertex 6.4000000000 2.1930000000 0.0000000000
  endloop
endfacet
facet normal -0.2165000000 -0.1250000000 0.0000000000
  outer loop
    vertex 9.2500000000 1.0670000000 0.0000000000
    vertex 9.0000000000 1.5000000000 0.5000000000
    vertex 9.0000000000 1.5000000000 0.0000000000
  endloop
endfacet
facet normal -0.2165000000 -0.1250000000 0.0000000000
  outer loop
    vertex 9.0000000000 1.5000000000 0.5000000000
    vertex 9.2500000000 1.0670000000 0.0000000000
    vertex 9.2500000000 1.0670000000 0.5000000000
  endloop
endfacet
facet normal 0.0000000000 -0.4000000000 0.0000000000
  outer loop
    vertex 6.4000000000 0.8069990000 0.5000000000
    vertex 5.6000000000 0.8069990000 0.5000000000
    vertex 5.6000000000 0.8069990000 0.0000000000
  endloop
endfacet
facet normal 0.0000000000 -0.4000000000 0.0000000000
  outer loop
    vertex 5.6000000000 0.8069990000 0.0000000000
    vertex 6.4000000000 0.8069990000 0.0000000000
    vertex 6.4000000000 0.8069990000 0.5000000000
  endloop
endfacet
facet normal -0.0000000000 0.2500000000 0.0000000000
  outer loop
    vertex 9.7500000000 1.9330000000 0.5000000000
    vertex 9.7500000000 1.9330000000 0.0000000000
    vertex 9.2500000000 1.9330000000 0.5000000000
  endloop
endfacet
facet normal 0.0000000000 0.2500000000 0.0000000000
  outer loop
    vertex 9.2500000000 1.9330000000 0.0000000000
    vertex 9.2500000000 1.9330000000 0.5000000000
    vertex 9.7500000000 1.9330000000 0.0000000000
  endloop
endfacet
facet normal 0.0000000000 -0.2500000000 0.0000000000
  outer loop
    vertex 9.7500000000 1.0670000000 0.5000000000
    vertex 9.2500000000 1.0670000000 0.5000000000
    vertex 9.2500000000 1.0670000000 0.0000000000
  endloop
endfacet
facet normal 0.0000000000 -0.2500000000 0.0000000000
  outer loop
    vertex 9.2500000000 1.0670000000 0.0000000000
    vertex 9.7500000000 1.0670000000 0.0000000000
    vertex 9.7500000000 1.0670000000 0.5000000000
  endloop
endfacet
facet normal 0.2165000000 -0.1250000000 0.0000000000
  outer loop
    vertex 9.7500000000 1.0670000000 0.5000000000
    vertex 10.0000000000 1.5000000000 0.0000000000
    vertex 10.0000000000 1.5000000000 0.5000000000
  endloop
endfacet
facet normal 0.2165000000 -0.1250000000 0.0000000000
  outer loop
    vertex 10.0000000000 1.5000000000 0.0000000000
    vertex 9.7500000000 1.0670000000 0.5000000000
    vertex 9.7500000000 1.0670000000 0.0000000000
  endloop
endfacet
facet normal 0.2165000000 0.1250000000 -0.0000000000
  outer loop
    vertex 9.7500000000 1.9330000000 0.0000000000
    vertex 9.7500000000 1.9330000000 0.5000000000
    vertex 10.0000000000 1.5000000000 0.5000000000
  endloop
endfacet
facet normal 0.2165000000 0.1250000000 0.0000000000
  outer loop
    vertex 10.0000000000 1.5000000000 0.5000000000
    vertex 10.0000000000 1.5000000000 0.0000000000
    vertex 9.7500000000 1.9330000000 0.0000000000
  endloop
endfacet
endsolid REINCARNATE