solid REINCARNATE
facet normal -0.8660253028 -0.5000001748 0.0000000000
  outer loop
    vertex 1.0000000000 0.0000000000 1.0000000000
    vertex 0.5000000000 0.8660250000 1.0000000000
    vertex 0.5000000000 0.8660250000 0.0000000000
  endloop
endfacet
facet normal -0.8660253028 -0.5000001748 0.0000000000
  outer loop
    vertex 0.5000000000 0.8660250000 0.0000000000
    vertex 1.0000000000 0.0000000000 0.0000000000
    vertex 1.0000000000 0.0000000000 1.0000000000
  endloop
endfacet
facet normal 0.8660248698 -0.5000009248 0.0000000000
  outer loop
    vertex -1.0000000000 0.0000000000 0.0000000000
    vertex -0.4999990000 0.8660250000 0.0000000000
    vertex -0.4999990000 0.8660250000 1.0000000000
  endloop
endfacet
facet normal 0.8660248698 -0.5000009248 0.0000000000
  outer loop
    vertex -0.4999990000 0.8660250000 1.0000000000
    vertex -1.0000000000 0.0000000000 1.0000000000
    vertex -1.0000000000 0.0000000000 0.0000000000
  endloop
endfacet
facet normal 0.0000000000 -1.0000000000 0.0000000000
  outer loop
    vertex -0.4999990000 0.8660250000 1.0000000000
    vertex 0.5000000000 0.8660250000 0.0000000000
    vertex 0.5000000000 0.8660250000 1.0000000000
  endloop
endfacet
facet normal 0.0000000000 -1.0000000000 0.0000000000
  outer loop
    vertex 0.5000000000 0.8660250000 0.0000000000
    vertex -0.4999990000 0.8660250000 1.0000000000
    vertex -0.4999990000 0.8660250000 0.0000000000
  endloop
endfacet
facet normal 0.0000000000 0.0000000000 -1.0000000000
  outer loop
    vertex 1.0000000000 0.0000000000 1.0000000000
    vertex 0.5000000000 0.0000000000 1.0000000000
    vertex 0.4960570000 0.0626659000 1.0000000000
  endloop
endfacet
facet normal 0.0000000000 0.0000000000 -1.0000000000
  outer loop
    vertex 1.0000000000 0.0000000000 1.0000000000
    vertex 0.4960570000 0.0626659000 1.0000000000
    vertex 0.4842910000 0.1243450000 1.0000000000
  endloop
endfacet
facet normal 0.0000000000 0.0000000000 -1.0000000000
  outer loop
    vertex 1.0000000000 0.0000000000 1.0000000000
    vertex 0.4842910000 0.1243450000 1.0000000000
    vertex 0.4648880000 0.1840620000 1.0000000000
  endloop
endfacet
facet normal 0.0000000000 0.0000000000 -1.0000000000
  outer loop
    vertex 1.0000000000 0.0000000000 1.0000000000
    vertex 0.4648880000 0.1840620000 1.0000000000
    vertex 0.4381530000 0.2408760000 1.0000000000
  endloop
endfacet
facet normal 0.0000000000 0.0000000000 -1.0000000000
  outer loop
    vertex 0.5000000000 0.8660250000 1.0000000000
    vertex 0.4381530000 0.2408760000 1.0000000000
    vertex 0.4045080000 0.2938920000 1.0000000000
  endloop
endfacet
facet normal 0.0000000000 0.0000000000 -1.0000000000
  outer loop
    vertex 0.5000000000 0.8660250000 1.0000000000
    vertex 0.4045080000 0.2938920000 1.0000000000
    vertex 0.3644840000 0.3422730000 1.0000000000
  endloop
endfacet
facet normal 0.0000000000 0.0000000000 -1.0000000000
  outer loop
    vertex 0.5000000000 0.8660250000 1.0000000000
    vertex 0.3644840000 0.3422730000 1.0000000000
    vertex 0.3187110000 0.3852560000 1.0000000000
  endloop
endfacet
facet normal 0.0000000000 0.0000000000 -1.0000000000
  outer loop
    vertex 0.5000000000 0.8660250000 1.0000000000
    vertex 0.3187110000 0.3852560000 1.0000000000
    vertex 0.2679130000 0.4221630000 1.0000000000
  endloop
endfacet
facet normal 0.0000000000 0.0000000000 -1.0000000000
  outer loop
    vertex 0.5000000000 0.8660250000 1.0000000000
    vertex 0.2679130000 0.4221630000 1.0000000000
    vertex 0.2128890000 0.4524130000 1.0000000000
  endloop
endfacet
facet normal 0.0000000000 0.0000000000 -1.0000000000
  outer loop
    vertex 0.5000000000 0.8660250000 1.0000000000
    vertex 0.2128890000 0.4524130000 1.0000000000
    vertex 0.1545080000 0.4755280000 1.0000000000
  endloop
endfacet
facet normal 0.0000000000 0.0000000000 -1.0000000000
  outer loop
    vertex 0.5000000000 0.8660250000 1.0000000000
    vertex 0.1545080000 0.4755280000 1.0000000000
    vertex 0.0936899000 0.4911430000 1.0000000000
  endloop
endfacet
facet normal 0.0000000000 0.0000000000 -1.0000000000
  outer loop
    vertex 0.5000000000 0.8660250000 1.0000000000
    vertex 0.0936899000 0.4911430000 1.0000000000
    vertex 0.0313950000 0.4990130000 1.0000000000
  endloop
endfacet
facet normal 0.0000000000 0.0000000000 -1.0000000000
  outer loop
    vertex 0.5000000000 0.8660250000 1.0000000000
    vertex 0.0313950000 0.4990130000 1.0000000000
    vertex -0.0313950000 0.4990130000 1.0000000000
  endloop
endfacet
facet normal 0.0000000000 0.0000000000 -1.0000000000
  outer loop
    vertex 0.5000000000 0.8660250000 1.0000000000
    vertex -0.0313950000 0.4990130000 1.0000000000
    vertex -0.4999990000 0.8660250000 1.0000000000
  endloop
endfacet
facet normal 0.0000000000 0.0000000000 -1.0000000000
  outer loop
    vertex -0.0313950000 0.4990130000 1.0000000000
    vertex -0.0936899000 0.4911430000 1.0000000000
    vertex -0.4999990000 0.8660250000 1.0000000000
  endloop
endfacet
facet normal 0.0000000000 0.0000000000 -1.0000000000
  outer loop
    vertex -0.0936899000 0.4911430000 1.0000000000
    vertex -0.1545080000 0.4755280000 1.0000000000
    vertex -0.4999990000 0.8660250000 1.0000000000
  endloop
endfacet
facet normal 0.0000000000 0.0000000000 -1.0000000000
  outer loop
    vertex -0.1545080000 0.4755280000 1.0000000000
    vertex -0.2128890000 0.4524130000 1.0000000000
    vertex -0.4999990000 0.8660250000 1.0000000000
  endloop
endfacet
facet normal 0.0000000000 0.0000000000 -1.0000000000
  outer loop
    vertex -0.2128890000 0.4524130000 1.0000000000
    vertex -0.2679130000 0.4221630000 1.0000000000
    vertex -0.4999990000 0.8660250000 1.0000000000
  endloop
endfacet
facet normal 0.0000000000 0.0000000000 -1.0000000000
  outer loop
    vertex -0.2679130000 0.4221630000 1.0000000000
    vertex -0.3187110000 0.3852560000 1.0000000000
    vertex -0.4999990000 0.8660250000 1.0000000000
  endloop
endfacet
facet normal 0.0000000000 0.0000000000 -1.0000000000
  outer loop
    vertex -0.3187110000 0.3852560000 1.0000000000
    vertex -0.3644840000 0.3422730000 1.0000000000
    vertex -0.4999990000 0.8660250000 1.0000000000
  endloop
endfacet
facet normal 0.0000000000 0.0000000000 -1.0000000000
  outer loop
    vertex -0.3644840000 0.3422730000 1.0000000000
    vertex -0.4045080000 0.2938920000 1.0000000000
    vertex -0.4999990000 0.8660250000 1.0000000000
  endloop
endfacet
facet normal 0.0000000000 0.0000000000 -1.0000000000
  outer loop
    vertex -0.4045080000 0.2938920000 1.0000000000
    vertex -0.4381530000 0.2408760000 1.0000000000
    vertex -0.4999990000 0.8660250000 1.0000000000
  endloop
endfacet
facet normal 0.0000000000 0.0000000000 -1.0000000000
  outer loop
    vertex -1.0000000000 0.0000000000 1.0000000000
    vertex -0.4999990000 0.8660250000 1.0000000000
    vertex -0.4381530000 0.2408760000 1.0000000000
  endloop
endfacet
facet normal 0.0000000000 0.0000000000 -1.0000000000
  outer loop
    vertex -0.4381530000 0.2408760000 1.0000000000
    vertex -0.4648880000 0.1840620000 1.0000000000
    vertex -1.0000000000 0.0000000000 1.0000000000
  endloop
endfacet
facet normal 0.0000000000 0.0000000000 -1.0000000000
  outer loop
    vertex -0.4648880000 0.1840620000 1.0000000000
    vertex -0.4842910000 0.1243450000 1.0000000000
    vertex -1.0000000000 0.0000000000 1.0000000000
  endloop
endfacet
facet normal 0.0000000000 0.0000000000 -1.0000000000
  outer loop
    vertex -0.4842910000 0.1243450000 1.0000000000
    vertex -0.4960570000 0.0626659000 1.0000000000
    vertex -1.0000000000 0.0000000000 1.0000000000
  endloop
endfacet
facet normal 0.0000000000 0.0000000000 -1.0000000000
  outer loop
    vertex -0.4381530000 -0.2408760000 1.0000000000
    vertex -0.5000000000 -0.8660250000 1.0000000000
    vertex -1.0000000000 0.0000000000 1.0000000000
  endloop
endfacet
facet normal 0.0000000000 0.0000000000 -1.0000000000
  outer loop
    vertex -0.4960570000 0.0626659000 1.0000000000
    vertex -0.5000000000 0.0000000000 1.0000000000
    vertex -1.0000000000 0.0000000000 1.0000000000
  endloop
endfacet
facet normal 0.0000000000 0.0000000000 -1.0000000000
  outer loop
    vertex 0.4381530000 0.2408760000 1.0000000000
    vertex 0.5000000000 0.8660250000 1.0000000000
    vertex 1.0000000000 0.0000000000 1.0000000000
  endloop
endfacet
facet normal 0.0000000000 0.0000000000 -1.0000000000
  outer loop
    vertex 0.4960570000 -0.0626659000 1.0000000000
    vertex 0.5000000000 0.0000000000 1.0000000000
    vertex 1.0000000000 0.0000000000 1.0000000000
  endloop
endfacet
facet normal 0.0000000000 0.0000000000 -1.0000000000
  outer loop
    vertex 0.4842910000 -0.1243450000 1.0000000000
    vertex 0.4960570000 -0.0626659000 1.0000000000
    vertex 1.0000000000 0.0000000000 1.0000000000
  endloop
endfacet
facet normal 0.0000000000 0.0000000000 -1.0000000000
  outer loop
    vertex 0.4648880000 -0.1840620000 1.0000000000
    vertex 0.4842910000 -0.1243450000 1.0000000000
    vertex 1.0000000000 0.0000000000 1.0000000000
  endloop
endfacet
facet normal 0.0000000000 0.0000000000 -1.0000000000
  outer loop
    vertex 0.4381530000 -0.2408760000 1.0000000000
    vertex 0.4648880000 -0.1840620000 1.0000000000
    vertex 1.0000000000 0.0000000000 1.0000000000
  endloop
endfacet
facet normal 0.0000000000 0.0000000000 -1.0000000000
  outer loop
    vertex 1.0000000000 0.0000000000 1.0000000000
    vertex 0.5000000000 -0.8660250000 1.0000000000
    vertex 0.4381530000 -0.2408760000 1.0000000000
  endloop
endfacet
facet normal 0.0000000000 0.0000000000 -1.0000000000
  outer loop
    vertex 0.4045080000 -0.2938920000 1.0000000000
    vertex 0.4381530000 -0.2408760000 1.0000000000
    vertex 0.5000000000 -0.8660250000 1.0000000000
  endloop
endfacet
facet normal 0.0000000000 0.0000000000 -1.0000000000
  outer loop
    vertex 0.3644840000 -0.3422730000 1.0000000000
    vertex 0.4045080000 -0.2938920000 1.0000000000
    vertex 0.5000000000 -0.8660250000 1.0000000000
  endloop
endfacet
facet normal 0.0000000000 0.0000000000 -1.0000000000
  outer loop
    vertex 0.3187110000 -0.3852560000 1.0000000000
    vertex 0.3644840000 -0.3422730000 1.0000000000
    vertex 0.5000000000 -0.8660250000 1.0000000000
  endloop
endfacet
facet normal 0.0000000000 0.0000000000 -1.0000000000
  outer loop
    vertex 0.2679130000 -0.4221630000 1.0000000000
    vertex 0.3187110000 -0.3852560000 1.0000000000
    vertex 0.5000000000 -0.8660250000 1.0000000000
  endloop
endfacet
facet normal 0.0000000000 0.0000000000 -1.0000000000
  outer loop
    vertex 0.2128890000 -0.4524130000 1.0000000000
    vertex 0.2679130000 -0.4221630000 1.0000000000
    vertex 0.5000000000 -0.8660250000 1.0000000000
  endloop
endfacet
facet normal 0.0000000000 0.0000000000 -1.0000000000
  outer loop
    vertex 0.1545080000 -0.4755280000 1.0000000000
    vertex 0.2128890000 -0.4524130000 1.0000000000
    vertex 0.5000000000 -0.8660250000 1.0000000000
  endloop
endfacet
facet normal 0.0000000000 0.0000000000 -1.0000000000
  outer loop
    vertex 0.0936899000 -0.4911430000 1.0000000000
    vertex 0.1545080000 -0.4755280000 1.0000000000
    vertex 0.5000000000 -0.8660250000 1.0000000000
  endloop
endfacet
facet normal 0.0000000000 0.0000000000 -1.0000000000
  outer loop
    vertex 0.0313950000 -0.4990130000 1.0000000000
    vertex 0.0936899000 -0.4911430000 1.0000000000
    vertex 0.5000000000 -0.8660250000 1.0000000000
  endloop
endfacet
facet normal 0.0000000000 0.0000000000 -1.0000000000
  outer loop
    vertex -0.0313950000 -0.4990130000 1.0000000000
    vertex 0.0313950000 -0.4990130000 1.0000000000
    vertex 0.5000000000 -0.8660250000 1.0000000000
  endloop
endfacet
facet normal 0.0000000000 0.0000000000 -1.0000000000
  outer loop
    vertex -0.5000000000 -0.8660250000 1.0000000000
    vertex -0.0936899000 -0.4911430000 1.0000000000
    vertex -0.0313950000 -0.4990130000 1.0000000000
  endloop
endfacet
facet normal 0.0000000000 0.0000000000 -1.0000000000
  outer loop
    vertex -0.5000000000 -0.8660250000 1.0000000000
    vertex -0.1545080000 -0.4755280000 1.0000000000
    vertex -0.0936899000 -0.4911430000 1.0000000000
  endloop
endfacet
facet normal 0.0000000000 0.0000000000 -1.0000000000
  outer loop
    vertex -0.5000000000 -0.8660250000 1.0000000000
    vertex -0.2128890000 -0.4524130000 1.0000000000
    vertex -0.1545080000 -0.4755280000 1.0000000000
  endloop
endfacet
facet normal 0.0000000000 0.0000000000 -1.0000000000
  outer loop
    vertex -0.5000000000 -0.8660250000 1.0000000000
    vertex -0.2679130000 -0.4221630000 1.0000000000
    vertex -0.2128890000 -0.4524130000 1.0000000000
  endloop
endfacet
facet normal 0.0000000000 0.0000000000 -1.0000000000
  outer loop
    vertex -0.5000000000 -0.8660250000 1.0000000000
    vertex -0.0313950000 -0.4990130000 1.0000000000
    vertex 0.5000000000 -0.8660250000 1.0000000000
  endloop
endfacet
facet normal 0.0000000000 0.0000000000 -1.0000000000
  outer loop
    vertex -0.5000000000 -0.8660250000 1.0000000000
    vertex -0.3187110000 -0.3852560000 1.0000000000
    vertex -0.2679130000 -0.4221630000 1.0000000000
  endloop
endfacet
facet normal 0.0000000000 0.0000000000 -1.0000000000
  outer loop
    vertex -0.5000000000 -0.8660250000 1.0000000000
    vertex -0.3644840000 -0.3422730000 1.0000000000
    vertex -0.3187110000 -0.3852560000 1.0000000000
  endloop
endfacet
facet normal 0.0000000000 0.0000000000 -1.0000000000
  outer loop
    vertex -0.5000000000 -0.8660250000 1.0000000000
    vertex -0.4045080000 -0.2938920000 1.0000000000
    vertex -0.3644840000 -0.3422730000 1.0000000000
  endloop
endfacet
facet normal 0.0000000000 0.0000000000 -1.0000000000
  outer loop
    vertex -0.5000000000 -0.8660250000 1.0000000000
    vertex -0.4381530000 -0.2408760000 1.0000000000
    vertex -0.4045080000 -0.2938920000 1.0000000000
  endloop
endfacet
facet normal 0.0000000000 0.0000000000 -1.0000000000
  outer loop
    vertex -1.0000000000 0.0000000000 1.0000000000
    vertex -0.4648880000 -0.1840620000 1.0000000000
    vertex -0.4381530000 -0.2408760000 1.0000000000
  endloop
endfacet
facet normal 0.0000000000 0.0000000000 -1.0000000000
  outer loop
    vertex -1.0000000000 0.0000000000 1.0000000000
    vertex -0.4842910000 -0.1243450000 1.0000000000
    vertex -0.4648880000 -0.1840620000 1.0000000000
  endloop
endfacet
facet normal 0.0000000000 0.0000000000 -1.0000000000
  outer loop
    vertex -1.0000000000 0.0000000000 1.0000000000
    vertex -0.4960570000 -0.0626659000 1.0000000000
    vertex -0.4842910000 -0.1243450000 1.0000000000
  endloop
endfacet
facet normal 0.0000000000 0.0000000000 -1.0000000000
  outer loop
    vertex -1.0000000000 0.0000000000 1.0000000000
    vertex -0.5000000000 0.0000000000 1.0000000000
    vertex -0.4960570000 -0.0626659000 1.0000000000
  endloop
endfacet
facet normal 0.8660253028 0.5000001748 -0.0000000000
  outer loop
    vertex -1.0000000000 0.0000000000 0.0000000000
    vertex -1.0000000000 0.0000000000 1.0000000000
    vertex -0.5000000000 -0.8660250000 0.0000000000
  endloop
endfacet
facet normal 0.8660253028 0.5000001748 0.0000000000
  outer loop
    vertex -0.5000000000 -0.8660250000 1.0000000000
    vertex -0.5000000000 -0.8660250000 0.0000000000
    vertex -1.0000000000 0.0000000000 1.0000000000
  endloop
endfacet
facet normal -0.8660253028 0.5000001748 0.0000000000
  outer loop
    vertex 1.0000000000 0.0000000000 1.0000000000
    vertex 1.0000000000 0.0000000000 0.0000000000
    vertex 0.5000000000 -0.8660250000 1.0000000000
  endloop
endfacet
facet normal -0.8660253028 0.5000001748 0.0000000000
  outer loop
    vertex 0.5000000000 -0.8660250000 0.0000000000
    vertex 0.5000000000 -0.8660250000 1.0000000000
    vertex 1.0000000000 0.0000000000 0.0000000000
  endloop
endfacet
facet normal 0.0000000000 0.0000000000 1.0000000000
  outer loop
    vertex 1.0000000000 0.0000000000 0.0000000000
    vertex 0.5000000000 0.8660250000 0.0000000000
    vertex 0.5000000000 -0.8660250000 0.0000000000
  endloop
endfacet
facet normal -0.0000000000 0.0000000000 1.0000000000
  outer loop
    vertex -0.4999990000 0.8660250000 0.0000000000
    vertex 0.5000000000 -0.8660250000 0.0000000000
    vertex 0.5000000000 0.8660250000 0.0000000000
  endloop
endfacet
facet normal 0.0000000000 0.0000000000 1.0000000000
  outer loop
    vertex 0.5000000000 -0.8660250000 0.0000000000
    vertex -0.4999990000 0.8660250000 0.0000000000
    vertex -0.5000000000 -0.8660250000 0.0000000000
  endloop
endfacet
facet normal -0.0000000000 0.0000000000 1.0000000000
  outer loop
    vertex -1.0000000000 0.0000000000 0.0000000000
    vertex -0.5000000000 -0.8660250000 0.0000000000
    vertex -0.4999990000 0.8660250000 0.0000000000
  endloop
endfacet
facet normal 0.0000000000 1.0000000000 0.0000000000
  outer loop
    vertex -0.5000000000 -0.8660250000 0.0000000000
    vertex -0.5000000000 -0.8660250000 1.0000000000
    vertex 0.5000000000 -0.8660250000 1.0000000000
  endloop
endfacet
facet normal 0.0000000000 1.0000000000 0.0000000000
  outer loop
    vertex 0.5000000000 -0.8660250000 1.0000000000
    vertex 0.5000000000 -0.8660250000 0.0000000000
    vertex -0.5000000000 -0.8660250000 0.0000000000
  endloop
endfacet
facet normal 0.9980263334 0.0627967975 -0.0000000000
  outer loop
    vertex 0.4960570000 0.0626659000 0.0999994000
    vertex 0.4960570000 0.0626659000 1.0000000000
    vertex 0.5000000000 0.0000000000 0.0999994000
  endloop
endfacet
facet normal 0.9980263334 0.0627967975 0.0000000000
  outer loop
    vertex 0.5000000000 0.0000000000 1.0000000000
    vertex 0.5000000000 0.0000000000 0.0999994000
    vertex 0.4960570000 0.0626659000 1.0000000000
  endloop
endfacet
facet normal -0.9980263334 0.0627967975 0.0000000000
  outer loop
    vertex -0.4960570000 0.0626659000 1.0000000000
    vertex -0.4960570000 0.0626659000 0.0999994000
    vertex -0.5000000000 0.0000000000 1.0000000000
  endloop
endfacet
facet normal -0.9980263334 0.0627967975 0.0000000000
  outer loop
    vertex -0.5000000000 0.0000000000 0.0999994000
    vertex -0.5000000000 0.0000000000 1.0000000000
    vertex -0.4960570000 0.0626659000 0.0999994000
  endloop
endfacet
facet normal 0.0000000000 1.0000000000 0.0000000000
  outer loop
    vertex -0.0313950000 0.4990130000 0.0999994000
    vertex -0.0313950000 0.4990130000 1.0000000000
    vertex 0.0313950000 0.4990130000 1.0000000000
  endloop
endfacet
facet normal 0.0000000000 1.0000000000 0.0000000000
  outer loop
    vertex 0.0313950000 0.4990130000 1.0000000000
    vertex 0.0313950000 0.4990130000 0.0999994000
    vertex -0.0313950000 0.4990130000 0.0999994000
  endloop
endfacet
facet normal 0.0000000000 -1.0000000000 0.0000000000
  outer loop
    vertex -0.0313950000 -0.4990130000 1.0000000000
    vertex 0.0313950000 -0.4990130000 0.0999994000
    vertex 0.0313950000 -0.4990130000 1.0000000000
  endloop
endfacet
facet normal 0.0000000000 -1.0000000000 0.0000000000
  outer loop
    vertex 0.0313950000 -0.4990130000 0.0999994000
    vertex -0.0313950000 -0.4990130000 1.0000000000
    vertex -0.0313950000 -0.4990130000 0.0999994000
  endloop
endfacet
facet normal 0.6845411135 0.7289742547 -0.0000000000
  outer loop
    vertex 0.3187110000 0.3852560000 0.0999994000
    vertex 0.3187110000 0.3852560000 1.0000000000
    vertex 0.3644840000 0.3422730000 1.0000000000
  endloop
endfacet
facet normal 0.6845411135 0.7289742547 0.0000000000
  outer loop
    vertex 0.3644840000 0.3422730000 1.0000000000
    vertex 0.3644840000 0.3422730000 0.0999994000
    vertex 0.3187110000 0.3852560000 0.0999994000
  endloop
endfacet
facet normal -0.6845411135 0.7289742547 0.0000000000
  outer loop
    vertex -0.3644840000 0.3422730000 0.0999994000
    vertex -0.3644840000 0.3422730000 1.0000000000
    vertex -0.3187110000 0.3852560000 1.0000000000
  endloop
endfacet
facet normal -0.6845411135 0.7289742547 0.0000000000
  outer loop
    vertex -0.3187110000 0.3852560000 1.0000000000
    vertex -0.3187110000 0.3852560000 0.0999994000
    vertex -0.3644840000 0.3422730000 0.0999994000
  endloop
endfacet
facet normal -0.3681290536 0.9297747038 0.0000000000
  outer loop
    vertex -0.2128890000 0.4524130000 0.0999994000
    vertex -0.2128890000 0.4524130000 1.0000000000
    vertex -0.1545080000 0.4755280000 1.0000000000
  endloop
endfacet
facet normal -0.3681290536 0.9297747038 0.0000000000
  outer loop
    vertex -0.1545080000 0.4755280000 1.0000000000
    vertex -0.1545080000 0.4755280000 0.0999994000
    vertex -0.2128890000 0.4524130000 0.0999994000
  endloop
endfacet
facet normal 0.9048248379 0.4257839976 -0.0000000000
  outer loop
    vertex 0.4381530000 0.2408760000 0.0999994000
    vertex 0.4381530000 0.2408760000 1.0000000000
    vertex 0.4648880000 0.1840620000 0.0999994000
  endloop
endfacet
facet normal 0.9048248379 0.4257839976 0.0000000000
  outer loop
    vertex 0.4648880000 0.1840620000 1.0000000000
    vertex 0.4648880000 0.1840620000 0.0999994000
    vertex 0.4381530000 0.2408760000 1.0000000000
  endloop
endfacet
facet normal 0.9822870092 0.1873825810 -0.0000000000
  outer loop
    vertex 0.4842910000 0.1243450000 0.0999994000
    vertex 0.4842910000 0.1243450000 1.0000000000
    vertex 0.4960570000 0.0626659000 0.0999994000
  endloop
endfacet
facet normal 0.9822870092 0.1873825810 0.0000000000
  outer loop
    vertex 0.4960570000 0.0626659000 1.0000000000
    vertex 0.4960570000 0.0626659000 0.0999994000
    vertex 0.4842910000 0.1243450000 1.0000000000
  endloop
endfacet
facet normal 0.3681290536 0.9297747038 -0.0000000000
  outer loop
    vertex 0.1545080000 0.4755280000 0.0999994000
    vertex 0.1545080000 0.4755280000 1.0000000000
    vertex 0.2128890000 0.4524130000 1.0000000000
  endloop
endfacet
facet normal 0.3681290536 0.9297747038 0.0000000000
  outer loop
    vertex 0.2128890000 0.4524130000 1.0000000000
    vertex 0.2128890000 0.4524130000 0.0999994000
    vertex 0.1545080000 0.4755280000 0.0999994000
  endloop
endfacet
facet normal 0.2486834028 0.9685848260 -0.0000000000
  outer loop
    vertex 0.0936899000 0.4911430000 0.0999994000
    vertex 0.0936899000 0.4911430000 1.0000000000
    vertex 0.1545080000 0.4755280000 1.0000000000
  endloop
endfacet
facet normal 0.2486834028 0.9685848260 0.0000000000
  outer loop
    vertex 0.1545080000 0.4755280000 1.0000000000
    vertex 0.1545080000 0.4755280000 0.0999994000
    vertex 0.0936899000 0.4911430000 0.0999994000
  endloop
endfacet
facet normal 0.5877862182 0.8090162926 -0.0000000000
  outer loop
    vertex 0.2679130000 0.4221630000 0.0999994000
    vertex 0.2679130000 0.4221630000 1.0000000000
    vertex 0.3187110000 0.3852560000 1.0000000000
  endloop
endfacet
facet normal 0.5877862182 0.8090162926 0.0000000000
  outer loop
    vertex 0.3187110000 0.3852560000 1.0000000000
    vertex 0.3187110000 0.3852560000 0.0999994000
    vertex 0.2679130000 0.4221630000 0.0999994000
  endloop
endfacet
facet normal -0.9048248379 0.4257839976 0.0000000000
  outer loop
    vertex -0.4381530000 0.2408760000 1.0000000000
    vertex -0.4381530000 0.2408760000 0.0999994000
    vertex -0.4648880000 0.1840620000 1.0000000000
  endloop
endfacet
facet normal -0.9048248379 0.4257839976 0.0000000000
  outer loop
    vertex -0.4648880000 0.1840620000 0.0999994000
    vertex -0.4648880000 0.1840620000 1.0000000000
    vertex -0.4381530000 0.2408760000 0.0999994000
  endloop
endfacet
facet normal -0.8443277575 0.5358270598 0.0000000000
  outer loop
    vertex -0.4045080000 0.2938920000 1.0000000000
    vertex -0.4045080000 0.2938920000 0.0999994000
    vertex -0.4381530000 0.2408760000 1.0000000000
  endloop
endfacet
facet normal -0.8443277575 0.5358270598 0.0000000000
  outer loop
    vertex -0.4381530000 0.2408760000 0.0999994000
    vertex -0.4381530000 0.2408760000 1.0000000000
    vertex -0.4045080000 0.2938920000 0.0999994000
  endloop
endfacet
facet normal -0.9510575905 0.3090136884 0.0000000000
  outer loop
    vertex -0.4648880000 0.1840620000 1.0000000000
    vertex -0.4648880000 0.1840620000 0.0999994000
    vertex -0.4842910000 0.1243450000 1.0000000000
  endloop
endfacet
facet normal -0.9510575905 0.3090136884 0.0000000000
  outer loop
    vertex -0.4842910000 0.1243450000 0.0999994000
    vertex -0.4842910000 0.1243450000 1.0000000000
    vertex -0.4648880000 0.1840620000 0.0999994000
  endloop
endfacet
facet normal -0.4817573432 0.8763046629 0.0000000000
  outer loop
    vertex -0.2679130000 0.4221630000 0.0999994000
    vertex -0.2679130000 0.4221630000 1.0000000000
    vertex -0.2128890000 0.4524130000 1.0000000000
  endloop
endfacet
facet normal -0.4817573432 0.8763046629 0.0000000000
  outer loop
    vertex -0.2128890000 0.4524130000 1.0000000000
    vertex -0.2128890000 0.4524130000 0.0999994000
    vertex -0.2679130000 0.4221630000 0.0999994000
  endloop
endfacet
facet normal -0.2486834028 0.9685848260 0.0000000000
  outer loop
    vertex -0.1545080000 0.4755280000 0.0999994000
    vertex -0.1545080000 0.4755280000 1.0000000000
    vertex -0.0936899000 0.4911430000 1.0000000000
  endloop
endfacet
facet normal -0.2486834028 0.9685848260 0.0000000000
  outer loop
    vertex -0.0936899000 0.4911430000 1.0000000000
    vertex -0.0936899000 0.4911430000 0.0999994000
    vertex -0.1545080000 0.4755280000 0.0999994000
  endloop
endfacet
facet normal 0.9510575905 -0.3090136884 0.0000000000
  outer loop
    vertex 0.4648880000 -0.1840620000 0.0999994000
    vertex 0.4842910000 -0.1243450000 0.0999994000
    vertex 0.4842910000 -0.1243450000 1.0000000000
  endloop
endfacet
facet normal 0.9510575905 -0.3090136884 0.0000000000
  outer loop
    vertex 0.4842910000 -0.1243450000 1.0000000000
    vertex 0.4648880000 -0.1840620000 1.0000000000
    vertex 0.4648880000 -0.1840620000 0.0999994000
  endloop
endfacet
facet normal 0.1253383126 -0.9921140597 0.0000000000
  outer loop
    vertex 0.0313950000 -0.4990130000 1.0000000000
    vertex 0.0936899000 -0.4911430000 0.0999994000
    vertex 0.0936899000 -0.4911430000 1.0000000000
  endloop
endfacet
facet normal 0.1253383126 -0.9921140597 0.0000000000
  outer loop
    vertex 0.0936899000 -0.4911430000 0.0999994000
    vertex 0.0313950000 -0.4990130000 1.0000000000
    vertex 0.0313950000 -0.4990130000 0.0999994000
  endloop
endfacet
facet normal 0.9510575905 0.3090136884 -0.0000000000
  outer loop
    vertex 0.4648880000 0.1840620000 0.0999994000
    vertex 0.4648880000 0.1840620000 1.0000000000
    vertex 0.4842910000 0.1243450000 0.0999994000
  endloop
endfacet
facet normal 0.9510575905 0.3090136884 0.0000000000
  outer loop
    vertex 0.4842910000 0.1243450000 1.0000000000
    vertex 0.4842910000 0.1243450000 0.0999994000
    vertex 0.4648880000 0.1840620000 1.0000000000
  endloop
endfacet
facet normal 0.7705151515 0.6374216825 -0.0000000000
  outer loop
    vertex 0.3644840000 0.3422730000 0.0999994000
    vertex 0.3644840000 0.3422730000 1.0000000000
    vertex 0.4045080000 0.2938920000 0.0999994000
  endloop
endfacet
facet normal 0.7705151515 0.6374216825 0.0000000000
  outer loop
    vertex 0.4045080000 0.2938920000 1.0000000000
    vertex 0.4045080000 0.2938920000 0.0999994000
    vertex 0.3644840000 0.3422730000 1.0000000000
  endloop
endfacet
facet normal 0.8443277575 0.5358270598 -0.0000000000
  outer loop
    vertex 0.4045080000 0.2938920000 0.0999994000
    vertex 0.4045080000 0.2938920000 1.0000000000
    vertex 0.4381530000 0.2408760000 0.0999994000
  endloop
endfacet
facet normal 0.8443277575 0.5358270598 0.0000000000
  outer loop
    vertex 0.4381530000 0.2408760000 1.0000000000
    vertex 0.4381530000 0.2408760000 0.0999994000
    vertex 0.4045080000 0.2938920000 1.0000000000
  endloop
endfacet
facet normal 0.1253383126 0.9921140597 -0.0000000000
  outer loop
    vertex 0.0313950000 0.4990130000 0.0999994000
    vertex 0.0313950000 0.4990130000 1.0000000000
    vertex 0.0936899000 0.4911430000 1.0000000000
  endloop
endfacet
facet normal 0.1253383126 0.9921140597 0.0000000000
  outer loop
    vertex 0.0936899000 0.4911430000 1.0000000000
    vertex 0.0936899000 0.4911430000 0.0999994000
    vertex 0.0313950000 0.4990130000 0.0999994000
  endloop
endfacet
facet normal 0.4817573432 0.8763046629 -0.0000000000
  outer loop
    vertex 0.2128890000 0.4524130000 0.0999994000
    vertex 0.2128890000 0.4524130000 1.0000000000
    vertex 0.2679130000 0.4221630000 1.0000000000
  endloop
endfacet
facet normal 0.4817573432 0.8763046629 0.0000000000
  outer loop
    vertex 0.2679130000 0.4221630000 1.0000000000
    vertex 0.2679130000 0.4221630000 0.0999994000
    vertex 0.2128890000 0.4524130000 0.0999994000
  endloop
endfacet
facet normal -0.9822870092 0.1873825810 0.0000000000
  outer loop
    vertex -0.4842910000 0.1243450000 1.0000000000
    vertex -0.4842910000 0.1243450000 0.0999994000
    vertex -0.4960570000 0.0626659000 1.0000000000
  endloop
endfacet
facet normal -0.9822870092 0.1873825810 0.0000000000
  outer loop
    vertex -0.4960570000 0.0626659000 0.0999994000
    vertex -0.4960570000 0.0626659000 1.0000000000
    vertex -0.4842910000 0.1243450000 0.0999994000
  endloop
endfacet
facet normal -0.5877862182 0.8090162926 0.0000000000
  outer loop
    vertex -0.3187110000 0.3852560000 0.0999994000
    vertex -0.3187110000 0.3852560000 1.0000000000
    vertex -0.2679130000 0.4221630000 1.0000000000
  endloop
endfacet
facet normal -0.5877862182 0.8090162926 0.0000000000
  outer loop
    vertex -0.2679130000 0.4221630000 1.0000000000
    vertex -0.2679130000 0.4221630000 0.0999994000
    vertex -0.3187110000 0.3852560000 0.0999994000
  endloop
endfacet
facet normal -0.1253383126 0.9921140597 0.0000000000
  outer loop
    vertex -0.0936899000 0.4911430000 0.0999994000
    vertex -0.0936899000 0.4911430000 1.0000000000
    vertex -0.0313950000 0.4990130000 1.0000000000
  endloop
endfacet
facet normal -0.1253383126 0.9921140597 0.0000000000
  outer loop
    vertex -0.0313950000 0.4990130000 1.0000000000
    vertex -0.0313950000 0.4990130000 0.0999994000
    vertex -0.0936899000 0.4911430000 0.0999994000
  endloop
endfacet
facet normal 0.9980263334 -0.0627967975 0.0000000000
  outer loop
    vertex 0.4960570000 -0.0626659000 0.0999994000
    vertex 0.5000000000 0.0000000000 0.0999994000
    vertex 0.5000000000 0.0000000000 1.0000000000
  endloop
endfacet
facet normal 0.9980263334 -0.0627967975 0.0000000000
  outer loop
    vertex 0.5000000000 0.0000000000 1.0000000000
    vertex 0.4960570000 -0.0626659000 1.0000000000
    vertex 0.4960570000 -0.0626659000 0.0999994000
  endloop
endfacet
facet normal 0.9822870092 -0.1873825810 0.0000000000
  outer loop
    vertex 0.4842910000 -0.1243450000 0.0999994000
    vertex 0.4960570000 -0.0626659000 0.0999994000
    vertex 0.4960570000 -0.0626659000 1.0000000000
  endloop
endfacet
facet normal 0.9822870092 -0.1873825810 0.0000000000
  outer loop
    vertex 0.4960570000 -0.0626659000 1.0000000000
    vertex 0.4842910000 -0.1243450000 1.0000000000
    vertex 0.4842910000 -0.1243450000 0.0999994000
  endloop
endfacet
facet normal -0.6845411135 -0.7289742547 0.0000000000
  outer loop
    vertex -0.3644840000 -0.3422730000 1.0000000000
    vertex -0.3187110000 -0.3852560000 0.0999994000
    vertex -0.3187110000 -0.3852560000 1.0000000000
  endloop
endfacet
facet normal -0.6845411135 -0.7289742547 0.0000000000
  outer loop
    vertex -0.3187110000 -0.3852560000 0.0999994000
    vertex -0.3644840000 -0.3422730000 1.0000000000
    vertex -0.3644840000 -0.3422730000 0.0999994000
  endloop
endfacet
facet normal -0.9048248379 -0.4257839976 0.0000000000
  outer loop
    vertex -0.4381530000 -0.2408760000 1.0000000000
    vertex -0.4648880000 -0.1840620000 1.0000000000
    vertex -0.4648880000 -0.1840620000 0.0999994000
  endloop
endfacet
facet normal -0.9048248379 -0.4257839976 0.0000000000
  outer loop
    vertex -0.4648880000 -0.1840620000 0.0999994000
    vertex -0.4381530000 -0.2408760000 0.0999994000
    vertex -0.4381530000 -0.2408760000 1.0000000000
  endloop
endfacet
facet normal 0.0000000000 0.0000000000 -1.0000000000
  outer loop
    vertex 0.4960570000 -0.0626659000 0.0999994000
    vertex 0.4960570000 0.0626659000 0.0999994000
    vertex 0.5000000000 0.0000000000 0.0999994000
  endloop
endfacet
facet normal 0.0000000000 0.0000000000 -1.0000000000
  outer loop
    vertex 0.4960570000 0.0626659000 0.0999994000
    vertex 0.4960570000 -0.0626659000 0.0999994000
    vertex 0.4842910000 0.1243450000 0.0999994000
  endloop
endfacet
facet normal 0.0000000000 0.0000000000 -1.0000000000
  outer loop
    vertex 0.4842910000 -0.1243450000 0.0999994000
    vertex 0.4842910000 0.1243450000 0.0999994000
    vertex 0.4960570000 -0.0626659000 0.0999994000
  endloop
endfacet
facet normal 0.0000000000 0.0000000000 -1.0000000000
  outer loop
    vertex 0.4842910000 0.1243450000 0.0999994000
    vertex 0.4842910000 -0.1243450000 0.0999994000
    vertex 0.4648880000 0.1840620000 0.0999994000
  endloop
endfacet
facet normal 0.0000000000 0.0000000000 -1.0000000000
  outer loop
    vertex 0.4648880000 -0.1840620000 0.0999994000
    vertex 0.4648880000 0.1840620000 0.0999994000
    vertex 0.4842910000 -0.1243450000 0.0999994000
  endloop
endfacet
facet normal 0.0000000000 0.0000000000 -1.0000000000
  outer loop
    vertex 0.4648880000 0.1840620000 0.0999994000
    vertex 0.4648880000 -0.1840620000 0.0999994000
    vertex 0.4381530000 0.2408760000 0.0999994000
  endloop
endfacet
facet normal 0.0000000000 0.0000000000 -1.0000000000
  outer loop
    vertex 0.4381530000 -0.2408760000 0.0999994000
    vertex 0.4381530000 0.2408760000 0.0999994000
    vertex 0.4648880000 -0.1840620000 0.0999994000
  endloop
endfacet
facet normal 0.0000000000 0.0000000000 -1.0000000000
  outer loop
    vertex 0.4381530000 0.2408760000 0.0999994000
    vertex 0.4381530000 -0.2408760000 0.0999994000
    vertex 0.4045080000 0.2938920000 0.0999994000
  endloop
endfacet
facet normal 0.0000000000 0.0000000000 -1.0000000000
  outer loop
    vertex 0.4045080000 -0.2938920000 0.0999994000
    vertex 0.4045080000 0.2938920000 0.0999994000
    vertex 0.4381530000 -0.2408760000 0.0999994000
  endloop
endfacet
facet normal 0.0000000000 0.0000000000 -1.0000000000
  outer loop
    vertex 0.4045080000 0.2938920000 0.0999994000
    vertex 0.4045080000 -0.2938920000 0.0999994000
    vertex 0.3644840000 0.3422730000 0.0999994000
  endloop
endfacet
facet normal 0.0000000000 0.0000000000 -1.0000000000
  outer loop
    vertex 0.3644840000 -0.3422730000 0.0999994000
    vertex 0.3644840000 0.3422730000 0.0999994000
    vertex 0.4045080000 -0.2938920000 0.0999994000
  endloop
endfacet
facet normal 0.0000000000 0.0000000000 -1.0000000000
  outer loop
    vertex 0.3644840000 0.3422730000 0.0999994000
    vertex 0.3644840000 -0.3422730000 0.0999994000
    vertex 0.3187110000 0.3852560000 0.0999994000
  endloop
endfacet
facet normal 0.0000000000 0.0000000000 -1.0000000000
  outer loop
    vertex 0.3187110000 -0.3852560000 0.0999994000
    vertex 0.3187110000 0.3852560000 0.0999994000
    vertex 0.3644840000 -0.3422730000 0.0999994000
  endloop
endfacet
facet normal 0.0000000000 0.0000000000 -1.0000000000
  outer loop
    vertex 0.3187110000 0.3852560000 0.0999994000
    vertex 0.3187110000 -0.3852560000 0.0999994000
    vertex 0.2679130000 0.4221630000 0.0999994000
  endloop
endfacet
facet normal 0.0000000000 0.0000000000 -1.0000000000
  outer loop
    vertex 0.2679130000 -0.4221630000 0.0999994000
    vertex 0.2679130000 0.4221630000 0.0999994000
    vertex 0.3187110000 -0.3852560000 0.0999994000
  endloop
endfacet
facet normal 0.0000000000 0.0000000000 -1.0000000000
  outer loop
    vertex 0.2679130000 0.4221630000 0.0999994000
    vertex 0.2679130000 -0.4221630000 0.0999994000
    vertex 0.2128890000 0.4524130000 0.0999994000
  endloop
endfacet
facet normal 0.0000000000 0.0000000000 -1.0000000000
  outer loop
    vertex 0.2128890000 -0.4524130000 0.0999994000
    vertex 0.2128890000 0.4524130000 0.0999994000
    vertex 0.2679130000 -0.4221630000 0.0999994000
  endloop
endfacet
facet normal 0.0000000000 0.0000000000 -1.0000000000
  outer loop
    vertex 0.2128890000 0.4524130000 0.0999994000
    vertex 0.2128890000 -0.4524130000 0.0999994000
    vertex 0.1545080000 0.4755280000 0.0999994000
  endloop
endfacet
facet normal 0.0000000000 0.0000000000 -1.0000000000
  outer loop
    vertex 0.1545080000 -0.4755280000 0.0999994000
    vertex 0.1545080000 0.4755280000 0.0999994000
    vertex 0.2128890000 -0.4524130000 0.0999994000
  endloop
endfacet
facet normal 0.0000000000 0.0000000000 -1.0000000000
  outer loop
    vertex 0.1545080000 0.4755280000 0.0999994000
    vertex 0.1545080000 -0.4755280000 0.0999994000
    vertex 0.0936899000 0.4911430000 0.0999994000
  endloop
endfacet
facet normal 0.0000000000 0.0000000000 -1.0000000000
  outer loop
    vertex 0.0936899000 -0.4911430000 0.0999994000
    vertex 0.0936899000 0.4911430000 0.0999994000
    vertex 0.1545080000 -0.4755280000 0.0999994000
  endloop
endfacet
facet normal 0.0000000000 0.0000000000 -1.0000000000
  outer loop
    vertex 0.0936899000 0.4911430000 0.0999994000
    vertex 0.0936899000 -0.4911430000 0.0999994000
    vertex 0.0313950000 0.4990130000 0.0999994000
  endloop
endfacet
facet normal 0.0000000000 0.0000000000 -1.0000000000
  outer loop
    vertex 0.0313950000 -0.4990130000 0.0999994000
    vertex 0.0313950000 0.4990130000 0.0999994000
    vertex 0.0936899000 -0.4911430000 0.0999994000
  endloop
endfacet
facet normal 0.0000000000 0.0000000000 -1.0000000000
  outer loop
    vertex 0.0313950000 0.4990130000 0.0999994000
    vertex 0.0313950000 -0.4990130000 0.0999994000
    vertex -0.0313950000 0.4990130000 0.0999994000
  endloop
endfacet
facet normal 0.0000000000 0.0000000000 -1.0000000000
  outer loop
    vertex -0.0313950000 -0.4990130000 0.0999994000
    vertex -0.0313950000 0.4990130000 0.0999994000
    vertex 0.0313950000 -0.4990130000 0.0999994000
  endloop
endfacet
facet normal 0.0000000000 0.0000000000 -1.0000000000
  outer loop
    vertex -0.0313950000 0.4990130000 0.0999994000
    vertex -0.0313950000 -0.4990130000 0.0999994000
    vertex -0.0936899000 0.4911430000 0.0999994000
  endloop
endfacet
facet normal 0.0000000000 0.0000000000 -1.0000000000
  outer loop
    vertex -0.0936899000 -0.4911430000 0.0999994000
    vertex -0.0936899000 0.4911430000 0.0999994000
    vertex -0.0313950000 -0.4990130000 0.0999994000
  endloop
endfacet
facet normal 0.0000000000 0.0000000000 -1.0000000000
  outer loop
    vertex -0.0936899000 0.4911430000 0.0999994000
    vertex -0.0936899000 -0.4911430000 0.0999994000
    vertex -0.1545080000 0.4755280000 0.0999994000
  endloop
endfacet
facet normal 0.0000000000 0.0000000000 -1.0000000000
  outer loop
    vertex -0.1545080000 -0.4755280000 0.0999994000
    vertex -0.1545080000 0.4755280000 0.0999994000
    vertex -0.0936899000 -0.4911430000 0.0999994000
  endloop
endfacet
facet normal 0.0000000000 0.0000000000 -1.0000000000
  outer loop
    vertex -0.1545080000 0.4755280000 0.0999994000
    vertex -0.1545080000 -0.4755280000 0.0999994000
    vertex -0.2128890000 0.4524130000 0.0999994000
  endloop
endfacet
facet normal 0.0000000000 0.0000000000 -1.0000000000
  outer loop
    vertex -0.2128890000 -0.4524130000 0.0999994000
    vertex -0.2128890000 0.4524130000 0.0999994000
    vertex -0.1545080000 -0.4755280000 0.0999994000
  endloop
endfacet
facet normal 0.0000000000 0.0000000000 -1.0000000000
  outer loop
    vertex -0.2128890000 0.4524130000 0.0999994000
    vertex -0.2128890000 -0.4524130000 0.0999994000
    vertex -0.2679130000 0.4221630000 0.0999994000
  endloop
endfacet
facet normal 0.0000000000 0.0000000000 -1.0000000000
  outer loop
    vertex -0.2679130000 -0.4221630000 0.0999994000
    vertex -0.2679130000 0.4221630000 0.0999994000
    vertex -0.2128890000 -0.4524130000 0.0999994000
  endloop
endfacet
facet normal 0.0000000000 0.0000000000 -1.0000000000
  outer loop
    vertex -0.2679130000 0.4221630000 0.0999994000
    vertex -0.2679130000 -0.4221630000 0.0999994000
    vertex -0.3187110000 0.3852560000 0.0999994000
  endloop
endfacet
facet normal 0.0000000000 0.0000000000 -1.0000000000
  outer loop
    vertex -0.3187110000 -0.3852560000 0.0999994000
    vertex -0.3187110000 0.3852560000 0.0999994000
    vertex -0.2679130000 -0.4221630000 0.0999994000
  endloop
endfacet
facet normal 0.0000000000 0.0000000000 -1.0000000000
  outer loop
    vertex -0.3187110000 0.3852560000 0.0999994000
    vertex -0.3187110000 -0.3852560000 0.0999994000
    vertex -0.3644840000 0.3422730000 0.0999994000
  endloop
endfacet
facet normal 0.0000000000 0.0000000000 -1.0000000000
  outer loop
    vertex -0.3644840000 -0.3422730000 0.0999994000
    vertex -0.3644840000 0.3422730000 0.0999994000
    vertex -0.3187110000 -0.3852560000 0.0999994000
  endloop
endfacet
facet normal 0.0000000000 0.0000000000 -1.0000000000
  outer loop
    vertex -0.3644840000 0.3422730000 0.0999994000
    vertex -0.3644840000 -0.3422730000 0.0999994000
    vertex -0.4045080000 0.2938920000 0.0999994000
  endloop
endfacet
facet normal 0.0000000000 0.0000000000 -1.0000000000
  outer loop
    vertex -0.4045080000 -0.2938920000 0.0999994000
    vertex -0.4045080000 0.2938920000 0.0999994000
    vertex -0.3644840000 -0.3422730000 0.0999994000
  endloop
endfacet
facet normal 0.0000000000 0.0000000000 -1.0000000000
  outer loop
    vertex -0.4045080000 0.2938920000 0.0999994000
    vertex -0.4045080000 -0.2938920000 0.0999994000
    vertex -0.4381530000 0.2408760000 0.0999994000
  endloop
endfacet
facet normal 0.0000000000 0.0000000000 -1.0000000000
  outer loop
    vertex -0.4381530000 -0.2408760000 0.0999994000
    vertex -0.4381530000 0.2408760000 0.0999994000
    vertex -0.4045080000 -0.2938920000 0.0999994000
  endloop
endfacet
facet normal 0.0000000000 0.0000000000 -1.0000000000
  outer loop
    vertex -0.4381530000 0.2408760000 0.0999994000
    vertex -0.4381530000 -0.2408760000 0.0999994000
    vertex -0.4648880000 0.1840620000 0.0999994000
  endloop
endfacet
facet normal 0.0000000000 0.0000000000 -1.0000000000
  outer loop
    vertex -0.4648880000 -0.1840620000 0.0999994000
    vertex -0.4648880000 0.1840620000 0.0999994000
    vertex -0.4381530000 -0.2408760000 0.0999994000
  endloop
endfacet
facet normal 0.0000000000 0.0000000000 -1.0000000000
  outer loop
    vertex -0.4648880000 0.1840620000 0.0999994000
    vertex -0.4648880000 -0.1840620000 0.0999994000
    vertex -0.4842910000 0.1243450000 0.0999994000
  endloop
endfacet
facet normal 0.0000000000 0.0000000000 -1.0000000000
  outer loop
    vertex -0.4842910000 -0.1243450000 0.0999994000
    vertex -0.4842910000 0.1243450000 0.0999994000
    vertex -0.4648880000 -0.1840620000 0.0999994000
  endloop
endfacet
facet normal 0.0000000000 0.0000000000 -1.0000000000
  outer loop
    vertex -0.4842910000 0.1243450000 0.0999994000
    vertex -0.4842910000 -0.1243450000 0.0999994000
    vertex -0.4960570000 0.0626659000 0.0999994000
  endloop
endfacet
facet normal 0.0000000000 0.0000000000 -1.0000000000
  outer loop
    vertex -0.4960570000 -0.0626659000 0.0999994000
    vertex -0.4960570000 0.0626659000 0.0999994000
    vertex -0.4842910000 -0.1243450000 0.0999994000
  endloop
endfacet
facet normal 0.0000000000 0.0000000000 -1.0000000000
  outer loop
    vertex -0.4960570000 0.0626659000 0.0999994000
    vertex -0.4960570000 -0.0626659000 0.0999994000
    vertex -0.5000000000 0.0000000000 0.0999994000
  endloop
endfacet
facet normal 0.4817573432 -0.8763046629 0.0000000000
  outer loop
    vertex 0.2128890000 -0.4524130000 1.0000000000
    vertex 0.2679130000 -0.4221630000 0.0999994000
    vertex 0.2679130000 -0.4221630000 1.0000000000
  endloop
endfacet
facet normal 0.4817573432 -0.8763046629 0.0000000000
  outer loop
    vertex 0.2679130000 -0.4221630000 0.0999994000
    vertex 0.2128890000 -0.4524130000 1.0000000000
    vertex 0.2128890000 -0.4524130000 0.0999994000
  endloop
endfacet
facet normal 0.3681290536 -0.9297747038 0.0000000000
  outer loop
    vertex 0.1545080000 -0.4755280000 1.0000000000
    vertex 0.2128890000 -0.4524130000 0.0999994000
    vertex 0.2128890000 -0.4524130000 1.0000000000
  endloop
endfacet
facet normal 0.3681290536 -0.9297747038 0.0000000000
  outer loop
    vertex 0.2128890000 -0.4524130000 0.0999994000
    vertex 0.1545080000 -0.4755280000 1.0000000000
    vertex 0.1545080000 -0.4755280000 0.0999994000
  endloop
endfacet
facet normal -0.7705151515 0.6374216825 0.0000000000
  outer loop
    vertex -0.3644840000 0.3422730000 1.0000000000
    vertex -0.3644840000 0.3422730000 0.0999994000
    vertex -0.4045080000 0.2938920000 1.0000000000
  endloop
endfacet
facet normal -0.7705151515 0.6374216825 0.0000000000
  outer loop
    vertex -0.4045080000 0.2938920000 0.0999994000
    vertex -0.4045080000 0.2938920000 1.0000000000
    vertex -0.3644840000 0.3422730000 0.0999994000
  endloop
endfacet
facet normal 0.7705151515 -0.6374216825 0.0000000000
  outer loop
    vertex 0.3644840000 -0.3422730000 0.0999994000
    vertex 0.4045080000 -0.2938920000 0.0999994000
    vertex 0.4045080000 -0.2938920000 1.0000000000
  endloop
endfacet
facet normal 0.7705151515 -0.6374216825 0.0000000000
  outer loop
    vertex 0.4045080000 -0.2938920000 1.0000000000
    vertex 0.3644840000 -0.3422730000 1.0000000000
    vertex 0.3644840000 -0.3422730000 0.0999994000
  endloop
endfacet
facet normal 0.9048248379 -0.4257839976 0.0000000000
  outer loop
    vertex 0.4381530000 -0.2408760000 0.0999994000
    vertex 0.4648880000 -0.1840620000 0.0999994000
    vertex 0.4648880000 -0.1840620000 1.0000000000
  endloop
endfacet
facet normal 0.9048248379 -0.4257839976 0.0000000000
  outer loop
    vertex 0.4648880000 -0.1840620000 1.0000000000
    vertex 0.4381530000 -0.2408760000 1.0000000000
    vertex 0.4381530000 -0.2408760000 0.0999994000
  endloop
endfacet
facet normal -0.9510575905 -0.3090136884 0.0000000000
  outer loop
    vertex -0.4648880000 -0.1840620000 1.0000000000
    vertex -0.4842910000 -0.1243450000 1.0000000000
    vertex -0.4842910000 -0.1243450000 0.0999994000
  endloop
endfacet
facet normal -0.9510575905 -0.3090136884 0.0000000000
  outer loop
    vertex -0.4842910000 -0.1243450000 0.0999994000
    vertex -0.4648880000 -0.1840620000 0.0999994000
    vertex -0.4648880000 -0.1840620000 1.0000000000
  endloop
endfacet
facet normal -0.9980263334 -0.0627967975 0.0000000000
  outer loop
    vertex -0.4960570000 -0.0626659000 1.0000000000
    vertex -0.5000000000 0.0000000000 1.0000000000
    vertex -0.5000000000 0.0000000000 0.0999994000
  endloop
endfacet
facet normal -0.9980263334 -0.0627967975 0.0000000000
  outer loop
    vertex -0.5000000000 0.0000000000 0.0999994000
    vertex -0.4960570000 -0.0626659000 0.0999994000
    vertex -0.4960570000 -0.0626659000 1.0000000000
  endloop
endfacet
facet normal 0.5877862182 -0.8090162926 0.0000000000
  outer loop
    vertex 0.2679130000 -0.4221630000 1.0000000000
    vertex 0.3187110000 -0.3852560000 0.0999994000
    vertex 0.3187110000 -0.3852560000 1.0000000000
  endloop
endfacet
facet normal 0.5877862182 -0.8090162926 0.0000000000
  outer loop
    vertex 0.3187110000 -0.3852560000 0.0999994000
    vertex 0.2679130000 -0.4221630000 1.0000000000
    vertex 0.2679130000 -0.4221630000 0.0999994000
  endloop
endfacet
facet normal 0.2486834028 -0.9685848260 0.0000000000
  outer loop
    vertex 0.0936899000 -0.4911430000 1.0000000000
    vertex 0.1545080000 -0.4755280000 0.0999994000
    vertex 0.1545080000 -0.4755280000 1.0000000000
  endloop
endfacet
facet normal 0.2486834028 -0.9685848260 0.0000000000
  outer loop
    vertex 0.1545080000 -0.4755280000 0.0999994000
    vertex 0.0936899000 -0.4911430000 1.0000000000
    vertex 0.0936899000 -0.4911430000 0.0999994000
  endloop
endfacet
facet normal 0.8443277575 -0.5358270598 0.0000000000
  outer loop
    vertex 0.4045080000 -0.2938920000 0.0999994000
    vertex 0.4381530000 -0.2408760000 0.0999994000
    vertex 0.4381530000 -0.2408760000 1.0000000000
  endloop
endfacet
facet normal 0.8443277575 -0.5358270598 0.0000000000
  outer loop
    vertex 0.4381530000 -0.2408760000 1.0000000000
    vertex 0.4045080000 -0.2938920000 1.0000000000
    vertex 0.4045080000 -0.2938920000 0.0999994000
  endloop
endfacet
facet normal -0.2486834028 -0.9685848260 0.0000000000
  outer loop
    vertex -0.1545080000 -0.4755280000 1.0000000000
    vertex -0.0936899000 -0.4911430000 0.0999994000
    vertex -0.0936899000 -0.4911430000 1.0000000000
  endloop
endfacet
facet normal -0.2486834028 -0.9685848260 0.0000000000
  outer loop
    vertex -0.0936899000 -0.4911430000 0.0999994000
    vertex -0.1545080000 -0.4755280000 1.0000000000
    vertex -0.1545080000 -0.4755280000 0.0999994000
  endloop
endfacet
facet normal -0.1253383126 -0.9921140597 0.0000000000
  outer loop
    vertex -0.0936899000 -0.4911430000 1.0000000000
    vertex -0.0313950000 -0.4990130000 0.0999994000
    vertex -0.0313950000 -0.4990130000 1.0000000000
  endloop
endfacet
facet normal -0.1253383126 -0.9921140597 0.0000000000
  outer loop
    vertex -0.0313950000 -0.4990130000 0.0999994000
    vertex -0.0936899000 -0.4911430000 1.0000000000
    vertex -0.0936899000 -0.4911430000 0.0999994000
  endloop
endfacet
facet normal -0.7705151515 -0.6374216825 0.0000000000
  outer loop
    vertex -0.3644840000 -0.3422730000 1.0000000000
    vertex -0.4045080000 -0.2938920000 1.0000000000
    vertex -0.4045080000 -0.2938920000 0.0999994000
  endloop
endfacet
facet normal -0.7705151515 -0.6374216825 0.0000000000
  outer loop
    vertex -0.4045080000 -0.2938920000 0.0999994000
    vertex -0.3644840000 -0.3422730000 0.0999994000
    vertex -0.3644840000 -0.3422730000 1.0000000000
  endloop
endfacet
facet normal -0.8443277575 -0.5358270598 0.0000000000
  outer loop
    vertex -0.4045080000 -0.2938920000 1.0000000000
    vertex -0.4381530000 -0.2408760000 1.0000000000
    vertex -0.4381530000 -0.2408760000 0.0999994000
  endloop
endfacet
facet normal -0.8443277575 -0.5358270598 0.0000000000
  outer loop
    vertex -0.4381530000 -0.2408760000 0.0999994000
    vertex -0.4045080000 -0.2938920000 0.0999994000
    vertex -0.4045080000 -0.2938920000 1.0000000000
  endloop
endfacet
facet normal -0.9822870092 -0.1873825810 0.0000000000
  outer loop
    vertex -0.4842910000 -0.1243450000 1.0000000000
    vertex -0.4960570000 -0.0626659000 1.0000000000
    vertex -0.4960570000 -0.0626659000 0.0999994000
  endloop
endfacet
facet normal -0.9822870092 -0.1873825810 0.0000000000
  outer loop
    vertex -0.4960570000 -0.0626659000 0.0999994000
    vertex -0.4842910000 -0.1243450000 0.0999994000
    vertex -0.4842910000 -0.1243450000 1.0000000000
  endloop
endfacet
facet normal 0.6845411135 -0.7289742547 0.0000000000
  outer loop
    vertex 0.3187110000 -0.3852560000 1.0000000000
    vertex 0.3644840000 -0.3422730000 0.0999994000
    vertex 0.3644840000 -0.3422730000 1.0000000000
  endloop
endfacet
facet normal 0.6845411135 -0.7289742547 0.0000000000
  outer loop
    vertex 0.3644840000 -0.3422730000 0.0999994000
    vertex 0.3187110000 -0.3852560000 1.0000000000
    vertex 0.3187110000 -0.3852560000 0.0999994000
  endloop
endfacet
facet normal -0.4817573432 -0.8763046629 0.0000000000
  outer loop
    vertex -0.2679130000 -0.4221630000 1.0000000000
    vertex -0.2128890000 -0.4524130000 0.0999994000
    vertex -0.2128890000 -0.4524130000 1.0000000000
  endloop
endfacet
facet normal -0.4817573432 -0.8763046629 0.0000000000
  outer loop
    vertex -0.2128890000 -0.4524130000 0.0999994000
    vertex -0.2679130000 -0.4221630000 1.0000000000
    vertex -0.2679130000 -0.4221630000 0.0999994000
  endloop
endfacet
facet normal -0.5877862182 -0.8090162926 0.0000000000
  outer loop
    vertex -0.3187110000 -0.3852560000 1.0000000000
    vertex -0.2679130000 -0.4221630000 0.0999994000
    vertex -0.2679130000 -0.4221630000 1.0000000000
  endloop
endfacet
facet normal -0.5877862182 -0.8090162926 0.0000000000
  outer loop
    vertex -0.2679130000 -0.4221630000 0.0999994000
    vertex -0.3187110000 -0.3852560000 1.0000000000
    vertex -0.3187110000 -0.3852560000 0.0999994000
  endloop
endfacet
facet normal -0.3681290536 -0.9297747038 0.0000000000
  outer loop
    vertex -0.2128890000 -0.4524130000 1.0000000000
    vertex -0.1545080000 -0.4755280000 0.0999994000
    vertex -0.1545080000 -0.4755280000 1.0000000000
  endloop
endfacet
facet normal -0.3681290536 -0.9297747038 0.0000000000
  outer loop
    vertex -0.1545080000 -0.4755280000 0.0999994000
    vertex -0.2128890000 -0.4524130000 1.0000000000
    vertex -0.2128890000 -0.4524130000 0.0999994000
  endloop
endfacet
endsolid REINCARNATE
