solid OpenSCAD_Model
  facet normal 0.866025 0.5 0
    outer loop
      vertex 1 0 1
      vertex 0.5 0.866025 0
      vertex 0.5 0.866025 1
    endloop
  endfacet
  facet normal 0.866025 0.5 0
    outer loop
      vertex 0.5 0.866025 0
      vertex 1 0 1
      vertex 1 0 0
    endloop
  endfacet
  facet normal 0 1 -0
    outer loop
      vertex 0.5 0.866025 0
      vertex -0.5 0.866025 1
      vertex 0.5 0.866025 1
    endloop
  endfacet
  facet normal 0 1 0
    outer loop
      vertex -0.5 0.866025 1
      vertex 0.5 0.866025 0
      vertex -0.5 0.866025 0
    endloop
  endfacet
  facet normal -0.866025 0.5 0
    outer loop
      vertex -1 1.22465e-16 0
      vertex -0.5 0.866025 1
      vertex -0.5 0.866025 0
    endloop
  endfacet
  facet normal -0.866025 0.5 0
    outer loop
      vertex -0.5 0.866025 1
      vertex -1 1.22465e-16 0
      vertex -1 1.22465e-16 1
    endloop
  endfacet
  facet normal -0.866025 -0.5 0
    outer loop
      vertex -0.5 -0.866025 0
      vertex -1 1.22465e-16 1
      vertex -1 1.22465e-16 0
    endloop
  endfacet
  facet normal -0.866025 -0.5 0
    outer loop
      vertex -1 1.22465e-16 1
      vertex -0.5 -0.866025 0
      vertex -0.5 -0.866025 1
    endloop
  endfacet
  facet normal 0 -1 0
    outer loop
      vertex -0.5 -0.866025 0
      vertex 0.5 -0.866025 1
      vertex -0.5 -0.866025 1
    endloop
  endfacet
  facet normal 0 -1 -0
    outer loop
      vertex 0.5 -0.866025 1
      vertex -0.5 -0.866025 0
      vertex 0.5 -0.866025 0
    endloop
  endfacet
  facet normal 0.866025 -0.5 0
    outer loop
      vertex 0.5 -0.866025 1
      vertex 1 0 0
      vertex 1 0 1
    endloop
  endfacet
  facet normal 0.866025 -0.5 0
    outer loop
      vertex 1 0 0
      vertex 0.5 -0.866025 1
      vertex 0.5 -0.866025 0
    endloop
  endfacet
  facet normal 0 0 -1
    outer loop
      vertex 0.5 -0.866025 0
      vertex 0.5 0.866025 0
      vertex 1 0 0
    endloop
  endfacet
  facet normal 0 0 -1
    outer loop
      vertex -0.5 -0.866025 0
      vertex 0.5 0.866025 0
      vertex 0.5 -0.866025 0
    endloop
  endfacet
  facet normal 0 0 -1
    outer loop
      vertex -0.5 -0.866025 0
      vertex -0.5 0.866025 0
      vertex 0.5 0.866025 0
    endloop
  endfacet
  facet normal 0 -0 -1
    outer loop
      vertex -0.5 0.866025 0
      vertex -0.5 -0.866025 0
      vertex -1 1.22465e-16 0
    endloop
  endfacet
  facet normal 0 0 1
    outer loop
      vertex 0.5 0.866025 1
      vertex 0.5 -0.866025 1
      vertex 1 0 1
    endloop
  endfacet
  facet normal -0 0 1
    outer loop
      vertex -0.5 0.866025 1
      vertex 0.5 -0.866025 1
      vertex 0.5 0.866025 1
    endloop
  endfacet
  facet normal 0 0 1
    outer loop
      vertex -0.5 0.866025 1
      vertex -0.5 -0.866025 1
      vertex 0.5 -0.866025 1
    endloop
  endfacet
  facet normal 0 -0 1
    outer loop
      vertex -0.5 -0.866025 1
      vertex -0.5 0.866025 1
      vertex -1 1.22465e-16 1
    endloop
  endfacet
endsolid OpenSCAD_Model
