solid OpenSCAD_Model
  facet normal 0.587785 0.809017 -0
    outer loop
      vertex 0.951057 0.309017 0
      vertex 0 1 1
      vertex 0.951057 0.309017 1
    endloop
  endfacet
  facet normal 0.587785 0.809017 0
    outer loop
      vertex 0 1 1
      vertex 0.951057 0.309017 0
      vertex 0 1 0
    endloop
  endfacet
  facet normal -0.587785 0.809017 0
    outer loop
      vertex 0 1 0
      vertex -0.951057 0.309017 1
      vertex 0 1 1
    endloop
  endfacet
  facet normal -0.587785 0.809017 0
    outer loop
      vertex -0.951057 0.309017 1
      vertex 0 1 0
      vertex -0.951057 0.309017 0
    endloop
  endfacet
  facet normal -0.951057 -0.309017 0
    outer loop
      vertex -0.587785 -0.809017 0
      vertex -0.951057 0.309017 1
      vertex -0.951057 0.309017 0
    endloop
  endfacet
  facet normal -0.951057 -0.309017 0
    outer loop
      vertex -0.951057 0.309017 1
      vertex -0.587785 -0.809017 0
      vertex -0.587785 -0.809017 1
    endloop
  endfacet
  facet normal 0 -1 0
    outer loop
      vertex -0.587785 -0.809017 0
      vertex 0.587785 -0.809017 1
      vertex -0.587785 -0.809017 1
    endloop
  endfacet
  facet normal 0 -1 -0
    outer loop
      vertex 0.587785 -0.809017 1
      vertex -0.587785 -0.809017 0
      vertex 0.587785 -0.809017 0
    endloop
  endfacet
  facet normal 0.951057 -0.309017 0
    outer loop
      vertex 0.587785 -0.809017 1
      vertex 0.951057 0.309017 0
      vertex 0.951057 0.309017 1
    endloop
  endfacet
  facet normal 0.951057 -0.309017 0
    outer loop
      vertex 0.951057 0.309017 0
      vertex 0.587785 -0.809017 1
      vertex 0.587785 -0.809017 0
    endloop
  endfacet
  facet normal 0 0 -1
    outer loop
      vertex 0.587785 -0.809017 0
      vertex 0 1 0
      vertex 0.951057 0.309017 0
    endloop
  endfacet
  facet normal 0 0 -1
    outer loop
      vertex -0.587785 -0.809017 0
      vertex 0 1 0
      vertex 0.587785 -0.809017 0
    endloop
  endfacet
  facet normal 0 0 -1
    outer loop
      vertex 0 1 0
      vertex -0.587785 -0.809017 0
      vertex -0.951057 0.309017 0
    endloop
  endfacet
  facet normal 0 0 1
    outer loop
      vertex 0 1 1
      vertex 0.587785 -0.809017 1
      vertex 0.951057 0.309017 1
    endloop
  endfacet
  facet normal 0 0 1
    outer loop
      vertex 0 1 1
      vertex -0.587785 -0.809017 1
      vertex 0.587785 -0.809017 1
    endloop
  endfacet
  facet normal 0 -0 1
    outer loop
      vertex -0.587785 -0.809017 1
      vertex 0 1 1
      vertex -0.951057 0.309017 1
    endloop
  endfacet
endsolid OpenSCAD_Model
