solid REINCARNATE
facet normal 0.0000000000 0.0000000000 1.0000000000
  outer loop
    vertex 0.0000000000 0.0000000000 0.0000000000
    vertex 5.0000000000 0.0000000000 0.0000000000
    vertex 5.0000000000 5.0000000000 0.0000000000
  endloop
endfacet
facet normal 0.0000000000 0.0000000000 1.0000000000
  outer loop
    vertex 5.0000000000 5.0000000000 0.0000000000
    vertex 0.0000000000 5.0000000000 0.0000000000
    vertex 0.0000000000 0.0000000000 0.0000000000
  endloop
endfacet
facet normal 0.0000000000 0.0000000000 -1.0000000000
  outer loop
    vertex 5.0000000000 5.0000000000 5.0000000000
    vertex 5.0000000000 0.0000000000 5.0000000000
    vertex 0.0000000000 0.0000000000 5.0000000000
  endloop
endfacet
facet normal 0.0000000000 0.0000000000 -1.0000000000
  outer loop
    vertex 0.0000000000 0.0000000000 5.0000000000
    vertex 0.0000000000 5.0000000000 5.0000000000
    vertex 5.0000000000 5.0000000000 5.0000000000
  endloop
endfacet
facet normal 0.0000000000 1.0000000000 0.0000000000
  outer loop
    vertex 0.0000000000 0.0000000000 0.0000000000
    vertex 1.5000000000 0.0000000000 1.0000000000
    vertex 5.0000000000 0.0000000000 0.0000000000
  endloop
endfacet
facet normal -0.0000000000 1.0000000000 0.0000000000
  outer loop
    vertex 1.5000000000 0.0000000000 1.0000000000
    vertex 2.0000000000 0.0000000000 1.0000000000
    vertex 5.0000000000 0.0000000000 0.0000000000
  endloop
endfacet
facet normal 0.0000000000 1.0000000000 0.0000000000
  outer loop
    vertex 2.0000000000 0.0000000000 1.0000000000
    vertex 2.0000000000 0.0000000000 1.3333333333
    vertex 3.0000000000 0.0000000000 2.0000000000
  endloop
endfacet
facet normal -0.0000000000 1.0000000000 0.0000000000
  outer loop
    vertex 2.0000000000 0.0000000000 1.0000000000
    vertex 3.0000000000 0.0000000000 2.0000000000
    vertex 5.0000000000 0.0000000000 0.0000000000
  endloop
endfacet
facet normal -0.0000000000 1.0000000000 0.0000000000
  outer loop
    vertex 3.0000000000 0.0000000000 2.0000000000
    vertex 4.0000000000 0.0000000000 2.0000000000
    vertex 5.0000000000 0.0000000000 0.0000000000
  endloop
endfacet
facet normal 0.0000000000 1.0000000000 0.0000000000
  outer loop
    vertex 4.0000000000 0.0000000000 2.0000000000
    vertex 4.0000000000 0.0000000000 3.0000000000
    vertex 5.0000000000 0.0000000000 5.0000000000
  endloop
endfacet
facet normal 0.0000000000 1.0000000000 0.0000000000
  outer loop
    vertex 5.0000000000 0.0000000000 5.0000000000
    vertex 4.0000000000 0.0000000000 3.0000000000
    vertex 3.6666666667 0.0000000000 3.0000000000
  endloop
endfacet
facet normal -0.0000000000 1.0000000000 0.0000000000
  outer loop
    vertex 5.0000000000 0.0000000000 5.0000000000
    vertex 5.0000000000 0.0000000000 0.0000000000
    vertex 4.0000000000 0.0000000000 2.0000000000
  endloop
endfacet
facet normal 0.0000000000 1.0000000000 0.0000000000
  outer loop
    vertex 3.0000000000 0.0000000000 3.0000000000
    vertex 3.0000000000 0.0000000000 2.0000000000
    vertex 2.0000000000 0.0000000000 2.0000000000
  endloop
endfacet
facet normal 0.0000000000 1.0000000000 0.0000000000
  outer loop
    vertex 2.0000000000 0.0000000000 1.5000000000
    vertex 2.0000000000 0.0000000000 2.0000000000
    vertex 3.0000000000 0.0000000000 2.0000000000
  endloop
endfacet
facet normal 0.0000000000 1.0000000000 0.0000000000
  outer loop
    vertex 0.0000000000 0.0000000000 0.0000000000
    vertex 1.0000000000 0.0000000000 1.0000000000
    vertex 1.5000000000 0.0000000000 1.0000000000
  endloop
endfacet
facet normal 0.0000000000 1.0000000000 0.0000000000
  outer loop
    vertex 2.0000000000 0.0000000000 1.3333333333
    vertex 2.0000000000 0.0000000000 1.5000000000
    vertex 3.0000000000 0.0000000000 2.0000000000
  endloop
endfacet
facet normal 0.0000000000 1.0000000000 0.0000000000
  outer loop
    vertex 5.0000000000 0.0000000000 5.0000000000
    vertex 3.6666666667 0.0000000000 3.0000000000
    vertex 3.0000000000 0.0000000000 3.0000000000
  endloop
endfacet
facet normal 0.0000000000 1.0000000000 0.0000000000
  outer loop
    vertex 0.0000000000 0.0000000000 0.0000000000
    vertex 0.0000000000 0.0000000000 5.0000000000
    vertex 1.0000000000 0.0000000000 1.0000000000
  endloop
endfacet
facet normal 0.0000000000 1.0000000000 0.0000000000
  outer loop
    vertex 3.0000000000 0.0000000000 3.0000000000
    vertex 1.0000000000 0.0000000000 2.0000000000
    vertex 0.0000000000 0.0000000000 5.0000000000
  endloop
endfacet
facet normal 0.0000000000 1.0000000000 0.0000000000
  outer loop
    vertex 1.0000000000 0.0000000000 2.0000000000
    vertex 1.0000000000 0.0000000000 1.0000000000
    vertex 0.0000000000 0.0000000000 5.0000000000
  endloop
endfacet
facet normal 0.0000000000 1.0000000000 0.0000000000
  outer loop
    vertex 3.0000000000 0.0000000000 3.0000000000
    vertex 2.0000000000 0.0000000000 2.0000000000
    vertex 1.0000000000 0.0000000000 2.0000000000
  endloop
endfacet
facet normal -0.0000000000 1.0000000000 0.0000000000
  outer loop
    vertex 5.0000000000 0.0000000000 5.0000000000
    vertex 3.0000000000 0.0000000000 3.0000000000
    vertex 0.0000000000 0.0000000000 5.0000000000
  endloop
endfacet
facet normal 0.0000000000 -1.0000000000 0.0000000000
  outer loop
    vertex 5.0000000000 5.0000000000 0.0000000000
    vertex 2.0000000000 5.0000000000 1.0000000000
    vertex 0.0000000000 5.0000000000 0.0000000000
  endloop
endfacet
facet normal 0.0000000000 -1.0000000000 0.0000000000
  outer loop
    vertex 5.0000000000 5.0000000000 0.0000000000
    vertex 4.0000000000 5.0000000000 2.0000000000
    vertex 2.0000000000 5.0000000000 1.0000000000
  endloop
endfacet
facet normal 0.0000000000 -1.0000000000 0.0000000000
  outer loop
    vertex 4.0000000000 5.0000000000 2.0000000000
    vertex 5.0000000000 5.0000000000 0.0000000000
    vertex 5.0000000000 5.0000000000 5.0000000000
  endloop
endfacet
facet normal 0.0000000000 -1.0000000000 0.0000000000
  outer loop
    vertex 3.0000000000 5.0000000000 2.0000000000
    vertex 2.0000000000 5.0000000000 1.5000000000
    vertex 2.0000000000 5.0000000000 1.3333333333
  endloop
endfacet
facet normal 0.0000000000 -1.0000000000 0.0000000000
  outer loop
    vertex 1.5000000000 5.0000000000 1.0000000000
    vertex 1.0000000000 5.0000000000 1.0000000000
    vertex 0.0000000000 5.0000000000 0.0000000000
  endloop
endfacet
facet normal 0.0000000000 -1.0000000000 0.0000000000
  outer loop
    vertex 2.0000000000 5.0000000000 2.0000000000
    vertex 3.0000000000 5.0000000000 2.0000000000
    vertex 3.0000000000 5.0000000000 3.0000000000
  endloop
endfacet
facet normal 0.0000000000 -1.0000000000 0.0000000000
  outer loop
    vertex 3.0000000000 5.0000000000 2.0000000000
    vertex 2.0000000000 5.0000000000 2.0000000000
    vertex 2.0000000000 5.0000000000 1.5000000000
  endloop
endfacet
facet normal 0.0000000000 -1.0000000000 0.0000000000
  outer loop
    vertex 3.0000000000 5.0000000000 3.0000000000
    vertex 3.6666666667 5.0000000000 3.0000000000
    vertex 5.0000000000 5.0000000000 5.0000000000
  endloop
endfacet
facet normal 0.0000000000 -1.0000000000 0.0000000000
  outer loop
    vertex 2.0000000000 5.0000000000 1.0000000000
    vertex 1.5000000000 5.0000000000 1.0000000000
    vertex 0.0000000000 5.0000000000 0.0000000000
  endloop
endfacet
facet normal 0.0000000000 -1.0000000000 0.0000000000
  outer loop
    vertex 3.0000000000 5.0000000000 2.0000000000
    vertex 2.0000000000 5.0000000000 1.3333333333
    vertex 2.0000000000 5.0000000000 1.0000000000
  endloop
endfacet
facet normal 0.0000000000 -1.0000000000 0.0000000000
  outer loop
    vertex 4.0000000000 5.0000000000 2.0000000000
    vertex 3.0000000000 5.0000000000 2.0000000000
    vertex 2.0000000000 5.0000000000 1.0000000000
  endloop
endfacet
facet normal 0.0000000000 -1.0000000000 0.0000000000
  outer loop
    vertex 3.6666666667 5.0000000000 3.0000000000
    vertex 4.0000000000 5.0000000000 3.0000000000
    vertex 5.0000000000 5.0000000000 5.0000000000
  endloop
endfacet
facet normal 0.0000000000 -1.0000000000 0.0000000000
  outer loop
    vertex 5.0000000000 5.0000000000 5.0000000000
    vertex 4.0000000000 5.0000000000 3.0000000000
    vertex 4.0000000000 5.0000000000 2.0000000000
  endloop
endfacet
facet normal 0.0000000000 -1.0000000000 0.0000000000
  outer loop
    vertex 1.0000000000 5.0000000000 1.0000000000
    vertex 0.0000000000 5.0000000000 5.0000000000
    vertex 0.0000000000 5.0000000000 0.0000000000
  endloop
endfacet
facet normal 0.0000000000 -1.0000000000 0.0000000000
  outer loop
    vertex 0.0000000000 5.0000000000 5.0000000000
    vertex 2.0000000000 5.0000000000 2.0000000000
    vertex 3.0000000000 5.0000000000 3.0000000000
  endloop
endfacet
facet normal 0.0000000000 -1.0000000000 0.0000000000
  outer loop
    vertex 0.0000000000 5.0000000000 5.0000000000
    vertex 1.0000000000 5.0000000000 1.0000000000
    vertex 1.0000000000 5.0000000000 2.0000000000
  endloop
endfacet
facet normal 0.0000000000 -1.0000000000 0.0000000000
  outer loop
    vertex 0.0000000000 5.0000000000 5.0000000000
    vertex 1.0000000000 5.0000000000 2.0000000000
    vertex 2.0000000000 5.0000000000 2.0000000000
  endloop
endfacet
facet normal 0.0000000000 -1.0000000000 0.0000000000
  outer loop
    vertex 0.0000000000 5.0000000000 5.0000000000
    vertex 3.0000000000 5.0000000000 3.0000000000
    vertex 5.0000000000 5.0000000000 5.0000000000
  endloop
endfacet
facet normal 1.0000000000 0.0000000000 0.0000000000
  outer loop
    vertex 0.0000000000 0.0000000000 0.0000000000
    vertex 0.0000000000 5.0000000000 0.0000000000
    vertex 0.0000000000 5.0000000000 5.0000000000
  endloop
endfacet
facet normal 1.0000000000 0.0000000000 0.0000000000
  outer loop
    vertex 0.0000000000 5.0000000000 5.0000000000
    vertex 0.0000000000 0.0000000000 5.0000000000
    vertex 0.0000000000 0.0000000000 0.0000000000
  endloop
endfacet
facet normal -1.0000000000 0.0000000000 0.0000000000
  outer loop
    vertex 5.0000000000 5.0000000000 5.0000000000
    vertex 5.0000000000 5.0000000000 0.0000000000
    vertex 5.0000000000 0.0000000000 0.0000000000
  endloop
endfacet
facet normal -1.0000000000 0.0000000000 0.0000000000
  outer loop
    vertex 5.0000000000 0.0000000000 0.0000000000
    vertex 5.0000000000 0.0000000000 5.0000000000
    vertex 5.0000000000 5.0000000000 5.0000000000
  endloop
endfacet
facet normal 0.0000000000 0.0000000000 -1.0000000000
  outer loop
    vertex 4.0000000000 5.0000000000 2.0000000000
    vertex 4.0000000000 0.0000000000 2.0000000000
    vertex 3.0000000000 0.0000000000 2.0000000000
  endloop
endfacet
facet normal 0.0000000000 0.0000000000 -1.0000000000
  outer loop
    vertex 3.0000000000 0.0000000000 2.0000000000
    vertex 3.0000000000 5.0000000000 2.0000000000
    vertex 4.0000000000 5.0000000000 2.0000000000
  endloop
endfacet
facet normal 0.0000000000 0.0000000000 1.0000000000
  outer loop
    vertex 3.0000000000 0.0000000000 3.0000000000
    vertex 3.6666666667 0.0000000000 3.0000000000
    vertex 4.0000000000 5.0000000000 3.0000000000
  endloop
endfacet
facet normal 0.0000000000 0.0000000000 1.0000000000
  outer loop
    vertex 3.6666666667 0.0000000000 3.0000000000
    vertex 4.0000000000 0.0000000000 3.0000000000
    vertex 4.0000000000 5.0000000000 3.0000000000
  endloop
endfacet
facet normal 0.0000000000 0.0000000000 1.0000000000
  outer loop
    vertex 4.0000000000 5.0000000000 3.0000000000
    vertex 3.6666666667 5.0000000000 3.0000000000
    vertex 3.0000000000 0.0000000000 3.0000000000
  endloop
endfacet
facet normal 0.0000000000 0.0000000000 1.0000000000
  outer loop
    vertex 3.6666666667 5.0000000000 3.0000000000
    vertex 3.0000000000 5.0000000000 3.0000000000
    vertex 3.0000000000 0.0000000000 3.0000000000
  endloop
endfacet
facet normal -1.0000000000 0.0000000000 0.0000000000
  outer loop
    vertex 3.0000000000 5.0000000000 3.0000000000
    vertex 3.0000000000 5.0000000000 2.0000000000
    vertex 3.0000000000 0.0000000000 2.0000000000
  endloop
endfacet
facet normal -1.0000000000 0.0000000000 0.0000000000
  outer loop
    vertex 3.0000000000 0.0000000000 2.0000000000
    vertex 3.0000000000 0.0000000000 3.0000000000
    vertex 3.0000000000 5.0000000000 3.0000000000
  endloop
endfacet
facet normal 1.0000000000 0.0000000000 0.0000000000
  outer loop
    vertex 4.0000000000 0.0000000000 2.0000000000
    vertex 4.0000000000 5.0000000000 2.0000000000
    vertex 4.0000000000 5.0000000000 3.0000000000
  endloop
endfacet
facet normal 1.0000000000 0.0000000000 0.0000000000
  outer loop
    vertex 4.0000000000 5.0000000000 3.0000000000
    vertex 4.0000000000 0.0000000000 3.0000000000
    vertex 4.0000000000 0.0000000000 2.0000000000
  endloop
endfacet
facet normal 0.0000000000 0.0000000000 -1.0000000000
  outer loop
    vertex 2.0000000000 5.0000000000 1.0000000000
    vertex 2.0000000000 0.0000000000 1.0000000000
    vertex 1.5000000000 0.0000000000 1.0000000000
  endloop
endfacet
facet normal 0.0000000000 0.0000000000 -1.0000000000
  outer loop
    vertex 2.0000000000 5.0000000000 1.0000000000
    vertex 1.5000000000 0.0000000000 1.0000000000
    vertex 1.0000000000 0.0000000000 1.0000000000
  endloop
endfacet
facet normal 0.0000000000 0.0000000000 -1.0000000000
  outer loop
    vertex 1.0000000000 0.0000000000 1.0000000000
    vertex 1.5000000000 5.0000000000 1.0000000000
    vertex 2.0000000000 5.0000000000 1.0000000000
  endloop
endfacet
facet normal 0.0000000000 0.0000000000 -1.0000000000
  outer loop
    vertex 1.0000000000 0.0000000000 1.0000000000
    vertex 1.0000000000 5.0000000000 1.0000000000
    vertex 1.5000000000 5.0000000000 1.0000000000
  endloop
endfacet
facet normal 0.0000000000 0.0000000000 1.0000000000
  outer loop
    vertex 1.0000000000 0.0000000000 2.0000000000
    vertex 2.0000000000 0.0000000000 2.0000000000
    vertex 2.0000000000 5.0000000000 2.0000000000
  endloop
endfacet
facet normal 0.0000000000 0.0000000000 1.0000000000
  outer loop
    vertex 2.0000000000 5.0000000000 2.0000000000
    vertex 1.0000000000 5.0000000000 2.0000000000
    vertex 1.0000000000 0.0000000000 2.0000000000
  endloop
endfacet
facet normal -1.0000000000 0.0000000000 0.0000000000
  outer loop
    vertex 1.0000000000 5.0000000000 2.0000000000
    vertex 1.0000000000 5.0000000000 1.0000000000
    vertex 1.0000000000 0.0000000000 1.0000000000
  endloop
endfacet
facet normal -1.0000000000 0.0000000000 0.0000000000
  outer loop
    vertex 1.0000000000 0.0000000000 1.0000000000
    vertex 1.0000000000 0.0000000000 2.0000000000
    vertex 1.0000000000 5.0000000000 2.0000000000
  endloop
endfacet
facet normal 1.0000000000 0.0000000000 0.0000000000
  outer loop
    vertex 2.0000000000 0.0000000000 1.0000000000
    vertex 2.0000000000 5.0000000000 1.5000000000
    vertex 2.0000000000 5.0000000000 2.0000000000
  endloop
endfacet
facet normal 1.0000000000 0.0000000000 0.0000000000
  outer loop
    vertex 2.0000000000 0.0000000000 1.0000000000
    vertex 2.0000000000 5.0000000000 1.3333333333
    vertex 2.0000000000 5.0000000000 1.5000000000
  endloop
endfacet
facet normal 1.0000000000 0.0000000000 0.0000000000
  outer loop
    vertex 2.0000000000 0.0000000000 1.0000000000
    vertex 2.0000000000 5.0000000000 1.0000000000
    vertex 2.0000000000 5.0000000000 1.3333333333
  endloop
endfacet
facet normal 1.0000000000 0.0000000000 0.0000000000
  outer loop
    vertex 2.0000000000 5.0000000000 2.0000000000
    vertex 2.0000000000 0.0000000000 1.5000000000
    vertex 2.0000000000 0.0000000000 1.3333333333
  endloop
endfacet
facet normal 1.0000000000 0.0000000000 0.0000000000
  outer loop
    vertex 2.0000000000 5.0000000000 2.0000000000
    vertex 2.0000000000 0.0000000000 2.0000000000
    vertex 2.0000000000 0.0000000000 1.5000000000
  endloop
endfacet
facet normal 1.0000000000 0.0000000000 0.0000000000
  outer loop
    vertex 2.0000000000 5.0000000000 2.0000000000
    vertex 2.0000000000 0.0000000000 1.3333333333
    vertex 2.0000000000 0.0000000000 1.0000000000
  endloop
endfacet
endsolid REINCARNATE