solid REINCARNATE
facet normal 0.0000000000 0.0000000000 1.0000000000
  outer loop
    vertex 0.0000000000 0.0000000000 0.0000000000
    vertex 1.0000000000 0.0000000000 0.0000000000
    vertex 1.0000000000 1.0000000000 0.0000000000
  endloop
endfacet
facet normal 0.0000000000 0.0000000000 1.0000000000
  outer loop
    vertex 1.0000000000 1.0000000000 0.0000000000
    vertex 0.0000000000 1.0000000000 0.0000000000
    vertex 0.0000000000 0.0000000000 0.0000000000
  endloop
endfacet
facet normal 0.0000000000 0.0000000000 -1.0000000000
  outer loop
    vertex 1.0000000000 1.0000000000 1.0000000000
    vertex 1.0000000000 0.0000000000 1.0000000000
    vertex 0.0000000000 0.0000000000 1.0000000000
  endloop
endfacet
facet normal 0.0000000000 0.0000000000 -1.0000000000
  outer loop
    vertex 0.0000000000 0.0000000000 1.0000000000
    vertex 0.0000000000 1.0000000000 1.0000000000
    vertex 1.0000000000 1.0000000000 1.0000000000
  endloop
endfacet
facet normal 0.0000000000 1.0000000000 0.0000000000
  outer loop
    vertex 1.0000000000 0.0000000000 1.0000000000
    vertex 1.0000000000 0.0000000000 0.0000000000
    vertex 0.0000000000 0.0000000000 0.0000000000
  endloop
endfacet
facet normal 0.0000000000 1.0000000000 0.0000000000
  outer loop
    vertex 0.0000000000 0.0000000000 0.0000000000
    vertex 0.0000000000 0.0000000000 1.0000000000
    vertex 1.0000000000 0.0000000000 1.0000000000
  endloop
endfacet
facet normal 0.0000000000 -1.0000000000 0.0000000000
  outer loop
    vertex 0.0000000000 1.0000000000 0.0000000000
    vertex 1.0000000000 1.0000000000 0.0000000000
    vertex 1.0000000000 1.0000000000 1.0000000000
  endloop
endfacet
facet normal 0.0000000000 -1.0000000000 0.0000000000
  outer loop
    vertex 1.0000000000 1.0000000000 1.0000000000
    vertex 0.0000000000 1.0000000000 1.0000000000
    vertex 0.0000000000 1.0000000000 0.0000000000
  endloop
endfacet
facet normal 1.0000000000 0.0000000000 0.0000000000
  outer loop
    vertex 0.0000000000 0.0000000000 0.0000000000
    vertex 0.0000000000 1.0000000000 0.0000000000
    vertex 0.0000000000 1.0000000000 1.0000000000
  endloop
endfacet
facet normal 1.0000000000 0.0000000000 0.0000000000
  outer loop
    vertex 0.0000000000 1.0000000000 1.0000000000
    vertex 0.0000000000 0.0000000000 1.0000000000
    vertex 0.0000000000 0.0000000000 0.0000000000
  endloop
endfacet
facet normal -1.0000000000 0.0000000000 0.0000000000
  outer loop
    vertex 1.0000000000 1.0000000000 1.0000000000
    vertex 1.0000000000 1.0000000000 0.0000000000
    vertex 1.0000000000 0.0000000000 0.0000000000
  endloop
endfacet
facet normal -1.0000000000 0.0000000000 0.0000000000
  outer loop
    vertex 1.0000000000 0.0000000000 0.0000000000
    vertex 1.0000000000 0.0000000000 1.0000000000
    vertex 1.0000000000 1.0000000000 1.0000000000
  endloop
endfacet
endsolid REINCARNATE